<?xml version="1.0" encoding="utf-8"?>
<!-- Generator: Adobe Illustrator 22.0.1, SVG Export Plug-In . SVG Version: 6.00 Build 0)  -->
<svg version="1.1" id="Layer_1" xmlns="http://www.w3.org/2000/svg" xmlns:xlink="http://www.w3.org/1999/xlink" x="0px" y="0px"
	 viewBox="0 0 170.7 146.9" style="enable-background:new 0 0 170.7 146.9;" xml:space="preserve">
<style type="text/css">
	.st0{fill:#BF7334;}
	.st1{fill:#1E2537;}
	.st2{fill:#FFFFFF;}
	.st3{fill:#00BACC;}
	.st4{fill:#C8C3FC;}
</style>
<path class="st0" d="M48.3,98.3l1-11.2L48,75l-16.1-3.8l-1-16.3l6.9-17.7l16.8-7.7L81,41.6l0.3,22.9l-2.6,8c0,0,1,11.2-6.2,13.1
	c-7.3,2-3.3,1-3.3,1s-1,5.1,0.8,11.8c0,0-0.9,5.9-5.1,4.9s-3.6-3.4-10.4-2.7l-3.6,2L48.3,98.3z"/>
<g>
	<path class="st1" d="M103.4,114c1.6,2,3.1,4.2,4.2,5.9c0.3,0.5,0.7,0.9,1,1.4c0.7,1.1,1.4,2.5,2.2,3.6c0.1,0.1,0.3,0.3,0.4,0.4
		c0.6,0.9,1.1,2.1,1.8,3.1c0.5,0.7,0.7,1.4,1.1,2.1c0.3,0.5,0.7,0.9,0.9,1.4c0.9,1.4,1.5,2.8,2.2,4.1c0.5,1,1.1,2,1.5,3
		c0.2,0.4,0.4,0.9,0.6,1.3c0.1,0.1,0,0.4,0.1,0.5c0.1,0.4,0.5,1,0.7,1.6c0.3,0.8,0.5,1.6,0.7,2c0.3,0.5,1.2,1.2,1.5,1.1
		c0.3-0.1,0.6-0.8,0.5-1.2c0-0.5-0.5-1.2-0.5-1.7c-1-2-2.1-4.1-3-5.9c-0.6-1.2-1.2-2.4-1.8-3.6c-0.2-0.4-0.4-0.7-0.6-1
		c-0.6-1.1-1.1-2.2-1.6-3c-0.4-0.5-0.6-1.2-1-1.8c-0.5-0.8-1.1-1.5-1.6-2.3c-0.4-1.2-1.6-2.7-2.3-3.9c-1.6-2.9-4-5.6-5.9-8.4
		c-0.7-0.6-1.2-1.5-1.7-2.1c-0.3-0.3-0.6-0.6-1-0.9c-0.9-0.9-1.9-2-3-2.7c-0.3-0.2-0.6-0.2-0.8-0.4c-0.2-0.1-0.4-0.4-0.7-0.5
		c-0.4-0.2-0.9-0.4-1.3-0.6c-0.7-0.4-1.4-0.6-2-0.9c-0.6-0.3-1.2-0.6-1.7-0.9c-0.6-0.1-1.4-0.5-2.1-0.8c-0.9-0.3-1.7-0.8-2.7-1
		c-0.2-0.1-0.5-0.1-0.7-0.1c-0.9-0.3-2.1-0.7-2.8-1c-0.5-0.2-1.1-0.3-1.7-0.4c-0.2-0.1-0.5-0.2-0.7-0.3c-0.6-0.2-1.3-0.3-2-0.5
		c-1.1-0.3-2.3-0.6-3.4-0.9c-0.2-0.1-0.1,0.2-0.4,0.1c-0.6-0.3-1.3-0.6-2.1-0.8c-0.6-0.2-1.2-0.3-1.8-0.4c-0.3-0.1-0.6-0.1-0.9-0.2
		c-0.2,0-0.5-0.1-0.7-0.1c-0.1,0-0.1-0.1-0.1-0.2c0-0.1,0-0.1-0.1-0.2c-0.1-0.2-0.2-0.4-0.3-0.6c-0.2-1.5-0.3-4-0.4-5.8
		c-0.2-0.5-0.1-1.5-0.3-1.9c0.2-1.4-0.3-2.4-1.1-1.6c-0.2,0.6-0.4,0.9-0.5,1.6c-0.1,0.7,0.1,1.4,0.1,2.1c0,0.3-0.1,0.7-0.1,1
		c0,0.6,0.1,1.2,0.1,1.8c0,0.3-0.1,0.6,0,0.8c0,0.3,0.2,0.5,0.2,0.8c0,0.3,0,0.7,0.1,1c0,0.2,0.2,0.5,0.3,0.7
		c0.1,0.2,0.1,0.5,0.3,0.7c0.1,0.1,0.1,0.3,0.2,0.4l0.3,0.5l0.2,0.2c0.1,0.1,0.1,0.2,0.2,0.2c0.2,0.1,0.4,0.1,0.6,0.2
		c0.2,0.1,0.5,0.1,0.7,0.2c0.8,0.2,1.6,0.4,2.3,0.5c0.4,0.4,1,0.3,1.5,0.4c0.7,0.2,1.3,0.5,1.9,0.7c0.2,0.1,0.4,0,0.6,0
		c0.3,0.1,0.5,0.2,0.7,0.3c0.3,0.1,0.5,0.1,0.8,0.1c0.5,0.1,1.1,0.3,1.7,0.5c1.6,0.4,3.3,0.8,5,1.3c0.5,0.2,0.9,0.4,1.3,0.6
		c0.8,0.3,1.6,0.4,2.3,0.7c0.8,0.2,1.5,0.6,2.2,0.9c0.2,0.1,0.4,0.1,0.6,0.2c0.4,0.2,0.8,0.4,1.2,0.6c0.8,0.3,1.7,0.6,2.4,1.1
		c0.4,0,0.7,0.4,1.2,0.4c0.4,0.4,0.9,0.8,1.5,1.1c0.5,0.4,1,0.7,1.5,1c0.4,0.5,1.1,1.2,1.6,1.7C101.7,112.2,102.6,113,103.4,114z"/>
	<path class="st1" d="M10.4,114.2c-1.1,2-2.2,4.2-3,5.9c-0.2,0.5-0.4,1-0.6,1.4c-0.6,1.1-1.1,2.3-1.5,3.5c0,0.2,0,0.3-0.1,0.5
		c-0.3,1-0.8,2-1.1,3c-0.2,0.7-0.5,1.3-0.7,2c-0.1,0.5-0.2,1-0.3,1.5c-0.3,1.4-0.8,2.8-1.1,4.1c-0.2,0.9-0.4,2-0.7,3
		c-0.1,0.4-0.2,0.9-0.3,1.2c0,0.1-0.2,0.3-0.2,0.4c-0.1,0.4-0.2,1-0.3,1.6c-0.2,0.8-0.5,1.4-0.5,1.8c0,0.5,0.3,1.5,0.6,1.6
		c0.3,0.1,0.9-0.3,1.1-0.6c0.3-0.4,0.3-1.1,0.5-1.5c0.1-1,0.3-2,0.5-2.9c0.2-1,0.4-1.9,0.6-2.8c0.3-1.1,0.6-2.3,0.9-3.5
		c0.1-0.3,0.1-0.7,0.2-1c0.3-1.1,0.7-2.1,0.8-2.9c0.1-0.6,0.4-1.1,0.6-1.7c0.2-0.8,0.3-1.6,0.7-2.4c0.6-0.9,1-2.6,1.6-3.7
		c1.3-2.6,2.2-5.6,3.9-8.1c0.3-0.7,0.8-1.4,1.2-2c0.2-0.3,0.3-0.7,0.5-1c0.5-1,1.4-1.9,1.9-2.7c0.2-0.2,0.2-0.5,0.4-0.7
		c0.1-0.2,0.3-0.3,0.5-0.5c0.3-0.3,0.5-0.6,0.7-1c0.2-0.3,0.4-0.5,0.6-0.7c0.1-0.1,0.2-0.2,0.3-0.3c0.1-0.1,0.1-0.1,0.2-0.2
		c0.5-0.3,0.9-0.6,1.4-0.8c0.4-0.3,1.1-0.7,1.7-0.9c0.8-0.3,1.5-0.6,2.3-0.9c0.2-0.1,0.3-0.2,0.5-0.3c0.8-0.3,1.9-0.7,2.5-0.8
		c0.5-0.1,0.9-0.4,1.4-0.6c0.2-0.1,0.5,0,0.6-0.1c0.6-0.1,1.1-0.5,1.7-0.6c1-0.2,2-0.5,3-0.8c0.2,0,0-0.2,0.3-0.2
		c0.6,0,1.3-0.1,2-0.1c1.1-0.1,2.2-0.5,3.3-0.7c0.5-0.1,1.1,0,1.5-0.2c1.5,0,3.7-0.4,5.3-0.7c0.4-0.3,1.3-0.3,1.7-0.6
		c1.3,0,2.1-0.8,1.2-1.3c-0.6-0.1-0.9-0.3-1.5-0.2c-0.6,0-1.2,0.3-1.8,0.4c-0.3,0-0.6,0-0.9,0c-0.5,0-1,0.2-1.5,0.3
		c-0.2,0-0.5,0-0.7,0c-0.2,0-0.4,0.2-0.6,0.2c-0.3,0-0.5,0-0.8,0c-0.2,0-0.4,0.1-0.6,0.2c-1.5,0.2-3.1,0.3-4.3,0.8
		c-0.4-0.2-0.9,0.1-1.4,0.2C34,98,33.3,98,32.8,98.1c-0.2,0-0.3,0.2-0.5,0.2c-0.2,0.1-0.5,0-0.7,0.1c-0.2,0.1-0.5,0.2-0.7,0.3
		c-0.5,0.2-1,0.3-1.6,0.4c-1.5,0.5-2.9,1-4.4,1.6c-0.4,0.1-0.9,0.2-1.3,0.3c-0.7,0.3-1.4,0.6-2,1c-0.7,0.3-1.4,0.6-2.1,0.9
		c-0.2,0.1-0.3,0.3-0.5,0.4c-0.4,0.2-0.8,0.3-1.1,0.6l-0.5,0.4c-0.3,0.2-0.4,0.4-0.5,0.5c-0.3,0.3-0.6,0.6-0.9,0.9
		c0,0.4-0.5,0.6-0.6,1c-0.4,0.3-0.8,0.8-1.2,1.3c-0.3,0.5-0.6,1-0.8,1.5c-0.4,0.4-0.9,1.2-1.2,1.8C11.4,112.1,10.9,113.2,10.4,114.2
		z"/>
	<path class="st1" d="M38.7,56.9C38.6,56.9,38.6,56.9,38.7,56.9C38.7,56.9,38.7,56.9,38.7,56.9C38.7,56.9,38.7,56.9,38.7,56.9
		C38.7,56.9,38.7,56.9,38.7,56.9z"/>
	<path class="st1" d="M52.9,52.3c0.2-0.2,0.5-0.4,0.8-0.5c0.1,0,0.1-0.1,0.2-0.1c0.2,0,0.4,0,0.5-0.2c0,0,0-0.1,0-0.1
		c0.1-0.1,0.3-0.1,0.4-0.2c0.1-0.1,0.2,0,0.3-0.1c0.1-0.1,0.1-0.2,0.1-0.2c0.1-0.2,0.3-0.2,0.5-0.3c0.1-0.1,0.2-0.2,0.4-0.2
		c0.1,0,0.1-0.1,0.2,0c0,0,0.1,0.1,0.1,0.1c0.1,0,0.1-0.1,0.2-0.1c0.1,0,0.3,0.1,0.3,0.1c0-0.1-0.1-0.6-0.2-0.9
		c-0.1-0.2-0.4-0.7-0.5-0.9c-0.1-0.1-0.2,0-0.3-0.1c-0.2,0.2-0.5,0.3-0.8,0.5c-0.2,0.1-0.3,0.1-0.5,0.2c0,0-0.1,0.1-0.1,0.1
		c-0.1,0.1-0.4,0-0.4,0.2c0,0.1-0.2,0.1-0.2,0.1c-0.1,0.1-0.1,0.3-0.2,0.3c-0.3-0.2-0.4,0.2-0.6,0.2c-0.5,0.1-0.6,0.7-1.1,0.7
		c0,0.2-0.2,0.2-0.3,0.2c-0.1,0,0,0.1-0.1,0.2c-0.1,0.2-0.3,0.1-0.4,0.3c0,0,0,0.1,0,0.2c0,0-0.1,0-0.1,0c0,0-0.1,0.1-0.1,0.2
		c-0.1,0.2-0.2,0.3-0.4,0.3c0,0.2-0.1,0.2-0.2,0.2c-0.1,0.1-0.3,0.1-0.3,0.2c0,0,0,0.1,0,0.1c-0.1,0.1-0.2,0.2-0.3,0.2
		c-0.1,0,0,0.2-0.1,0.2c0,0-0.1,0-0.1,0c-0.1,0.1,0,0.2-0.1,0.3c-0.1,0.1-0.2,0.2-0.3,0.3c0,0,0.1,0.1,0.1,0.1c-0.1,0-0.3,0-0.4,0
		c-0.2,0.1-0.1,0.3-0.3,0.4c-0.1,0.1-0.2,0-0.1,0.2c-0.4,0-0.5,0.3-0.5,0.6c0.1,0.2,0,0.3,0.2,0.5c-0.2,0.1,0.3,0.6,0.9,0.9
		c0.2,0,0.3,0.1,0.4,0.1c0.1-0.1-0.1-0.2,0-0.3c0,0,0.1,0,0.2,0c0.1,0,0-0.2,0-0.2c0,0,0.1,0,0.1,0c0,0,0-0.1,0-0.1c0,0,0.1,0,0.1,0
		c0,0,0-0.1,0-0.1c0.1-0.2,0.5-0.1,0.4-0.4c0.2,0.2,0.1,0,0.2-0.1c0.1-0.1,0.2,0,0.3-0.1c0,0,0-0.1,0-0.1c0,0,0.1,0,0.1,0
		c0,0,0-0.1,0-0.1c0-0.1,0.1-0.1,0.1-0.2c0.1-0.2,0.2-0.4,0.3-0.6c0.1,0,0.2,0,0.2,0c0.1-0.1,0.1-0.2,0.1-0.3c0-0.1,0.2-0.1,0.3-0.2
		c0,0,0-0.1,0-0.1c0,0,0.1,0,0.2,0c0.1-0.1,0.1-0.3,0.2-0.3c-0.1-0.2,0.1-0.1,0-0.2c0.2,0.1,0.3-0.1,0.3-0.3c0.1,0,0.2-0.1,0.2-0.2
		C52.7,52.7,52.8,52.5,52.9,52.3z"/>
	<path class="st1" d="M89.6,53.8l-1.4-2.1c-0.4-0.6-0.8-1.3-0.9-1.7c0-0.1,0-0.2,0-0.3c0-0.2,0.1-0.3,0.1-0.5c0.1-0.3,0.2-0.7,0.4-1
		c0.3-0.7,0.8-1.4,1.2-2.2c0.4-0.8,0.7-1.7,0.7-2.7c0-1.8-0.5-3.4-0.9-5.1c-0.1-0.6-0.3-1.1-0.5-1.7c-0.1-0.6-0.3-1.2-0.5-1.8
		c-0.4-1.2-1-2.3-1.5-3.4L86,30.4c-0.1-0.3-0.3-0.6-0.5-0.9c-0.4-0.6-0.8-1.1-1.2-1.6c-0.8-0.9-1.6-1.6-2.2-2.4
		c-0.5-0.6-0.8-1.5-1-2.5c-0.2-1-0.3-2.1-1.1-3.2c-0.4-0.5-0.7-0.8-1.1-1.1c-0.4-0.3-0.7-0.6-1.1-0.8c-0.8-0.5-1.6-0.9-2.3-1.4
		c-0.6-0.4-1.1-0.7-1.7-1.1c-0.6-0.4-1.2-0.7-1.8-1.1c-1.2-0.7-2.3-1.2-3.5-1.7c-0.8-0.4-1.6-1.3-2.4-2.1c-0.4-0.4-0.9-0.9-1.4-1.3
		c-0.3-0.2-0.6-0.4-0.9-0.6c-0.3-0.2-0.7-0.3-0.9-0.3c-1-0.2-2.2-0.8-3.6-1.3c-0.7-0.3-1.4-0.5-2.2-0.6c-0.2,0-0.4-0.1-0.6-0.1
		L56,6.3c-0.3,0-0.7-0.1-1-0.1c-1.7-0.2-3.5-0.4-5.4-0.3c-1,0-2,0.4-2.9,0.8C45.8,7,45,7.4,44.3,7.8c-0.3,0.2-0.7,0.3-1,0.5
		c-0.2,0.1-0.3,0.1-0.5,0.2c-0.2,0.1-0.4,0.1-0.6,0.2c-1.8,0.5-3.7,1.5-5.5,2.3l-0.3,0.1L36,11.3c-0.3,0.1-0.5,0.3-0.7,0.4
		c-0.4,0.3-0.8,0.7-1.1,1c-0.7,0.7-1.2,1.3-1.6,1.8c-0.3,0.4-0.7,0.7-1,1c-0.3,0.3-0.7,0.4-1.1,0.5c-0.9,0.2-2,0.3-3.1,0.5
		c-0.9,0.1-2,0.2-3,1c-0.3,0.2-0.6,0.6-0.8,1c-0.2,0.4-0.2,0.7-0.3,1.1c-0.1,0.7-0.1,1.4,0,2c0.1,1.2,0.2,2.5-0.2,3.3
		c0,0.1-0.1,0.1-0.1,0.2l-0.2,0.3c-0.2,0.2-0.3,0.5-0.5,0.7c-0.3,0.5-0.5,1-0.7,1.5c-0.4,1-0.8,2-1.3,3c-0.5,1-1,2-1.5,3
		c-0.2,0.5-0.4,1.1-0.6,1.6c-0.2,0.5-0.3,1.1-0.5,1.5c-0.4,0.7,0.1,0.3-0.4,1.1c-0.3,0.5-0.8,1-1.1,1.6c-0.4,0.6-0.7,1.3-0.8,2.1
		c-0.2,1.4-0.2,2.9-0.1,4.3c0,0.6,0.1,1.1,0.1,1.7c0,0.3,0,0.6,0.1,0.8c0,0.2,0,0.5,0,0.7c-0.1,1-0.5,2.2-0.7,3.4
		c-0.1,0.6-0.1,1.3,0,2c0.1,0.7,0.4,1.3,0.7,1.9c0.6,1.1,1.5,2,2.1,2.9c0.1,0.2,0.3,0.4,0.4,0.6l0.3,0.7c0.3,0.5,0.6,1,1,1.4
		c0.8,0.8,1.6,1.5,2.2,2c0.2,0.3,0.5,0.6,0.7,0.9c0.2,0.3,0.3,0.5,0.3,0.9c0.1,0.7,0.1,1.6,0.1,2.5c0,0.5,0,1,0.1,1.5
		c0.1,0.5,0.2,1.1,0.6,1.7c0.1,0.1,0.2,0.3,0.3,0.4l0.3,0.3l0.5,0.5l1.1,1c0.7,0.7,1.5,1.4,2.3,2c0.8,0.6,1.6,1.1,2.4,1.7
		c1.6,1.1,3.2,2.1,4.8,2.8c0.9,0.4,2.2,0.8,3.6,1.2c1.3,0.4,2.6,0.6,3.5,0.6c2.3,0.4,4.2,0.1,5.5-0.1c0.1,0,0.2,0,0.3,0
		c0,0.2,0.1,0.4,0.1,0.7c0,0.2-0.1,0.4,0,0.6c0,0.5,0.2,1,0.2,1.5c0,0.9,0.1,1.8,0.1,2.7c0,0.2,0.2,0.1,0.2,0.3
		c-0.1,0.5-0.2,1.1-0.3,1.7c-0.1,0.9,0.1,1.9,0.1,2.9c0,0.4-0.2,0.9-0.1,1.3c-0.3,1.3-0.4,3.2-0.5,4.6c0.2,0.4,0,1.2,0.2,1.5
		c-0.3,1,0.2,1.9,1,1.4c0.2-0.4,0.5-0.7,0.6-1.2c0.1-0.5,0-1.1,0.1-1.7c0-0.3,0.2-0.5,0.2-0.8c0.1-0.4,0-0.9,0-1.4
		c0-0.2,0.1-0.4,0.1-0.6c0-0.2-0.1-0.4-0.1-0.6c0-0.2,0.1-0.5,0.1-0.7c0-0.2-0.1-0.3,0-0.5c0.1-1.3,0.4-2.7,0.1-3.8
		c0.3-0.3,0.1-0.8,0.1-1.2c0-0.5,0.1-1.1,0.1-1.6c0-0.2-0.1-0.3-0.1-0.5c0-0.2,0.1-0.4,0.1-0.6c0-0.2-0.1-0.4-0.1-0.6
		c-0.1-0.4,0-0.9-0.1-1.4c-0.1-1.2-0.3-2.4-0.4-3.7c0.1-0.5,0.1-0.9,0.1-1.4c0-0.9-0.1-2.1-0.3-3.3l-0.1-0.5c0-0.2,0-0.3-0.1-0.6
		l-0.1-0.4L48.8,74c-0.1-0.2-0.2-0.3-0.3-0.4c-0.3-0.5-0.6-0.9-0.9-1.3c-0.7-0.8-1.5-1.6-2.4-2.4c-0.4-0.4-0.9-0.7-1.4-1.1l-0.4-0.3
		l-0.5-0.2c-0.2-0.1-0.5-0.1-0.8-0.2l-0.4,0c-0.1,0-0.1,0-0.2,0l-0.2,0c-1,0.3-2,0.2-3.3-0.1c0,0-0.2-0.1-0.3-0.2
		c-0.2-0.1-0.4-0.3-0.5-0.5c-0.4-0.3-0.7-0.7-1-1.2c-0.6-0.9-0.9-1.8-1-2.8c-0.1-0.5-0.1-1.1,0-1.5c0-0.2,0-0.4,0.1-0.6
		c0-0.2,0.2-0.4,0.2-0.5c0.4-0.7,1.2-1.2,2.1-1.5c0.2-0.1,0.4-0.1,0.6-0.2l0.3-0.1l0.4-0.1c0.5-0.1,1-0.1,1.5-0.1c0.5,0,1.1,0,1.7,0
		c-0.4-0.9-0.8-1.7-1.1-2.6c-0.1-0.2-0.2-0.5-0.3-0.6l-0.1-0.3c-0.1-0.2-0.2-0.4-0.2-0.7c-0.3-0.9-0.5-1.8-0.5-2.7
		c-0.1-0.9,0-1.8,0.2-2.6c0-0.1,0.1-0.2,0.1-0.3c0-0.1,0,0,0-0.1l0,0l1.3-0.4c1.4-0.5,2.8-1.2,4.2-1.9c4.4-2.2,8-4.8,10.6-7.2
		c0.1-0.1,0.1-0.1,0.1-0.1l0,0l0,0l0,0c0,0,0,0,0.1,0l0.8,0.2c0.5,0.2,1.1,0.2,1.7,0.4c1.1,0.2,2.3,0.4,3.6,0.5
		c1.8,0.1,3.6,0,5.4-0.2c0.9-0.1,1.8-0.3,2.7-0.6c0.4-0.1,0.9-0.3,1.3-0.4l0.5-0.2l0.1-0.1c0,0,0,0,0,0c0,0.1,0.1,0.3,0.1,0.5
		c0,0,0,0,0,0l0,0c0.2,0.6,0.5,1.2,0.7,1.8c0.5,1.2,1,2.5,1.6,3.9c0.5,1.3,1.1,2.6,1.6,3.9c0,0,0,0,0,0c0.1,0.3,0.2,0.5,0.3,0.7
		c0.1,0.4,0.1,0.9,0.3,1.3c0.1,0.2,0.2,0.3,0.2,0.4c0.1,0.2,0,0.4,0.1,0.6c0.1,0.2,0.2,0.4,0.3,0.6c0.2,0.4,0.2,0.9,0.3,1.3
		c0.3,1.2,0.7,2.5,0.8,3.9c0,0.4,0,0.7,0,1.1c0,0.7,0.2,1.2,0.2,1.9c0.1,0.6-0.1,1.3-0.1,1.9c0,0.2,0.1,0.3,0,0.5
		c0,0.4-0.1,0.7-0.2,1c0,0.7,0.1,1.4-0.2,2.1c0.2,0.3-0.1,0.6,0.1,1c-0.3,0.8-0.5,2.1-0.4,2.9c-0.1,0.5-0.2,1.3-0.2,1.9
		c-0.4,0.9-0.3,1.8-0.4,2.8c-0.3,1.9-0.8,4-1.3,5.4c-0.2,0.4-0.3,0.8-0.5,1.2c-0.5,0.9-1.2,1.8-1.8,2.5c-0.1,0.1-0.1,0.2-0.2,0.3
		c-0.3,0.3-0.7,0.5-1,0.7c-0.4,0.2-0.8,0.3-1.2,0.4c-0.6,0.2-1.1,0.1-1.7,0.2c-0.5,0-0.8,0.1-1.2,0.1c-1.2,0-2.4-0.4-3.5-0.8
		c-0.8-0.3-1.7-0.6-2.4-1c-0.3-0.2-0.7-0.3-0.9-0.5c-0.1-0.1-0.2-0.2-0.3-0.3c-0.3-0.2-0.8-0.4-1.2-0.7c-0.6-0.4-1-0.8-1.3-1
		c-0.4-0.2-1.4-0.1-1.6,0.1c-0.2,0.2-0.2,0.9,0,1.2c0.2,0.4,0.8,0.6,1,0.9c1.6,0.8,3.2,1.7,4.8,2.4c1,0.4,2.1,0.8,3.2,1.1
		c0.3,0.1,0.7,0.1,1,0.1c1.1,0.2,2.1,0.3,2.9,0.1c0.6-0.1,1.2-0.1,1.8-0.3c0.4-0.1,0.8-0.3,1.2-0.5c0.4-0.2,0.8-0.5,1.1-0.7
		c0.5-0.2,1.1-0.7,1.5-1.3c0.5-0.6,0.8-1.2,1.1-1.7c1.5-2.4,1.7-5.4,2.3-8c0-0.5,0.1-1,0.2-1.4l1.2-1.7l1-1.4l0.9-1.2
		c0.6-0.7,1.1-1.3,1.6-1.9l0.9-1c1.1-1.3,2.3-2.7,3.2-4.2c0.5-0.7,0.9-1.5,1.3-2.4c0.2-0.4,0.4-0.9,0.5-1.3l0.2-0.7
		c0.1-0.2,0.1-0.6,0.1-0.9C90.6,55.4,90.1,54.6,89.6,53.8z"/>
	<path class="st1" d="M53.4,55.5c-0.2,0.2-0.5,0.3-0.6,0.5c-0.1,0-0.1,0.1-0.1,0.2c-0.1,0.1-0.3,0.1-0.4,0.3c0,0,0,0.1,0,0.1
		c0,0.2-0.3,0.1-0.3,0.3c0,0.1-0.2,0.1-0.2,0.2c0,0.1,0,0.2,0,0.2c0,0.2-0.2,0.3-0.2,0.5c-0.1,0.1,0,0.3-0.1,0.4
		c0,0.1,0,0.1-0.1,0.2c0,0-0.1,0-0.2,0.1c-0.1,0.1,0,0.2,0,0.3c0,0.1-0.2,0.3-0.1,0.4c0.1,0.1,0.7,0,0.9-0.1
		c0.1-0.1,0.3-0.2,0.5-0.3c0.1,0,0.2-0.1,0.2-0.1c0,0,0.1,0,0.1,0c0,0,0,0,0.1,0c0,0,0,0,0.1,0c0.1,0,0.1,0,0.1,0c0,0,0,0,0-0.1
		c0,0,0.1-0.1,0.1-0.1c0,0,0-0.1,0-0.1c0-0.1,0.2,0,0.1-0.2c-0.1-0.1,0.1-0.1,0.1-0.1c0-0.1,0-0.2,0-0.3c0.3,0.1,0.2-0.2,0.3-0.2
		c0.3,0,0.3-0.5,0.6-0.5c0-0.2,0.1-0.1,0.2-0.1c0,0,0-0.1,0-0.2c0.1-0.1,0.2,0,0.3-0.1c0,0,0-0.1,0-0.1c0,0,0.1,0,0.1,0
		c0,0,0-0.1,0.1-0.1c0.1-0.1,0.2-0.2,0.3-0.1c0-0.1,0.1-0.1,0.1-0.1c0.1,0,0.2,0.1,0.2,0c0,0,0-0.1,0-0.1c0.1-0.1,0.2,0,0.2,0
		c0,0,0.1-0.1,0.1-0.1c0,0,0.1,0.1,0.1,0.1c0.1,0,0.1-0.2,0.1-0.1c0.1,0,0.2,0,0.3-0.1c0,0,0-0.2,0-0.2c0.1,0.1,0.1,0.2,0.2,0.3
		c0.1,0.1,0.2-0.1,0.3-0.1c0,0,0,0.2,0.1,0c0,0.3,0.1,0.2,0.3,0.1c0.2-0.1,0.2-0.1,0.4-0.2c0,0.1,0.6-0.1,1.1-0.6
		c0.1-0.2,0.2-0.3,0.1-0.5c-0.1-0.1-0.3-0.1-0.4-0.1c-0.1,0,0-0.2-0.1-0.2c-0.1-0.1-0.2,0-0.3-0.1c0,0,0-0.1-0.1-0.1
		c0,0-0.1,0.1-0.2,0.1c0,0-0.1-0.1-0.1-0.1c0,0-0.1,0-0.1,0c-0.2-0.1-0.5-0.4-0.7-0.1c0-0.3-0.1-0.1-0.2-0.1c-0.1,0-0.2-0.2-0.3-0.2
		c0,0,0,0.1-0.1,0.1c0,0-0.1-0.1-0.1-0.1c0,0-0.1,0.1-0.1,0.1c-0.1,0.1-0.1,0-0.2,0.1c-0.2,0.1-0.4,0.3-0.6,0.3
		c-0.1,0-0.1-0.1-0.2-0.1c-0.1,0-0.2,0.2-0.2,0.2c-0.1,0.1-0.2,0-0.3,0.1c0,0,0,0.1,0,0.1c0,0-0.1-0.1-0.2,0
		c-0.1,0.1-0.1,0.3-0.3,0.2c0.1,0.2-0.1,0,0,0.2c-0.2-0.1-0.3,0-0.3,0.3c-0.1,0-0.2,0-0.2,0.2C53.5,55.1,53.5,55.4,53.4,55.5z"/>
	<path class="st1" d="M67.7,50.7c-0.2,0.2-0.4,0.3-0.6,0.4c0,0-0.1,0.1-0.1,0.1c-0.1,0-0.3,0.1-0.4,0.2c0,0,0,0.1,0,0.1
		c0,0.1-0.3,0.1-0.3,0.2c0,0.1-0.2,0.1-0.2,0.2c0,0.1,0,0.2,0,0.2c0,0.2-0.2,0.3-0.3,0.4c-0.1,0.1-0.1,0.2-0.2,0.3
		c0,0-0.1,0.1-0.1,0.1c0,0-0.1,0-0.2,0c-0.1,0-0.1,0.1-0.1,0.2c-0.1,0.1-0.3,0.1-0.3,0.2c0,0.1,0.5,0.4,0.8,0.4
		c0.3,0.1,0.8,0.2,1,0.2c0.2,0,0.1,0,0.3,0c-0.1-0.1,0-0.2,0.1-0.3c0-0.1,0.1-0.1,0.2-0.2c0,0,0-0.1,0-0.1c0.1-0.1,0.2,0,0.2-0.2
		c0-0.1,0.1-0.1,0.1-0.1c0-0.1,0-0.2,0.1-0.3c0.2,0.1,0.2-0.1,0.3-0.1c0.3,0,0.3-0.5,0.7-0.5c0-0.2,0.1-0.1,0.2-0.1c0,0,0-0.1,0-0.2
		c0.1-0.1,0.2,0,0.3-0.1c0,0,0-0.1,0-0.1c0,0,0.1,0.1,0.1,0c0,0,0-0.1,0.1-0.1c0.1-0.1,0.1-0.2,0.3-0.1c0-0.1,0.1-0.1,0.1-0.1
		c0.1,0,0.1,0.1,0.2,0c0,0,0-0.1,0-0.1c0.1-0.1,0.2,0,0.2,0c0,0,0.1-0.1,0.1-0.1c0,0,0,0.1,0,0.1c0,0,0.1-0.1,0.1-0.1
		c0.1,0.1,0.2,0,0.2,0c0,0,0.1-0.2,0.1-0.1c0,0.1,0,0.2,0.1,0.3c0,0.1,0.2-0.1,0.3,0c0,0,0,0.2,0.1,0.1c-0.1,0.3,0.1,0.2,0.3,0.2
		c0.2-0.1,0.2,0,0.4-0.2c0,0.1,0.6-0.1,1.1-0.5c0.1-0.1,0.2-0.3,0.2-0.4c-0.1-0.1-0.3-0.1-0.4-0.1c0,0,0-0.1,0-0.2
		c0-0.1-0.2-0.1-0.3-0.1c0,0,0-0.1,0-0.1c0,0-0.1,0-0.2,0c0,0,0-0.1-0.1-0.1c0,0-0.1,0-0.1,0c-0.2-0.1-0.3-0.5-0.6-0.3
		c0-0.3-0.1-0.1-0.2-0.1c-0.1,0-0.1-0.2-0.2-0.2c0,0-0.1,0.1-0.1,0.1c0,0-0.1-0.1-0.1-0.1c0,0-0.1,0.1-0.1,0.1c-0.1,0-0.2,0-0.2,0
		c-0.2,0-0.4,0.2-0.7,0.2c-0.1,0-0.1-0.1-0.2-0.1c-0.1,0-0.2,0.1-0.3,0.2c-0.1,0.1-0.2,0-0.3,0c0,0,0,0.1-0.1,0.1
		c-0.1,0-0.1-0.1-0.2,0c-0.1,0.1-0.1,0.3-0.3,0.2c0,0.2-0.1,0-0.1,0.2c-0.2-0.1-0.3,0-0.3,0.2c-0.1,0-0.2,0-0.2,0.1
		C67.8,50.4,67.8,50.6,67.7,50.7z"/>
	<path class="st1" d="M68.9,45.1c-0.3,0-0.7-0.1-0.9-0.1c-0.1,0-0.2,0-0.2,0c-0.2-0.1-0.4-0.2-0.5-0.1c0,0,0,0.1-0.1,0.1
		c-0.1,0.1-0.3-0.1-0.5,0c-0.1,0.1-0.2-0.1-0.3,0c-0.1,0-0.1,0.1-0.2,0.2c-0.2,0.1-0.4,0.1-0.6,0.1c-0.1,0-0.3,0.1-0.4,0.1
		c-0.1,0-0.1,0-0.2,0c0,0-0.1-0.1-0.1-0.1c-0.1,0-0.1,0-0.2,0c-0.1,0-0.3-0.2-0.3-0.1c-0.1,0.1,0,0.6,0,0.9c0.1,0.3,0.3,0.8,0.4,0.9
		c0.1,0.2,0.2,0.1,0.2,0.2c0.2-0.1,0.4-0.2,0.7-0.2c0.1,0,0.3,0,0.4,0c0,0,0.1-0.1,0.1-0.1c0.1,0,0.3,0.1,0.4,0c0.1-0.1,0.1,0,0.2,0
		c0.1,0,0.2-0.2,0.3-0.2c0.1,0.3,0.3,0,0.5,0.1c0.3,0.2,0.7-0.2,1.1,0.1c0.1-0.1,0.2,0,0.3,0.1c0,0,0.1-0.1,0.2-0.1
		c0.1,0,0.3,0.1,0.4,0.1c0,0,0.1-0.1,0.1-0.1c0,0,0,0.1,0.1,0.1c0,0,0.1,0,0.2,0c0.2,0,0.3,0,0.4,0.1c0.1-0.1,0.2,0,0.3,0
		c0.1,0.1,0.1,0.2,0.3,0.2c0,0,0.1-0.1,0.1-0.1c0.1,0,0.2,0.1,0.3,0.2c0,0,0.2,0,0.2,0c0,0,0,0.1,0,0.1c0.1,0,0.2-0.1,0.3,0
		c0.1,0.1,0.2,0.1,0.4,0.2c0,0,0.1-0.2,0.1-0.1c0,0.1,0,0.3,0.1,0.4c0.1,0.1,0.3,0,0.4,0.1c0.1,0,0,0.2,0.2,0.1
		c0,0.3,0.3,0.4,0.5,0.4c0.2-0.1,0.2,0,0.4-0.2c0.1,0.1,0.6-0.3,0.9-0.8c0-0.2,0.1-0.3,0-0.4c-0.1-0.1-0.3,0-0.3,0c0,0,0-0.1,0-0.2
		c0-0.1-0.2,0-0.3,0c0,0,0-0.1,0-0.1c0,0-0.1,0.1-0.1,0c0,0,0-0.1-0.1-0.1c0,0-0.1,0-0.1,0c-0.2-0.1-0.2-0.5-0.5-0.3
		c0.1-0.3-0.1-0.1-0.1-0.2c-0.1,0-0.1-0.2-0.2-0.3c0,0-0.1,0.1-0.1,0.1c0,0,0-0.1-0.1-0.1c0,0-0.1,0-0.1,0.1c-0.1,0-0.1-0.1-0.2-0.1
		c-0.2,0-0.5,0-0.7-0.1c-0.1,0-0.1-0.1-0.1-0.2c-0.1-0.1-0.2,0-0.4,0c-0.1,0-0.2-0.1-0.3-0.2c0,0-0.1,0.1-0.1,0
		c-0.1,0-0.1-0.1-0.1-0.1c-0.1,0-0.3,0.1-0.4,0c-0.1,0.2-0.1,0-0.2,0.1c-0.1-0.3-0.3-0.2-0.5,0c-0.1-0.1-0.2-0.1-0.3,0
		C69.3,45,69.1,45.1,68.9,45.1z"/>
	<path class="st1" d="M60.7,72c-1-0.1-2.2-0.4-3.4-0.7c0,0,0,0.1,0,0.1c0,0-0.1,0,0,0.1c0.2,0.2,0.3,0.3,0.5,0.5
		c0.3,0.3,0.6,0.6,0.8,0.9c0.4,0.3,0.7,0.6,1.1,0.9c0.9,0.8,1.5,1.4,2.3,1.8c0.1,0,0.2,0.1,0.3,0.1c0.3,0.1,0.6,0.3,0.9,0.5
		c0.3,0.2,0.7,0.4,1,0.5c0.5,0.1,0.9,0.4,1.4,0.5c0.4,0.1,0.7,0.1,1,0.1c0.5,0,1,0.1,1.5,0c0.2,0,0.5,0,0.7-0.1
		c0.2-0.1,0.5-0.1,0.7-0.2c0.3-0.1,0.7-0.2,1-0.4l0.5-0.2c0.1-0.1,0.4-0.1,0.5-0.3c0.2-0.3,0.3-0.6,0.4-0.8c0-0.1,0.2-0.2,0.2-0.3
		c0.1-0.3,0.2-0.7,0.2-1.2c0-0.6-0.1-1.2-0.3-1.5c-0.1-0.2-0.4-0.3-0.7-0.4c-0.3-0.1-0.5,0-0.6,0c-0.1,0.2-0.2,0.7-0.2,0.9
		c0,0.2,0.3,0.4,0.2,0.7c0.2,0.3,0.2,0.8,0,1.3c0,0.1-0.1,0.3-0.1,0.4l-0.1,0.2c-0.2,0.1-0.3,0.2-0.5,0.2c-0.3,0.2-0.6,0.2-1,0.3
		C68.7,76,68.4,76,68,76c-0.2,0-0.4,0.1-0.6,0.1c-0.7,0-1.3-0.3-1.8-0.3c-0.4,0-0.7-0.2-1.1-0.4c-0.5-0.2-1-0.3-1.4-0.6
		c-0.2-0.2-0.6-0.5-1-0.7c-0.2-0.1-0.4-0.2-0.6-0.4c-0.1-0.1-0.2-0.1-0.3-0.2c0,0,0,0,0,0c0-0.1,0,0,0-0.1l-0.1-0.1L61,73.4
		c0,0,0,0,0,0c0,0,0.2,0,0.3,0.1c0,0,0,0,0,0c0.1,0,0.3,0,0.4,0.1c0.3,0,0.6,0.1,0.8,0.1c0.3,0,0.5,0,0.8,0c0.8,0,1.6,0.2,2.3,0.1
		c0.2,0,0.4-0.1,0.5-0.1c0.2,0,0.3,0,0.5,0c0.3,0,0.6-0.1,0.9-0.1c1-0.2,1.7-0.4,2.5-0.5c0.3-0.2,0.9-0.4,1.3-0.7
		c0.3-0.2,0.6-0.4,0.8-0.6c0.1-0.1,0.2-0.3,0.3-0.4c0-0.1,0.1-0.2,0.2-0.3c0-0.1,0.1-0.3,0.1-0.3c0-0.1,0-0.3,0-0.5
		c0-0.3,0.1-0.7,0-1.2c-0.1-0.4-0.3-0.8-0.5-1.1c-0.4-0.4-0.9-0.5-1.3-0.5c-0.2,0-0.3-0.1-0.5-0.1c-0.5,0-1,0.2-1.4,0.4
		c-0.2,0.1-0.4,0.3-0.6,0.5c-0.1,0.1-0.2,0.2-0.3,0.3L68,68.6l0,0.1l-0.1,0.2c-0.1,0-0.1,0-0.2,0l0,0c-0.1,0,0,0.1-0.1,0.1
		c-0.4-0.1-0.9-0.2-1.4-0.2c-0.4,0-0.8,0.2-1.2,0.4c-0.4,0.2-0.8,0.5-1,0.6c-0.3,0.1-0.6,0.1-0.8,0.4c-1,0.1-2.3,0.5-3.4,0.7
		c-0.3,0.2-0.9,0.2-1.1,0.4c-0.8,0-1.4,0.5-0.9,0.9c0.4,0.1,0.6,0.2,1,0.2c0.4,0,0.8-0.2,1.3-0.2C60.2,72,60.4,72.1,60.7,72
		c0.3,0,0.7-0.1,1-0.2c0.2,0,0.4,0,0.5,0c0.2,0,0.3-0.1,0.4-0.2c0.2-0.1,0.4,0,0.6-0.1c0.1,0,0.3-0.1,0.4-0.2
		c0.2-0.1,0.5-0.2,0.8-0.3c0.3-0.1,0.6-0.3,0.7-0.3c0.4-0.2,0.7-0.3,1.1-0.5c0.3,0.1,0.5,0,0.8,0c0.1,0,0.2,0,0.4,0
		c0.2,0,0.4,0.1,0.6,0.1c0.2-0.1,0.4-0.1,0.5-0.2l0.1,0c0.1-0.1,0.2-0.2,0.4-0.2c0,0,0.1,0,0.1-0.1c0.1-0.1,0.2-0.2,0.2-0.3
		c0,0,0.1-0.1,0.1-0.1c0.1-0.1,0.1-0.2,0.2-0.3c0.2-0.2,0.4-0.3,0.6-0.3c0.2-0.1,0.7-0.1,1,0c0.3,0.1,0.4,0.2,0.5,0.6
		c0,0.2-0.1,0.4-0.1,0.6c0,0.1,0,0.2-0.1,0.3c0,0,0,0,0,0.1c-0.1,0.2-0.2,0.3-0.3,0.5c-0.3,0.3-0.7,0.4-1.1,0.6
		c-0.1,0-0.2,0.1-0.3,0.2c-0.2,0.1-0.5,0.1-0.7,0.2c-0.5,0.2-1,0.4-1.5,0.3c-0.2,0.2-0.5,0-0.7,0.2c-0.7-0.1-1.6-0.1-2.2,0.1
		c-0.4-0.1-1-0.1-1.4-0.1c-0.3-0.1-0.7-0.2-1-0.2c-0.2,0-0.4,0-0.6,0C61.2,72.1,60.9,72,60.7,72z"/>
	<path class="st2" d="M49,40c0.8-0.5,1.6-1.1,2.2-1.6c0.2-0.1,0.3-0.3,0.5-0.4c0.4-0.3,0.9-0.6,1.2-1c0-0.1,0-0.1,0.1-0.2
		c0.2-0.3,0.7-0.6,0.9-0.9c0.2-0.3,0.4-0.4,0.6-0.6c0.1-0.2,0.2-0.4,0.3-0.5c0.3-0.5,0.7-0.9,1.1-1.4c0.2-0.3,0.5-0.7,0.7-1
		c0.1-0.1,0.2-0.3,0.3-0.4c0,0,0.2-0.1,0.2-0.1c0.1-0.1,0.2-0.4,0.4-0.6c0.2-0.3,0.5-0.4,0.5-0.6c0.1-0.2-0.1-0.7-0.3-0.8
		c-0.2-0.1-0.6-0.1-0.8,0c-0.2,0.1-0.3,0.4-0.4,0.4c-0.3,0.7-0.7,1.4-1.2,2c-0.3,0.4-0.6,0.7-0.9,1.1c-0.1,0.1-0.1,0.3-0.2,0.4
		c-0.3,0.4-0.6,0.6-0.8,0.9c-0.1,0.2-0.3,0.3-0.5,0.5c-0.2,0.2-0.4,0.5-0.6,0.8c-0.4,0.2-0.8,0.7-1.2,1c-0.5,0.3-0.9,0.7-1.4,1.1
		c-0.4,0.4-0.9,0.8-1.5,1c-0.2,0.3-0.5,0.4-0.8,0.5c-0.1,0.1-0.2,0.2-0.4,0.3c-0.4,0.3-0.8,0.4-1.2,0.6c-0.1,0.1-0.1,0.2-0.2,0.2
		c-0.1,0.1-0.2,0-0.3,0.1c-0.1,0.1-0.3,0.2-0.4,0.3c-0.5,0.3-0.9,0.5-1.3,0.6c-0.1,0.2-0.5,0.3-0.7,0.3c-0.3,0.1-0.7,0.2-1,0.3
		c-0.1,0-0.1,0.1-0.2,0.2c-0.3,0.2-0.7,0.3-1,0.3c-0.2,0-0.4,0.2-0.6,0.3c-0.1,0-0.2,0-0.3,0c-0.2,0.1-0.4,0.2-0.7,0.3
		c-0.4,0.1-0.8,0.2-1.2,0.3c-0.1,0,0,0.1-0.1,0.1c-0.2,0-0.5-0.1-0.8-0.1c-0.4,0-0.9,0.2-1.3,0.3c-0.2,0-0.4-0.1-0.6,0.1
		c-0.6-0.2-1.5,0-2.1,0c-0.2,0.2-0.5,0.1-0.7,0.3c-0.5-0.1-0.9,0.4-0.6,0.9c0.2,0.1,0.3,0.3,0.6,0.3c0.3,0,0.5-0.1,0.8-0.1
		c0.1,0,0.3,0.1,0.4,0.1c0.2,0,0.4-0.1,0.7-0.1c0.1,0,0.2,0.1,0.3,0c0.1,0,0.2-0.1,0.3-0.1c0.1,0,0.2,0,0.4,0c0.1,0,0.2-0.1,0.2-0.1
		c0.6-0.1,1.3,0.1,1.8-0.2c0.2,0.2,0.4,0,0.6,0c0.3,0,0.5,0,0.8,0c0.1,0,0.1-0.1,0.2-0.1c0.1,0,0.2,0,0.3,0c0.1,0,0.2-0.1,0.3-0.2
		c0.2-0.1,0.4-0.1,0.6-0.2c0.6-0.2,1.1-0.5,1.8-0.7c0.2-0.1,0.4-0.1,0.5-0.1c0.3-0.1,0.5-0.3,0.8-0.4c0.3-0.1,0.6-0.2,0.9-0.3
		c0.1,0,0.1-0.1,0.2-0.1c0.2-0.1,0.3-0.1,0.5-0.2c0.3-0.2,0.5-0.4,0.9-0.5c0-0.2,0.3-0.1,0.4-0.3c0.5,0,0.9-0.4,1.2-0.7
		c0.2-0.1,0.5-0.3,0.7-0.5C48.3,40.7,48.6,40.3,49,40z"/>
	<path class="st2" d="M63.8,35.7c-0.7,0-1.4,0-1.9-0.1c-0.1,0-0.3,0-0.4,0c-0.3-0.1-0.7-0.2-1.1-0.2c0,0-0.1,0.1-0.1,0.1
		c-0.3,0-0.6-0.2-0.9-0.2c-0.2,0-0.4-0.1-0.6-0.2c-0.2,0-0.3,0-0.4,0c-0.4,0-0.8-0.2-1.1-0.4c-0.2-0.1-0.5-0.2-0.8-0.3
		c-0.1-0.1-0.2-0.1-0.3-0.2c0,0,0-0.1-0.1-0.2c-0.1-0.1-0.2-0.1-0.4-0.2c-0.2-0.1-0.2-0.4-0.3-0.4c-0.1,0-0.6,0.1-0.7,0.3
		c-0.2,0.1-0.3,0.5-0.3,0.7c0,0.2,0.3,0.3,0.3,0.5c0.6,0.3,1.2,0.6,1.7,0.8c0.3,0.1,0.7,0.3,1,0.4c0.1,0,0.2,0,0.3,0.1
		c0.3,0.1,0.6,0.3,0.9,0.2c0.2,0,0.3,0.1,0.6,0.1c0.2,0,0.5,0,0.8,0c0.3,0.3,0.8,0.1,1.2,0.3c0.9,0.3,1.8,0,2.7,0.2
		c0.2-0.1,0.5,0,0.7,0c0.1,0,0.2-0.1,0.4-0.1c0.3-0.1,0.7,0,1,0c0.1,0,0.1-0.1,0.2-0.1c0.1,0,0.1,0,0.2,0c0.1,0,0.2-0.1,0.4-0.1
		c0.4-0.1,0.7-0.2,1.1-0.1c0.1-0.1,0.4-0.1,0.6-0.1c0.2,0,0.5,0,0.8-0.1c0.1,0,0.1-0.1,0.2-0.1c0.2-0.1,0.6-0.1,0.8-0.1
		c0.2,0,0.3-0.1,0.4-0.1c0.1,0,0.1,0,0.2,0c0.2,0,0.3-0.2,0.5-0.2c0.3,0,0.6-0.1,0.9-0.2c0.1,0,0-0.1,0.1-0.1
		c0.2,0.1,0.4,0.1,0.6,0.1c0.3,0,0.6-0.2,1-0.3c0.1,0,0.3,0.1,0.4-0.1c0.5,0.1,1.1-0.2,1.5-0.4c0.1-0.2,0.4-0.2,0.4-0.4
		c0.4,0,0.5-0.6,0.1-1c-0.2-0.1-0.3-0.2-0.5-0.2c-0.2,0-0.3,0.2-0.5,0.3c-0.1,0-0.2,0-0.3,0c-0.1,0-0.3,0.1-0.4,0.2
		c-0.1,0-0.2,0-0.2,0c-0.1,0-0.1,0.1-0.2,0.1c-0.1,0-0.2,0-0.2,0c-0.1,0-0.1,0.1-0.2,0.1c-0.4,0.1-0.9,0-1.2,0.2
		c-0.2-0.2-0.3,0-0.4,0c-0.2,0-0.4-0.1-0.5,0c-0.1,0-0.1,0.1-0.1,0.1c-0.1,0-0.1,0-0.2,0c-0.1,0-0.1,0.1-0.2,0.1
		c-0.1,0.1-0.3,0.1-0.4,0.1c-0.4,0.1-0.8,0.3-1.3,0.3c-0.1,0-0.3,0-0.4,0c-0.2,0-0.4,0.1-0.6,0.2c-0.2,0.1-0.4,0-0.6,0
		c-0.1,0-0.1,0.1-0.2,0.1c-0.1,0-0.2-0.1-0.3,0c-0.2,0.1-0.5,0.2-0.7,0.1c-0.1,0.2-0.2,0-0.3,0.2c-0.3-0.1-0.7-0.1-1,0.1
		c-0.2,0-0.4,0-0.6,0C64.5,35.5,64.1,35.6,63.8,35.7z"/>
	<path class="st1" d="M68.9,60.1c0.1,0.5,0.1,1.1-0.1,1.5c0,0.1,0,0.3-0.1,0.4c-0.1,0.2-0.4,0.3-0.6,0.5c0,0,0,0.1,0,0.2
		c-0.2,0.2-0.5,0.2-0.7,0.3c-0.2,0.1-0.4,0.1-0.5,0.2c-0.1,0.1-0.2,0.2-0.3,0.3c-0.4,0.2-0.8,0.2-1.1,0.3c-0.3,0-0.5,0.2-0.8,0.2
		c-0.1,0-0.2,0-0.3,0c0,0-0.1-0.1-0.2-0.1c-0.1,0-0.3,0-0.4,0c-0.2,0-0.4-0.2-0.5-0.1c-0.1,0.1-0.3,0.6-0.3,0.9c0,0.3,0.2,0.8,0.3,1
		c0.1,0.2,0.4,0.1,0.5,0.2c0.6-0.2,1.2-0.2,1.8-0.3c0.3-0.1,0.7-0.1,1.1-0.2c0.1,0,0.2-0.1,0.3-0.2c0.3-0.1,0.7-0.1,0.9-0.3
		c0.1-0.2,0.4-0.1,0.6-0.2c0.2-0.1,0.4-0.4,0.7-0.5c0.5,0,0.9-0.6,1.3-1.1c0.1-0.1,0.2-0.3,0.3-0.5c0-0.1,0.1-0.3,0.1-0.4
		c0.1-0.3,0.1-0.5,0.1-0.8c0-0.6,0-1.2,0-1.7c-0.2-0.2-0.2-0.6-0.3-0.8c0-0.1-0.2-0.2-0.3-0.3c-0.2-0.3-0.3-0.7-0.5-1
		c-0.1-0.1-0.2-0.1-0.2-0.1c0-0.1,0-0.2-0.1-0.2c-0.1-0.1-0.2-0.2-0.3-0.3c-0.3-0.3-0.5-0.5-0.6-0.8c-0.2,0-0.3-0.2-0.4-0.4
		c-0.1-0.2-0.2-0.4-0.4-0.6c0,0-0.1,0-0.2-0.1c-0.2-0.2-0.3-0.5-0.3-0.6c-0.1-0.1-0.2-0.2-0.3-0.3c0-0.1,0-0.1,0-0.2
		c-0.1-0.1-0.3-0.2-0.3-0.4c-0.1-0.3-0.2-0.5-0.4-0.8c0-0.1-0.2,0.1-0.2,0c0-0.2,0.1-0.4,0.1-0.6c0-0.3-0.3-0.5-0.4-0.8
		c0-0.1,0.1-0.3-0.1-0.4c0.2-0.5-0.1-1-0.3-1.4c-0.2-0.1-0.2-0.3-0.5-0.4c0-0.3-0.7-0.5-1.3-0.2c-0.1,0.2-0.3,0.3-0.3,0.5
		c0,0.2,0.2,0.4,0.3,0.5c0,0.1-0.1,0.2-0.1,0.3c0,0.1,0.2,0.3,0.2,0.4c0,0.1-0.1,0.2,0,0.2c0,0.1,0.1,0.1,0.2,0.2c0,0.1,0,0.2,0,0.3
		c0,0.1,0.1,0.1,0.1,0.2c0.1,0.4,0,1,0.4,1.3c-0.2,0.2,0,0.3,0.1,0.4c0.1,0.2,0,0.4,0.1,0.6c0,0.1,0.1,0.1,0.2,0.1
		c0,0.1,0,0.2,0,0.2c0,0.1,0.1,0.1,0.2,0.2c0.1,0.1,0.2,0.3,0.3,0.4c0.3,0.4,0.6,0.7,0.9,1.1c0.1,0.1,0,0.3,0.1,0.4
		c0.1,0.2,0.3,0.3,0.5,0.5c0.2,0.2,0.2,0.4,0.3,0.5c0,0,0.1,0,0.2,0.1c0.1,0.1,0.1,0.2,0.1,0.3c0.2,0.2,0.4,0.3,0.5,0.5
		c0.2-0.1,0.1,0.2,0.3,0.1c0,0.4,0.3,0.6,0.6,0.7c0,0.2,0.1,0.4,0.3,0.5C68.6,59.6,68.8,59.8,68.9,60.1z"/>
	<path class="st2" d="M60.2,18c0.4,0,0.7,0.3,1,0.4c0.1,0,0.2,0,0.2,0.1c0.2,0.1,0.3,0.3,0.5,0.4c0,0,0.1,0,0.1,0
		c0.2,0,0.3,0.3,0.4,0.3c0.1,0.1,0.2,0.2,0.3,0.3c0.1,0.1,0.2,0,0.3,0.1c0.2,0.1,0.4,0.3,0.6,0.5c0.1,0.1,0.3,0.2,0.4,0.4
		c0,0.1,0.1,0.1,0.1,0.2c0,0,0,0.1,0,0.1c0,0.1,0.1,0.1,0.2,0.2c0.1,0.1,0,0.3,0.1,0.3c0.1,0,0.5-0.1,0.7-0.2
		c0.2-0.1,0.4-0.5,0.5-0.6c0.1-0.1-0.1-0.2,0-0.3c-0.3-0.2-0.6-0.5-0.8-0.8c-0.1-0.2-0.3-0.3-0.5-0.5c0,0-0.1,0-0.2-0.1
		c-0.2-0.1-0.3-0.4-0.4-0.4c-0.1,0-0.2-0.2-0.3-0.2C63.1,18,62.9,18,62.8,18c-0.1-0.3-0.4-0.3-0.6-0.5c-0.2-0.2-0.5-0.3-0.8-0.4
		c-0.3-0.1-0.6-0.2-0.9-0.3c-0.2,0.1-0.3-0.1-0.5-0.1c-0.1,0-0.2,0-0.3,0c-0.2,0-0.5-0.1-0.7-0.1c-0.1,0-0.1,0.1-0.2,0.1
		c0,0-0.1-0.1-0.1-0.1c-0.1,0-0.2,0-0.3,0c-0.3,0.1-0.5,0.1-0.7,0.1c-0.1,0.1-0.3,0.1-0.4,0.1c-0.2,0-0.3,0-0.5,0.1
		c0,0-0.1,0.1-0.1,0.1c-0.2,0.1-0.4,0.1-0.5,0.1c-0.1,0-0.2,0.1-0.2,0.2c0,0-0.1,0-0.1,0c-0.1,0-0.2,0.2-0.3,0.2
		c-0.2,0.1-0.4,0.2-0.5,0.3c0,0,0.1,0.1,0,0.1c-0.1,0-0.3,0-0.4,0c-0.2,0.1-0.3,0.3-0.5,0.4c-0.1,0.1-0.2,0-0.2,0.2
		c-0.4,0-0.6,0.4-0.8,0.7c0,0.2-0.1,0.3,0,0.4c-0.2,0.1,0.1,0.6,0.5,0.8c0.1,0,0.3,0.1,0.3,0c0.1-0.1,0-0.2,0.1-0.3c0,0,0.1,0,0.2,0
		c0.1,0,0.1-0.2,0.1-0.2c0,0,0.1,0,0.1,0c0,0,0-0.1,0-0.1c0,0,0.1,0,0.1,0c0,0,0-0.1,0-0.1c0.2-0.2,0.5-0.1,0.6-0.4
		c0.2,0.1,0.2,0,0.2-0.1c0.1-0.1,0.2,0,0.3,0c0,0,0-0.1,0-0.1c0,0,0.1,0,0.1,0c0,0,0-0.1,0.1-0.1c0.1-0.1,0.1-0.1,0.2-0.1
		c0.2-0.1,0.4-0.3,0.6-0.4c0.1,0,0.2,0,0.2,0c0.1,0,0.2-0.1,0.3-0.2c0.1-0.1,0.2,0,0.3,0c0,0,0.1-0.1,0.1-0.1c0.1,0,0.1,0.1,0.2,0
		c0.1,0,0.3-0.2,0.4-0.1c0.1-0.2,0.1,0,0.2-0.1c0.2,0.2,0.4,0.1,0.6,0c0.1,0,0.2,0.1,0.4,0C59.8,18.1,60,18,60.2,18z"/>
	<path class="st2" d="M49.6,14.7c-0.2,0-0.4,0.1-0.6,0.2c-0.2,0.1-0.4,0.1-0.5,0.2c-0.1,0-0.1,0.1-0.2,0.1c-0.2,0.1-0.5,0.1-0.6,0.3
		c0,0,0,0.1,0,0.1c-0.1,0.2-0.4,0.2-0.5,0.3c-0.1,0.1-0.2,0.1-0.3,0.2c-0.1,0.1-0.1,0.2-0.1,0.3c-0.1,0.2-0.3,0.4-0.5,0.6
		c-0.1,0.1-0.2,0.3-0.3,0.4c-0.1,0.1-0.1,0.1-0.1,0.2c0,0-0.1,0-0.1,0c-0.1,0-0.1,0.2-0.2,0.2c-0.1,0.1-0.3,0.1-0.3,0.2
		c0,0.1,0.3,0.4,0.5,0.5c0.2,0.1,0.6,0.2,0.7,0.2c0.1,0,0.1-0.1,0.3-0.1c0.1-0.3,0.3-0.5,0.4-0.8c0.1-0.1,0.2-0.3,0.4-0.4
		c0,0,0-0.1,0.1-0.2c0.1-0.1,0.3-0.2,0.3-0.3c0-0.1,0.1-0.1,0.2-0.2c0.1-0.1,0.1-0.2,0.2-0.3c0.2,0.1,0.3-0.2,0.5-0.2
		c0.4,0,0.7-0.5,1.1-0.4c0.1-0.1,0.2-0.1,0.3,0c0.1,0,0.1-0.1,0.2-0.1c0.1-0.1,0.3,0,0.5,0c0,0,0.1-0.1,0.1-0.1c0,0,0.1,0.1,0.1,0.1
		c0.1,0,0.1,0,0.2,0c0.2,0,0.4,0,0.6,0.1c0.1-0.1,0.2,0,0.3,0c0.1,0,0.2,0.1,0.4,0.1c0,0,0.1-0.1,0.1-0.1c0.1,0,0.3,0.1,0.4,0.1
		c0.1,0,0.2,0,0.3,0c0,0,0,0.1,0.1,0.1c0.1,0,0.2,0,0.3,0c0.1,0.1,0.3,0.1,0.5,0.2c0,0,0.1-0.1,0.1-0.1c0,0.1,0.1,0.2,0.2,0.3
		c0.1,0.1,0.3,0.1,0.5,0.2c0.1,0,0.1,0.2,0.2,0.1c0.1,0.3,0.4,0.4,0.7,0.5c0.2-0.1,0.2,0,0.4-0.1c0.1,0.2,0.6-0.1,0.7-0.6
		c0-0.1,0-0.3,0-0.4c-0.1-0.1-0.3,0-0.3-0.1c0,0,0-0.1-0.1-0.2c-0.1-0.1-0.2,0-0.3-0.1c0,0,0-0.1-0.1-0.1c0,0-0.1,0-0.1,0
		c0,0,0-0.1-0.1-0.1c0,0-0.1,0-0.1,0c-0.2-0.1-0.4-0.5-0.7-0.4c0-0.2-0.1-0.1-0.2-0.2c-0.1,0-0.2-0.2-0.3-0.2c0,0-0.1,0-0.1,0
		c0,0-0.1-0.1-0.1-0.1c0,0-0.1,0-0.2,0c-0.1,0-0.2-0.1-0.3-0.1c-0.3,0-0.6,0-0.8-0.1c-0.1,0-0.1-0.1-0.2-0.1c-0.1,0-0.3,0-0.4,0
		c-0.1,0-0.2-0.1-0.4-0.1c0,0-0.1,0-0.1,0c-0.1,0-0.1-0.1-0.2-0.1c-0.1,0-0.3,0.1-0.4,0c-0.1,0.2-0.1,0-0.2,0.1
		c-0.2-0.2-0.4-0.2-0.6,0c-0.1,0-0.3,0-0.4,0C50,14.5,49.8,14.6,49.6,14.7z"/>
	<path class="st2" d="M66.3,20c-0.5-0.1-1-0.1-1.3-0.1c-0.1,0-0.2,0.1-0.3,0.1c-0.2,0-0.6,0-0.8,0.1c0,0,0,0.1-0.1,0.1
		c-0.2,0.1-0.4,0.1-0.6,0.2c-0.1,0.1-0.3,0.1-0.4,0.2c-0.1,0.1-0.1,0.2-0.2,0.2c-0.2,0.2-0.5,0.3-0.7,0.5c-0.2,0.1-0.3,0.3-0.5,0.4
		c-0.1,0-0.1,0.1-0.2,0.2c0,0-0.1,0-0.2,0c-0.1,0-0.1,0.2-0.2,0.2c-0.1,0.1-0.3,0.1-0.4,0.2c0,0.1,0.2,0.5,0.4,0.6
		c0.2,0.1,0.6,0.3,0.7,0.3c0.1,0,0.2-0.1,0.3-0.1c0.1-0.3,0.4-0.5,0.6-0.7c0.1-0.1,0.3-0.2,0.5-0.3c0,0,0.1-0.1,0.1-0.1
		c0.2-0.1,0.4-0.1,0.4-0.2c0-0.1,0.2-0.1,0.3-0.1c0.1-0.1,0.2-0.2,0.3-0.2c0.2,0.1,0.4-0.1,0.6-0.1c0.4,0.1,0.9-0.3,1.4,0
		c0.1-0.1,0.3,0,0.4,0.1c0.1,0,0.1,0,0.2,0c0.2,0,0.4,0.2,0.5,0.2c0,0,0.1,0,0.2,0c0,0,0.1,0.1,0.1,0.1c0.1,0,0.1,0,0.2,0
		c0.2,0,0.4,0.1,0.5,0.3c0.1,0,0.2,0,0.3,0.1c0.1,0.1,0.2,0.2,0.3,0.3c0,0,0.1,0,0.1,0c0.1,0.1,0.2,0.3,0.3,0.3
		c0,0.1,0.2,0.1,0.2,0.1c0,0,0,0.1,0,0.1c0,0.1,0.2,0.1,0.2,0.2c0.1,0.2,0.2,0.3,0.3,0.5c0,0,0.1,0,0.1,0c0,0.1-0.1,0.3-0.1,0.4
		c0,0.2,0.2,0.3,0.3,0.5c0,0.1-0.1,0.2,0.1,0.3c-0.2,0.3,0,0.6,0.1,0.9c0.2,0.1,0.1,0.2,0.3,0.3c-0.1,0.2,0.4,0.5,0.9,0.3
		c0.1-0.1,0.3-0.2,0.3-0.3c0-0.1-0.1-0.3-0.1-0.4c0-0.1,0.1-0.1,0.1-0.2c0-0.1-0.1-0.2-0.1-0.3c0-0.1,0.1-0.1,0-0.2
		c0,0-0.1-0.1-0.1-0.1c0-0.1,0-0.1,0-0.2c0,0-0.1-0.1-0.1-0.1c-0.1-0.3,0-0.7-0.2-0.9c0.2-0.2,0-0.2-0.1-0.3c-0.1-0.1,0-0.3-0.1-0.4
		c0,0-0.1,0-0.1-0.1c0,0,0-0.1,0-0.2c0,0-0.1-0.1-0.2-0.1c-0.1-0.1-0.1-0.2-0.2-0.3c-0.2-0.3-0.5-0.4-0.8-0.7
		c-0.1-0.1-0.1-0.2-0.1-0.3c-0.1-0.1-0.3-0.1-0.4-0.2c-0.1-0.1-0.2-0.2-0.4-0.3c0,0-0.1,0-0.1,0c-0.1,0-0.1-0.2-0.2-0.2
		c-0.2-0.1-0.4,0-0.5-0.2c-0.1,0.1-0.1-0.1-0.3,0c-0.1-0.2-0.4-0.3-0.7-0.2c-0.1-0.1-0.3-0.1-0.4-0.1C66.8,20,66.5,20,66.3,20z"/>
	<g>
		<ellipse transform="matrix(0.9579 -0.2871 0.2871 0.9579 -14.2103 18.726)" class="st1" cx="56.8" cy="57.8" rx="1.9" ry="2.7"/>
		<path class="st1" d="M54.9,57.3c0-0.4,0.1-0.9,0.2-1.1c0-0.1,0.1-0.2,0.1-0.2c0.1-0.2,0.3-0.3,0.5-0.5c0,0,0,0,0.1-0.1
			c0.1-0.1,0.4-0.1,0.5-0.1c0.1,0,0.2,0,0.4,0c0.1,0,0.2,0,0.3,0c0.2,0.1,0.5,0.3,0.6,0.4c0.1,0.1,0.3,0.3,0.4,0.4
			c0,0.1,0.1,0.1,0.1,0.2c0,0,0,0.1,0,0.1c0,0.1,0.1,0.2,0.1,0.3c0.1,0.1,0,0.3,0.1,0.3c0,0.1,0.2,0.2,0.3,0.2
			c0.1,0,0.2-0.1,0.2-0.2c0-0.1-0.1-0.2,0-0.3c-0.2-0.4-0.4-0.7-0.7-1c-0.2-0.2-0.3-0.4-0.6-0.5c-0.1,0-0.1-0.1-0.2-0.1
			c-0.2-0.1-0.4-0.2-0.6-0.2c-0.1,0-0.3,0-0.4,0c-0.2,0-0.4,0.1-0.5,0.2c-0.3,0-0.5,0.3-0.7,0.6c-0.4,0.5-0.5,1.2-0.5,1.8
			c0,0.2,0,0.3,0,0.5c0,0.1,0.1,0.1,0.1,0.2c0.1,0.2,0.1,0.5,0.2,0.7c0,0,0.1,0.1,0.1,0.1c0,0,0,0.1,0,0.1c0,0.1,0.1,0.1,0.1,0.2
			c0.2,0.2,0.2,0.3,0.4,0.6c0.1,0.1,0.2,0.2,0.3,0.3c0.1,0.1,0.2,0.2,0.4,0.3c0,0,0.1,0,0.1,0c0.2,0.1,0.4,0.2,0.5,0.2
			c0.1,0,0.2,0,0.3,0c0,0,0.1,0,0.1,0c0.1,0,0.3-0.1,0.4-0.1c0.2-0.1,0.4-0.2,0.6-0.4c0,0,0,0,0-0.1c0.1-0.1,0.2-0.2,0.3-0.3
			c0.1-0.2,0.2-0.4,0.2-0.6c0-0.1,0.1-0.2,0.1-0.3c0.1-0.3,0.1-0.8,0-1.1c-0.1-0.1-0.1-0.3-0.2-0.3c0-0.2-0.2-0.3-0.4-0.2
			c0,0.1,0,0.2,0,0.3c0,0.1,0.1,0.2,0.1,0.3c0,0.1,0,0.1,0,0.2c0,0.1,0,0.2,0,0.3c0,0,0,0.1,0,0.1c0,0,0,0.1,0,0.1c0,0,0,0.1,0,0.1
			c0,0,0,0.1,0,0.1c0,0.3-0.2,0.5-0.2,0.7c-0.1,0-0.1,0.1-0.1,0.2c-0.1,0.1-0.2,0.1-0.2,0.2c0,0,0,0.1,0,0.1c0,0-0.1,0-0.1,0
			c0,0-0.1,0.1-0.1,0.1c-0.1,0-0.1,0.1-0.2,0.1c-0.2,0.1-0.5,0.1-0.7,0c-0.1,0-0.1-0.1-0.2-0.1c-0.1-0.1-0.2-0.1-0.3-0.2
			c-0.1-0.1-0.2-0.2-0.3-0.3c0,0-0.1,0-0.1-0.1c0-0.1-0.1-0.1-0.1-0.2c-0.1-0.1-0.2-0.2-0.2-0.4c-0.1,0-0.1-0.1-0.1-0.2
			c0-0.2-0.1-0.4-0.2-0.6c0-0.1-0.1-0.3-0.1-0.4C55,57.7,54.9,57.5,54.9,57.3z"/>
	</g>
	<g>
		<ellipse transform="matrix(0.9579 -0.2871 0.2871 0.9579 -12.3664 22.5427)" class="st1" cx="70.7" cy="53.4" rx="1.5" ry="2.2"/>
		<path class="st1" d="M69.2,53c0-0.3,0.1-0.7,0.2-0.9c0-0.1,0-0.1,0.1-0.2c0.1-0.1,0.2-0.3,0.4-0.4c0,0,0,0,0-0.1
			c0.1-0.1,0.3-0.1,0.4-0.1c0.1,0,0.2,0,0.3,0c0.1,0,0.1,0,0.2,0c0.2,0.1,0.4,0.2,0.5,0.3c0.1,0.1,0.2,0.2,0.3,0.3
			c0,0.1,0.1,0.1,0.1,0.2c0,0,0,0.1,0,0.1c0,0.1,0.1,0.1,0.1,0.2c0,0.1,0,0.2,0.1,0.3c0,0.1,0.2,0.1,0.3,0.1c0.1,0,0.2-0.1,0.2-0.2
			c0-0.1,0-0.2,0-0.3c-0.1-0.3-0.3-0.6-0.5-0.8c-0.1-0.1-0.3-0.3-0.5-0.4c-0.1,0-0.1-0.1-0.2-0.1C71,51.1,70.8,51,70.6,51
			c-0.1,0-0.2,0-0.4,0c-0.2,0-0.3,0.1-0.5,0.2c-0.2,0-0.5,0.3-0.6,0.5c-0.4,0.4-0.4,1-0.4,1.5c0,0.1,0,0.3,0,0.4
			c0,0.1,0,0.1,0.1,0.2c0.1,0.2,0.1,0.4,0.1,0.5c0,0,0.1,0.1,0.1,0.1c0,0,0,0.1,0,0.1c0,0.1,0.1,0.1,0.1,0.2
			c0.1,0.2,0.2,0.3,0.3,0.5c0.1,0,0.2,0.1,0.2,0.2c0.1,0.1,0.2,0.2,0.3,0.3c0,0,0.1,0,0.1,0c0.1,0.1,0.3,0.1,0.4,0.2
			c0.1,0,0.2,0,0.3,0c0,0,0.1,0,0.1,0c0.1,0,0.2-0.1,0.3-0.1c0.2,0,0.3-0.2,0.5-0.3c0,0,0,0,0-0.1c0.1-0.1,0.2-0.1,0.3-0.2
			c0.1-0.2,0.1-0.4,0.2-0.5c0-0.1,0.1-0.2,0.1-0.2c0.1-0.2,0.1-0.6,0-0.9c-0.1-0.1-0.1-0.2-0.1-0.3c0-0.2-0.2-0.3-0.3-0.1
			c0,0.1,0,0.1,0,0.2c0,0.1,0.1,0.2,0.1,0.2c0,0,0,0.1,0,0.1c0,0.1,0,0.1,0,0.2c0,0,0,0.1,0,0.1c0,0,0,0.1,0,0.1c0,0,0,0.1,0,0.1
			c0,0,0,0.1,0,0.1c0,0.2-0.2,0.4-0.2,0.5c-0.1,0-0.1,0.1-0.1,0.1c0,0.1-0.1,0.1-0.2,0.1c0,0,0,0,0,0.1c0,0-0.1,0-0.1,0
			c0,0,0,0-0.1,0.1c0,0-0.1,0.1-0.2,0.1c-0.2,0.1-0.4,0.1-0.5,0c-0.1,0-0.1-0.1-0.1-0.1c-0.1-0.1-0.2-0.1-0.3-0.1
			c-0.1-0.1-0.1-0.1-0.2-0.2c0,0,0,0-0.1-0.1c0,0-0.1-0.1-0.1-0.1c-0.1-0.1-0.2-0.2-0.2-0.3c-0.1,0,0-0.1-0.1-0.1
			c0-0.2-0.1-0.3-0.2-0.5c0-0.1,0-0.2-0.1-0.3C69.3,53.4,69.3,53.2,69.2,53z"/>
	</g>
	<path class="st1" d="M26.3,141.4c-0.2,0.3-0.4,0.7-0.6,0.9c0,0.1,0,0.2-0.1,0.2c-0.2,0.1-0.4,0.3-0.4,0.5c0,0,0.1,0.1,0.1,0.1
		c0,0.2-0.3,0.2-0.3,0.4c0,0.1-0.2,0.2-0.2,0.3c0,0.1,0,0.2,0,0.3c0,0.3-0.3,0.4-0.4,0.6c-0.1,0.1-0.1,0.3-0.3,0.4
		c-0.1,0-0.1,0.1-0.1,0.2c0,0-0.1,0-0.2,0c-0.1,0-0.1,0.1-0.2,0.2c-0.1,0.1-0.3,0.1-0.3,0.2c0,0.1,0.4,0.5,0.6,0.7
		c0.2,0.1,0.7,0.4,0.9,0.4c0.2,0,0.2-0.1,0.4-0.1c0.1-0.3,0.3-0.6,0.5-0.9c0.1-0.2,0.3-0.3,0.4-0.5c0,0,0-0.1,0-0.2
		c0.1-0.2,0.3-0.2,0.3-0.4c0-0.1,0.1-0.2,0.2-0.3c0.1-0.1,0-0.3,0.1-0.4c0.3,0,0.3-0.4,0.5-0.5c0.4-0.3,0.3-1,0.8-1.3
		c0-0.2,0.1-0.2,0.2-0.3c0,0,0-0.2,0-0.2c0-0.2,0.3-0.3,0.3-0.5c0,0,0-0.1,0-0.2c0,0,0.1,0,0.1-0.1c0-0.1,0-0.1,0-0.2
		c0.1-0.2,0.1-0.4,0.3-0.5c-0.1-0.1,0-0.2,0.1-0.3c0.1-0.1,0.3-0.2,0.3-0.3c0,0,0-0.1,0-0.1c0-0.2,0.2-0.3,0.3-0.4
		c0.1-0.1,0-0.2,0-0.3c0,0,0.1,0,0.1-0.1c0.1-0.1,0-0.2,0.1-0.3c0.1-0.1,0.2-0.3,0.3-0.5c0,0-0.1-0.1-0.1-0.1c0.2,0,0.3-0.1,0.4-0.1
		c0.2-0.1,0.1-0.4,0.2-0.5c0-0.1,0.2-0.1,0.1-0.2c0.4-0.1,0.5-0.5,0.5-0.8c-0.1-0.2,0-0.3-0.2-0.5c0.2-0.1-0.3-0.6-0.9-0.8
		c-0.2,0-0.4-0.1-0.4,0c-0.1,0.1,0,0.3,0,0.4c0,0-0.1,0-0.2,0.1c-0.1,0.1,0,0.2,0,0.3c0,0-0.1,0-0.1,0.1c0,0,0.1,0.1,0,0.2
		c0,0-0.1,0-0.1,0.1c0,0,0,0.1,0,0.1c-0.1,0.2-0.5,0.3-0.4,0.6c-0.3-0.1-0.2,0.1-0.2,0.2c-0.1,0.1-0.3,0.1-0.3,0.2
		c0,0,0.1,0.1,0,0.1c0,0-0.1,0-0.1,0.1c0,0,0,0.1,0,0.2c0,0.1-0.1,0.2-0.1,0.2c-0.1,0.2-0.1,0.5-0.3,0.8c0,0.1-0.2,0.1-0.2,0.1
		c-0.1,0.1,0,0.3-0.1,0.4c0,0.1-0.2,0.2-0.2,0.3c0,0,0,0.1,0,0.1c0,0.1-0.2,0.1-0.2,0.1c0,0.1,0,0.3-0.2,0.4
		c0.2,0.2-0.1,0.1,0.1,0.3c-0.3,0-0.3,0.3-0.2,0.5c-0.1,0-0.2,0.2-0.2,0.3C26.4,141,26.4,141.3,26.3,141.4z"/>
	<path class="st1" d="M95.7,141.9c0.2,0.2,0.4,0.5,0.5,0.8c0,0.1,0.1,0.1,0.2,0.2c0.1,0.2,0.1,0.4,0.3,0.5c0,0,0.1,0,0.1,0
		c0.2,0.1,0.1,0.3,0.2,0.4c0.1,0.1,0.1,0.2,0.1,0.3c0.1,0.1,0.2,0,0.2,0.1c0.2,0.1,0.2,0.3,0.3,0.5c0.1,0.1,0.2,0.2,0.2,0.3
		c0,0.1,0.1,0.1,0.1,0.2c0,0-0.1,0.1-0.1,0.1c0,0.1,0.1,0.1,0.1,0.2c0,0.1-0.1,0.3,0,0.3c0.1,0,0.6-0.2,0.8-0.3
		c0.2-0.2,0.7-0.5,0.7-0.7c0.1-0.2,0-0.2,0.1-0.3c-0.2-0.2-0.4-0.4-0.6-0.6c-0.1-0.1-0.2-0.3-0.2-0.5c0,0-0.1,0-0.2-0.1
		c-0.1-0.1-0.1-0.3-0.2-0.3c-0.1,0-0.1-0.1-0.2-0.2c-0.1-0.1-0.3-0.1-0.3-0.2c0.1-0.3-0.2-0.3-0.2-0.5c-0.1-0.5-0.7-0.6-0.7-1
		c-0.2,0-0.2-0.2-0.2-0.3c0-0.1-0.1,0-0.2-0.1c-0.1-0.1-0.1-0.3-0.2-0.4c0,0-0.1,0-0.2,0c0,0,0-0.1,0-0.1c0,0-0.1-0.1-0.2-0.1
		c-0.2-0.1-0.3-0.2-0.3-0.4c-0.2,0-0.2-0.1-0.2-0.2c0-0.1,0-0.3-0.2-0.3c0,0-0.1,0-0.1,0c-0.1-0.1-0.2-0.2-0.2-0.3
		c0-0.1-0.2-0.1-0.2-0.1c0,0,0-0.1,0-0.1c0-0.1-0.2-0.1-0.2-0.1c0-0.1-0.2-0.2-0.3-0.3c0,0-0.2,0.1-0.1,0.1c0-0.1,0.1-0.3,0.1-0.4
		c0-0.2-0.3-0.2-0.4-0.3c0-0.1,0.1-0.2-0.1-0.2c0.1-0.3-0.2-0.5-0.4-0.6c-0.2,0.1-0.2-0.1-0.5,0c-0.1-0.2-0.7,0.1-1.1,0.6
		c-0.1,0.1-0.2,0.3-0.2,0.4c0,0.1,0.3,0,0.3,0.1c0,0,0,0.1,0,0.2c0,0.1,0.2,0.1,0.2,0.1c0,0,0,0.1,0,0.1c0,0,0.1,0,0.1,0
		c0,0,0,0.1,0,0.1c0,0,0.1,0,0.1,0c0.1,0.2,0,0.5,0.4,0.5c-0.2,0.2,0,0.2,0,0.2c0.1,0.1,0,0.2,0,0.3c0,0,0.1,0,0.1,0
		c0,0,0,0.1,0,0.1c0,0,0.1,0,0.2,0c0.1,0,0.1,0.1,0.2,0.2c0.2,0.1,0.4,0.2,0.5,0.4c0,0.1,0,0.2,0,0.2c0,0.1,0.2,0.1,0.3,0.2
		c0.1,0.1,0.1,0.2,0.1,0.3c0,0,0.1,0,0.1,0c0,0,0,0.1,0,0.2c0.1,0.1,0.3,0.1,0.3,0.2c0.2-0.1,0.1,0.1,0.2,0
		c-0.1,0.2,0.1,0.4,0.3,0.3c0,0.1,0.1,0.2,0.2,0.2C95.4,141.8,95.6,141.8,95.7,141.9z"/>
	<path class="st1" d="M105.2,21.7c2.2-5.4,6.6-10.3,10.4-13c0.5-0.4,1.1-0.8,1.6-1.2c0.6-0.4,1.1-0.7,1.7-1c0.7-0.4,1.4-0.8,2.1-1.1
		c0.8-0.3,1.5-0.7,2.3-1c0.8-0.3,1.6-0.5,2.4-0.8c0.8-0.3,1.6-0.4,2.3-0.7c0.4-0.1,0.8-0.3,1.2-0.4c0.6-0.2,1.3-0.2,2-0.4
		c0.7-0.1,1.4-0.2,2.1-0.3c1.4,0,2.9-0.2,4.2-0.1c2-0.1,3.6,0.3,5.5,0.5c0.7,0.1,1.4,0.2,2,0.3c0.6,0.1,1.2,0.2,1.8,0.4
		c0.9,0.3,1.8,0.5,2.7,0.8c0.9,0.4,1.7,0.7,2.6,1.1c0.8,0.4,1.6,0.9,2.4,1.3c0.8,0.4,1.5,1,2.2,1.4c0.3,0.2,0.5,0.3,0.8,0.5
		c0.3,0.2,0.5,0.4,0.8,0.6c0.5,0.4,1,0.8,1.6,1.2c0.5,0.5,1,0.9,1.4,1.4c0.2,0.2,0.5,0.5,0.7,0.7c0.2,0.2,0.4,0.5,0.6,0.7
		c0.7,0.8,1.5,1.7,2,2.6c0.2,0.3,0.4,0.8,0.6,1.1c0.3,0.4,0.6,1,0.9,1.6c0.3,0.6,0.8,1.3,1,2c0.4,1,0.7,1.8,0.9,2.6
		c0.2,0.8,0.3,1.5,0.5,2c0.2,0.6,0.5,1.5,0.8,2.2c0.3,0.7,0.6,1.4,0.8,1.4c0.3,0.1,0.7-1.1,0.6-2.2c0.1-1.2-0.7-3.1-0.8-4.2
		c-1.8-5.1-5.2-9.9-9.1-13.2c-2.4-2.1-5.2-3.9-8.2-5.4c-0.9-0.4-1.8-0.7-2.7-1c-2.9-1-5.7-1.8-8-1.9c-0.8,0-1.6-0.2-2.4-0.2
		c-0.8,0-1.7-0.1-2.6-0.1c-2.2,0.1-4.5,0.4-6.7,0.8c-2.9,0.2-7.3,1.7-10.4,3.3c-3.6,1.7-6.9,4.2-9.8,7.2c-2.8,3-5.1,6.6-6.7,10.4
		c-0.2,0.5-0.3,1-0.5,1.5c-0.2,0.5-0.3,1.1-0.5,1.6c-0.2,0.5-0.3,1.1-0.5,1.6c-0.1,0.5-0.2,1-0.3,1.5c-0.1,0.5-0.2,1-0.2,1.6
		c0,0.5,0,1.1,0,1.7c-0.1,1.5,0,3.1,0.1,4.7c0.1,0.8,0.2,1.6,0.3,2.3c0.1,0.4,0.1,0.7,0.2,1.1c0.1,0.4,0.2,0.7,0.3,1
		c0.2,0.7,0.5,1.3,0.7,2c0.3,0.6,0.4,1.2,0.7,1.8c0.4,1,1,2,1.6,3c0.4,0.8,1,1.6,1.5,2.3c0.2,0.4,0.5,0.7,0.7,1
		c0.2,0.3,0.5,0.6,0.8,0.9c0.5,0.6,1,1.2,1.5,1.8c0.5,0.5,1.1,1.1,1.6,1.6c0.5,0.5,1.3,1,2,1.5c0.4,0.3,0.7,0.6,1.1,0.9
		c0.4,0.3,0.8,0.5,1.1,0.8c0.5,0.3,0.9,0.6,1.4,1c0.5,0.3,1,0.6,1.5,0.8c0.5,0.3,1,0.6,1.5,0.8c0.5,0.2,1.1,0.4,1.6,0.6
		c0.5,0.2,1,0.3,1.5,0.5c1.1,0.3,2.4,0.8,3.6,1c0.6,0.1,1.2,0.3,1.8,0.4c0.3,0.1,0.6,0.1,0.8,0.2c0.3,0,0.5,0.1,0.7,0.1
		c1.4,0.2,2.7,0.3,4.1,0.2c0.6,0,1.2,0.1,1.8,0.1c0.8,0,1.6-0.1,2.4-0.2c0.8-0.1,1.6-0.2,2.4-0.3c1.3-0.2,2.7-0.4,4.1-0.8
		c0.7-0.2,1.4-0.3,2.1-0.6c0.7-0.2,1.3-0.5,2-0.7c0.6-0.2,0.1-0.2,0.7-0.4c0.8-0.2,1.5-0.6,2.4-0.9c0.8-0.3,1.6-0.7,2.5-1.2
		c1.3-0.6,2.5-1.6,3.7-2.5c0.6-0.5,1.2-1,1.7-1.5c0.6-0.5,1.1-1,1.7-1.6c0.5-0.5,1-1,1.5-1.4c0.5-0.5,0.9-1,1.2-1.5
		c0.3-0.4,0.7-0.8,1.1-1.2c0.3-0.5,0.7-0.9,1-1.4c0.7-1,1.3-2.1,1.9-3.3c0.3-0.6,0.5-1.2,0.7-1.8c0.2-0.6,0.5-1.2,0.7-1.8
		c0.3-1.2,0.7-2.4,0.8-3.5c0-0.6,0.1-1.5,0.2-2.4c0-0.9,0-1.7-0.1-2.2c0-0.4,0.1-0.8,0-1.2c0-0.4-0.1-0.7-0.1-1.1
		c-0.1-0.6-0.2-1.2-0.4-1.5c-0.3-0.7-0.6-0.7-0.8,0.4c-0.1,1.4-0.2,2.1-0.3,3.6c0,1.5-0.1,3.1-0.4,4.6c-0.2,0.7-0.5,1.4-0.7,2.1
		c-0.1,0.6-0.4,1.2-0.6,1.8c-0.2,0.6-0.4,1.3-0.7,1.9c-0.3,0.6-0.7,1.1-0.9,1.6c-0.1,0.3-0.2,0.5-0.3,0.8c-0.1,0.2-0.2,0.5-0.4,0.7
		c-0.4,0.6-0.8,1.1-1.2,1.7c-0.3,0.4-0.6,0.8-0.9,1.2c-2.3,2.9-5.7,5.4-8.2,7.3c-0.5,0.1-1,0.4-1.5,0.7c-0.5,0.3-1,0.7-1.5,0.9
		c-0.7,0.3-1.5,0.6-2.2,0.9c-0.8,0.2-1.5,0.5-2.2,0.7c-0.5,0.2-0.8,0.4-1.3,0.5c-0.6,0.2-1.2,0.2-1.8,0.4c-0.6,0.2-1.2,0.4-1.7,0.5
		c-1.2,0.2-2.6,0.5-4,0.6c-3.8,0.4-7.7,0.3-11.7-0.8c-1.1-0.4-2.1-0.7-3.1-1.1c-0.9-0.4-1.8-0.7-2.6-1c-0.8-0.4-1.7-0.8-2.5-1.2
		c-0.8-0.4-1.6-1-2.4-1.5c-0.8-0.5-1.5-1.2-2.2-1.7c-0.2-0.2-0.4-0.3-0.6-0.4c-0.2-0.2-0.4-0.3-0.6-0.5c-0.4-0.4-0.7-0.7-1.1-1.1
		l-0.5-0.5c-0.2-0.2-0.3-0.4-0.5-0.6c-0.7-0.8-1.5-1.5-2-2.4c-0.6-0.8-1.2-1.7-1.6-2.6c-0.6-0.6-0.9-1.6-1.5-2.5
		c-1-2.4-1.8-6-2.2-8.4c0-0.7-0.1-1.7-0.1-2.7c0-1,0.1-2,0.1-2.8c0.2-0.6,0.3-1.3,0.4-2c0.1-0.3,0.1-0.7,0.2-1
		c0.1-0.3,0.2-0.7,0.3-1c0.2-0.7,0.3-1.4,0.5-2.1C104.7,23,104.9,22.4,105.2,21.7z"/>
	<path class="st1" d="M155.1,50c-0.5,0.4-0.9,0.9-1.4,1.2c-0.5,0.3-1,0.7-1.4,0.9c-0.2,0.2-0.4,0.4-0.7,0.5c-0.6,0.3-1.3,0.6-1.8,1
		c-0.1,0-0.1,0.2-0.2,0.2c-0.4,0.3-1.1,0.4-1.6,0.7c-0.4,0.2-0.7,0.3-1.1,0.4c-0.3,0.1-0.5,0.3-0.7,0.4c-0.7,0.3-1.4,0.6-2.1,0.7
		c-0.5,0.1-1.1,0.3-1.6,0.4c-0.2,0-0.5,0.1-0.7,0.1c-0.1,0-0.2-0.1-0.3-0.1c-0.2,0-0.5,0.1-0.9,0.1c-0.4,0-0.8-0.1-1,0
		c-0.3,0.1-0.7,0.6-0.7,0.8c0,0.2,0.3,0.6,0.5,0.7c0.2,0.1,0.6,0,0.9,0.1c0.5-0.1,1.1-0.2,1.6-0.3c0.5-0.1,1.1-0.3,1.6-0.4
		c0.6-0.2,1.3-0.3,2-0.5c0.2-0.1,0.4-0.2,0.5-0.3c0.6-0.2,1.2-0.3,1.6-0.6c0.3-0.2,0.6-0.3,0.9-0.4c0.4-0.2,0.8-0.5,1.2-0.7
		c0.6-0.1,1.3-0.7,2-1c0.8-0.3,1.4-0.9,2.1-1.4c0.7-0.5,1.3-1.1,2-1.6c0.2-0.4,0.7-0.6,1-0.9c0.2-0.1,0.3-0.4,0.4-0.5
		c0.4-0.5,1-0.9,1.3-1.4c0.1-0.1,0.1-0.3,0.2-0.4c0.1-0.1,0.2-0.2,0.3-0.3c0.1-0.2,0.3-0.4,0.4-0.6c0.5-0.6,0.8-1.2,1.2-1.6
		c0.1-0.3,0.3-0.7,0.5-0.9c0.3-0.4,0.5-0.8,0.7-1.2c0-0.1,0-0.2,0.1-0.3c0.2-0.4,0.5-1,0.7-1.3c0.1-0.3,0.1-0.6,0.2-0.8
		c0-0.1,0.1-0.2,0.2-0.3c0.1-0.3,0.1-0.7,0.3-1c0.2-0.5,0.3-1.1,0.4-1.7c0.1-0.1-0.1-0.1-0.1-0.2c0.2-0.3,0.4-0.6,0.5-1
		c0.2-0.6,0.1-1.3,0.2-1.9c0.1-0.3,0.2-0.6,0.1-0.8c0.2-0.8,0.3-2.1,0.1-3c-0.2-0.2-0.2-0.7-0.4-0.9c0-0.7-0.5-1.1-1-0.6
		c-0.1,0.3-0.2,0.5-0.2,0.8c0,0.3,0.2,0.6,0.2,1c0,0.2-0.1,0.3-0.1,0.5c0,0.3,0.1,0.5,0.1,0.8c0,0.1-0.1,0.3-0.1,0.4
		c0,0.1,0.1,0.2,0.1,0.3c0,0.1-0.1,0.3-0.1,0.4c0,0.1,0,0.2,0,0.3c0,0.8-0.4,1.6-0.3,2.2c-0.2,0.2-0.1,0.5-0.2,0.7
		c-0.1,0.3-0.3,0.6-0.4,0.9c0,0.1,0,0.2,0,0.3c0,0.1-0.1,0.2-0.2,0.3c0,0.1,0,0.3,0,0.4c0,0.3-0.2,0.5-0.3,0.8
		c-0.3,0.7-0.4,1.6-0.8,2.3c-0.1,0.2-0.3,0.4-0.4,0.6c-0.2,0.4-0.3,0.7-0.4,1.1c-0.2,0.3-0.5,0.6-0.7,1c-0.1,0.1-0.1,0.2-0.1,0.3
		c-0.1,0.2-0.3,0.3-0.4,0.5c-0.2,0.4-0.4,0.8-0.7,1.1c0,0.2-0.2,0.3-0.3,0.6c-0.2,0.2-0.5,0.4-0.6,0.7c-0.2,0.3-0.4,0.5-0.5,0.7
		c-0.3,0.2-0.6,0.5-0.8,0.8C155.9,49.1,155.5,49.6,155.1,50z"/>
	<path class="st1" d="M102.2,60.4c0.3-0.8,1-1.5,1.6-1.9c0.2-0.1,0.3-0.3,0.5-0.4c0.4-0.2,1-0.3,1.4-0.5c0.1,0,0.1-0.1,0.2-0.2
		c0.4-0.2,0.9,0,1.3-0.1c0.3-0.1,0.5,0.1,0.8,0.1c0.2,0,0.4,0,0.6,0c0.6,0.1,1.1,0.4,1.5,0.7c0.3,0.2,0.7,0.5,0.9,0.8
		c0.1,0.1,0.2,0.3,0.3,0.4c0,0.1,0,0.2,0,0.2c0,0.1,0.2,0.3,0.3,0.5c0.1,0.3,0,0.6,0,0.7c0.1,0.1,0.7,0.4,1,0.4
		c0.3,0,0.8-0.3,0.9-0.5c0.2-0.3-0.1-0.6,0.1-0.9c-0.4-1-1.1-2-1.9-2.6c-0.5-0.4-1-0.8-1.6-1.1c-0.2-0.1-0.4-0.1-0.6-0.1
		c-0.6-0.2-1.1-0.5-1.5-0.4c-0.3,0.1-0.6-0.1-1-0.1c-0.4,0-0.9,0.2-1.3,0.3c-0.6-0.2-1.4,0.3-2,0.5c-0.7,0.2-1.4,0.8-1.9,1.4
		c-0.5,0.6-0.9,1.3-1.3,2c0,0.4-0.3,0.9-0.3,1.2c-0.1,0.2,0,0.4,0,0.6c0,0.6,0,1.3,0.2,1.8c0,0.1,0.2,0.2,0.2,0.4
		c0.1,0.1,0,0.3,0.1,0.4c0.1,0.2,0.2,0.4,0.4,0.6c0.4,0.6,0.8,1,1.2,1.5c0.3,0.1,0.6,0.4,0.8,0.5c0.3,0.3,0.7,0.5,1.1,0.6
		c0.1,0,0.2,0,0.3,0c0.4,0.1,0.9,0.3,1.3,0.3c0.3,0,0.5,0,0.8-0.1c0.1,0,0.2,0.1,0.3,0.1c0.3,0,0.6-0.2,0.9-0.2c0.5,0,1-0.2,1.5-0.4
		c0.1,0,0-0.2,0.1-0.2c0.3,0,0.6,0,1-0.2c0.5-0.2,0.9-0.7,1.2-1.1c0.2-0.2,0.5-0.3,0.5-0.5c0.7-0.4,1.1-1.6,1.1-2.4
		c-0.2-0.3-0.1-0.7-0.3-0.9c0.1-0.6-0.6-0.9-1.2-0.5c-0.1,0.2-0.3,0.3-0.3,0.5c0,0.2,0.1,0.4,0.1,0.6c0,0.1-0.2,0.2-0.2,0.3
		c-0.1,0.1,0,0.4-0.1,0.5c0,0.1-0.2,0.1-0.2,0.2c0,0.1,0,0.2,0,0.2c0,0.1-0.2,0.1-0.2,0.2c0,0,0,0.1-0.1,0.2c-0.3,0.4-0.9,0.6-1.1,1
		c-0.3-0.2-0.3,0.1-0.5,0.2c-0.2,0.1-0.5,0-0.6,0.1c-0.1,0-0.1,0.1-0.1,0.2c-0.1,0-0.2,0-0.3,0c-0.1,0-0.1,0.1-0.2,0.2
		c-0.2,0.1-0.4,0.1-0.6,0.1c-0.5,0.1-1.1,0.2-1.7,0c-0.2-0.1-0.3-0.2-0.4-0.3c-0.2-0.1-0.5-0.1-0.8-0.2c-0.2-0.1-0.4-0.3-0.6-0.5
		c-0.1,0-0.2,0-0.2-0.1c-0.1-0.1-0.1-0.3-0.2-0.4c-0.2-0.2-0.5-0.3-0.6-0.7c-0.3,0-0.1-0.2-0.4-0.3c0-0.4-0.1-0.9-0.4-1.2
		c0-0.2,0-0.5,0-0.8C102.2,61.2,102.1,60.8,102.2,60.4z"/>
	<path class="st1" d="M93.4,66.9c0.2-0.4,0.7-0.7,1-0.9c0.1-0.1,0.2-0.1,0.3-0.2c0.3,0,0.6,0,0.8-0.1c0,0,0.1-0.1,0.1-0.1
		c0.2-0.1,0.5,0.1,0.7,0c0.2,0,0.3,0.1,0.4,0.1c0.1,0,0.2-0.1,0.4-0.1c0.3,0,0.6,0.3,0.8,0.4c0.2,0.1,0.4,0.3,0.5,0.5
		c0,0.1,0.1,0.2,0.1,0.2c0,0-0.1,0.1-0.1,0.2c0,0.1,0.1,0.2,0.1,0.3c0,0.2-0.2,0.3-0.1,0.4c0.1,0.1,0.6,0.2,0.9,0.2
		c0.3,0,0.8-0.1,1-0.3c0.2-0.2,0-0.4,0.2-0.6c-0.3-0.7-0.7-1.4-1.2-1.8c-0.3-0.3-0.6-0.6-1-0.8c-0.1-0.1-0.3,0-0.4-0.1
		c-0.3-0.2-0.7-0.4-1-0.3c-0.2,0.1-0.4-0.1-0.6-0.1c-0.3,0-0.5,0.1-0.8,0.1c-0.4-0.3-0.9,0.1-1.3,0.1c-0.5,0.1-1,0.3-1.3,0.7
		c-0.4,0.4-0.7,0.8-1.1,1.2c0,0.3-0.3,0.5-0.4,0.8c-0.1,0.1,0,0.3,0,0.5c0,0.4-0.2,0.9,0,1.2c0,0.1,0.1,0.2,0.2,0.3
		c0,0.1,0,0.2,0,0.3c0,0.1,0.2,0.3,0.2,0.4c0.3,0.4,0.6,0.6,0.7,1c0.2,0,0.4,0.2,0.5,0.4c0.2,0.2,0.4,0.4,0.7,0.5c0.1,0,0.2,0,0.2,0
		c0.3,0,0.6,0.2,0.8,0.3c0.2,0.1,0.3,0,0.5,0c0.1,0,0.1,0.1,0.2,0.1c0.2,0,0.4-0.1,0.5-0.1c0.3,0,0.6-0.1,0.9-0.2c0.1,0,0-0.2,0-0.2
		c0.2,0.1,0.4,0.1,0.6,0.1c0.4,0,0.6-0.4,0.9-0.6c0.1-0.1,0.4-0.1,0.4-0.3c0.5-0.1,0.9-0.8,1-1.4c-0.2-0.2,0-0.5-0.3-0.6
		c0.1-0.2-0.1-0.3-0.3-0.4c-0.2-0.1-0.6-0.1-0.9,0C98.2,68,98,68,98,68.1c0,0.1,0.1,0.2,0.1,0.3c0,0-0.1,0-0.2,0.1c0,0,0,0.2,0,0.2
		c0,0-0.1,0-0.1,0c0,0,0,0.1,0,0.1c0,0-0.1,0-0.1,0c0,0,0,0.1,0,0.1c-0.2,0.2-0.5,0.1-0.6,0.4c-0.2-0.2-0.2,0-0.3,0
		c-0.1,0-0.3-0.1-0.3-0.1c0,0,0,0.1-0.1,0.1c0,0-0.1-0.1-0.1-0.1c0,0-0.1,0.1-0.1,0.1c-0.1,0.1-0.2,0-0.3,0c-0.3,0.1-0.6,0.2-0.9,0
		c-0.1,0-0.1-0.2-0.2-0.2c-0.1-0.1-0.3,0-0.4-0.1c-0.1,0-0.2-0.2-0.3-0.3c0,0-0.1,0-0.1,0c-0.1-0.1,0-0.2-0.1-0.2
		c-0.1-0.1-0.3-0.1-0.3-0.3c-0.2,0-0.1-0.1-0.3-0.1c0.1-0.2,0-0.4-0.2-0.6c0.1-0.1,0.1-0.3,0-0.4C93.4,67.3,93.3,67.1,93.4,66.9z"/>
	<path class="st1" d="M134.9,22.3c0.2-1.5,0.3-2.3,0.4-3.2c0.1-0.9,0.3-1.8,0.4-2.5c0-0.2,0-0.4,0.1-0.6c0-0.2,0-0.4,0.1-0.5
		c0.2-0.4,0.4-0.8,0.7-1.1c0.3-0.3,0.5-0.3,0.9-0.3c0.1,0,0.2-0.1,0.3,0c0.3,0.1,0.6,0.3,0.7,0.6c0.1,0.3,0.1,0.6,0.1,1
		c0,0.6-0.2,1.1-0.2,1.7c0,0.5,0,0.9,0,1.3c0,1.2-0.3,2.4-0.4,3.5c-0.1,0.8-0.1,1.7-0.3,2.5c-0.1,0.3-0.1,0.7-0.2,1
		c0,0.1-0.2,0.2-0.2,0.4c-0.1,0.3-0.1,0.8-0.2,1.3c-0.1,0.7-0.4,1.2-0.4,1.6c0,0.4,0.5,1.3,0.7,1.3c0.3,0.1,0.9-0.2,1.1-0.5
		c0.2-0.3,0.2-0.9,0.4-1.2c0.1-1.6,0.3-3.3,0.5-4.9c0.1-1,0.3-2,0.4-3c0-0.3,0-0.6,0-0.9c0.1-0.9,0.3-1.8,0.3-2.5
		c0-0.2,0-0.5,0.1-0.7c0-0.2,0.1-0.5,0.1-0.9c0-0.5-0.1-1-0.3-1.6c-0.3-0.5-0.8-1-1.2-1.2c-0.3-0.2-0.6-0.4-1-0.5
		c-0.4-0.1-1-0.1-1.5,0.1c-0.5,0.2-0.9,0.5-1.2,0.9c-0.3,0.3-0.5,0.7-0.7,1c-0.2,0.3-0.4,0.7-0.5,1.2c0,0.3-0.1,0.6-0.1,0.9
		c-0.1,0.6-0.1,1.3-0.2,1.9c-0.1,0.6-0.1,1.3-0.2,1.9l-0.1,0.5l0,0.2c0,0,0,0,0,0c0,0,0,0.1-0.1,0.1c0.1,0.2,0,0.2,0,0.2
		c0,0,0,0.3,0.1,0.5c0,0.1,0,0.2,0,0.2c0,0-0.1,0-0.1-0.1c0-0.2,0-0.3-0.1-0.3c0,0-0.1,0.2-0.1,0.2c0,0,0-0.3,0-0.3
		c0-0.1-0.1,0-0.1-0.1c0,0-0.1-0.1-0.1-0.2c0-0.1-0.1-0.2-0.1-0.3c-0.1-0.5-0.2-0.9-0.3-1.4c-0.2-0.4-0.3-1-0.4-1.6
		c-0.1-0.3-0.1-0.7-0.2-1l-0.1-0.5c0-0.2-0.1-0.4-0.2-0.6c-0.1-0.2-0.2-0.4-0.3-0.6c-0.2-0.4-0.5-0.9-0.9-1.3
		c-0.4-0.4-0.9-0.6-1.4-0.7c-0.3-0.1-0.7,0-1,0.1c-0.3,0.1-0.5,0.2-0.8,0.4c-0.2,0.1-0.5,0.3-0.7,0.5c-0.5,0.6-0.5,1.3-0.6,1.8
		c-0.1,1,0.1,1.9,0.2,2.8c0,0.2,0.2,0,0.2,0.2c-0.1,0.5-0.1,1.1,0,1.7c0.1,0.9,0.4,1.8,0.6,2.8c0.1,0.4,0,0.9,0.2,1.2
		c-0.1,1.3,0.4,3.1,0.7,4.4c0.3,0.3,0.3,1.1,0.7,1.3c0.1,1,0.9,1.6,1.4,0.9c0.1-0.5,0.2-0.7,0.1-1.2c-0.1-0.5-0.4-1-0.4-1.5
		c0-0.2,0-0.5,0-0.7c-0.1-0.4-0.2-0.8-0.3-1.2c0-0.2,0-0.4,0-0.6c0-0.2-0.2-0.3-0.2-0.5c0-0.2,0-0.5,0-0.7c0-0.2-0.1-0.3-0.2-0.5
		c-0.2-1.2-0.1-2.6-0.6-3.6c0.2-0.4,0-0.8-0.1-1.1c-0.1-0.5,0-1.1-0.1-1.5c0-0.2-0.1-0.3-0.2-0.4c0-0.2,0-0.4,0-0.5
		c0-0.2-0.1-0.3-0.1-0.5c-0.1-0.3,0-0.7,0.1-0.9c0.1-0.3,0.1-0.5,0.6-0.7c0.1,0,0.1-0.1,0.2-0.1c0.1,0,0.1,0,0.2,0
		c0.1,0,0.3,0.1,0.4,0.3c0.1,0.2,0.2,0.4,0.2,0.7c0.1,0.2,0.1,0.4,0.2,0.7c0.1,0.3,0.2,0.6,0.3,0.9c0.2,0.6,0.2,1.2,0.4,1.8
		c0,0.2,0.1,0.3,0.2,0.5c0.1,0.3,0.1,0.7,0.2,1c0.1,0.4,0.3,0.9,0.4,1.3c0.1,0.5,0.3,1,0.4,1.6c0.1,0.1,0.2,0.3,0.3,0.5
		c0.1,0.2,0.1,0.5,0.2,0.5c0.1,0.3,0.2,0.7,0.3,1c0.1,0.2,0.2,0.5,0.3,0.6c0.1,0.1,0.2,0.2,0.3,0.3l0.1,0.1c0,0,0,0,0.1,0
		c0,0,0.1,0,0.2,0c0.1,0,0.3,0,0.4-0.1c0.1-0.1,0.1-0.2,0.2-0.3c0.1-0.2,0.2-0.4,0.2-0.7c0.1,0,0.2-0.2,0.3-0.4
		c0-0.1,0.1-0.2,0.1-0.3l0.1-0.2c0-0.1,0-0.2,0-0.3C134.8,23.7,134.8,23,134.9,22.3z"/>
	<path class="st1" d="M141.2,31.1c0,0.6-0.2,1.2-0.3,1.7c0,0.1,0,0.3,0,0.4c-0.1,0.3-0.3,0.6-0.2,1c0,0,0.1,0.1,0.1,0.1
		c0.1,0.2-0.3,0.4-0.3,0.6c0,0.2-0.2,0.2-0.3,0.4c-0.1,0.1,0,0.2-0.1,0.3c-0.1,0.3-0.4,0.3-0.7,0.3c-0.2,0-0.4,0-0.5-0.2
		c-0.1-0.1-0.1-0.1-0.2-0.2c0,0,0-0.1,0-0.2c0-0.1-0.2-0.2-0.2-0.3c-0.1-0.2,0-0.4-0.1-0.5c-0.1-0.1-0.7,0-0.9,0.2
		c-0.2,0.1-0.7,0.5-0.7,0.7c-0.1,0.2,0.1,0.3,0,0.5c0.5,0.4,0.8,1,1.8,1.4c0.5,0.2,1.2,0.3,1.8,0c0.2-0.1,0.3-0.2,0.4-0.3
		c0.5-0.3,0.8-0.6,0.9-0.9c0-0.2,0.2-0.3,0.3-0.5c0.1-0.1,0.1-0.3,0.1-0.4c0-0.1,0-0.2,0.1-0.5c0.2-0.3,0.2-0.4,0.2-0.6
		c0-0.2,0-0.4,0.1-0.6c0.3-0.7,0-1.6,0.4-2.4c-0.1-0.2,0-0.4,0.1-0.6c0-0.1-0.1-0.2-0.1-0.3c0-0.3,0.2-0.6,0.2-0.9
		c0-0.1-0.1-0.1-0.1-0.2c0-0.1,0.1-0.1,0.1-0.2c0-0.1,0-0.2,0-0.3c0-0.4,0-0.7,0.2-0.9c-0.1-0.2,0-0.4,0-0.5
		c0.1-0.2,0.2-0.4,0.1-0.7c0-0.1-0.1-0.1-0.1-0.2c0-0.2,0.1-0.5,0.1-0.7c0-0.2-0.1-0.3-0.1-0.5c0-0.1,0.1-0.2,0.1-0.2
		c0-0.2-0.2-0.4-0.2-0.6c0-0.3-0.3-0.7-0.5-0.9c0-0.1-0.2,0.1-0.2,0c0-0.2-0.1-0.5-0.2-0.7c-0.2-0.3-0.7-0.4-1-0.5
		c-0.2-0.1-0.3-0.3-0.5-0.2c-0.3-0.2-0.6-0.3-1-0.2c-0.3,0.1-0.6,0.2-0.8,0.4c-0.1,0.2-0.3,0.3-0.3,0.6c-0.2,0-0.2,0.3-0.2,0.5
		c0.1,0.2,0.3,0.5,0.5,0.7c0.2,0.1,0.3,0.2,0.4,0.2c0.1,0,0.1-0.3,0.2-0.3c0.1,0,0.1,0.1,0.2,0.1c0.1,0,0.1-0.1,0.2-0.2
		c0,0,0.1,0.1,0.1,0.1c0,0,0-0.1,0.1-0.1c0,0,0.1,0.1,0.1,0.1c0,0,0-0.1,0.1-0.1c0.2,0,0.3,0.4,0.6,0.3c-0.1,0.2,0.1,0.1,0.1,0.2
		c0.1,0.1,0,0.2,0,0.3c0,0,0.1,0,0.1,0c0,0,0,0.1,0,0.1c0,0,0.1,0,0.1,0c0.1,0,0.1,0.1,0.1,0.2c0.1,0.2,0.3,0.4,0.2,0.9
		c0,0.1-0.1,0.2-0.2,0.3c0,0.2,0,0.4,0.1,0.6c0,0.2-0.1,0.4-0.1,0.6c0,0.1,0.1,0.1,0.1,0.2c0,0.1-0.1,0.2-0.1,0.3
		c0,0.2,0.1,0.4,0,0.6c0.2,0.1,0,0.2,0.1,0.3c-0.3,0.2-0.2,0.6-0.1,0.9c-0.1,0.1-0.1,0.4-0.1,0.6C141.1,30.5,141.2,30.8,141.2,31.1z
		"/>
	<path class="st1" d="M144.8,36.4c-0.1,0.8-0.3,1.6-0.4,2.2c0,0.2,0,0.4,0,0.5c-0.1,0.4-0.3,0.9-0.3,1.3c0,0.1,0.1,0.1,0.1,0.2
		c0,0.3-0.2,0.7-0.2,1.1c0,0.3-0.1,0.5-0.1,0.7c0,0.2,0.1,0.4,0.1,0.5c0.1,0.5-0.1,1-0.1,1.5c0,0.3,0,0.7,0,1.1c0,0.1,0,0.3-0.1,0.4
		c0,0-0.1,0.1-0.2,0.2c-0.1,0.1,0,0.4,0,0.6c-0.1,0.3-0.2,0.5-0.2,0.7c0.1,0.2,0.6,0.5,0.9,0.5c0.3,0,0.8-0.2,1-0.3
		c0.2-0.1,0.1-0.4,0.3-0.5c-0.1-0.7-0.1-1.4,0-2c0-0.4,0.1-0.8,0.1-1.2c0-0.1-0.1-0.2,0-0.4c0-0.4,0.2-0.7,0.1-1
		c-0.1-0.2,0.1-0.4,0.1-0.6c0-0.3-0.1-0.6,0-0.9c0.3-0.3,0.1-0.9,0.3-1.3c0.4-0.9,0.1-2.1,0.5-3.1c-0.1-0.3,0.1-0.6,0.1-0.8
		c0-0.1,0-0.3,0-0.4c0-0.4,0.2-0.8,0.2-1.2c0-0.1-0.1-0.2-0.1-0.3c0-0.1,0.1-0.2,0.1-0.2c0-0.1,0-0.3,0-0.4c0-0.5,0-0.9,0.2-1.3
		c-0.1-0.2,0-0.5,0-0.7c0.1-0.3,0.2-0.6,0.1-0.9c0-0.1-0.1-0.2-0.1-0.2c0-0.3,0.1-0.7,0.1-0.9c0-0.2-0.1-0.4-0.1-0.5
		c0-0.1,0.1-0.2,0.1-0.2c0-0.2-0.1-0.4-0.1-0.6c0.1-0.3,0-0.8,0-1.2c0-0.1-0.2,0-0.2-0.1c0.1-0.2,0.2-0.5,0.1-0.9
		c-0.1-0.5-0.6-1-1.1-1.3c-0.2-0.1-0.3-0.4-0.6-0.3c-0.1-0.1-0.1-0.1-0.2-0.2c-0.1-0.1-0.2-0.1-0.3-0.2c-0.2-0.1-0.5-0.1-0.7,0
		c-0.5,0.1-0.8,0.3-1.1,0.4c-0.1,0.3-0.4,0.4-0.4,0.7c-0.2,0.1-0.3,0.3-0.3,0.6c0.1,0.2,0.2,0.5,0.5,0.7c0.2,0,0.4,0.2,0.5,0.1
		c0.2-0.1,0.2-0.3,0.4-0.4c0.1,0,0.2,0,0.2,0c0.1,0,0.2-0.2,0.3-0.2c0,0,0.1,0.1,0.1,0.1c0,0,0-0.1,0.1-0.1c0,0,0,0.1,0,0.1
		c0,0,0.1,0,0.2,0c0.2,0.1,0.3,0.2,0.3,0.3c0,0.1,0,0.1,0.2,0.1c-0.2,0.1,0,0.2,0,0.3c0,0.1-0.1,0.3-0.1,0.5c0,0,0.1,0.1,0.1,0.1
		c0,0.1-0.1,0.1-0.1,0.2c0,0.1,0.1,0.1,0.1,0.2c0.1,0.2,0,0.3,0,0.5c0,0.5,0.2,1,0.1,1.6c0,0.1-0.1,0.3-0.2,0.4
		c0,0.3,0.1,0.5,0.1,0.8c0,0.2-0.1,0.5-0.1,0.7c0,0.1,0.1,0.1,0,0.2c0,0.1-0.1,0.3-0.1,0.4c0,0.3,0.1,0.6,0,0.8
		c0.2,0.1,0,0.2,0.1,0.4c-0.3,0.3-0.3,0.8-0.1,1.2c-0.1,0.2-0.1,0.5-0.1,0.7C144.7,35.6,144.8,36,144.8,36.4z"/>
	<path class="st1" d="M127.1,31.9c-0.5,0.5-1,1.1-1.2,1.8c-0.2,0.6-0.3,1.3-0.3,1.9c0,0.3,0.1,0.6,0.2,0.9c0.1,0.7,0.3,1.5,0.7,2.1
		c0.1,0.1,0.2,0.1,0.2,0.2c0.4,0.4,0.6,1.1,1,1.5c0.3,0.3,0.5,0.6,0.8,0.9c0.2,0.2,0.5,0.3,0.7,0.5c0.7,0.3,0.8,1.1,1.1,1.7
		c0.2,0.5,0.4,1,0.4,1.5c0,0.2,0.1,0.5,0.1,0.7c0,0.1-0.1,0.2-0.1,0.3c0,0.2,0.1,0.5,0.1,0.8c0,0.4-0.1,0.8,0,1
		c0.1,0.3,0.7,0.7,1,0.7c0.3,0,0.8-0.3,0.9-0.5c0.1-0.3,0-0.6,0.1-0.9c-0.3-1.1-0.5-2.2-0.8-3.3c-0.2-0.7-0.4-1.4-0.8-2.1
		c-0.1-0.2-0.3-0.4-0.6-0.7c-0.1-0.1-0.3-0.3-0.4-0.4c-0.1-0.1-0.2-0.2-0.3-0.3c-0.2-0.2-0.3-0.3-0.5-0.4c-0.3-0.1-0.4-0.4-0.6-0.7
		c-0.3-0.3-0.6-0.6-0.8-0.9c0-0.6-0.6-1.2-0.7-1.7c-0.1-0.6-0.2-1.2-0.1-1.8c0.1-0.6,0.3-1.1,0.9-1.4c0.1-0.3,0.5-0.4,0.8-0.5
		c0.2,0,0.3-0.2,0.5-0.3c0.5-0.2,1.1-0.2,1.6-0.2c0.1,0,0.2-0.1,0.4-0.1c0.1,0,0.2,0.1,0.4,0.1c0.2,0,0.4-0.1,0.7-0.1
		c0.8-0.1,1.4-0.3,2.1-0.3c0.3-0.2,0.7-0.2,1.1-0.3c0.5-0.1,0.9-0.1,1.4-0.3c0.1,0,0.2-0.2,0.3-0.2c0.1-0.1,0.3-0.1,0.3-0.1
		c0.1,0,0.1,0.1,0.1,0.1c0,0.1,0.2,0.1,0.2,0.2c0,0-0.1,0.1-0.1,0.2c0,0,0.1,0.4,0.1,0.7c-0.1,0.4-0.3,0.9-0.5,1.3
		c-0.1,0.1,0.1,0.1,0.1,0.2c-0.2,0.2-0.5,0.3-0.8,0.4c-0.3,0.2-0.8,0.5-1.4,0.7c-0.3,0.1-0.6,0-0.7,0.2c-0.8-0.1-2,0.2-2.8,0.5
		c-0.2,0.2-0.7,0.2-0.9,0.5c-0.7,0-1.1,0.7-0.6,1.3c0.3,0.1,0.5,0.3,0.8,0.3c0.3,0,0.7-0.3,1-0.3c0.2,0,0.3,0.1,0.5,0.1
		c0.3,0,0.6-0.2,0.8-0.2c0.1,0,0.3,0,0.4,0c0.1,0,0.2-0.1,0.3-0.2c0.2,0,0.3,0,0.5,0c0.1,0,0.2-0.1,0.3-0.1c0.8-0.2,1.8-0.1,2.6-0.9
		c0.4,0.1,0.6-0.4,0.8-0.6c0.3-0.3,0.7-0.6,0.9-1c0.1-0.1,0-0.3,0.1-0.4c0.1-0.2,0.2-0.3,0.3-0.4c0.1-0.2,0-0.3,0-0.5
		c0-0.3,0.1-0.7,0.2-1.1c0-0.2,0-0.5-0.1-0.8c0-0.3-0.2-0.6-0.2-0.9c-0.1-0.3-0.3-0.5-0.4-0.7c-0.2-0.2-0.3-0.5-0.5-0.6
		c-0.2,0.1-0.5,0.1-0.7,0.2c-0.2,0.1-0.4,0.1-0.6,0.1c-0.2,0-0.4,0.1-0.5,0.1c-0.4,0.1-0.7,0.3-1.1,0.4c-0.4,0.1-0.8,0.1-1.1,0.2
		c-0.1,0-0.2,0.1-0.3,0.1c-0.2,0-0.4,0-0.6,0c-0.4,0.1-0.8,0.3-1.2,0.2c-0.1,0.2-0.4,0-0.6,0.2c-0.6-0.2-1.4,0-1.9,0.3
		c-0.3,0-0.8,0.1-1.2,0.3C128.2,31,127.6,31.4,127.1,31.9z"/>
	<path class="st1" d="M136.5,37.4c-0.2-0.2-0.2-0.4-0.3-0.6c0,0-0.1-0.1-0.1-0.1c0-0.1,0-0.3-0.2-0.3c0,0-0.1,0-0.1,0
		c-0.1,0-0.1-0.2-0.2-0.3c-0.1,0-0.1-0.1-0.1-0.2c-0.1,0-0.2,0-0.2,0c-0.2,0-0.2-0.2-0.3-0.3c-0.1-0.1-0.2-0.1-0.2-0.2
		c0,0-0.1-0.1-0.1-0.1c0,0,0.1-0.1,0.1-0.1c0-0.1-0.1-0.1-0.1-0.1c0-0.1,0-0.3,0-0.3c-0.1,0-0.5,0.4-0.6,0.6
		c-0.2,0.2-0.5,0.7-0.5,0.8c-0.1,0.2,0,0.1-0.1,0.3c0.2,0,0.3,0.1,0.4,0.2c0.1,0.1,0.1,0.2,0.1,0.2c0,0,0.1,0,0.1,0
		c0.1,0.1,0,0.2,0.2,0.2c0.1,0,0.1,0.1,0.1,0.1c0.1,0,0.2,0,0.2,0c-0.2,0.2,0.1,0.2,0.1,0.3c-0.1,0.3,0.5,0.2,0.4,0.6
		c0.1,0,0.1,0.1,0.1,0.2c0,0,0.1,0,0.1,0c0.1,0,0,0.2,0.1,0.2c0,0,0.1,0,0.1,0c0,0-0.1,0.1-0.1,0.1c0,0,0.1,0,0.1,0.1
		c0.1,0.1,0.2,0.1,0.1,0.3c0.1,0,0.1,0.1,0.1,0.1c0,0.1-0.1,0.1,0,0.2c0,0,0.1,0,0.1,0c0.1,0.1,0,0.2,0,0.2c0,0,0.1,0.1,0.1,0.1
		c0,0-0.1,0-0.1,0.1c0,0,0.1,0.1,0.1,0.1c0,0.1,0,0.2,0,0.2c0,0,0.2,0,0.2,0c-0.1,0-0.2,0.1-0.3,0.1c-0.1,0.1,0.1,0.2,0.1,0.3
		c0,0-0.2,0.1,0,0.1c-0.3,0.1-0.2,0.2-0.1,0.4c0.2,0.1,0.1,0.1,0.4,0.3c-0.1,0,0.5,0.4,1.1,0.6c0.2,0,0.4,0,0.4-0.1
		c0-0.1-0.1-0.2-0.1-0.3c0,0,0.1,0,0.1-0.1c0-0.1-0.1-0.1-0.1-0.2c0,0,0.1,0,0.1-0.1c0,0-0.1-0.1-0.1-0.1c0,0,0.1,0,0.1-0.1
		c0,0-0.1-0.1-0.1-0.1c0-0.2,0.3-0.3,0.1-0.5c0.3,0,0.1-0.1,0.1-0.1c0-0.1,0.2-0.1,0.2-0.2c0,0-0.1,0-0.1-0.1c0,0,0.1-0.1,0.1-0.1
		c0,0-0.1-0.1-0.1-0.1c-0.1-0.1,0-0.1,0-0.2c-0.1-0.2-0.2-0.3-0.2-0.5c0,0,0.1-0.1,0.1-0.2c0-0.1-0.1-0.1-0.2-0.2
		c-0.1-0.1,0-0.2,0-0.2c0,0-0.1,0-0.1,0c0,0,0.1-0.1,0-0.1c-0.1-0.1-0.2-0.1-0.2-0.2c-0.2,0,0-0.1-0.2-0.1c0.2-0.2,0-0.3-0.2-0.3
		c0-0.1,0-0.2-0.1-0.2C136.8,37.5,136.5,37.5,136.5,37.4z"/>
	<path class="st1" d="M144.1,36.1c0.2-0.1,0.5,0,0.6-0.1c0,0,0.1-0.1,0.1-0.1c0.1,0,0.3,0.1,0.4-0.1c0,0,0-0.1,0-0.1
		c0-0.1,0.2,0,0.3-0.1c0-0.1,0.1,0,0.2-0.1c0,0,0-0.1,0-0.2c0-0.2,0.2-0.2,0.3-0.2c0.1-0.1,0.1-0.2,0.2-0.2c0,0,0-0.1,0.1-0.1
		c0,0,0.1,0.1,0.1,0.1c0.1,0,0-0.1,0.1-0.1c0.1,0,0.3,0.1,0.3,0c0-0.1-0.4-0.4-0.7-0.6c-0.2-0.2-0.7-0.5-0.9-0.5
		c-0.2-0.1-0.1,0-0.3-0.1c0,0.1-0.1,0.2-0.1,0.3c0,0.1-0.1,0-0.2,0.1c0,0,0,0.1,0,0.1c0,0-0.2,0-0.1,0.1c0,0.1,0,0-0.1,0
		c0,0,0,0.1,0,0.2c-0.2-0.2-0.1,0-0.2,0c-0.1-0.1-0.1,0-0.1,0c0,0.1,0,0.1-0.1,0c0,0.2,0,0,0,0c0,0,0,0.1,0,0.1c0,0.1,0-0.1-0.1-0.1
		c0,0,0,0.1-0.1,0.1c0,0,0-0.1,0-0.1c0,0,0,0-0.1,0.1c-0.1,0.1-0.2,0.1-0.1-0.1c-0.1,0.1-0.1,0-0.1,0c0,0,0-0.1-0.1-0.1
		c0,0-0.1,0.1-0.1,0.1c-0.1,0-0.1-0.1-0.1-0.1c0,0-0.1,0-0.1,0c0,0,0-0.1,0-0.1c0,0-0.1,0-0.2,0c0-0.1-0.1-0.1-0.2-0.1
		c0,0-0.1,0.1-0.1,0.1c0.1-0.1,0.1-0.2,0.1-0.3c0-0.1-0.2,0-0.2-0.1c0,0,0.1-0.1-0.1-0.1c0.2-0.2,0-0.3-0.2-0.3
		c-0.2,0.1-0.2,0-0.4,0.1c0-0.1-0.6,0.1-1.1,0.5c-0.1,0.1-0.3,0.2-0.2,0.3c0,0.1,0.2,0,0.2,0c0,0-0.1,0.1-0.1,0.1c0,0,0.1,0,0.2,0.1
		c0,0-0.1,0.1,0,0.1c0,0,0.1,0,0.1,0c0,0,0,0.1,0,0.1c0,0,0.1,0,0.1,0c0.1,0.1-0.1,0.4,0.2,0.3c-0.2,0.2,0,0.1,0,0.1
		c0,0-0.1,0.2,0,0.2c0,0,0.1,0,0.1,0c0,0,0,0.1,0,0.1c0,0,0.1,0,0.1,0c0.1,0,0.1,0.1,0.1,0.1c0.1,0.1,0.3,0,0.4,0.2c0,0,0,0.1,0,0.2
		c0,0.1,0.2,0,0.3,0c0.1,0,0.1,0.1,0.2,0.1c0,0,0.1,0,0.1,0c0,0,0,0.1,0.1,0.1c0.1,0,0.2-0.1,0.3,0c0.1-0.2,0.1,0,0.2-0.1
		c0,0.2,0.2,0.2,0.3,0c0,0.1,0.1,0.1,0.2,0C143.8,36.3,144,36.2,144.1,36.1z"/>
	<path class="st1" d="M136.3,19.5c0.1,0,0.1,0,0.2,0c0,0,0-0.1,0.1,0c0,0.1,0.1,0.2,0.1,0.1c0,0,0-0.1,0-0.1c0-0.1,0.1,0.1,0.1,0.1
		c0,0,0,0.1,0.1,0c0,0,0-0.1,0.1-0.1c0.1-0.1,0.1,0,0.1,0c0,0,0.1,0,0.1,0c0,0,0,0,0,0c0,0,0,0.1,0,0.2c0,0.1,0,0,0,0
		c0,0.1,0,0.2,0,0.2c0-0.1,0.1-0.6,0.2-0.9c0-0.3,0.1-0.8,0.1-1c0-0.2,0-0.1,0-0.3c-0.1,0.1-0.1,0.1-0.2,0c0,0-0.1-0.1-0.1-0.1
		c0,0,0,0.1,0,0.1c0,0,0-0.1-0.1,0c0,0.1,0,0-0.1,0c0,0-0.1,0.1-0.1,0.1c0-0.3-0.1,0-0.1-0.1c-0.1-0.2-0.2,0.2-0.3,0
		c0,0.1-0.1,0-0.1,0c0,0,0,0.1-0.1,0.1c0,0.1-0.1-0.1-0.1-0.1c0,0,0,0.1,0,0.1c0,0,0-0.1,0-0.1c0,0,0,0.1,0,0.1
		c-0.1,0.1-0.1,0.1-0.1,0c0,0.1-0.1,0.1-0.1,0.1c0,0,0-0.1-0.1,0c0,0,0,0.1,0,0.1c0,0.1-0.1,0-0.1,0c0,0,0,0.1-0.1,0.1
		c0,0,0-0.1,0-0.1c0,0-0.1,0.1-0.1,0.1c0,0-0.1,0-0.1,0c0,0,0,0.2,0,0.2c0-0.1,0-0.2,0-0.3c0-0.1-0.1,0.1-0.1,0.1c0,0,0-0.2,0,0
		c0-0.3-0.1-0.1-0.2,0c0,0.2-0.1,0.2-0.1,0.4c0-0.1-0.2,0.6-0.2,1.2c0,0.1,0,0.3,0,0.3c0,0,0.1-0.2,0.1-0.2c0,0,0,0.1,0,0.1
		c0,0,0-0.1,0.1-0.1c0,0,0,0.1,0,0.1c0,0,0-0.1,0-0.1c0,0,0,0.1,0,0.1c0,0,0-0.1,0-0.1c0,0,0.1,0.3,0.1,0c0,0.3,0,0.1,0,0.1
		c0,0,0,0.2,0,0.2c0,0,0-0.1,0-0.1c0,0,0,0.1,0,0.1c0,0,0-0.1,0-0.1c0,0,0,0,0.1,0c0.1-0.1,0.1-0.2,0.2-0.2c0,0,0,0.1,0,0.1
		c0,0,0.1-0.1,0.1-0.1c0,0,0,0.1,0.1,0c0,0,0-0.1,0-0.1c0,0,0,0.1,0,0.1c0,0,0.1-0.2,0.1-0.1c0-0.2,0,0,0.1-0.2
		c0,0.2,0.1,0.1,0.1-0.1C136.2,19.6,136.2,19.6,136.3,19.5C136.2,19.7,136.3,19.5,136.3,19.5z"/>
	<path class="st1" d="M128.8,20.5c0.1-0.1,0.1,0,0.2,0c0,0,0-0.1,0,0c0,0,0.1,0.2,0.1,0.1c0,0,0-0.1,0-0.1c0-0.1,0.1,0.1,0.1,0
		c0-0.1,0.1,0.1,0.1,0c0,0,0-0.1,0-0.2c0-0.1,0.1,0,0.1,0c0,0,0.1-0.1,0.1,0c0,0,0,0,0,0c0,0,0,0.1,0,0.1c0,0,0,0,0.1,0
		c0,0.1,0.1,0.2,0.1,0.2c0-0.1-0.1-0.6-0.1-0.9c0-0.3-0.1-0.8-0.2-1c0-0.2,0-0.1-0.1-0.3c0,0.1-0.1,0.1-0.2,0.1c0,0-0.1,0-0.1-0.1
		c0,0,0,0.1,0,0.1c0,0-0.1-0.1-0.1,0c0,0.1,0,0-0.1,0c0,0,0,0.2-0.1,0.2c-0.1-0.3-0.1,0-0.1-0.1c-0.1-0.2-0.1,0.3-0.3,0
		c0,0.1,0,0-0.1,0c0,0,0,0.1,0,0.1c0,0.1-0.1-0.1-0.1,0c0,0,0,0.1,0,0.1c0,0,0-0.1,0-0.1c0,0,0,0.1,0,0.1c0,0.1-0.1,0.1-0.1,0
		c0,0.1,0,0.1,0,0.1c0,0-0.1-0.1-0.1,0c0,0,0,0.1,0,0.1c0,0.1-0.1,0-0.1,0c0,0,0,0.1,0,0.1c0,0,0-0.1,0-0.1c0,0,0,0.1,0,0.1
		c0,0-0.1,0-0.1,0.1c0,0,0,0.2,0,0.2c0-0.1-0.1-0.2-0.1-0.3c0-0.1,0,0.1-0.1,0.1c0,0-0.1-0.2,0,0c-0.1-0.3-0.1-0.1-0.2,0
		c0,0.2,0,0.2,0,0.4c0-0.1,0,0.6,0.2,1.2c0,0.1,0.1,0.3,0.1,0.3c0,0,0-0.2,0-0.2c0,0,0,0.1,0,0.1c0,0,0-0.1,0-0.1c0,0,0,0.1,0,0.1
		c0,0,0-0.1,0-0.1c0,0,0,0.1,0,0.1c0,0,0-0.1,0-0.1c0,0,0.1,0.2,0.1,0c0.1,0.3,0,0.1,0.1,0.1c0,0,0.1,0.2,0.1,0.1c0,0,0-0.1,0-0.1
		c0,0,0,0.1,0,0.1c0,0,0-0.1,0-0.1c0-0.1,0,0,0,0c0-0.1,0.1-0.2,0.1-0.2c0,0,0,0.1,0.1,0.1c0,0,0-0.1,0-0.2c0,0,0.1,0.1,0.1,0
		c0,0,0-0.1,0-0.1c0,0,0,0.1,0,0.1c0-0.1,0-0.2,0.1-0.1c0-0.2,0,0,0-0.2c0.1,0.2,0.1,0.1,0.1-0.1c0,0.1,0.1,0,0.1,0
		C128.7,20.7,128.7,20.5,128.8,20.5z"/>
	<path class="st1" d="M129.5,25c0.1-0.1,0.1,0,0.2,0c0,0,0-0.1,0,0c0,0,0.1,0.2,0.1,0.1c0,0,0-0.1,0-0.1c0-0.1,0.1,0.1,0.1,0
		c0-0.1,0.1,0.1,0.1,0c0,0,0-0.1,0-0.2c0-0.1,0.1,0,0.1,0c0,0,0.1-0.1,0.1,0c0,0,0,0,0,0c0,0,0,0.1,0,0.1c0,0,0,0,0.1,0
		c0,0.1,0.1,0.2,0.1,0.2c0-0.1-0.1-0.6-0.1-0.9c0-0.3-0.1-0.8-0.2-1c0-0.2,0-0.1-0.1-0.3c0,0.1-0.1,0.1-0.2,0.1c0,0-0.1,0-0.1-0.1
		c0,0,0,0.1,0,0.1c0,0-0.1-0.1-0.1,0c0,0.1,0,0-0.1,0c0,0,0,0.2-0.1,0.2c-0.1-0.3-0.1,0-0.1-0.1c-0.1-0.2-0.1,0.3-0.3,0
		c0,0.1,0,0-0.1,0c0,0,0,0.1,0,0.1c0,0.1-0.1-0.1-0.1,0c0,0,0,0.1,0,0.1c0,0,0-0.1,0-0.1c0,0,0,0.1,0,0.1c0,0.1-0.1,0.1-0.1,0
		c0,0.1,0,0.1,0,0.1c0,0-0.1-0.1-0.1,0c0,0,0,0.1,0,0.1c0,0.1-0.1,0-0.1,0c0,0,0,0.1,0,0.1c0,0,0-0.1,0-0.1c0,0,0,0.1,0,0.1
		c0,0-0.1,0-0.1,0.1c0,0,0,0.2,0,0.2c0-0.1-0.1-0.2-0.1-0.3c0-0.1,0,0.1-0.1,0.1c0,0-0.1-0.2,0,0c-0.1-0.3-0.1-0.1-0.2,0
		c0,0.2,0,0.2,0,0.4c0-0.1,0,0.6,0.2,1.2c0,0.1,0.1,0.3,0.1,0.3c0,0,0-0.2,0-0.2c0,0,0,0.1,0,0.1c0,0,0-0.1,0-0.1c0,0,0,0.1,0,0.1
		c0,0,0-0.1,0-0.1c0,0,0,0.1,0,0.1c0,0,0-0.1,0-0.1c0,0,0.1,0.2,0.1,0c0.1,0.3,0,0.1,0.1,0.1c0,0,0.1,0.2,0.1,0.1c0,0,0-0.1,0-0.1
		c0,0,0,0.1,0,0.1c0,0,0-0.1,0-0.1c0-0.1,0,0,0,0c0-0.1,0.1-0.2,0.1-0.2c0,0,0,0.1,0.1,0.1c0,0,0-0.1,0-0.2c0,0,0.1,0.1,0.1,0
		c0,0,0-0.1,0-0.1c0,0,0,0.1,0,0.1c0-0.1,0-0.2,0.1-0.1c0-0.2,0,0,0-0.2c0.1,0.2,0.1,0.1,0.1-0.1c0,0.1,0.1,0,0.1,0
		C129.4,25.2,129.5,25,129.5,25z"/>
	<g>
		<path class="st3" d="M34.5,98.3c0,0,9.7-10.8,15.9,3.9c0,0,3.3-3.5,10.4,0.2c0,0,7.6,4.1,9.3-3.8c0,0,1-4.4,4.6-3.7
			c3.6,0.8,12.9,1.2,13.4,8.1c0.6,8.6-9.3,15.9-17.4,13.5c-10.6-3.1-13.9,0.4-18.2,0.3c-1.7,0-19.2-1.9-17.9-9.2
			C35.9,100.3,39.2,105.1,34.5,98.3z"/>
		<path class="st1" d="M80.5,114.5c-1.8,1-3.8,1.7-5.8,1.8c-2,0.1-3.8-0.4-5.5-0.9c-1-0.2-1.9-0.4-2.9-0.5c-1.1-0.2-2.3-0.3-3.6-0.4
			c-1.2,0-2.5,0.1-3.6,0.3c-0.3,0.1-0.6,0.2-0.9,0.3c-1.8,0.4-3.9,1-5.7,1.1c-1.3,0-2.5-0.3-3.9-0.5c-1-0.2-1.8-0.2-2.7-0.4
			c-2.6-0.5-5.1-1.3-7.3-2.4c-0.8-0.4-1.6-0.9-2.2-1.5c-0.7-0.6-1.2-1.3-1.4-2.1c-0.2-0.7-0.1-1.4,0.1-2.1c0.1-0.2,0.2-0.5,0.3-0.8
			c0.2-0.7,0.5-1.7,1.1-2.5c0.2-0.2,0.5-0.5,0.8-0.9c0.3-0.4,0.2-1,0.1-1.4c-0.2-0.5-0.3-0.7-0.4-1c-0.1-0.2-0.3-0.4-0.4-0.6
			c-0.6-0.8-2-1.9-2.3-1.8c-0.3,0.1-0.3,1.1,0,1.7c0.1,0.4,0.4,0.8,0.7,1.3c0.1,0.2,0.3,0.4,0.3,0.6c0,0.1,0.1,0.2,0.1,0.3
			c0,0,0,0,0,0c0,0,0,0,0,0l0,0l0,0l-0.1,0.1l-0.2,0.2c-0.1,0.1-0.2,0.2-0.3,0.3c-0.2,0.2-0.3,0.5-0.5,0.7c-0.5,1-0.8,2-1,3
			l-0.2,0.7c0,0.3-0.1,0.6-0.1,0.9c0,0.3,0,0.6,0.1,0.9c0.1,0.3,0.1,0.6,0.2,0.9c0.4,1.1,1.1,2,1.9,2.7c1.9,1.6,4.1,2.6,6.4,3.4
			c0.6,0.2,1.4,0.3,2,0.5c2.1,0.6,4.1,1,5.6,1.1c0.6,0,1.1,0.1,1.7,0.2c0.3,0,0.6,0.1,0.9,0.1c0.3,0,0.7,0,1,0
			c1.8-0.1,3.3-0.8,4.7-1.1c1-0.1,2.1-0.3,3.4-0.4c1.2-0.1,2.6-0.1,3.7,0c0.6,0.1,1.3,0.2,1.9,0.3c0.6,0.1,1.3,0.3,2,0.4
			c0.7,0.2,1.3,0.3,2,0.5l1.2,0.2c0.4,0.1,0.8,0.1,1.2,0.1c3.1,0.2,6.2-0.8,8.8-2.2c1.2-0.9,2.7-1.9,3.7-3c0.3-0.3,0.5-0.6,0.7-0.9
			c0.2-0.3,0.4-0.7,0.7-1c1.2-1.8,2.2-4.2,2.3-6.4c0-0.5-0.1-1-0.1-1.6c-0.1-0.5-0.1-1-0.2-1.5c-0.1-0.4-0.3-0.8-0.5-1.2
			c-0.2-0.4-0.5-0.8-0.7-1.1c-0.9-1.2-2-1.9-3.1-2.5c-1-0.6-2.1-0.9-3.1-1.3c-1-0.2-2.5-0.5-3.7-0.7c-0.8-0.1-1.5-0.3-2.3-0.4
			c-0.6-0.1-1.8-0.4-2.8-0.1c-0.4,0.1-0.9,0.4-1.2,0.7c-0.8,0.6-1.4,1.5-1.8,2.4c-0.2,0.5-0.4,0.9-0.5,1.4c-0.1,0.4-0.2,0.7-0.3,0.9
			c-0.1,0.4-0.3,0.8-0.4,1.2l-0.3,0.5c-0.1,0.1-0.1,0.2-0.2,0.3l-0.2,0.2c-0.1,0.1-0.2,0.2-0.4,0.3c-0.2,0.1-0.3,0.1-0.4,0.2
			c-0.7,0.4-1.7,0.7-2.7,0.6c-0.8-0.1-1.7-0.3-2.6-0.7c-0.2-0.1-0.4-0.2-0.6-0.3l-0.7-0.3c-0.5-0.2-1-0.4-1.4-0.6
			c-0.4-0.2-0.2,0.1-0.6,0c-1-0.5-2.3-0.8-3.8-0.9c-0.6,0-1.3,0.1-2,0.3c-0.3,0.1-0.6,0.2-1,0.3c-0.2,0.1-0.3,0.2-0.5,0.2
			c-0.1,0-0.1,0.1-0.2,0.1c-0.1,0.1-0.2,0.2-0.3,0.3c0,0,0,0-0.1,0l0-0.1l-0.1-0.2c-0.1-0.2-0.2-0.3-0.3-0.5
			c-0.4-0.9-0.8-1.9-1.5-2.5c-0.7-1.3-2-2.8-3.9-3.6c-0.9-0.4-1.9-0.6-2.9-0.6c-1,0-1.9,0.3-2.6,0.5c-0.8,0.5-2.3,1.2-2.8,1.9
			c-1,0.6-1.6,1.5-1.8,2c-0.2,0.5,0.1,0.7,0.8,0.5c0.8-0.5,1.3-0.7,2.1-1.3c0.9-0.6,1.7-1.2,2.7-1.5c0.5-0.1,1-0.1,1.4-0.1
			c0.7,0,1.6,0,2.3,0.3c0.3,0.2,0.6,0.4,0.9,0.6c0.3,0.2,0.6,0.3,0.9,0.5c0.3,0.3,0.6,0.7,0.9,1.1c0.2,0.2,0.5,0.5,0.7,0.8
			c0.3,0.4,0.6,0.9,0.9,1.4l0.4,0.8l0.1,0.2l0.2,0.4l0.3,0.8c0.3,0.1,0.7,0.2,1,0.3c0.2,0,0.6,0.1,1,0.1c0.2-0.1,0.4-0.3,0.6-0.4
			l0.3-0.2c0.2-0.1,0.4-0.2,0.5-0.2c0.4-0.1,0.7-0.2,1.1-0.3c0.7,0.2,1.5,0,2.2,0.1c1,0.1,2,0.7,2.9,1c0.3,0.1,0.6,0.2,0.9,0.3
			c0.3,0.1,0.8,0.5,1.3,0.7c0.5,0.2,1,0.3,1.4,0.3c1,0.2,2.2,0.4,3.4,0.2c0.4-0.1,0.8-0.2,1.2-0.4c0.4-0.1,0.8-0.4,1.1-0.6
			c0.4-0.2,0.6-0.6,0.9-0.9c0.3-0.3,0.5-0.7,0.7-1c0.2-0.4,0.3-0.7,0.5-1.1c0.2-0.4,0.2-0.8,0.3-1.1l0.1-0.6c0-0.1,0.1-0.3,0.1-0.4
			c0.1-0.3,0.2-0.6,0.4-0.9c0.3-0.6,0.8-1,1.3-1.3c0.4-0.2,0.9-0.3,1.4-0.3c0.2,0,0.6,0.1,0.9,0.1c0.3,0,0.7,0.1,1,0.1
			c1.3,0.2,2.7,0.5,3.9,0.8c0.3,0.1,0.7,0.1,1,0.2c0.7,0.2,1.3,0.5,1.9,0.8c1.3,0.5,2.6,1.2,3.2,2.4c0.2,0.2,0.4,0.4,0.5,0.7
			c0.1,0.3,0.2,0.6,0.4,0.9c0.1,0.4,0.1,0.9,0.1,1.4c0,0.5,0,1,0,1.6c-0.1,0.5-0.1,1-0.2,1.5c-0.1,0.5-0.2,0.9-0.3,1.3
			c-0.5,0.9-1.1,2.3-1.9,3.3C83.7,112.1,82.3,113.5,80.5,114.5z"/>
	</g>
	<path class="st1" d="M83.5,102.8c0,0.4-0.2,1-0.4,1.3c0,0.1,0,0.2-0.1,0.3c-0.2,0.2-0.4,0.4-0.5,0.7c0,0,0,0.1,0,0.2
		c-0.1,0.2-0.4,0.4-0.5,0.6c-0.1,0.2-0.2,0.2-0.3,0.4c-0.1,0.1-0.1,0.3-0.1,0.4c-0.1,0.3-0.5,0.5-0.7,0.7c-0.2,0.2-0.3,0.4-0.5,0.5
		c-0.1,0.1-0.2,0.1-0.2,0.2c0,0-0.1,0-0.2,0c-0.1,0-0.2,0.2-0.3,0.2c-0.2,0.1-0.4,0-0.5,0.2c0,0.1,0.1,0.7,0.3,0.9
		c0.2,0.2,0.6,0.6,0.8,0.6c0.2,0.1,0.3-0.1,0.5-0.1c0.3-0.4,0.7-0.8,1.1-1.1c0.2-0.2,0.5-0.4,0.7-0.6c0.1-0.1,0.1-0.2,0.1-0.3
		c0.2-0.2,0.5-0.3,0.5-0.6c0-0.2,0.2-0.2,0.3-0.4c0.1-0.2,0.2-0.4,0.3-0.6c0.4-0.1,0.4-0.6,0.7-0.9c0.6-0.7,0.6-1.7,0.8-2.7
		c-0.2-0.3-0.1-0.6-0.1-0.9c0-0.1-0.2-0.3-0.3-0.4c-0.1-0.2-0.2-0.4-0.3-0.6c-0.1-0.2-0.2-0.4-0.4-0.5c-0.1-0.1-0.2,0-0.3-0.1
		c-0.1,0-0.1-0.2-0.1-0.2c-0.1-0.1-0.2-0.1-0.4-0.2c-0.4-0.2-0.7-0.3-0.9-0.5c-0.2,0.1-0.4-0.1-0.5-0.1c-0.2-0.1-0.4-0.3-0.6-0.3
		c-0.1,0-0.1,0.1-0.2,0.1c-0.2,0-0.5-0.2-0.7-0.2c-0.1,0-0.3,0-0.4,0c-0.1,0-0.1-0.1-0.1-0.1c-0.1,0-0.3,0.1-0.5,0
		c-0.2-0.1-0.5-0.1-0.8-0.1c-0.1,0-0.1,0.2-0.1,0.1c-0.1-0.1-0.3-0.3-0.4-0.4c-0.3-0.1-0.6,0-0.9,0c-0.1,0-0.2-0.2-0.4,0
		c-0.3-0.3-0.9-0.2-1.3-0.1c-0.1,0.2-0.3,0.1-0.5,0.4c-0.3-0.1-0.6,0.6-0.4,1.2c0.1,0.2,0.2,0.3,0.3,0.4c0.1,0,0.3-0.2,0.4-0.2
		c0.1,0,0.1,0.1,0.2,0.1c0.1,0,0.3-0.1,0.4-0.1c0.1,0,0.1,0.1,0.2,0.1c0.1,0,0.1-0.1,0.2-0.1c0.1,0,0.1,0.1,0.2,0.1
		c0,0,0.1-0.1,0.1-0.1c0.3,0,0.7,0.4,1,0.1c0,0.3,0.2,0.1,0.3,0.1c0.1,0,0.3,0.2,0.4,0.2c0,0,0.1-0.1,0.1-0.1c0.1,0,0.1,0.1,0.1,0.1
		c0.1,0,0.1-0.1,0.2-0.1c0.1,0,0.2,0,0.4,0c0.3,0,0.7-0.1,1.1,0.1c0.1,0,0.2,0.2,0.2,0.2c0.2,0.1,0.3,0,0.5,0c0.2,0,0.3,0.2,0.4,0.2
		c0,0,0.1,0,0.1,0c0.1,0,0.1,0.2,0.2,0.2c0.2,0,0.4,0,0.5,0.2c0.2-0.2,0.1,0.1,0.3,0c0,0.1,0.1,0.2,0.2,0.3c0.1,0.1,0.2,0.1,0.3,0.1
		c0,0.1,0.1,0.2,0.2,0.3C83.3,102.4,83.4,102.5,83.5,102.8z"/>
	<path class="st1" d="M74.9,112.5c0-0.3,0-0.6,0-0.8c0-0.1-0.1-0.1-0.1-0.2c0-0.2,0.1-0.3,0-0.5c0,0-0.1,0-0.1,0
		c-0.1-0.1,0-0.3-0.1-0.4c-0.1-0.1,0-0.2-0.1-0.3c0-0.1-0.1-0.1-0.2-0.1c-0.2-0.1-0.2-0.3-0.3-0.5c-0.1-0.1-0.1-0.2-0.2-0.3
		c0,0-0.1-0.1-0.1-0.1c0,0,0.1-0.1,0.1-0.1c0-0.1-0.1-0.1-0.1-0.2c0-0.1,0-0.3-0.1-0.3c-0.1,0-0.4,0.2-0.6,0.3
		c-0.1,0.1-0.4,0.5-0.5,0.6c-0.1,0.1,0,0.1-0.1,0.3c0.2,0.1,0.3,0.2,0.4,0.4c0.1,0.1,0.1,0.2,0.1,0.3c0,0,0.1,0,0.1,0.1
		c0.1,0.1,0,0.2,0.1,0.2c0.1,0,0,0.1,0.1,0.1c0,0.1,0.2,0.1,0.2,0.2c-0.2,0.1,0,0.2,0,0.4c-0.1,0.1,0,0.3,0,0.4c0,0.1,0.1,0.3,0,0.4
		c0.1,0.1,0,0.2,0,0.2c0,0,0.1,0.1,0.1,0.1c0,0.1-0.1,0.2-0.1,0.3c0,0,0.1,0.1,0.1,0.1c0,0-0.1,0-0.1,0c0,0,0,0.1,0,0.1
		c0,0.1,0,0.3-0.1,0.3c0.1,0.1,0,0.2,0,0.2c-0.1,0.1-0.2,0.1-0.2,0.2c0,0,0,0.1,0,0.1c0,0.1-0.1,0.2-0.2,0.2c0,0,0,0.1,0,0.2
		c0,0-0.1,0-0.1,0c0,0,0,0.2,0,0.2c-0.1,0.1-0.1,0.2-0.2,0.3c0,0,0.1,0.1,0.1,0.1c-0.1,0-0.2,0-0.3,0c-0.1,0.1-0.1,0.2-0.2,0.3
		c0,0-0.2,0-0.1,0.1c-0.3,0-0.3,0.2-0.4,0.4c0.1,0.2,0,0.2,0.1,0.4c-0.1,0.1,0.1,0.5,0.5,0.8c0.1,0,0.3,0.1,0.3,0.1
		c0.1,0,0-0.2,0.1-0.3c0,0,0.1,0,0.1,0c0.1,0,0-0.1,0.1-0.2c0,0,0.1,0,0.1,0c0,0,0-0.1,0-0.1c0,0,0.1,0,0.1,0c0,0,0-0.1,0-0.1
		c0.1-0.1,0.4-0.2,0.3-0.4c0.2,0.1,0.1-0.1,0.1-0.1c0-0.1,0.2,0,0.2-0.1c0,0,0-0.1,0-0.1c0,0,0.1,0,0.1,0c0,0,0-0.1,0-0.1
		c0-0.1,0.1-0.1,0.1-0.2c0.1-0.2,0.1-0.4,0.2-0.6c0,0,0.1-0.1,0.2-0.1c0.1-0.1,0-0.2,0-0.3c0-0.1,0.1-0.1,0.1-0.2c0,0,0-0.1,0-0.1
		c0,0,0.1-0.1,0.1-0.1c0-0.1,0-0.2,0.1-0.3c-0.1-0.1,0-0.1-0.1-0.2c0.2-0.1,0.2-0.3,0.1-0.4c0.1-0.1,0.1-0.2,0-0.3
		C75,112.8,74.9,112.6,74.9,112.5z"/>
	<g>
		<path class="st2" d="M50.4,102.1c0,0,1,4.7-1.1,9.3"/>
		<path class="st1" d="M49.9,107.5c0,0.3-0.1,0.6-0.1,0.8c0,0.1,0,0.1,0,0.2c-0.1,0.1-0.2,0.3-0.2,0.4c0,0,0.1,0.1,0.1,0.1
			c0.1,0.1-0.2,0.2-0.1,0.4c0,0.1-0.1,0.1-0.1,0.2c0,0.1,0.1,0.1,0.1,0.2c0,0.2-0.1,0.3-0.2,0.5c0,0.1,0,0.3-0.1,0.3
			c0,0,0,0.1-0.1,0.1c0,0-0.1,0-0.2,0c-0.1,0,0,0.1-0.1,0.2c-0.1,0.1-0.3,0.1-0.3,0.1c0,0.1,0.5,0.4,0.7,0.5
			c0.2,0.1,0.8,0.3,0.9,0.3c0.2,0,0.1-0.1,0.3-0.1c0-0.3,0.2-0.5,0.2-0.8c0-0.1,0.2-0.3,0.2-0.4c0,0,0-0.1,0-0.2
			c0-0.1,0.2-0.2,0.1-0.4c-0.1-0.1,0.1-0.1,0.1-0.2c0-0.1-0.1-0.3-0.1-0.4c0.3-0.1,0.1-0.3,0.2-0.5c0.3-0.3-0.1-0.8,0.2-1.2
			c-0.1-0.1,0-0.2,0-0.3c0,0-0.1-0.1-0.1-0.2c-0.1-0.2,0.1-0.3,0.1-0.4c0,0-0.1-0.1-0.1-0.1c0,0,0.1-0.1,0.1-0.1
			c0-0.1,0-0.1-0.1-0.2c-0.1-0.2-0.1-0.3,0-0.5c-0.1-0.1-0.1-0.2-0.1-0.3c0-0.1,0.1-0.2,0-0.3c0,0-0.1-0.1-0.1-0.1
			c-0.1-0.1,0-0.3,0-0.3c0-0.1-0.1-0.1-0.1-0.2c0,0,0.1-0.1,0.1-0.1c0-0.1-0.1-0.2-0.1-0.2c0-0.1,0-0.3-0.1-0.4c0,0-0.2,0-0.2,0
			c0.1-0.1,0.2-0.2,0.3-0.3c0.1-0.1-0.1-0.3-0.1-0.4c0-0.1,0.2-0.2,0-0.2c0.3-0.2,0.1-0.5-0.1-0.7c-0.2,0-0.2-0.1-0.5-0.2
			c0-0.2-0.6-0.1-1.2,0.1c-0.1,0.1-0.3,0.1-0.3,0.2c0,0.1,0.2,0.1,0.2,0.2c0,0-0.1,0.1-0.1,0.1c0,0.1,0.1,0.1,0.1,0.2
			c0,0-0.1,0.1-0.1,0.1c0,0,0.1,0,0.1,0.1c0,0-0.1,0.1-0.1,0.1c0,0,0.1,0,0.1,0.1c0,0.2-0.2,0.4,0,0.5c-0.3,0.1-0.1,0.1-0.1,0.2
			c0,0.1-0.2,0.2-0.1,0.2c0,0,0.1,0,0.1,0.1c0,0-0.1,0.1-0.1,0.1c0,0,0.1,0.1,0.1,0.1c0.1,0.1,0,0.1,0,0.2c0.1,0.2,0.2,0.3,0.2,0.5
			c0,0.1-0.1,0.1-0.1,0.1c0,0.1,0.1,0.2,0.1,0.3c0,0.1-0.1,0.2,0,0.3c0,0,0.1,0,0.1,0.1c0,0-0.1,0.1-0.1,0.1c0,0.1,0.2,0.2,0.1,0.3
			c0.2,0.1,0,0.1,0.2,0.1c-0.2,0.1-0.2,0.3,0,0.4c-0.1,0.1-0.1,0.2,0,0.3C49.7,107.2,49.8,107.4,49.9,107.5z"/>
	</g>
	<path class="st1" d="M39.4,106.2c0.1-0.4,0.5-0.6,0.6-0.8c0.1-0.1,0.1-0.2,0.1-0.2c0.2-0.1,0.4-0.2,0.5-0.4c0,0,0-0.1,0-0.1
		c0.1-0.2,0.3-0.1,0.4-0.3c0.1-0.1,0.2-0.1,0.3-0.2c0.1-0.1,0.1-0.2,0.1-0.3c0.1-0.2,0.4-0.2,0.6-0.3c0.1-0.1,0.3-0.2,0.4-0.2
		c0.1,0,0.1,0,0.2,0c0,0,0.1,0.1,0.1,0.1c0.1,0,0.2,0,0.3,0c0.1,0,0.3,0.2,0.3,0.1c0.1-0.1,0.1-0.6,0-0.9c0-0.3-0.2-0.8-0.3-0.9
		c-0.1-0.2-0.2,0-0.4-0.2c-0.4,0.2-0.8,0.3-1.1,0.4c-0.2,0.1-0.5,0.2-0.7,0.3c-0.1,0-0.1,0.1-0.2,0.2c-0.2,0.1-0.5,0.1-0.5,0.3
		c0,0.1-0.2,0.1-0.3,0.2c-0.1,0.1-0.2,0.3-0.3,0.4c-0.3-0.1-0.4,0.4-0.7,0.5c-0.3,0.1-0.4,0.4-0.6,0.7c-0.1,0.3-0.3,0.5-0.5,0.7
		c0,0.2-0.2,0.3-0.2,0.4c-0.1,0.1,0,0.2,0,0.3c-0.1,0.2-0.3,0.4-0.3,0.6c0,0,0.1,0.1,0,0.2c0,0-0.1,0-0.1,0.1c0,0.1,0,0.2,0,0.2
		c-0.1,0.3-0.1,0.5-0.3,0.6c0.1,0.1,0,0.3-0.1,0.4c-0.1,0.1-0.2,0.3-0.2,0.4c0,0,0.1,0.1,0.1,0.1c0,0.2-0.1,0.3-0.2,0.5
		c0,0.1,0.1,0.2,0,0.3c0,0-0.1,0.1-0.1,0.1c0,0.1,0.1,0.2,0,0.3c-0.1,0.2-0.1,0.4-0.1,0.6c0,0,0.2,0.1,0.1,0.1
		c-0.1,0.1-0.3,0.2-0.3,0.3c-0.1,0.2,0,0.4,0,0.6c0,0.1-0.2,0.2,0,0.3c-0.3,0.2-0.2,0.7-0.1,1c0.2,0.1,0.1,0.3,0.4,0.3
		c-0.1,0.2,0.6,0.4,1.2,0.3c0.1-0.1,0.3-0.1,0.4-0.2c0-0.1-0.2-0.2-0.2-0.3c0,0,0.1-0.1,0.1-0.1c0-0.1-0.1-0.2-0.1-0.3
		c0,0,0.1-0.1,0.1-0.1c0,0-0.1-0.1-0.1-0.1c0,0,0.1-0.1,0.1-0.1c0,0-0.1-0.1-0.1-0.1c0-0.2,0.3-0.5,0.1-0.7c0.3,0,0.1-0.1,0.1-0.2
		c0-0.1,0.2-0.2,0.2-0.3c0,0-0.1-0.1-0.1-0.1c0,0,0.1-0.1,0.1-0.1c0,0-0.1-0.1-0.1-0.1c0-0.1,0-0.2,0-0.3c0-0.2-0.1-0.5,0-0.8
		c0-0.1,0.1-0.1,0.2-0.2c0.1-0.1,0-0.3,0-0.4c0-0.1,0.2-0.2,0.2-0.3c0,0,0-0.1,0-0.1c0-0.1,0.1-0.1,0.1-0.1c0-0.1-0.1-0.3,0.1-0.4
		c-0.2-0.1,0.1-0.1-0.1-0.2c0.3-0.1,0.3-0.3,0.2-0.5c0.1-0.1,0.2-0.2,0.1-0.3C39.4,106.6,39.3,106.3,39.4,106.2z"/>
	<path class="st1" d="M58.7,106.9c0.4,0,0.9,0.1,1.2,0.2c0.1,0,0.2,0,0.3,0c0.2,0.1,0.4,0.3,0.7,0.2c0,0,0.1-0.1,0.1-0.1
		c0.2,0,0.4,0.2,0.6,0.2c0.1,0,0.2,0.1,0.4,0.2c0.1,0,0.2-0.1,0.3-0.1c0.3,0,0.5,0.2,0.8,0.2c0.2,0.1,0.4,0.1,0.5,0.2
		c0.1,0,0.2,0.1,0.2,0.1c0,0,0,0.1,0,0.2c0.1,0.1,0.2,0.1,0.3,0.1c0.1,0.1,0.2,0.3,0.3,0.3c0.1,0,0.5-0.5,0.6-0.7
		c0.1-0.2,0.3-0.8,0.2-1c0-0.2-0.2-0.2-0.2-0.4c-0.4-0.1-0.8-0.2-1.1-0.4c-0.2-0.1-0.4-0.2-0.7-0.3c-0.1,0-0.2,0-0.2,0
		c-0.2-0.1-0.4-0.3-0.6-0.2c-0.1,0.1-0.2-0.1-0.4-0.1c-0.2,0-0.4,0.1-0.5,0c-0.1-0.3-0.5-0.1-0.8-0.3c-0.5-0.4-1.2,0-1.8-0.3
		c-0.2,0.1-0.3,0-0.5-0.1c-0.1,0-0.2,0.1-0.3,0.1c-0.2,0.1-0.5-0.1-0.7-0.1c-0.1,0-0.1,0.1-0.2,0.1c0,0-0.1-0.1-0.1-0.1
		c-0.1,0-0.2,0.1-0.3,0.1c-0.3,0.1-0.5,0.1-0.7,0c-0.1,0.1-0.3,0.1-0.4,0.1c-0.2,0-0.4-0.1-0.5,0c0,0-0.1,0.1-0.1,0.1
		c-0.2,0.1-0.4,0-0.5,0c-0.1,0-0.2,0.1-0.3,0.2c0,0-0.1-0.1-0.1-0.1c-0.1,0-0.2,0.2-0.3,0.2c-0.2,0-0.4,0.1-0.6,0.2
		c-0.1,0,0,0.2,0,0.2c-0.1-0.1-0.3-0.1-0.5-0.1c-0.2,0-0.4,0.3-0.6,0.3c-0.1,0-0.3-0.1-0.3,0.1c-0.4-0.1-0.8,0.2-1,0.5
		c0,0.2-0.2,0.3-0.1,0.5c-0.1,0-0.1,0.2,0,0.5c0.1,0.2,0.3,0.4,0.6,0.7c0.1,0.1,0.3,0.2,0.4,0.2c0.1,0,0-0.3,0.1-0.3
		c0,0,0.1,0,0.2,0c0.1,0,0.1-0.2,0.2-0.2c0,0,0.1,0,0.1,0c0,0,0-0.1,0-0.2c0,0,0.1,0,0.2,0c0,0,0-0.1,0.1-0.1
		c0.2-0.1,0.6,0.1,0.7-0.3c0.1,0.2,0.2,0,0.2,0c0.1,0,0.2,0.1,0.3,0.1c0,0,0-0.1,0.1-0.1c0,0,0.1,0.1,0.1,0c0,0,0.1-0.1,0.1-0.1
		c0.1-0.1,0.2-0.1,0.3-0.1c0.2-0.1,0.5-0.3,0.8-0.3c0.1,0,0.2,0.1,0.2,0.1c0.1,0,0.2-0.1,0.4-0.2c0.1-0.1,0.3,0,0.4,0
		c0,0,0.1-0.1,0.1-0.1c0.1,0,0.1,0.1,0.2,0.1c0.1,0,0.3-0.2,0.4-0.1c0.1-0.2,0.1,0,0.2-0.2c0.2,0.2,0.4,0.2,0.6,0
		c0.1,0.1,0.3,0.1,0.4,0C58.3,107.1,58.5,106.9,58.7,106.9z"/>
	<path class="st1" d="M62.9,110.7c-0.6,0.1-1.3,0-1.7,0.1c-0.1,0-0.3,0.1-0.4,0.1c-0.3,0-0.7-0.1-1,0c0,0-0.1,0.1-0.1,0.1
		c-0.2,0.1-0.6,0-0.8,0.1c-0.2,0.1-0.4,0-0.6,0.1c-0.1,0-0.2,0.2-0.4,0.2c-0.3,0.2-0.7,0.2-1.1,0.3c-0.2,0.1-0.5,0.2-0.8,0.2
		c-0.1,0-0.2,0.1-0.3,0.1c0,0-0.1-0.1-0.2-0.1c-0.1,0-0.3,0.1-0.4,0.1c-0.2,0-0.5-0.1-0.5,0c-0.1,0.1-0.1,0.7,0,1
		c0.1,0.3,0.4,0.7,0.6,0.9c0.2,0.1,0.3,0,0.5,0.1c0.4-0.2,0.9-0.4,1.3-0.5c0.3-0.1,0.6-0.1,0.9-0.1c0.1,0,0.2-0.1,0.2-0.1
		c0.3-0.1,0.6,0,0.7-0.2c0.1-0.1,0.3,0,0.4-0.1c0.2-0.1,0.4-0.2,0.6-0.3c0.3,0.2,0.7-0.1,1,0c0.7,0.1,1.5-0.3,2.2-0.1
		c0.2-0.1,0.4,0,0.6,0c0.1,0,0.2-0.1,0.3-0.1c0.3-0.1,0.6,0.1,0.8,0.1c0.1,0,0.1-0.1,0.2-0.1c0.1,0,0.1,0.1,0.2,0.1
		c0.1,0,0.2,0,0.3,0c0.4,0,0.6-0.1,0.9,0.1c0.1-0.1,0.3,0,0.5,0c0.2,0.1,0.4,0.2,0.6,0.1c0,0,0.1-0.1,0.2-0.1c0.2,0,0.5,0.1,0.7,0.2
		c0.1,0,0.3-0.1,0.4,0c0.1,0,0.1,0.1,0.1,0.1c0.1,0,0.3-0.1,0.5,0c0.2,0.1,0.5,0.1,0.8,0.1c0,0,0.1-0.2,0.1-0.1
		c0.1,0.1,0.3,0.3,0.4,0.4c0.2,0.2,0.6,0,0.9,0.1c0.1,0,0.2,0.2,0.4,0.1c0.3,0.4,0.9,0.4,1.3,0.4c0.2-0.2,0.4,0,0.6-0.2
		c0.3,0.2,0.8-0.3,0.8-1c-0.1-0.2-0.1-0.4-0.2-0.5c-0.2-0.1-0.4,0.1-0.5,0c-0.1,0-0.1-0.2-0.2-0.2c-0.1-0.1-0.3,0-0.4,0
		c-0.1,0-0.1-0.1-0.2-0.1c-0.1,0-0.1,0.1-0.2,0.1c-0.1,0-0.1-0.1-0.2-0.1c0,0-0.1,0-0.2,0c-0.4-0.1-0.7-0.5-1.1-0.3
		c0-0.3-0.2-0.1-0.3-0.2c-0.2,0-0.3-0.2-0.4-0.3c-0.1,0-0.1,0.1-0.2,0.1c-0.1,0-0.1-0.1-0.2-0.1c-0.1,0-0.1,0.1-0.2,0.1
		c-0.1,0-0.3-0.1-0.4-0.1c-0.4,0-0.8,0.1-1.3-0.1c-0.1,0-0.2-0.1-0.3-0.2c-0.2,0-0.4,0-0.6,0.1c-0.2,0-0.4-0.1-0.6-0.1
		c-0.1,0-0.1,0.1-0.2,0.1c-0.1,0-0.2-0.1-0.3-0.1c-0.2,0-0.5,0.2-0.7,0c-0.1,0.2-0.2,0-0.3,0.2c-0.3-0.2-0.6-0.2-0.9,0
		c-0.2-0.1-0.4-0.1-0.6,0C63.5,110.5,63.2,110.7,62.9,110.7z"/>
	<g>
		<path class="st4" d="M83,105.5c0,0-5.5-3.1-11.1-0.3"/>
		<path class="st1" d="M76.6,103.5c-0.4,0.1-0.7,0-1,0.1c-0.1,0-0.2,0.1-0.2,0.1c-0.2,0-0.4-0.1-0.6,0c0,0,0,0.1-0.1,0.1
			c-0.1,0.1-0.4,0-0.5,0.1c-0.1,0.1-0.2,0-0.3,0c-0.1,0-0.1,0.2-0.2,0.2c-0.2,0.2-0.4,0.1-0.6,0.2c-0.1,0-0.3,0.1-0.4,0.2
			c-0.1,0-0.1,0.1-0.2,0c0,0-0.1-0.1-0.1-0.1c-0.1,0-0.1,0.1-0.2,0.1c-0.1,0-0.3-0.1-0.4-0.1c-0.1,0.1,0,0.6,0.2,0.9
			c0.1,0.2,0.4,0.7,0.5,0.9c0.1,0.1,0.2,0,0.3,0.2c0.2-0.2,0.5-0.3,0.7-0.4c0.1,0,0.3,0,0.5-0.1c0,0,0.1-0.1,0.1-0.1
			c0.1,0,0.3,0,0.4-0.1c0.1-0.1,0.2,0,0.2,0c0.1,0,0.2-0.2,0.3-0.2c0.2,0.2,0.4,0,0.6,0c0.4,0.2,0.8-0.3,1.2-0.1
			c0.1-0.1,0.2,0,0.3,0c0.1,0,0.1-0.1,0.2-0.1c0.2-0.1,0.3,0.1,0.5,0.1c0,0,0.1-0.1,0.1-0.1c0,0,0.1,0.1,0.1,0.1
			c0.1,0,0.1,0,0.2-0.1c0.2,0,0.4-0.1,0.5,0.1c0.1-0.1,0.2-0.1,0.3,0c0.1,0,0.2,0.2,0.3,0.1c0,0,0.1-0.1,0.1-0.1
			c0.1,0,0.3,0.1,0.4,0.1c0.1,0,0.2-0.1,0.2-0.1c0,0,0,0.1,0.1,0.1c0.1,0,0.2-0.1,0.3-0.1c0.1,0.1,0.3,0.1,0.4,0.1
			c0,0,0.1-0.2,0.1-0.1c0,0.1,0.1,0.3,0.2,0.3c0.1,0.1,0.3,0,0.5,0c0.1,0,0.1,0.2,0.2,0.1c0.1,0.3,0.4,0.3,0.7,0.3
			c0.1-0.2,0.2-0.1,0.4-0.3c0.1,0.1,0.6-0.4,0.7-1c0-0.2,0-0.4-0.1-0.4c-0.1-0.1-0.3,0.1-0.4,0c0,0,0-0.1-0.1-0.2
			c-0.1,0-0.2,0-0.3,0c0,0,0-0.1-0.1-0.1c0,0-0.1,0.1-0.1,0.1c0,0-0.1-0.1-0.1-0.1c0,0-0.1,0-0.1,0c-0.2-0.1-0.4-0.4-0.7-0.2
			c0-0.3-0.1-0.1-0.2-0.1c-0.1,0-0.1-0.2-0.2-0.2c0,0-0.1,0.1-0.1,0.1c0,0-0.1-0.1-0.1-0.1c0,0-0.1,0.1-0.1,0.1c-0.1,0-0.2,0-0.3,0
			c-0.2,0-0.5,0.1-0.8,0c-0.1,0-0.1-0.1-0.2-0.1c-0.1,0-0.2,0.1-0.4,0.1c-0.1,0-0.2-0.1-0.3-0.1c0,0-0.1,0.1-0.1,0.1
			c-0.1,0-0.1-0.1-0.2-0.1c-0.1,0-0.3,0.2-0.4,0c-0.1,0.2-0.1,0-0.2,0.2c-0.1-0.2-0.4-0.2-0.5,0.1c-0.1-0.1-0.2-0.1-0.3,0
			C77,103.2,76.8,103.4,76.6,103.5z"/>
	</g>
</g>
<path class="st2" d="M41.9,77.1c0.6,0,1.2,0,1.7-0.1c-0.1-0.6-0.3-1.3-0.4-1.8c0-0.2-0.1-0.4-0.2-0.6c-0.1-0.5-0.1-1-0.3-1.5
	c0-0.1-0.1-0.1-0.1-0.2c-0.2-0.4-0.1-0.8-0.3-1.2c-0.1-0.3-0.1-0.5-0.2-0.8c-0.1-0.2-0.2-0.4-0.2-0.5c-0.2-0.5-0.3-1.1-0.4-1.6
	c-0.1-0.4-0.2-0.8-0.3-1.1c0-0.2-0.1-0.3-0.1-0.5c0-0.1,0.1-0.1,0.1-0.2c0-0.2-0.1-0.4-0.1-0.6c0-0.3,0-0.6,0-0.8
	c-0.1-0.2-0.6-0.4-0.8-0.4c-0.2,0-0.6,0.3-0.7,0.5c-0.1,0.2,0,0.5-0.1,0.6c0.2,0.7,0.4,1.5,0.6,2.2c0.1,0.4,0.2,0.9,0.3,1.4
	c0,0.1,0.1,0.3,0.2,0.4c0.1,0.4,0.1,0.9,0.3,1.1c0.1,0.2,0.1,0.4,0.2,0.7c0.1,0.3,0.3,0.6,0.3,0.9c-0.1,0.4,0.2,1,0.3,1.6
	c0,0.2,0,0.4,0.1,0.5l0.1,0.3c0,0.1,0.1,0.2,0,0.2c0,0,0.1,0.1,0.1,0.1c0,0,0,0-0.1,0c0,0,0,0-0.1,0l0,0c0,0-0.1,0-0.1,0
	c-0.3,0.1-0.6,0-0.9,0c-0.1,0-0.3,0.1-0.5,0.1c-0.4,0.1-0.9,0-1.3,0c-0.1,0-0.2,0.1-0.3,0.1c-0.1,0-0.2-0.1-0.3-0.1
	c-0.1,0-0.4,0-0.4,0.1c-0.1,0-0.3,0.1-0.3,0l0,0c-0.1,0,0-0.1,0-0.2c0,0,0.1-0.1,0.1-0.1c0.1-0.1,0.1-0.3,0.1-0.5c0-0.1,0-0.2,0-0.2
	c0.1-0.3,0.3-0.7,0.4-1c0.1-0.2,0-0.4,0.1-0.6c0-0.1,0.1-0.1,0.1-0.2c0.1-0.2,0-0.5,0.1-0.7c0.2-0.4,0.2-0.8,0.4-1.2
	c0.1-0.1-0.1-0.1-0.1-0.1c0.2-0.2,0.3-0.4,0.4-0.7c0.2-0.4,0.2-0.9,0.3-1.3c0.1-0.2,0.2-0.3,0.2-0.5c0.4-0.5,0.6-1.4,0.7-2
	c-0.1-0.2,0-0.5-0.1-0.7c0.2-0.5-0.2-0.9-0.7-0.8c-0.2,0.2-0.3,0.2-0.4,0.4c-0.1,0.2,0,0.5-0.1,0.7c0,0.1-0.1,0.2-0.2,0.3
	c-0.1,0.2,0,0.4-0.1,0.6c0,0.1-0.1,0.2-0.1,0.2c0,0.1,0,0.2,0,0.3c0,0.1-0.1,0.2-0.2,0.3c0,0.1,0,0.2,0,0.2
	c-0.2,0.5-0.6,1.1-0.5,1.6c-0.2,0.1-0.2,0.3-0.2,0.5c-0.1,0.2-0.3,0.4-0.3,0.6c0,0.1,0,0.2,0,0.2c0,0.1-0.1,0.2-0.1,0.2
	c0,0.1,0,0.2,0,0.3c0,0.2-0.1,0.4-0.2,0.6c-0.1,0.6-0.2,1.2-0.4,1.8c-0.1,0.2-0.2,0.3-0.2,0.5c-0.1,0.1-0.1,0.3-0.1,0.4l0,0.2
	c0,0.1-0.1,0.2-0.1,0.3C36.3,76,36,76.5,35.9,77c0,0.1,0,0.2,0,0.3c0,0,0,0.1,0,0.1c0.2,0,0.3,0.1,0.6,0c0.6,0,1.1-0.2,1.6-0.1
	c0.2-0.2,0.3,0,0.5-0.2c0.4,0.2,1,0.1,1.3-0.1c0.2,0,0.6,0,0.8,0C41,77.3,41.5,77.1,41.9,77.1z"/>
<g>
	<path class="st2" d="M39,105.6c0,0,1.7,4.6,6.7,4.7"/>
	<path class="st1" d="M41.9,109.9c0.3,0.1,0.5,0.3,0.7,0.4c0.1,0,0.1,0,0.2,0c0.1,0.1,0.2,0.3,0.4,0.2c0,0,0.1-0.1,0.1-0.1
		c0.1,0,0.2,0.2,0.4,0.2c0.1,0,0.1,0.1,0.2,0.1c0.1,0,0.1-0.1,0.2-0.1c0.2-0.1,0.3,0.1,0.5,0.1c0.1,0,0.2,0,0.4,0c0,0,0.1,0,0.1,0
		c0,0,0,0.1,0,0.2c0,0.1,0.1,0,0.2,0.1c0.1,0.1,0.2,0.3,0.2,0.2c0.1-0.1,0.2-0.6,0.2-0.9c0-0.3,0-0.8-0.1-1c0-0.2-0.1-0.1-0.1-0.3
		c-0.2,0.1-0.4,0-0.6,0c-0.1,0-0.2-0.1-0.3-0.1c0,0-0.1,0.1-0.1,0.1c-0.1,0-0.2-0.2-0.3-0.1c-0.1,0.1-0.1,0-0.2-0.1
		c-0.1,0-0.2,0.1-0.3,0.1c0-0.3-0.2-0.1-0.3-0.2c-0.2-0.3-0.6,0-0.7-0.4c-0.1,0.1-0.1-0.1-0.2-0.1c0,0-0.1,0-0.2,0
		c-0.1,0-0.1-0.2-0.2-0.2c0,0-0.1,0.1-0.1,0c0,0,0-0.1,0-0.1c0,0-0.1,0-0.1,0c-0.1,0-0.3-0.1-0.3-0.2c-0.1,0.1-0.2,0-0.2-0.1
		c0-0.1,0-0.2-0.1-0.2c0,0-0.1,0-0.1,0c-0.1,0-0.1-0.2-0.1-0.2c0,0-0.1,0-0.2,0c0,0,0-0.1,0-0.1c0,0-0.2,0-0.2-0.1
		c0-0.1-0.1-0.2-0.2-0.2c0,0-0.2,0.1-0.1,0.1c0.1-0.1,0.1-0.2,0.1-0.3c0-0.1-0.2-0.1-0.3-0.2c0,0,0.1-0.2-0.1-0.1
		c0.2-0.3-0.1-0.4-0.3-0.5c-0.2,0-0.2-0.1-0.5,0c0-0.1-0.7,0-1.2,0.3c-0.1,0.1-0.3,0.2-0.2,0.3c0,0.1,0.2,0.1,0.3,0.1
		c0,0-0.1,0.1-0.1,0.2c0,0.1,0.2,0.1,0.2,0.1c0,0,0,0.1,0,0.1c0,0,0.1,0,0.1,0c0,0,0,0.1,0,0.1c0,0,0.1,0,0.1,0
		c0.1,0.2,0,0.5,0.3,0.5c-0.2,0.2,0,0.1,0,0.2c0,0.1,0,0.2,0,0.3c0,0,0.1,0,0.1,0c0,0,0,0.1,0,0.1c0,0,0.1,0,0.1,0
		c0.1,0,0.1,0.1,0.2,0.1c0.2,0.1,0.4,0.2,0.5,0.3c0,0,0,0.1,0,0.2c0.1,0.1,0.2,0.1,0.3,0.1c0.1,0,0.1,0.2,0.2,0.2c0,0,0.1,0,0.1,0
		c0,0,0,0.1,0.1,0.2c0.1,0,0.3,0,0.3,0.1c0.2-0.2,0.1,0.1,0.2-0.1c0,0.2,0.2,0.3,0.4,0.2c0,0.1,0.1,0.1,0.2,0.1
		C41.5,109.9,41.7,109.8,41.9,109.9z"/>
</g>
</svg>
