<?xml version="1.0" encoding="utf-8"?>
<!-- Generator: Adobe Illustrator 22.0.1, SVG Export Plug-In . SVG Version: 6.00 Build 0)  -->
<svg version="1.1" id="Layer_1" xmlns="http://www.w3.org/2000/svg" xmlns:xlink="http://www.w3.org/1999/xlink" x="0px" y="0px"
	 viewBox="0 0 156.7 171.4" style="enable-background:new 0 0 156.7 171.4;" xml:space="preserve">
<style type="text/css">
	.st0{fill:#1E2537;}
	.st1{fill:#FFBE03;}
	.st2{fill:#FFFFFF;}
</style>
<g>
	<path class="st0" d="M81.1,7.7C81,7.6,81,7.5,81,7.4c0,0-0.1,0-0.1-0.1c0-0.1,0.1-0.2,0-0.2c0,0-0.1,0-0.1,0c-0.1,0,0-0.2,0-0.2
		c-0.1,0,0-0.1,0-0.1c0,0-0.1,0-0.2,0c-0.1,0-0.1-0.2-0.1-0.2c0-0.1-0.1-0.1-0.1-0.2c0,0,0-0.1,0-0.1c0,0,0.1-0.1,0.1-0.1
		c0,0,0-0.1,0-0.1c0-0.1,0.2-0.2,0.1-0.2c-0.1,0-0.6,0.1-0.9,0.2c-0.2,0.1-0.8,0.3-0.9,0.4c-0.2,0.1-0.1,0.1-0.2,0.2
		c0.1,0.1,0.2,0.2,0.2,0.3c0,0.1,0,0.2,0,0.2c0,0,0.1,0,0.1,0c0,0.1-0.1,0.2,0.1,0.2c0.1,0,0,0.1,0,0.1c0,0,0.2,0,0.2,0.1
		c-0.2,0.2,0,0.2,0,0.3c-0.1,0.2,0.4,0.3,0.2,0.5c0.1,0,0.1,0.1,0.1,0.1c0,0,0.1,0,0.1,0c0.1,0,0,0.2,0,0.2c0,0,0.1,0,0.1,0
		c0,0-0.1,0.1-0.1,0.1c0,0,0.1,0,0.1,0C80,9,80.1,9,80,9.1c0.1,0,0.1,0,0.1,0.1c0,0.1-0.1,0.1,0,0.2c0,0,0.1,0,0.1,0
		c0.1,0,0,0.1,0,0.2c0,0,0.1,0,0.1,0c0,0-0.1,0.1-0.1,0.1c0,0,0.2,0,0.1,0.1c0,0.1,0.1,0.1,0.1,0.2c0,0,0.2-0.1,0.1,0
		c-0.1,0.1-0.2,0.2-0.2,0.2c0,0.1,0.2,0.1,0.2,0.2c0,0-0.1,0.1,0,0.1c-0.2,0.2,0,0.3,0.1,0.3c0.2-0.1,0.2,0,0.4-0.1
		c0,0.1,0.6-0.1,1.2-0.4c0.1-0.1,0.3-0.2,0.3-0.2c0,0-0.2,0-0.2,0c0,0,0.1-0.1,0.1-0.1c0,0-0.1,0-0.1,0c0,0,0.1-0.1,0.1-0.1
		c0,0-0.1,0-0.1,0c0,0,0.1-0.1,0.1-0.1c0,0-0.1,0-0.1,0c0-0.1,0.2-0.3-0.1-0.3c0.2-0.1,0.1-0.1,0-0.1c0,0,0.1-0.1,0.1-0.2
		c0,0-0.1,0-0.1,0c0,0,0.1-0.1,0.1-0.1c0,0-0.1,0-0.1,0c-0.1,0,0-0.1-0.1-0.1c-0.1-0.1-0.3-0.1-0.3-0.2c0,0,0.1-0.1,0.1-0.1
		c0-0.1-0.1,0-0.2-0.1c-0.1,0,0-0.1,0-0.1c0,0-0.1,0-0.1,0c0,0,0.1-0.1,0-0.1c-0.1,0-0.2,0-0.1-0.1c-0.2,0.1,0,0-0.2,0
		c0.2-0.1,0.1-0.2-0.2-0.2c0-0.1,0-0.1-0.1-0.1C81.4,7.8,81.2,7.8,81.1,7.7z"/>
	<path class="st0" d="M104.9,7.1c0-0.2,0.1-0.3,0.2-0.4c0,0,0-0.1,0-0.1c0.1,0,0.2-0.1,0.2-0.2c0,0-0.1-0.1-0.1-0.1
		c-0.1-0.1,0.2-0.1,0.1-0.2c0-0.1,0.1-0.1,0.1-0.1c0,0-0.1-0.1-0.1-0.2c-0.1-0.1,0.1-0.2,0.1-0.2c0-0.1,0-0.1,0.1-0.2
		c0,0,0,0,0.1-0.1c0,0,0.1,0,0.2,0c0.1,0,0-0.1,0.1-0.1c0.1,0,0.3,0,0.2,0c0-0.1-0.5-0.3-0.7-0.5c-0.2-0.1-0.8-0.4-0.9-0.4
		c-0.2-0.1-0.1,0-0.3,0c0,0.2-0.1,0.3-0.1,0.4c0,0.1-0.1,0.1-0.2,0.2c0,0,0,0.1,0,0.1c0,0.1-0.2,0.1-0.1,0.2c0.1,0.1,0,0.1-0.1,0.1
		c0,0.1,0.1,0.2,0.1,0.2c-0.3-0.1-0.1,0.1-0.2,0.2c-0.3,0.1,0,0.4-0.3,0.5c0.1,0.1,0,0.1-0.1,0.1c0,0,0.1,0.1,0.1,0.1
		c0,0.1-0.1,0.1-0.1,0.2c0,0,0.1,0.1,0.1,0.1c0,0-0.1,0-0.1,0c0,0,0,0.1,0,0.1c0,0.1,0,0.2-0.1,0.2c0.1,0.1,0,0.1,0,0.1
		c0,0-0.2,0-0.1,0.1c0,0,0.1,0.1,0.1,0.1c0,0.1-0.1,0.1-0.1,0.1c0,0,0.1,0.1,0.1,0.1c0,0-0.1,0-0.1,0c0,0,0.1,0.1,0.1,0.2
		c-0.1,0,0,0.1-0.1,0.2c0,0,0.2,0.1,0.1,0.1c-0.1,0-0.2,0-0.3,0c-0.1,0,0,0.2,0,0.2c0,0-0.2,0,0,0.1c-0.3,0-0.2,0.2-0.2,0.3
		c0.2,0.1,0.1,0.1,0.3,0.3c-0.1,0,0.5,0.4,1.1,0.6c0.1,0,0.3,0.1,0.3,0.1c0,0-0.1-0.2-0.1-0.2c0,0,0.1,0,0.1,0c0,0-0.1-0.1-0.1-0.1
		c0,0,0.1,0,0.1,0c0,0-0.1-0.1-0.1-0.1c0,0,0.1,0,0.1,0c0,0-0.1-0.1-0.1-0.1c0-0.1,0.3-0.1,0.1-0.2c0.3,0.1,0.1,0,0.1,0
		c0,0,0.2,0,0.2,0c0,0-0.1-0.1-0.1-0.1c0,0,0.1,0,0.1,0c0,0-0.1-0.1-0.1-0.1c0-0.1,0-0.1,0-0.1c0-0.1-0.1-0.3,0-0.3c0,0,0.1,0,0.1,0
		c0,0-0.1-0.1-0.1-0.2c0-0.1,0.1-0.1,0.1-0.1c0,0-0.1-0.1-0.1-0.1c0,0,0.1,0,0.1,0c0-0.1-0.1-0.2,0-0.2c-0.2-0.1,0,0-0.1-0.1
		c0.2,0,0.2-0.1,0-0.2c0.1,0,0.1-0.1,0-0.1C105.1,7.3,104.9,7.2,104.9,7.1z"/>
	<path class="st0" d="M93.6,4.5c0-0.3,0-0.6,0-0.9c0-0.1-0.1-0.1,0-0.2c0.1-0.2,0.2-0.3,0.1-0.5c0,0-0.1,0-0.1-0.1
		c-0.1-0.1,0.1-0.3,0-0.4c0-0.1,0.1-0.2,0-0.3c0-0.1-0.1-0.1-0.1-0.2c-0.1-0.2,0-0.4,0-0.6c0-0.1,0-0.3,0-0.4c0-0.1,0-0.1,0-0.2
		c0,0,0.1,0,0.2-0.1c0.1-0.1,0-0.1,0-0.2c0.1-0.1,0.2-0.2,0.2-0.3C93.9,0.2,93.4,0,93.1,0c-0.3,0-0.8,0-1,0.1
		c-0.2,0.1-0.1,0.2-0.3,0.2c0.1,0.3,0.1,0.5,0.1,0.8c0,0.2-0.1,0.3-0.1,0.5c0,0,0.1,0.1,0.1,0.1c0,0.2-0.1,0.3,0,0.4
		c0.1,0.1,0,0.2,0,0.2c0,0.1,0.1,0.2,0.1,0.3c-0.3,0.1,0,0.4-0.1,0.5c-0.2,0.4,0.2,0.8,0,1.2c0.1,0.1,0,0.2,0,0.3
		c0,0.1,0.1,0.1,0.1,0.2c0.1,0.1-0.1,0.3,0,0.5c0,0,0.1,0.1,0.1,0.1c0,0-0.1,0.1-0.1,0.1C92,5.7,92,5.7,92,5.8
		c0.1,0.2,0.1,0.3,0,0.5c0.1,0.1,0.1,0.2,0.1,0.3c0,0.1-0.1,0.2,0,0.3c0,0,0.1,0.1,0.1,0.1c0.1,0.1,0,0.3,0,0.4
		c0,0.1,0.1,0.1,0.1,0.2c0,0-0.1,0.1-0.1,0.1c0,0.1,0.1,0.2,0.1,0.2c0,0.1,0,0.3,0,0.4c0,0,0.2,0,0.2,0c-0.1,0.1-0.2,0.2-0.3,0.3
		c-0.1,0.1,0.1,0.3,0.1,0.5c0,0.1-0.2,0.1,0,0.2c-0.3,0.2-0.1,0.5,0,0.7c0.2,0.1,0.2,0.2,0.4,0.2c-0.1,0.2,0.6,0.3,1.2,0.2
		c0.1-0.1,0.3-0.1,0.3-0.2c0-0.1-0.2-0.2-0.2-0.3c0,0,0.1-0.1,0.1-0.1c0-0.1-0.1-0.1-0.1-0.2c0,0,0.1-0.1,0.1-0.1
		c0,0-0.1-0.1-0.1-0.1c0,0,0.1-0.1,0.1-0.1c0,0-0.1-0.1-0.1-0.1c0-0.2,0.3-0.4,0-0.6c0.3,0,0.1-0.1,0.1-0.2c0-0.1,0.2-0.2,0.2-0.2
		c0,0-0.1,0-0.1-0.1c0,0,0.1-0.1,0.1-0.1c0,0-0.1-0.1-0.1-0.1c-0.1-0.1,0-0.1,0-0.2c-0.1-0.2-0.2-0.4-0.2-0.6C93.9,7.1,94,7,94,7
		c0-0.1-0.1-0.2-0.1-0.3c0-0.1,0.1-0.2,0-0.3c0,0-0.1-0.1-0.1-0.1c0-0.1,0.1-0.1,0.1-0.2c0-0.1-0.2-0.2-0.1-0.3
		c-0.2,0,0-0.1-0.2-0.2c0.2-0.1,0.1-0.3-0.1-0.5c0.1-0.1,0.1-0.2,0-0.3C93.8,4.8,93.7,4.6,93.6,4.5z"/>
	<g>
		<rect x="40.2" y="42.6" class="st1" width="105.9" height="74"/>
		<path class="st0" d="M66.3,43.2c10.5,0,21.9,0,30.3,0c2.4,0,4.8-0.1,7.2,0c5.6,0.1,11.9,0.2,17.6,0.1c0.7,0,1.5-0.1,2.2-0.1
			c4.6-0.1,10.1,0.1,14.9,0c1.3,0,2.6,0,3.9,0c1.1,0,2.1,0,3.2,0c0,0.6,0,1.2,0,1.8c0,2.6,0.1,4.7,0.2,6.9c0.1,6.7,0,13.3,0,19.6
			c0,4.4,0,9.5,0,14.1c0,1.9,0,4.1,0,5.8c0,0.6-0.1,1.5-0.2,2.2c-0.1,1.8,0,4.7,0,7.4c-0.1,3.7-0.2,6.7-0.2,8.8
			c0.1,2.3,0.6,6.7,0.9,6.9c0.3,0.2,0.8-1.8,1-3.6c0.2-2,0.1-5.3,0.3-7.2c-0.1-9.1-0.1-18.8-0.1-27.6c0-5.4,0.1-11.1,0.1-16.8
			c0-1.6-0.1-3.3-0.1-5c0-2.6,0-5.2,0.1-7.5c0-1.2,0-2.3,0-3.4c0-1.5,0-2.9-0.1-4.3c-0.1,0-0.2,0-0.3,0c-1.1,0-2.1,0-3.1,0
			c-0.7,0-1.4,0-2.1,0c-1.4,0-2.9,0-4.4,0c-3.8,0.1-7.7,0.1-11.6,0.2c-4.9-0.3-12.8,0-18.7-0.1c-13.5-0.2-28.1,0.2-42.2,0
			c-3.6,0.1-7.7,0-11,0c-1.8,0-3.5,0.1-5.5,0.1c-1.3,0-2.7,0-4,0c-1.7,0-3.5,0-5.2,0c0,1.7,0,3.3,0,5c0,1.3,0,2.5,0,3.7
			c0,1.2,0.1,2.4,0.1,3.6c0,1.1-0.1,2.2-0.1,3.3c0,1.8,0.1,3.9,0.1,5.8c0.1,6.5,0.1,11.6,0,16.8c0.1,2.4,0.1,6.1,0.1,9.1
			c0,3.9-0.1,7.8,0,11.8c0,0.9,0.1,1.9,0.1,2.8c0,2,0,4.3,0,6.5c0,2.3,0,4.5,0,6.2l0,1.5c0.8,0,1.6,0,2.4,0l1.6,0
			c1,0,2.1-0.1,3.1-0.1c1,0,2.1,0.1,3,0.1c2.7,0,5.6-0.1,8.3-0.1c4.6,0,9.7,0,14.6,0c1.1,0,0.3-0.2,1.4-0.2c2.7,0.1,5.9,0.2,9.1,0.3
			c5,0.1,10.5-0.1,15.7-0.1c2.4,0,4.8,0.2,6.9,0c7,0.3,17.5,0.1,25.1,0c2.1-0.2,6.2-0.2,8-0.4c5.8,0.1,9.9-0.6,6.1-1.2
			c-2.5-0.1-3.9-0.3-6.6-0.3c-2.8,0-5.8,0.2-8.5,0.2c-1.4,0-2.8-0.1-4.1-0.1c-2.2,0-4.8,0.1-7.2,0.1c-1.1,0-2.3-0.1-3.3-0.1
			c-1.1,0-2,0.1-3,0.1c-1.3,0-2.5-0.1-3.9-0.1c-0.9,0-1.8,0.1-2.8,0.1c-6.8,0-14.4-0.3-20.1,0c-1.8-0.3-4.3-0.1-6.3-0.1
			c-2.9,0-5.9-0.2-8.5-0.2c-0.9,0-1.6,0.1-2.5,0.1c-1.1,0-2.3-0.1-3.3-0.1c-1.1,0-2.2,0.1-3.3,0.1c-2.3,0.1-4.9,0-7.4,0
			c-4.1,0.1-8.2,0.1-12.5,0.2c0,0.1,0-1.8,0-3c0-1.3,0-2.7,0-4.1c0-2,0.1-4,0.1-6.1c0-3.6-0.1-6.8-0.2-10.2c0-3.3,0.1-6.9,0-10.2
			c0-0.9-0.1-1.8-0.1-2.8c0-2,0.1-3.7,0.1-5.5c0-3.9-0.2-7.5-0.1-11.3c-0.2-1.5,0-3.3-0.2-5.2c0.1-2.2,0.1-4.8,0.1-7.4
			c0-1.3,0-2.6,0-3.8c0-0.6,0-1.2,0-1.8l0-0.4l0-0.2c0-0.1,0-0.3,0-0.4c0.2,0,0.4,0,0.5,0c0.6,0,1.4,0,2.1,0c0.8,0,1.7,0,2.5,0
			c1.8,0,3.6,0,5.1-0.1C55.9,43.4,61.1,43.2,66.3,43.2z"/>
	</g>
	<path class="st0" d="M27.6,15.3c0-0.7,0-1.3,0-2c0-1,0-2.1,0-3.1c-0.6,0-1.3-0.1-1.9-0.1c-1.2-0.1-2.5-0.1-3.8-0.2
		c-1.2-0.1-2.5-0.2-3.8-0.3c-1.2-0.1-2.5-0.2-3.7-0.3c-1.4-0.1-2.8-0.2-4.1-0.3C9.8,9.1,9.4,9,9,9c0,1.3,0.1,2.6,0.1,3.9
		c0,1,0,2,0,3.1c0,1.7,0.1,3.6,0.1,5.4c0.1,6,0.3,10.8,0.2,15.7c0.2,2.3,0.2,5.7,0.2,8.5c0,3.6,0,7.3,0.1,11.1
		c0,0.8,0.1,1.7,0.1,2.6C10,62.8,10,67.8,10,70.7c0,2.2,0.2,4.4,0.2,6.7c0,0.9,0,1.9,0,2.8c0,2.5,0.2,5.2,0.2,7.7
		c0,4.3,0.1,9.1,0.2,13.6c0,1,0.2,0.3,0.2,1.3c-0.1,2.6-0.1,5.5-0.2,8.5c0,4.7,0.2,9.8,0.3,14.7c0,2.2-0.1,4.5,0.1,6.4
		c-0.2,6.6,0.1,16.3,0.3,23.4c0.2,2,0.2,5.8,0.5,7.4c0,2.4,0.1,4.4,0.3,5.7l0,1.4h12.3l0-0.1c0,0,0,0,0,0.1c0.3,0.2,0.9-1.7,1-3.3
		c0.2-1.8,0.2-5,0.4-6.7c0-8.5,0.2-17.6,0.2-25.7c0.1-5,0.2-10.3,0.3-15.7c0-1.5,0-3.1,0-4.6c0.1-5,0.3-9.6,0.2-13.1
		c-0.1-2.5,0.1-5.1,0.1-8c0-3.5-0.1-7.2,0-10.8c0.3-4.6,0.2-11.9,0.3-17.5c0.4-12.6,0.1-26.2,0.5-39.3
		C27.4,22.3,27.5,18.4,27.6,15.3z"/>
	<g>
		<polygon class="st0" points="155.4,33.6 3,32.6 3,20.3 155.4,19.3 		"/>
		<path class="st2" d="M28,20.7c9.7-0.1,20.2-0.1,27.9-0.2c2.2,0,4.4-0.1,6.6-0.1c5.2,0,11,0.1,16.3,0c0.7,0,1.4-0.1,2-0.1
			c4.2-0.1,9.3,0,13.7-0.1c3.2-0.1,6,0,9.1,0c2.4,0,4.3-0.1,6.3-0.2c6.2-0.1,12.3-0.1,18-0.1c4.1,0,8.8-0.1,12.9-0.1
			c1.8,0,3.8,0,5.3,0c0.6,0,1.4,0.1,2,0.1c0.8,0,1.9,0,3.1,0c0.6,0,1.2,0,1.8,0c0.4,0,0.9,0,1.3,0l0.1,0c0,1.4-0.1,2.7-0.1,3.9
			c0,1.3-0.1,2.5-0.1,3.4c0.1,2.1,0.6,6.2,0.9,6.3c0.3,0.2,0.8-1.7,1-3.3c0.2-1.8,0.1-4.9,0.3-6.6c0-1.9,0-3.7,0-5.7
			c-7.5,0.1-15.2,0.1-22.3,0.2c-5,0-10.2,0-15.5,0c-1.5,0-3.1,0.1-4.6,0.1c-4.9,0-9.4-0.1-12.9,0.1c-2.5,0.1-5,0-7.9,0.1
			c-3.5,0-7.1,0.2-10.7,0.2c-4.6-0.2-11.8,0.1-17.3,0c-12.4-0.1-25.9,0.4-38.9,0.3c-3.3,0.2-7.1,0.1-10.2,0.1
			c-1.6,0-3.3,0.1-5.1,0.1c-1.4,0-2.8,0-4.2,0c-1.8,0-3.6,0-5.4,0c0,1.4,0,2.8,0,4.1c0,1,0,2,0,2.9c0,1.1,0.1,2.2,0.1,3.3
			c0,0.5,0,1,0,1.5l0,1.2c0,0.5,0,0.9,0,1.4l0,0.1c0.8,0,1.6,0,2.4,0c0.4,0,0.9,0,1.3,0c0.9,0,1.8,0,2.7,0c6,0,10.7-0.1,15.5,0.1
			c2.2-0.1,5.6-0.1,8.4,0c3.6,0,7.2,0.2,10.9,0.1c0.8,0,1.7-0.1,2.5-0.1c3.6,0,8.5,0.1,11.4,0.1c2.2,0,4.4-0.1,6.6-0.1
			c0.9,0,1.9,0.1,2.8,0.1c2.5,0,5.1-0.1,7.6-0.1c4.2,0.1,9,0,13.5,0c1,0,0.3-0.2,1.3-0.1c2.5,0.1,5.4,0.3,8.4,0.3
			c4.6,0.1,9.7-0.1,14.5,0c2.2,0,4.5,0.2,6.3,0c6.5,0.3,16.1,0.2,23.1,0.2c2-0.2,5.7-0.1,7.4-0.4c5.4,0.1,9.1-0.5,5.6-1.2
			c-2.3-0.2-3.6-0.4-6.1-0.4c-2.6,0-5.3,0.2-7.9,0.1c-1.3,0-2.6-0.1-3.8-0.1c-2.1,0-4.4,0.1-6.6,0.1c-1.1,0-2.1-0.1-3-0.1
			c-1,0-1.8,0.1-2.8,0.1c-1.2,0-2.3-0.1-3.6-0.1c-0.8,0-1.7,0.1-2.5,0.1c-6.2,0-13.3-0.4-18.5-0.1c-1.7-0.3-4-0.1-5.8-0.1
			c-2.7,0-5.4-0.2-7.9-0.2c-0.8,0-1.5,0.1-2.3,0.1c-1,0-2.1-0.1-3-0.1c-1,0-2.1,0.1-3,0.1c-2.1,0-4.5,0-6.9,0
			c-6.4,0-12.9,0.1-19.8,0.1c-1.9-0.1-3.7-0.1-5.6-0.2c-3.3,0-6.2,0.1-9.4,0.1c-3.1,0-6.3-0.1-9.4-0.1c-0.8,0-1.7,0.1-2.5,0.1
			c-1.8,0-3.4-0.1-5.1-0.1c-3.6,0-6.9,0.2-10.4,0c-0.7,0.1-1.5,0.1-2.3,0.1c-0.4,0-0.8,0-1.2,0c-0.3,0-0.3,0-0.4,0
			c-0.1,0-0.2,0-0.3,0.1c0,0-0.1,0-0.1,0c0.2-2.1,0.1-8.9,0-11c0.3,0,0.6-0.1,1.3-0.1c2.5,0,6.2,0,9.1-0.1
			C18.4,21,23.1,20.8,28,20.7z"/>
	</g>
	<path class="st2" d="M20.6,26.1c0.1-0.3-0.1-0.6-0.2-0.9c-0.2-0.6-0.9-1-1.5-1.3c-0.2,0-0.4-0.1-0.5-0.1c-0.1,0-0.2,0-0.3,0
		c-0.2,0-0.5,0-0.7,0c-0.1,0-0.1,0.1-0.1,0.1c0,0-0.1,0-0.2,0c-0.1,0-0.2,0.1-0.2,0.1c-0.3,0.2-0.4,0.3-0.6,0.4
		c0,0.1-0.2,0.2-0.3,0.3c-0.1,0.1-0.3,0.3-0.3,0.4c0,0,0,0.1,0,0.1c0,0.2-0.2,0.4-0.2,0.5c0,0.1,0,0.2,0,0.3c0,0,0,0.1,0,0.1
		c0,0.1,0.1,0.2,0.1,0.4c0,0.2,0.1,0.4,0.2,0.6c0,0,0.1,0,0.1,0c0,0.1,0,0.3,0.1,0.4c0.1,0.2,0.3,0.3,0.5,0.5
		c0.1,0.1,0.1,0.2,0.2,0.2c0.2,0.3,0.7,0.4,1,0.4c0.1-0.1,0.3,0,0.4-0.2c0.1,0,0.2,0,0.2-0.1c0,0,0,0,0.1,0c0,0,0,0,0,0c0,0,0,0,0,0
		c0,0.1,0.1,0.4,0.2,0.5c0.1,0.1,0.3,0,0.4,0.1c0.4-0.2,0.8-0.4,1.1-0.7c0.2-0.2,0.4-0.4,0.5-0.6c0-0.1,0-0.2,0.1-0.2
		c0.1-0.2,0.2-0.4,0.2-0.6c0-0.1,0-0.3,0-0.4C20.8,26.5,20.7,26.3,20.6,26.1z"/>
	<path class="st0" d="M49.9,29.5c-0.1,0.9-0.3,1.9-0.5,2.6c0,0.2,0,0.4-0.1,0.6c-0.1,0.5-0.3,1-0.3,1.5c0,0.1,0.1,0.1,0.1,0.2
		c0,0.4-0.2,0.8-0.3,1.3c0,0.3-0.1,0.5-0.2,0.8c0,0.2,0,0.4,0,0.6c0,0.6-0.2,1.1-0.3,1.7c-0.1,0.4-0.1,0.8-0.2,1.2
		c0,0.2-0.1,0.4-0.1,0.5c0,0.1-0.1,0.1-0.1,0.2c-0.1,0.1-0.1,0.4-0.1,0.6c-0.1,0.3-0.3,0.5-0.3,0.7c0,0.2,0.3,0.6,0.5,0.7
		c0.2,0.1,0.6,0,0.8-0.2c0.2-0.1,0.1-0.4,0.3-0.6c0.1-0.8,0.2-1.6,0.4-2.4c0.1-0.5,0.2-0.9,0.3-1.4c0-0.1,0-0.3,0-0.4
		c0.1-0.5,0.3-0.9,0.2-1.2c0-0.2,0.1-0.5,0.1-0.7c0-0.3,0-0.7,0.1-1c0.3-0.4,0.2-1.1,0.4-1.6c0.4-1.1,0.3-2.4,0.6-3.6
		c0-0.2,0-0.3,0-0.5c0,0,0,0,0.1,0c0,0,0,0,0-0.1c0,0,0,0,0,0c0,0,0,0,0.1,0c0,0,0,0,0.1,0c0,0,0,0,0,0c0,0,0.1,0,0.1,0
		c0,0,0,0.1,0,0.1c0,0,0,0,0,0c0,0,0.1,0.1,0.1,0.2c0.2,0.5,0.3,1,0.3,1.4c0.1,0.2,0.2,0.5,0.2,0.8c0.1,0.3,0.1,0.7,0.2,1
		c0,0.1,0.1,0.1,0.1,0.2c0.1,0.3,0.2,0.8,0.2,1.1c0,0.2,0.2,0.4,0.2,0.6c0,0.1,0,0.2,0,0.3c0,0.2,0.2,0.5,0.2,0.7
		c0,0.4,0.2,0.8,0.3,1.2c0,0.1,0.1,0,0.1,0.1c0,0.3-0.1,0.5,0,0.8c0,0.4,0.3,0.9,0.4,1.3c0,0.2,0,0.4,0.1,0.6
		c-0.1,0.6,0.2,1.5,0.4,2.1c0.2,0.1,0.2,0.5,0.5,0.6c0.1,0.5,0.6,0.7,1,0.3c0.1-0.2,0.2-0.4,0.1-0.6c0-0.2-0.2-0.5-0.3-0.7
		c0-0.1,0-0.3,0-0.4c0-0.2-0.2-0.4-0.2-0.6c0-0.1,0-0.2,0-0.3c0-0.1-0.1-0.2-0.1-0.2c0-0.1,0-0.2,0-0.3c0-0.1-0.1-0.1-0.1-0.2
		c-0.1-0.6-0.1-1.3-0.4-1.7c0.2-0.2,0-0.4-0.1-0.5c-0.1-0.2,0-0.5,0-0.7c0-0.1-0.1-0.1-0.1-0.2c0-0.1,0-0.2,0-0.3
		c0-0.1-0.1-0.2-0.1-0.3c-0.1-0.2-0.1-0.4-0.2-0.6c-0.2-0.6-0.4-1.1-0.5-1.8c0-0.2,0-0.4,0-0.5c-0.1-0.3-0.2-0.6-0.3-0.8
		c-0.1-0.3-0.1-0.6-0.2-0.9c0-0.1-0.1-0.1-0.1-0.2c0-0.2,0-0.3,0-0.5c-0.1-0.3-0.3-0.6-0.3-0.9c-0.1-0.1-0.1-0.1-0.1-0.2
		c0-0.1,0-0.2-0.1-0.3c0-0.3,0-0.6-0.1-0.9c-0.5,0-1,0.1-1.3,0.2c-0.3,0-0.8,0-1.1,0l0,0.2c-0.1,0.2-0.2,0.5-0.2,0.9
		C49.9,29,49.9,29.2,49.9,29.5z"/>
	<path class="st0" d="M130.7,29.5c-0.1,0.9-0.3,1.9-0.5,2.6c0,0.2,0,0.4-0.1,0.6c-0.1,0.5-0.3,1-0.3,1.5c0,0.1,0.1,0.1,0.1,0.2
		c0,0.4-0.2,0.8-0.3,1.3c0,0.3-0.1,0.5-0.2,0.8c0,0.2,0,0.4,0,0.6c0,0.6-0.2,1.1-0.3,1.7c-0.1,0.4-0.1,0.8-0.2,1.2
		c0,0.2-0.1,0.4-0.1,0.5c0,0.1-0.1,0.1-0.1,0.2c-0.1,0.1-0.1,0.4-0.1,0.6c-0.1,0.3-0.3,0.5-0.3,0.7c0,0.2,0.3,0.6,0.5,0.7
		c0.2,0.1,0.6,0,0.8-0.2c0.2-0.1,0.1-0.4,0.3-0.6c0.1-0.8,0.2-1.6,0.4-2.4c0.1-0.5,0.2-0.9,0.3-1.4c0-0.1,0-0.3,0-0.4
		c0.1-0.5,0.3-0.9,0.2-1.2c0-0.2,0.1-0.5,0.1-0.7c0-0.3,0-0.7,0.1-1c0.3-0.4,0.2-1.1,0.4-1.6c0.4-1.1,0.3-2.4,0.6-3.6
		c0-0.2,0-0.3,0-0.5c0,0,0,0,0.1,0c0,0,0,0,0-0.1c0,0,0,0,0,0c0,0,0,0,0.1,0c0,0,0,0,0.1,0c0,0,0,0,0,0c0,0,0.1,0,0.1,0
		c0,0,0,0.1,0,0.1c0,0,0,0,0,0c0,0,0.1,0.1,0.1,0.2c0.2,0.5,0.3,1,0.3,1.4c0.1,0.2,0.2,0.5,0.2,0.8c0.1,0.3,0.1,0.7,0.2,1
		c0,0.1,0.1,0.1,0.1,0.2c0.1,0.3,0.2,0.8,0.2,1.1c0,0.2,0.2,0.4,0.2,0.6c0,0.1,0,0.2,0,0.3c0,0.2,0.2,0.5,0.2,0.7
		c0,0.4,0.2,0.8,0.3,1.2c0,0.1,0.1,0,0.1,0.1c0,0.3-0.1,0.5,0,0.8c0,0.4,0.3,0.9,0.4,1.3c0,0.2,0,0.4,0.1,0.6
		c-0.1,0.6,0.2,1.5,0.4,2.1c0.2,0.1,0.2,0.5,0.5,0.6c0.1,0.5,0.6,0.7,1,0.3c0.1-0.2,0.2-0.4,0.1-0.6c0-0.2-0.2-0.5-0.3-0.7
		c0-0.1,0-0.3,0-0.4c0-0.2-0.2-0.4-0.2-0.6c0-0.1,0-0.2,0-0.3c0-0.1-0.1-0.2-0.1-0.2c0-0.1,0-0.2,0-0.3c0-0.1-0.1-0.1-0.1-0.2
		c-0.1-0.6-0.1-1.3-0.4-1.7c0.2-0.2,0-0.4-0.1-0.5c-0.1-0.2,0-0.5,0-0.7c0-0.1-0.1-0.1-0.1-0.2c0-0.1,0-0.2,0-0.3
		c0-0.1-0.1-0.2-0.1-0.3c-0.1-0.2-0.1-0.4-0.2-0.6c-0.2-0.6-0.4-1.1-0.5-1.8c0-0.2,0-0.4,0-0.5c-0.1-0.3-0.2-0.6-0.3-0.8
		c-0.1-0.3-0.1-0.6-0.2-0.9c0-0.1-0.1-0.1-0.1-0.2c0-0.2,0-0.3,0-0.5c-0.1-0.3-0.3-0.6-0.3-0.9c-0.1-0.1-0.1-0.1-0.1-0.2
		c0-0.1,0-0.2-0.1-0.3c0-0.3,0-0.6-0.1-0.9c-0.5,0-1,0.1-1.3,0.2c-0.3,0-0.8,0-1.1,0l0,0.2c-0.1,0.2-0.2,0.5-0.2,0.9
		C130.8,29,130.7,29.2,130.7,29.5z"/>
	<path class="st2" d="M54.1,25.5c-0.2,0-0.2-0.2-0.4-0.2c0-0.1-0.2-0.1-0.3-0.1c0,0,0,0,0-0.1c0,0,0,0,0,0c0,0,0,0,0,0
		c0.2-0.1,0.4-0.4,0.5-0.6c0-0.2-0.1-0.2-0.1-0.4c-0.4-0.3-0.9-0.5-1.4-0.7c-0.3-0.1-0.6-0.1-0.9-0.1c-0.1,0-0.2,0.1-0.3,0.1
		c-0.3,0-0.6,0-0.7,0.2c-0.1,0.1-0.3,0.1-0.4,0.2c-0.2,0.1-0.3,0.3-0.4,0.5c-0.3,0-0.5,0.5-0.7,0.7c-0.3,0.3-0.3,0.7-0.4,1.1
		c0,0.4,0,0.8,0,1.2c0.1,0.2,0.1,0.4,0.2,0.6c0,0.1,0.1,0.1,0.2,0.2c0.2,0.2,0.3,0.5,0.5,0.7c0.1,0,0.1,0,0.2,0.1
		c0,0,0.1,0.1,0.1,0.2c0.1,0.1,0.2,0.1,0.3,0.1c0.3,0.1,0.6,0.2,0.8,0.3c0.1-0.1,0.3,0,0.5,0c0.2,0,0.4,0.1,0.6,0
		c0,0,0.1-0.1,0.1-0.1c0.2-0.1,0.5-0.1,0.6-0.1c0.1,0,0.2-0.2,0.3-0.2c0,0,0.1,0,0.2,0c0.1-0.1,0.2-0.2,0.3-0.3
		c0.2-0.1,0.3-0.3,0.5-0.5c0,0-0.1-0.1-0.1-0.1c0.1-0.1,0.3-0.1,0.4-0.3c0.2-0.2,0.1-0.5,0.1-0.8c0-0.1,0.2-0.2,0-0.3
		C54.5,26.4,54.3,25.8,54.1,25.5z"/>
	<path class="st2" d="M135.2,26.4c0.1-0.1,0-0.3,0.2-0.4c-0.2-0.5-0.4-0.9-0.6-1.3c-0.2-0.2-0.4-0.5-0.6-0.6c-0.1-0.1-0.2,0-0.2-0.1
		c-0.2-0.1-0.4-0.3-0.7-0.3c-0.2,0-0.3-0.1-0.4-0.1c-0.2,0-0.4,0.1-0.6,0.1c-0.3-0.2-0.6,0.1-0.9,0.1c-0.4,0.1-0.7,0.3-0.9,0.6
		c-0.2,0.3-0.4,0.6-0.6,0.9c0,0.2-0.1,0.4-0.2,0.5c0,0.1,0,0.2,0,0.3c0,0.3-0.1,0.5,0,0.8c0,0.1,0.1,0.1,0.1,0.2c0,0.1,0,0.1,0,0.2
		c0,0.1,0.1,0.2,0.1,0.3c0.2,0.3,0.3,0.5,0.4,0.7c0.1,0,0.2,0.2,0.3,0.3c0.1,0.1,0.2,0.3,0.4,0.4c0,0,0.1,0,0.2,0
		c0.2,0.1,0.4,0.2,0.5,0.3c0.1,0,0.2,0,0.3,0c0,0,0.1,0.1,0.1,0.1c0.1,0,0.3-0.1,0.4-0.1c0.2,0,0.4,0,0.6-0.1c0.1,0,0-0.1,0-0.1
		c0.1,0,0.3,0.1,0.4,0c0.2-0.1,0.4-0.3,0.5-0.5c0.1-0.1,0.2-0.1,0.2-0.2c0.4-0.1,0.5-0.6,0.5-1c-0.1-0.1-0.1-0.3-0.2-0.4
		c0-0.1-0.1-0.2-0.2-0.2c0,0,0,0,0-0.1c0,0,0,0,0,0c0,0,0,0,0,0C134.7,26.6,135.1,26.5,135.2,26.4z"/>
	<g>
		<rect x="48" y="51.9" class="st2" width="90.9" height="55.7"/>
		<path class="st0" d="M69.2,52.5c8.6-0.1,17.9,0,24.7,0c2,0,3.9-0.1,5.8,0c4.6,0.1,9.7,0.2,14.4,0.1c0.6,0,1.2-0.1,1.8-0.1
			c3.7-0.1,8.2,0.1,12.1,0c2.9-0.1,5.3,0.1,8.1,0c0.5,0,0.9,0,1.4,0c0.3,0,0.5,0,0.8,0c0,0.3,0,0.7,0.1,1c0,0.5,0,1,0,1.5
			c0.1,5.5,0,10.9,0,15.9c0,3.6,0,7.8,0,11.5c0,1.6,0,3.4,0,4.7c0,0.5-0.1,1.2-0.2,1.8c-0.1,1.5,0,3.8,0,6.1c-0.1,3-0.2,5.5-0.2,7.2
			c0.1,1.9,0.6,5.4,0.9,5.6c0.3,0.2,0.8-1.5,1-2.9c0.2-1.6,0.1-4.3,0.3-5.8c-0.1-7.5-0.1-15.3-0.1-22.5c0-4.4,0.1-9,0.1-13.7
			c0-1.3-0.1-2.7-0.1-4c0-2.8,0-5.6,0.1-8c-1.3,0-2.6,0-3.8,0c-0.8,0-1.5,0-2.2,0.1c-2.2,0.1-4.4,0-7,0c-3.1,0-6.3,0.1-9.4,0.2
			c-4-0.3-10.4,0-15.3-0.1c-11-0.2-22.9,0.2-34.4,0c-2.9,0.1-6.3,0-9,0c-1.5,0-2.9,0.1-4.5,0.1c-1.1,0-2.2,0-3.3,0c-1.5,0-3,0-4.5,0
			c0,1.4,0,2.9,0,4.2c0,1,0,2,0,3c0,1,0.1,1.9,0.1,2.9c0,0.9-0.1,1.8-0.1,2.7c0,1.5,0.1,3.2,0.1,4.7c0.1,5.3,0.1,9.5,0,13.7
			c0.1,2,0.1,5,0.1,7.4c0,3.2-0.1,6.4,0,9.7c0,0.7,0.1,1.5,0.1,2.2c0,1,0,2,0,3.1c0,1.3,0,2.7,0,4c1.8,0,3.4,0,4.7,0
			c1.9,0,3.9-0.1,5.8-0.1c0.8,0,1.7,0.1,2.5,0.1c2.2,0,4.5-0.1,6.7-0.1c3.7,0,7.9,0,11.9,0c0.9,0,0.3-0.2,1.1-0.2
			c2.2,0.1,4.8,0.2,7.4,0.3c4.1,0.1,8.6-0.1,12.8-0.1c1.9,0,3.9,0.2,5.6,0c5.7,0.3,14.2,0.1,20.4,0c1.7-0.2,5.1-0.2,6.5-0.4
			c4.8,0.1,8-0.6,4.9-1.2c-2-0.1-3.2-0.3-5.4-0.3c-2.3,0-4.7,0.2-7,0.2c-1.1,0-2.3-0.1-3.4-0.1c-1.8,0-3.9,0.1-5.8,0.1
			c-0.9,0-1.9-0.1-2.7-0.1c-0.9,0-1.6,0.1-2.5,0.1c-1,0-2-0.1-3.1-0.1c-0.7,0-1.5,0.1-2.2,0.1c-5.5,0-11.7-0.3-16.4,0
			c-1.5-0.3-3.5-0.1-5.2-0.1c-2.4,0-4.8-0.2-7-0.2c-0.7,0-1.3,0.1-2,0.1c-0.9,0-1.8-0.1-2.7-0.1c-0.9,0-1.8,0.1-2.7,0.1
			c-1.9,0.1-4,0-6.1,0c-4.7,0.1-9.5,0.1-14.6,0.2c0-0.3,0-0.7,0-1.1c0-1.7,0.1-3.3,0.1-4.9c0-2.9-0.1-5.5-0.2-8.3
			c0-2.7,0.1-5.6,0-8.3c0-0.7-0.1-1.5-0.1-2.2c0-1.6,0.1-3,0.1-4.5c0-3.1-0.2-6.1-0.1-9.2c-0.2-1.2,0-2.7-0.2-4.3
			c0.1-1.8,0.1-3.9,0.1-6c0-1.1,0-2.1,0-3.1c0-0.5,0-1,0-1.5c0-0.3,0-0.5-0.1-0.7c0.2,0,0.3,0,0.4,0c0.2,0,0.4,0,0.7,0
			c0.3,0,0.6,0,1,0c0.7,0,1.4,0,2.1,0c1.4,0,2.9,0,4.2-0.1C60.7,52.7,64.9,52.5,69.2,52.5z"/>
	</g>
	<g>
		<path class="st2" d="M18.6,171.3c0,0,0.7-13.2-9-21.7c0,0,2.5,7.2,2.8,21.7"/>
		<path class="st0" d="M9.6,151.1c0.1,0.5,0.3,1,0.4,1.5c0.1,0.4,0.2,0.8,0.3,1.2c0.1,0.7,0.2,1.3,0.3,1.8c0.1,0.3,0.1,0.6,0.2,0.9
			c0.1,0.7,0.1,1.5,0.3,2.2c0,0.1,0.1,0.2,0.1,0.3c0.1,0.6,0.1,1.3,0.2,1.9c0.1,0.4,0.1,0.8,0.1,1.3c0,0.3,0.1,0.6,0.2,0.9
			c0.2,0.8,0.1,1.7,0.2,2.5c0,0.6,0.1,1.2,0.1,1.8c0,0.2,0,0.5,0,0.7c0,0.1-0.1,0.2-0.1,0.3c0,0.2,0,0.6,0,1c0,0.5-0.2,0.9-0.1,1.1
			c0.1,0.3,0.5,0.8,0.7,0.9c0.2,0,0.6-0.2,0.7-0.5c0.1-0.3,0-0.7,0.2-0.9c-0.1-1.2-0.2-2.4-0.2-3.6c0-0.7-0.1-1.4-0.1-2.2
			c0-0.2-0.1-0.4-0.1-0.6c-0.1-0.7,0-1.3-0.2-1.8c-0.1-0.3-0.1-0.7-0.1-1.1c-0.1-0.5-0.2-1-0.3-1.5c0.1-0.7-0.2-1.6-0.3-2.4
			c-0.1-0.9-0.3-1.8-0.5-2.7l-0.2-0.7l-0.1-0.3l0-0.1c0-0.1,0-0.1,0-0.1c-0.2-0.2-0.1-0.2,0-0.1c0,0,0,0,0,0c0-0.1-0.1-0.3-0.2-0.3
			c0,0,0.1,0.1,0.1,0.1c0.1,0.1,0.1,0.2,0.1,0.2c0,0,0-0.1,0-0.1c0,0,0,0.1,0.1,0.1c0,0,0.1,0,0.1,0.1c0.1,0.1,0.3,0.3,0.4,0.4
			c0.1,0.1,0.2,0.3,0.3,0.4c0.2,0.3,0.4,0.5,0.5,0.8c0.3,0.2,0.5,0.6,0.7,0.9c0.2,0.4,0.4,0.9,0.7,1.3c0.1,0.1,0.2,0.2,0.2,0.3
			c0.3,0.4,0.5,1,0.7,1.4c0.1,0.3,0.3,0.5,0.4,0.8c0,0.1,0,0.3,0.1,0.4c0.1,0.3,0.4,0.6,0.5,0.9c0.2,0.6,0.4,1.2,0.6,1.7
			c0,0.1,0.1,0,0.2,0.1c0,0.4,0,0.8,0.1,1.2c0.1,0.6,0.4,1.3,0.5,1.9c0,0.3,0,0.6,0.1,0.9c-0.1,0.9,0.2,2.2,0.3,3.1
			c0.2,0.3,0.2,0.8,0.4,1c0,0.7,0.4,1.3,0.9,0.8c0.1-0.3,0.3-0.5,0.3-0.9c0-0.4-0.2-0.8-0.2-1.1c0-0.2,0.1-0.4,0-0.5
			c0-0.3-0.1-0.6-0.2-0.9c0-0.1,0-0.3,0-0.4c0-0.1-0.1-0.2-0.1-0.4c0-0.2,0-0.3,0-0.5c0-0.1-0.1-0.2-0.1-0.3
			c-0.1-0.9-0.2-1.9-0.5-2.6c0.1-0.3-0.1-0.6-0.2-0.8c-0.1-0.4-0.1-0.8-0.2-1.1c0-0.1-0.1-0.2-0.2-0.3c-0.1-0.1,0-0.3-0.1-0.4
			c-0.1-0.1-0.2-0.3-0.2-0.4c-0.1-0.3-0.2-0.6-0.4-0.9c-0.2-0.4-0.4-0.8-0.6-1.2c-0.2-0.4-0.5-0.8-0.7-1.3c-0.1-0.2-0.2-0.5-0.3-0.8
			c-0.2-0.4-0.5-0.7-0.8-1.1c-0.2-0.4-0.4-0.8-0.7-1.1c-0.1-0.1-0.2-0.2-0.3-0.3c-0.1-0.2-0.2-0.4-0.4-0.6c-0.2-0.2-0.3-0.4-0.5-0.6
			c-0.1-0.1-0.2-0.2-0.3-0.3c-0.1-0.1-0.1-0.2-0.3-0.4c-0.3-0.1-0.5-0.5-0.8-0.7c-0.5-0.8-1.6-1.8-2-1.9c-0.2-0.2-0.4-0.5-0.7-0.7
			c-0.1-0.1-0.2-0.2-0.3-0.3c-0.1-0.1,0,0-0.1,0c0,0,0,0.1,0,0.1c-0.1-0.1-0.1-0.1-0.2-0.2c0,0.3,0.2,0.8,0.4,1.3
			C9.3,150.1,9.4,150.6,9.6,151.1z"/>
	</g>
	<g>
		<path class="st2" d="M8.2,171.3c0,0-0.1-12.1-4.3-16c0,0,8.2,1.1,10.5,16"/>
		<path class="st0" d="M7.5,157.6c0.9,0.6,1.6,1.5,2.1,2.2c0.2,0.2,0.3,0.4,0.4,0.6c0.3,0.5,0.6,1.1,0.9,1.5c0,0.1,0.1,0.1,0.2,0.2
			c0.1,0.2,0.2,0.4,0.3,0.7c0.1,0.2,0.2,0.5,0.3,0.7c0.2,0.3,0.2,0.6,0.4,0.9c0.1,0.2,0.2,0.4,0.3,0.6c0.3,0.6,0.5,1.3,0.6,1.9
			c0.1,0.4,0.3,0.9,0.4,1.4c0,0.2,0.1,0.4,0.1,0.6c0,0.1-0.1,0.2-0.1,0.2c0,0.2,0.1,0.5,0.1,0.8c0,0.4-0.1,0.7,0,0.9
			c0.1,0.2,0.6,0.6,0.8,0.6c0.2,0,0.6-0.3,0.7-0.5c0.1-0.2,0-0.6,0.1-0.8c-0.1-0.5-0.2-1-0.3-1.4c-0.1-0.5-0.2-1-0.4-1.4
			c-0.2-0.6-0.2-1.2-0.4-1.7c-0.1-0.2-0.2-0.3-0.2-0.5c-0.2-0.5-0.2-1.1-0.5-1.4c-0.2-0.2-0.2-0.5-0.4-0.8c-0.2-0.4-0.4-0.7-0.6-1.1
			c-0.1-0.6-0.6-1.2-1-1.8c-0.7-1.3-2-2.3-3.1-3.4c-0.2-0.1-0.3-0.2-0.6-0.4c-0.3-0.2-0.6-0.5-0.9-0.6c-0.3-0.2-0.5-0.2-0.8-0.3
			c-0.2-0.1-0.4-0.2-0.6-0.3c-0.2-0.1-0.4-0.1-0.6-0.2c-0.4-0.2-0.7-0.2-1-0.3c-0.1,0-0.2,0-0.3,0c-0.1,0-0.3-0.1-0.5-0.2
			c-0.4-0.1-0.2,0-0.3,0.1c0,0,0,0.1-0.1,0.1c0,0,0,0,0,0.1c0.1,0.1,0.2,0.3,0.3,0.4c0.4,0.5,0.7,0.9,1,1.4c0.3,0.3,0.4,0.5,0.6,0.8
			c0.1,0.2,0.3,0.5,0.4,0.7c0.1,0.1,0.2,0.3,0.2,0.5l0.1,0.2l0,0.1c0.1,0.2,0.1,0.4,0.2,0.5c0,0.1,0.1,0.1,0.2,0.2
			c0.2,0.3,0.3,0.9,0.4,1.2c0.1,0.2,0.2,0.4,0.3,0.7c0,0.1,0,0.2,0,0.3c0.1,0.3,0.3,0.5,0.3,0.8c0.1,0.5,0.2,1,0.3,1.4
			c0,0.1,0.1,0,0.1,0.1c0,0.3-0.1,0.6,0,0.9c0,0.5,0.3,1,0.3,1.6c0,0.2-0.1,0.5,0.1,0.7c-0.1,0.7,0.1,1.8,0.2,2.6
			c0.2,0.2,0.2,0.6,0.4,0.8c0,0.6,0.5,1,0.9,0.6c0.1-0.3,0.2-0.4,0.2-0.7c0-0.3-0.2-0.6-0.2-0.9c0-0.1,0.1-0.3,0.1-0.4
			c0-0.2-0.1-0.5-0.1-0.7c0-0.1,0-0.2,0-0.3c0-0.1-0.1-0.2-0.1-0.3c0-0.1,0-0.3,0-0.4c0-0.1-0.1-0.2-0.1-0.3c-0.1-0.7,0-1.5-0.3-2.1
			c0.2-0.2,0-0.5,0-0.7c-0.1-0.3,0-0.6,0-0.9c0-0.1-0.1-0.2-0.1-0.2c0-0.1,0-0.2,0-0.4c0-0.1-0.1-0.2-0.2-0.3
			c-0.1-0.2-0.1-0.5-0.2-0.8c-0.2-0.7-0.5-1.4-0.8-2.2c-0.1-0.2-0.1-0.4-0.1-0.6c-0.1-0.3-0.4-0.7-0.5-0.9c-0.1-0.1-0.1-0.3-0.2-0.4
			c0,0-0.1-0.1-0.1-0.1c0-0.1,0.1,0,0-0.1c-0.1-0.1-0.5-0.5-0.4-0.4c-0.2-0.2-0.3-0.2-0.3-0.3c0,0,0,0,0-0.1c0,0,0,0-0.1-0.1
			c0.6,0.4,0.6,0.3,0.7,0.2c0.2,0.1,0.3,0.2,0.5,0.2c0.1,0.2,0.2,0.3,0.3,0.3c0.1,0.1,0.2,0.1,0.3,0.2
			C7.3,157.4,7.4,157.5,7.5,157.6z"/>
	</g>
	<g>
		<path class="st2" d="M23.4,171.3c0,0,1-11.1-1.7-19.2c0,0-3.4,4.9-4.5,19.2"/>
		<path class="st0" d="M20,154.7c-0.4,1.1-0.8,2.3-1,3.2c-0.1,0.3-0.1,0.5-0.2,0.8c-0.2,0.6-0.4,1.3-0.5,1.9c0,0.1,0,0.2,0,0.3
			c0,0.5-0.3,1.1-0.3,1.6c0,0.4-0.2,0.7-0.2,1.1c0,0.3,0,0.5,0,0.8c0,0.7-0.2,1.5-0.3,2.1c-0.1,0.5-0.1,1-0.2,1.5
			c0,0.2-0.1,0.4-0.1,0.6c0,0.1-0.1,0.2-0.1,0.2c-0.1,0.2,0,0.5-0.1,0.8c-0.1,0.4-0.2,0.7-0.2,1c0,0.3,0.4,0.8,0.6,0.8
			c0.2,0,0.6-0.2,0.8-0.3c0.2-0.2,0.1-0.6,0.3-0.8c0-1,0.1-2,0.2-3c0.1-0.6,0.2-1.2,0.3-1.8c0-0.2,0-0.4,0-0.5
			c0.1-0.6,0.3-1.1,0.2-1.5c0-0.3,0.1-0.6,0.2-0.9c0.1-0.4,0.1-0.8,0.1-1.2c0.3-0.5,0.3-1.3,0.5-1.9c0.5-1.4,0.6-3,1.3-4.3
			c0-0.1,0-0.2,0.1-0.3c0,0,0,0,0,0c0,0,0,0,0.1,0c0,0,0-0.1,0-0.2c0-0.1,0-0.1,0.1-0.1c0,0,0,0.1,0,0.1c0,0,0-0.1,0.1-0.1
			c0,0,0,0.1,0,0.2c0,0,0.1,0,0.1,0.1c0,0,0,0.1,0.1,0.1l0,0l0,0.1c0,0.1,0,0.1,0.1,0.2c0.1,0.3,0.1,0.6,0.1,0.8
			c0.1,0.2,0.2,0.6,0.2,0.9c0.1,0.4,0,0.8,0.2,1.3c0,0.1,0.1,0.2,0.1,0.3c0.1,0.4,0.1,1,0.1,1.3c0,0.3,0.1,0.5,0.2,0.8
			c0,0.1,0,0.2,0,0.3c0,0.3,0.2,0.6,0.2,0.9c0,0.5,0.1,1.1,0.1,1.6c0,0.1,0.1,0,0.1,0.1c-0.1,0.3-0.1,0.6-0.2,1
			c0,0.5,0.1,1.1,0.1,1.7c0,0.3-0.1,0.5,0,0.7c-0.2,0.8-0.1,1.9-0.1,2.7c0.1,0.2,0.1,0.7,0.3,0.9c-0.1,0.6,0.4,1.1,0.9,0.7
			c0.1-0.3,0.3-0.4,0.3-0.7c0-0.3-0.1-0.6-0.1-1c0-0.2,0.1-0.3,0.1-0.5c0-0.2-0.1-0.5-0.1-0.8c0-0.1,0.1-0.3,0.1-0.4
			c0-0.1-0.1-0.2-0.1-0.3c0-0.1,0.1-0.3,0.1-0.4c0-0.1-0.1-0.2-0.1-0.3c0-0.7,0.2-1.6,0-2.2c0.2-0.2,0-0.5,0-0.7
			c0-0.3,0.1-0.7,0.1-1c0-0.1-0.1-0.2-0.1-0.3c0-0.1,0-0.3,0-0.4c0-0.1-0.1-0.2-0.1-0.4c-0.1-0.3-0.1-0.5-0.1-0.8
			c-0.1-0.8-0.3-1.5-0.4-2.4c0-0.2,0-0.5,0-0.7c0-0.4-0.2-0.7-0.3-1.1c-0.1-0.4-0.1-0.8-0.2-1.1c0-0.1-0.1-0.2-0.1-0.3
			c0-0.2,0-0.4-0.1-0.6c-0.1-0.2-0.2-0.4-0.2-0.6c-0.1-0.3-0.2-0.6-0.2-1c-0.2-0.1-0.2-0.6-0.4-0.6c-0.1-0.4-0.2-0.9-0.4-1.3
			c-0.1-0.2-0.2-0.4-0.2-0.5c0,0,0,0,0,0l0,0.1l-0.1,0.2c0,0.1-0.1,0.2-0.1,0.3c-0.2,0.2-0.5,0.7-0.7,1.2c-0.2,0.2-0.4,0.5-0.5,0.9
			c-0.1,0.2-0.2,0.4-0.2,0.6C20.1,154.4,20,154.5,20,154.7z"/>
	</g>
	<g>
		<path class="st2" d="M26.7,171.3c0,0-1.8-8.9,1.7-16c0,0-5.6,1.1-7.9,16"/>
		<path class="st0" d="M25.2,157.2c-0.7,0.8-1.3,1.8-1.7,2.5c-0.1,0.2-0.2,0.4-0.3,0.6c-0.3,0.5-0.6,1-0.8,1.6c0,0.1,0,0.2,0,0.2
			c-0.1,0.4-0.4,0.9-0.5,1.4c-0.1,0.3-0.3,0.6-0.3,0.9c-0.1,0.3,0,0.5-0.1,0.7c-0.1,0.7-0.4,1.3-0.5,1.8c-0.1,0.4-0.2,0.9-0.3,1.3
			c0,0.2-0.1,0.4-0.1,0.5c0,0.1-0.1,0.1-0.2,0.2c-0.1,0.2-0.1,0.5-0.2,0.7c-0.1,0.3-0.3,0.6-0.3,0.8c0,0.2,0.3,0.7,0.5,0.8
			c0.2,0,0.7-0.1,0.8-0.2c0.2-0.2,0.2-0.5,0.3-0.6c0.1-0.9,0.3-1.8,0.4-2.6c0.1-0.5,0.3-1,0.4-1.5c0-0.1,0-0.3,0.1-0.5
			c0.1-0.5,0.4-0.9,0.4-1.3c0-0.3,0.2-0.5,0.3-0.8c0.1-0.3,0.1-0.7,0.3-1.1c0.4-0.3,0.5-1.1,0.8-1.6c0.4-0.5,0.6-1.1,0.9-1.7
			c0.1-0.3,0.3-0.6,0.5-0.8c0.1-0.1,0.2-0.3,0.3-0.4l0.2-0.2c0.1-0.1,0.1-0.1,0.1-0.1c0-0.1,0.1-0.1,0.1-0.1c0,0,0-0.1,0.1-0.2
			c0.1-0.2,0.1,0,0.2-0.1c0,0,0.2-0.2,0.2-0.3c0,0-0.1,0.2-0.1,0.2c0,0,0.1,0,0.1,0l0,0c0,0,0,0.2-0.1,0.4c0.1,0,0.1,0,0,0.1
			c0,0.1,0,0-0.1,0.2c-0.1,0.4-0.3,0.7-0.3,1.1c0,0.1,0,0.2,0,0.3c0,0.4-0.2,0.9-0.3,1.2c0,0.2,0,0.5,0,0.7c0,0.1-0.1,0.2-0.1,0.3
			c0,0.3,0,0.6,0,0.8c-0.1,0.4-0.1,1-0.1,1.4c0,0.1,0.1,0,0.1,0.1c-0.1,0.3-0.2,0.6-0.2,0.9c-0.1,0.5,0.1,1,0.1,1.5
			c0,0.2-0.1,0.5,0,0.7c-0.2,0.7,0,1.7,0.2,2.5c0.2,0.2,0.2,0.6,0.4,0.7c0,0.6,0.6,0.9,1,0.4c0.1-0.2,0.2-0.4,0.2-0.6
			c0-0.3-0.2-0.5-0.2-0.8c0-0.1,0.1-0.3,0-0.4c0-0.2-0.1-0.4-0.1-0.7c0-0.1,0-0.2,0-0.3c0-0.1-0.1-0.2-0.1-0.3c0-0.1,0-0.2,0-0.4
			c0-0.1-0.1-0.2-0.1-0.3c0-0.6,0.2-1.4,0-1.9c0.2-0.2,0.1-0.4,0.1-0.6c0-0.3,0.2-0.5,0.2-0.8c0-0.1-0.1-0.2-0.1-0.2
			c0-0.1,0.1-0.2,0.1-0.3c0-0.1,0-0.2-0.1-0.3c0-0.2,0-0.5,0-0.7c0-0.6,0-1.3,0.2-2c0-0.2,0.2-0.4,0.2-0.5c0.1-0.3,0.1-0.6,0.1-1
			c0-0.2,0.1-0.3,0.1-0.5c0.1-0.3,0.2-0.6,0.3-0.8c0.1-0.2,0.1-0.3,0.1-0.4c0.1-0.3,0.3-0.7,0.4-1c0.2-0.6,0.2-0.9,0.5-1.5
			c0,0,0,0,0-0.1c-0.4,0.3-0.1-0.1-0.4,0.1c0-0.1,0.1-0.2,0-0.2c-0.1,0-0.3,0.1-0.4,0.1c-0.3,0.1-0.6,0.3-0.9,0.5
			c-0.2,0-0.6,0.3-1,0.6C26.2,156,25.6,156.6,25.2,157.2z"/>
	</g>
	<g>
		<path class="st2" d="M29.2,171.3c0,0,0.1-9.4,3.3-12.5c0,0-6.4,0.9-8.1,12.5"/>
		<path class="st0" d="M29.4,159.9c-0.2,0.2-0.5,0.4-0.6,0.6c-0.2,0.2-0.3,0.3-0.5,0.5c-0.3,0.3-0.6,0.6-0.8,0.9
			c-0.1,0.2-0.2,0.3-0.3,0.5c-0.3,0.4-0.7,0.8-0.8,1.2c0,0.1,0,0.1,0,0.2c-0.1,0.4-0.5,0.7-0.6,1.1c-0.1,0.3-0.3,0.5-0.4,0.7
			c-0.1,0.2,0,0.4-0.1,0.6c-0.1,0.5-0.4,1-0.5,1.5c-0.1,0.3-0.2,0.8-0.3,1.1c-0.1,0.1-0.1,0.3-0.1,0.4c0,0-0.1,0.1-0.1,0.2
			c-0.1,0.1-0.1,0.4-0.1,0.6c-0.1,0.3-0.3,0.5-0.3,0.7c0,0.2,0.3,0.6,0.6,0.7c0.2,0,0.6,0,0.8-0.2c0.2-0.1,0.1-0.4,0.3-0.5
			c0.1-0.7,0.2-1.4,0.4-2.1c0.1-0.4,0.2-0.8,0.4-1.2c0-0.1,0-0.3,0.1-0.4c0.1-0.4,0.3-0.7,0.4-1c0-0.2,0.2-0.4,0.3-0.6
			c0.1-0.3,0.1-0.6,0.3-0.8c0.4-0.2,0.5-0.8,0.8-1.2c0.3-0.4,0.6-0.8,0.9-1.2c0.2-0.2,0.3-0.4,0.5-0.6l0.1-0.1l0,0c0,0,0.1,0,0.1,0
			c0-0.2,0.1-0.1,0.1-0.1c0,0,0.1-0.1,0.1-0.2c0.1-0.2,0.1,0.1,0.1,0c0,0,0.2-0.2,0.2-0.2c0,0-0.1,0.1-0.1,0.1c0,0,0.1-0.1,0.1-0.1
			c0,0,0,0-0.1,0.2l0,0c0.1-0.1,0,0.1,0,0.1c-0.1,0.1-0.2,0.2-0.1,0.3c0,0,0,0.1,0,0.2c-0.1,0.3-0.3,0.7-0.4,1
			c-0.1,0.2,0,0.4-0.1,0.6c0,0.1-0.1,0.2-0.1,0.2c-0.1,0.2,0,0.5-0.1,0.7c-0.1,0.4-0.2,0.8-0.2,1.2c0,0.1,0.1,0.1,0.1,0.1
			c-0.1,0.2-0.2,0.4-0.3,0.7c-0.1,0.4,0,0.9-0.1,1.3c0,0.2-0.2,0.4-0.1,0.6c-0.3,0.5-0.2,1.4-0.2,2c0.2,0.2,0.1,0.5,0.3,0.7
			c-0.1,0.5,0.4,0.8,0.9,0.5c0.1-0.2,0.3-0.3,0.3-0.5c0-0.2-0.1-0.5-0.1-0.7c0-0.1,0.1-0.2,0.1-0.3c0-0.2-0.1-0.4,0-0.6
			c0-0.1,0.1-0.2,0.1-0.3c0-0.1-0.1-0.2-0.1-0.2c0-0.1,0.1-0.2,0.1-0.3c0-0.1,0-0.1,0-0.2c0-0.5,0.3-1.1,0.2-1.6
			c0.2-0.1,0.1-0.3,0.1-0.5c0-0.2,0.2-0.4,0.2-0.6c0-0.1-0.1-0.1,0-0.2c0-0.1,0.1-0.2,0.1-0.2c0-0.1,0-0.2,0-0.3
			c0-0.2,0.1-0.4,0.1-0.6c0.1-0.5,0.1-1.1,0.3-1.6c0-0.2,0.2-0.3,0.2-0.4l0-0.1c0-0.1,0-0.1,0.1-0.2c0-0.1,0.1-0.2,0.1-0.3
			c0-0.1,0.1-0.2,0.1-0.3c0-0.1,0-0.2,0.2-0.4c0.4-0.5,1-1.3,1.4-1.8c0.1-0.1,0.1-0.2,0.3-0.4c0.1-0.1,0.1-0.1,0.2-0.2
			c0-0.1,0-0.2-0.1-0.2c-0.1,0-0.3,0.1-0.5,0.1c0,0,0,0,0.1-0.1c-0.1,0.1-0.1,0.1-0.1,0.1c0,0,0,0,0,0c-0.1,0-0.1,0-0.2,0.1
			c-0.3-0.1-0.9,0.1-1.4,0.4c-0.2,0-0.6,0.2-0.9,0.4c-0.2,0-0.4,0.1-0.6,0.3C29.9,159.5,29.6,159.7,29.4,159.9z"/>
	</g>
	<g>
		<path class="st2" d="M3.2,171.3c0,0,2.4-9.4-1.7-12.5c0,0,5.5,0.9,7.7,12.5"/>
		<path class="st0" d="M3.9,160.7c0.6,0.5,1.1,1.2,1.5,1.7c0.1,0.2,0.2,0.3,0.3,0.4c0.2,0.4,0.4,0.8,0.6,1.2c0,0,0.1,0.1,0.2,0.1
			c0.2,0.3,0.3,0.7,0.5,1.1c0.1,0.2,0.2,0.5,0.3,0.7c0.1,0.2,0.2,0.3,0.3,0.5c0.2,0.5,0.4,1,0.5,1.4c0.1,0.3,0.2,0.7,0.3,1.1
			c0,0.2,0.1,0.3,0.1,0.4c0,0.1-0.1,0.1-0.1,0.2c0,0.1,0.1,0.4,0.1,0.6c0,0.3-0.1,0.6,0,0.7c0.1,0.2,0.6,0.4,0.8,0.4
			c0.2,0,0.6-0.3,0.7-0.4c0.1-0.2,0-0.4,0.1-0.6c-0.2-0.7-0.4-1.5-0.6-2.2c-0.1-0.4-0.2-0.9-0.3-1.3c0-0.1-0.1-0.2-0.2-0.4
			c-0.2-0.4-0.2-0.8-0.4-1.1c-0.2-0.2-0.2-0.4-0.3-0.6c-0.1-0.3-0.3-0.5-0.5-0.8c0-0.5-0.5-1-0.7-1.4c-0.4-1.1-1.5-1.8-2.3-2.8
			c-0.3-0.1-0.5-0.4-0.7-0.6c-0.1-0.1-0.3-0.1-0.5-0.2c-0.4-0.2-0.8-0.5-1.2-0.7c-0.1,0-0.2,0-0.4,0c-0.1,0-0.1-0.1-0.3-0.1L0,157.5
			l1,1.9c0,0,0,0,0,0c0.1,0.1,0.2,0.1,0.3,0.2c0.4,0.2,0.6,0.6,0.7,0.9c0.2,0.1,0.3,0.4,0.3,0.5c0.1,0.2,0.1,0.6,0.3,0.8
			c0,0.1,0.1,0.1,0.1,0.2c0.1,0.3,0.1,0.7,0.2,0.9c0,0.2,0.1,0.3,0.2,0.5c0,0.1,0,0.2,0,0.2c0,0.2,0.2,0.4,0.1,0.6
			c0,0.4,0.1,0.7,0.1,1.1c0,0.1,0.1,0,0.1,0.1c-0.1,0.2-0.2,0.5-0.2,0.7c-0.1,0.4,0.1,0.8,0,1.2c0,0.2-0.2,0.4-0.1,0.5
			c-0.3,0.5-0.3,1.3-0.3,1.9c0.1,0.2,0,0.5,0.2,0.7c-0.1,0.4,0.3,0.9,0.8,0.7c0.2-0.2,0.3-0.3,0.4-0.5c0.1-0.2,0-0.5,0-0.7
			c0-0.1,0.1-0.2,0.1-0.3c0-0.2,0-0.4,0-0.6c0-0.1,0.1-0.2,0.1-0.3c0-0.1-0.1-0.2-0.1-0.3c0-0.1,0.1-0.2,0.1-0.3c0-0.1,0-0.2,0-0.2
			c0-0.5,0.3-1.2,0.1-1.6c0.2-0.1,0.1-0.4,0.1-0.5c0-0.2,0.1-0.5,0.1-0.7c0-0.1-0.1-0.1-0.1-0.2c0-0.1,0.1-0.2,0-0.3
			c0-0.1-0.1-0.2-0.1-0.3c-0.1-0.2,0-0.4-0.1-0.6c-0.1-0.6-0.3-1.1-0.4-1.8c0-0.2,0-0.4,0-0.5c-0.1-0.3-0.3-0.5-0.4-0.8
			c-0.2-0.2-0.2-0.6-0.4-0.8c0-0.1-0.1-0.1-0.2-0.2c-0.1-0.1-0.1-0.3-0.2-0.4c-0.1-0.1-0.2-0.2-0.4-0.4c-0.1-0.1-0.3-0.2-0.4-0.4
			c-0.2,0-0.2-0.2-0.4-0.2c0,0,0-0.1-0.1-0.1l-0.4,0.9c0.2,0.2,0.6,0.3,1,0.3c0.2,0.1,0.4,0.3,0.6,0.4
			C3.2,160.3,3.6,160.5,3.9,160.7z"/>
	</g>
	<g>
		<g>
			<path class="st0" d="M66.7,70.7c0.6,0.1,1.3,0.3,1.8,0.7c0.5,0.3,0.8,0.8,0.9,1.2c0.1,0.2,0.2,0.5,0.1,0.8
				c-0.1,0.6-0.4,1.3-0.6,1.9c0,0.1,0,0.2,0,0.3c-0.1,0.3-0.3,0.5-0.5,0.7c-0.2,0.2-0.4,0.4-0.7,0.6c-0.2,0.1-0.3,0.2-0.5,0.3
				c-0.2,0.1-0.4,0.1-0.5,0.2c-0.3,0.2-0.5,0.4-0.7,0.5c-0.2,0.1-0.4,0.2-0.6,0.2c-0.2,0.1-0.4,0.1-0.6,0.1
				c-0.4,0.1-0.8,0.1-1.2,0.2c-0.6,0.1-1.2,0.2-1.8,0.2c-0.3,0-0.5,0-0.7,0c-0.1,0-0.2-0.1-0.3-0.2c-0.2,0-0.6,0-0.9-0.1
				c-0.5-0.1-0.8-0.3-1.1-0.3c-0.3,0-0.9,0.5-1,0.8c-0.1,0.3,0.1,0.9,0.3,1.1c0.2,0.2,0.7,0.2,1,0.4c1.3,0,2.6,0,3.8-0.1
				c0.4,0,0.8-0.1,1.2-0.1c0.4,0,0.8-0.1,1.2-0.2c0.2,0,0.5-0.2,0.7-0.2c0.4-0.1,0.7-0.2,1.1-0.3c0.3-0.1,0.6-0.3,0.9-0.5
				c0.3-0.2,0.7-0.4,1.1-0.7c0.2-0.2,0.4-0.4,0.6-0.7c0.2-0.2,0.4-0.5,0.5-0.8c0.7-0.5,1-1.8,1.2-2.7c0.1-0.6,0.1-1.2-0.1-1.8
				c-0.2-0.6-0.6-1.3-1.1-1.7c-1-0.8-2.1-1.1-3.1-1.4c-0.5,0-1.1-0.2-1.6-0.2c-0.3,0-0.5,0.1-0.8,0.1c-0.7,0-1.5-0.1-2.2,0
				c-0.2,0-0.3,0.1-0.5,0.1c-0.2,0-0.3-0.1-0.5,0c-0.2,0-0.5,0.1-0.8,0.2c-0.5,0.1-1,0.2-1.4,0.3c-0.3,0.1-0.6,0.1-0.9,0.2
				c-0.1,0.3-0.2,0.5-0.3,0.8c0,0.7-0.1,1-0.3,1.4c-0.1,0.5-0.4,1-0.4,1.5c0,0.1,0,0.3,0,0.4c-0.1,0.5-0.3,1.2-0.4,1.6
				c-0.1,0.3,0,0.6-0.1,0.9c0,0.1-0.1,0.2-0.2,0.4c-0.1,0.3,0,0.7-0.1,1.1c-0.2,0.6-0.3,1.2-0.4,1.9c-0.1,0.1,0.2,0.1,0.1,0.2
				c-0.2,0.3-0.4,0.7-0.5,1.1c-0.2,0.6-0.2,1.4-0.4,2c-0.1,0.3-0.3,0.6-0.2,0.9c-0.5,0.8-0.7,2.2-0.8,3.2c0.1,0.3,0,0.8,0.2,1.1
				c-0.2,0.7,0.3,1.4,1,1.1c0.2-0.3,0.4-0.4,0.5-0.8c0.1-0.4,0-0.8,0.1-1.1c0-0.2,0.2-0.3,0.2-0.5c0.1-0.3,0-0.6,0.1-0.9
				c0-0.1,0.2-0.3,0.2-0.4c0-0.1,0-0.3,0-0.4c0-0.2,0.1-0.3,0.2-0.5c0-0.1,0-0.2,0-0.4c0.2-0.9,0.7-1.8,0.6-2.6
				c0.3-0.2,0.2-0.5,0.3-0.8c0.1-0.4,0.3-0.7,0.4-1.1c0-0.1-0.1-0.2,0-0.3c0-0.1,0.2-0.3,0.2-0.4c0-0.1,0-0.3,0-0.4
				c0-0.3,0.1-0.6,0.2-1c0.2-0.9,0.2-1.8,0.5-2.8c0.1-0.3,0.2-0.5,0.3-0.7c0.1-0.5,0.1-0.9,0.2-1.3c0.1-0.4,0.3-0.9,0.3-1.3
				c0,0-0.1-0.1,0-0.1c0-0.1,0.1-0.1,0.2-0.1c0.1,0,0.1-0.1,0.3-0.1c0.2-0.1,0.5-0.1,0.7-0.1c0.2-0.3,0.4,0,0.6-0.3
				c0.6,0.2,1.5,0,2-0.2c0.3,0.1,0.9,0.1,1.3,0C65.4,70.7,66.1,70.6,66.7,70.7z"/>
			<path class="st0" d="M64.6,85.1c0.1,0.3,0.2,0.6,0.2,0.8c0,0.1,0.1,0.1,0.1,0.2c0,0.2-0.1,0.4,0.1,0.5c0,0,0.1,0,0.1,0
				c0.1,0.1,0,0.3,0.1,0.4c0.1,0.1,0,0.2,0,0.3c0,0.1,0.2,0.1,0.2,0.1c0.2,0.1,0.1,0.4,0.2,0.5c0,0.1,0.1,0.2,0.1,0.4
				c0,0.1,0,0.1,0,0.2c0,0-0.1,0.1-0.1,0.1c0,0.1,0,0.1,0,0.2c0,0.1-0.2,0.3-0.1,0.3c0.1,0,0.6,0,0.9-0.1c0.3-0.1,0.8-0.3,0.9-0.4
				c0.2-0.1,0-0.2,0.2-0.3c-0.2-0.2-0.2-0.5-0.3-0.7c0-0.1,0-0.3-0.1-0.5c0,0-0.1-0.1-0.1-0.1c0-0.1,0-0.3-0.1-0.4
				c-0.1,0,0-0.1-0.1-0.2c0-0.1-0.2-0.2-0.2-0.3c0.2-0.2-0.1-0.3,0-0.5c0.1-0.4-0.5-0.7-0.3-1.1c-0.2-0.1-0.1-0.2-0.1-0.3
				c0-0.1-0.1-0.1-0.2-0.1c-0.1-0.1,0-0.3-0.1-0.4c0,0-0.1,0-0.1-0.1c0,0,0.1-0.1,0-0.1c0,0-0.1-0.1-0.1-0.1
				c-0.1-0.2-0.2-0.3-0.1-0.4c-0.1,0-0.1-0.1-0.1-0.2c0-0.1,0-0.2-0.1-0.3c0,0-0.1,0-0.1,0c-0.1-0.1-0.1-0.3-0.1-0.3
				c0-0.1-0.1-0.1-0.2-0.2c0,0,0.1-0.1,0-0.1c0-0.1-0.2-0.1-0.2-0.2c0-0.1-0.1-0.3-0.2-0.4c0,0-0.2,0-0.2,0c0.1-0.1,0.2-0.2,0.2-0.3
				c0-0.2-0.2-0.2-0.2-0.4c0-0.1,0.1-0.2-0.1-0.2c0.2-0.3,0-0.5-0.2-0.7c-0.2,0-0.2-0.1-0.5-0.1c0-0.2-0.7-0.1-1.2,0.2
				c-0.1,0.1-0.3,0.2-0.3,0.3c0,0.1,0.2,0.1,0.3,0.2c0,0-0.1,0.1-0.1,0.1c0,0.1,0.1,0.1,0.2,0.2c0,0-0.1,0.1,0,0.1c0,0,0.1,0,0.1,0
				c0,0-0.1,0.1,0,0.1c0,0,0.1,0,0.1,0.1c0.1,0.2-0.1,0.5,0.2,0.5c-0.2,0.1,0,0.1,0,0.2c0,0.1-0.1,0.2-0.1,0.3c0,0,0.1,0,0.1,0
				c0,0-0.1,0.1,0,0.1c0,0,0.1,0,0.1,0.1c0.1,0,0.1,0.1,0.1,0.2c0.1,0.2,0.3,0.3,0.4,0.5c0,0.1-0.1,0.1-0.1,0.2
				c0,0.1,0.2,0.1,0.2,0.2c0.1,0.1,0,0.2,0,0.3c0,0,0.1,0,0.1,0.1c0,0.1-0.1,0.1,0,0.2c0.1,0.1,0.3,0.1,0.2,0.3c0.2,0,0,0.1,0.2,0.1
				c-0.2,0.2,0,0.3,0.2,0.4c0,0.1,0,0.2,0.1,0.3C64.3,84.9,64.5,85,64.6,85.1z"/>
		</g>
		<g>
			<path class="st0" d="M78.7,76.1c0.2-1.2,0.6-2.4,0.8-3.4c0.1-0.3,0.1-0.5,0.2-0.8c0.1-0.3,0.2-0.6,0.3-1c0.1-0.2,0.1-0.3,0.1-0.5
				l0,0c0,0,0-0.1,0.1-0.1c0.1,0,0.3,0,0.5,0c0.3,0,0.6,0.1,0.9,0c0.4-0.1,0.7,0.1,1.1,0c0.3,0,0.5-0.1,0.8-0.2c0.8-0.1,1.5,0,2.2,0
				c0.5,0,1.1-0.1,1.6,0c0.2,0,0.5,0,0.7,0c0.1,0,0.2,0.1,0.3,0.2c0.2,0.1,0.5,0,0.8,0c0.4,0.1,0.8,0.2,1,0.2
				c0.3-0.1,0.8-0.6,0.8-0.9c0-0.3-0.2-0.8-0.4-1c-0.2-0.2-0.6-0.1-0.8-0.3c-1,0.1-2.1,0.1-3.1,0.1c-0.6,0-1.3,0-1.9-0.1
				c-0.2,0-0.4,0.1-0.6,0.1c-0.6,0-1.2-0.1-1.6,0c-0.3,0.1-0.6,0-1,0c-0.2,0-0.4,0-0.7,0.1c-0.1,0-0.3,0-0.5,0c-0.2,0-0.4,0-0.6,0
				c-0.3-0.1-0.6-0.1-1-0.1c-0.1,0.5-0.2,1-0.4,1.6c0,0.2-0.1,0.4-0.1,0.6c0,0.1-0.1,0.3-0.1,0.4c-0.6,1.4-0.5,3.2-1.1,4.7
				c0,0.4-0.2,0.9-0.3,1.2c-0.1,0.2,0,0.4,0,0.6c-0.1,0.6-0.4,1.2-0.5,1.7c0,0.1,0,0.3,0,0.4c0,0.1-0.1,0.2-0.2,0.3
				c-0.1,0.2,0,0.4-0.1,0.7c-0.1,0.7-0.2,1.3-0.4,1.9c0.1,0.3-0.1,0.7-0.2,1c-0.1,0.4-0.3,0.8-0.3,1.3c0,0.1,0,0.2,0,0.3
				c0,0.2-0.1,0.5-0.2,0.7c-0.1,0.4-0.2,0.8-0.3,1.1c-0.1,0.5-0.1,0.8-0.2,1.2c0,0.1,0,0.1-0.1,0.2c0.1,0,0.2,0.1,0.3,0.1
				c0.5,0,1.1-0.1,1.6-0.1c1,0,1.3,0,1.9,0c0.1,0,0-0.2,0.2-0.2c0.3,0.1,0.7,0.2,1,0.3c0.6,0.1,1.2-0.1,1.8-0.1c0.3,0,0.6,0.2,0.8,0
				c0.8,0.3,2,0.1,2.9,0c0.2-0.2,0.7-0.2,0.9-0.4c0.7,0.1,1.1-0.6,0.7-1.2c-0.3-0.1-0.4-0.3-0.8-0.3c-0.3,0-0.7,0.2-1,0.2
				c-0.2,0-0.3-0.1-0.5-0.1c-0.3,0-0.5,0.1-0.8,0.1c-0.1,0-0.3-0.1-0.4-0.1c-0.1,0-0.2,0.1-0.3,0.1c-0.1,0-0.3-0.1-0.4-0.1
				c-0.1,0-0.2,0.1-0.3,0.1c-0.8,0-1.6-0.3-2.3,0c-0.2-0.3-0.5-0.1-0.7-0.1c-0.3,0-0.7-0.2-1-0.2c-0.1,0-0.2,0.1-0.3,0.1
				c-0.1,0-0.3-0.1-0.4-0.1c-0.1,0-0.3,0.1-0.3,0.1c0,0.1-0.1,0-0.1,0l-0.2,0.1c0,0-0.1-0.1-0.1-0.1c0,0,0-0.1,0-0.1l0-0.1l0-0.1
				c0.1-0.2,0.2-0.4,0.3-0.6C77,85.4,77,85,77,84.6c0-0.4,0.2-0.7,0.3-1.1c0-0.1,0-0.2,0-0.3c0-0.2,0.2-0.4,0.2-0.6
				c0.1-0.4,0-0.9,0.2-1.3c-0.2-0.2,0.1-0.4,0-0.6c0.3-0.5,0.4-1.2,0.3-1.8c0.1-0.3,0.2-0.7,0.2-1.1C78.6,77.3,78.6,76.7,78.7,76.1z
				"/>
			<path class="st0" d="M80.9,78.1c-0.2,0-0.5-0.1-0.6-0.1c-0.1,0-0.1,0-0.2,0c-0.1-0.1-0.2-0.2-0.4-0.1c0,0,0,0.1-0.1,0.1
				c-0.1,0.1-0.2-0.1-0.3-0.1c-0.1,0-0.1-0.1-0.2-0.1c-0.1,0-0.1,0.1-0.2,0.1c-0.2,0.1-0.3,0-0.4-0.1c-0.1,0-0.2,0-0.3,0
				c0,0-0.1,0-0.1-0.1c0,0,0-0.1,0-0.2c0-0.1-0.1,0-0.2-0.1c-0.1-0.1-0.1-0.3-0.2-0.2c-0.1,0.1-0.2,0.6-0.3,0.9c0,0.3-0.1,0.8-0.1,1
				c0,0.2,0.1,0.1,0.1,0.3c0.2-0.1,0.4,0,0.6,0c0.1,0,0.2,0.1,0.3,0.1c0,0,0.1-0.1,0.1-0.1c0.1,0,0.2,0.2,0.3,0c0.1-0.1,0.1,0,0.2,0
				c0.1,0,0.2-0.1,0.3-0.1c0.1,0.3,0.3,0.1,0.4,0.2c0.3,0.2,0.6-0.2,0.9,0.1c0.1-0.1,0.2,0,0.2,0c0,0,0.1-0.1,0.1-0.1
				c0.1-0.1,0.2,0.1,0.3,0.1c0,0,0.1-0.1,0.1-0.1c0,0,0,0.1,0.1,0.1c0,0,0.1,0,0.1-0.1c0.1,0,0.3-0.1,0.4,0c0.1-0.1,0.1-0.1,0.2-0.1
				c0.1,0,0.2,0.1,0.2,0.1c0,0,0.1-0.1,0.1-0.1c0.1,0,0.2,0,0.3,0.1c0,0,0.1-0.1,0.2-0.1c0,0,0,0.1,0.1,0.1c0.1,0,0.1-0.1,0.2-0.1
				c0.1,0.1,0.2,0,0.3,0c0,0,0-0.2,0-0.1c0,0.1,0.1,0.2,0.2,0.3c0.1,0.1,0.2-0.1,0.3-0.1c0,0,0.1,0.2,0.1,0c0.1,0.3,0.4,0.2,0.5,0.1
				c0.1-0.2,0.2-0.1,0.2-0.4c0.1,0.1,0.3-0.6,0.3-1.2c0-0.1,0-0.3-0.1-0.4c-0.1,0-0.1,0.2-0.2,0.2c0,0,0-0.1-0.1-0.1
				c0,0-0.1,0.1-0.2,0.1c0,0,0-0.1-0.1-0.1c0,0-0.1,0.1-0.1,0.1c0,0,0-0.1-0.1-0.1c0,0,0,0.1-0.1,0.1c-0.1,0-0.3-0.3-0.4-0.1
				c0-0.3-0.1-0.1-0.1-0.1c-0.1,0-0.1-0.2-0.2-0.2c0,0,0,0.1-0.1,0.1c0,0,0-0.1-0.1-0.1c0,0-0.1,0.1-0.1,0.1c-0.1,0-0.1,0-0.2,0
				c-0.2,0-0.3,0.2-0.5,0.1c0,0-0.1-0.1-0.1-0.1c-0.1,0-0.2,0.1-0.2,0.1c-0.1,0-0.1-0.1-0.2-0.1c0,0,0,0.1-0.1,0.1
				c0,0-0.1-0.1-0.1-0.1c-0.1,0-0.2,0.2-0.3,0c-0.1,0.2-0.1,0-0.1,0.2c-0.1-0.2-0.2-0.2-0.3,0c0-0.1-0.1-0.1-0.2,0
				C81.2,78,81.1,78.1,80.9,78.1z"/>
		</g>
		<path class="st0" d="M104.6,82.5c0.4,0.8,0.9,1.6,1.3,2.4c0.3,0.5,0.5,1,0.7,1.5c0.1,0.3,0.3,0.5,0.4,0.8c0.1,0.1,0.2,0.3,0.4,0.4
			l0.4,0.4l0.1,0.1c0,0,0.1,0,0.2,0l0.4,0c0.2,0,0.2-0.1,0.3-0.2l0.2-0.3l0.4-0.6c0.1-0.4,0.2-0.7,0.3-1.1c0.1-0.3,0.2-0.8,0.2-1
			c0-0.1,0-0.3,0-0.4c0.1-0.8,0.5-1.7,0.6-2.5c0.1-0.6,0.3-1.1,0.4-1.7c0.1-0.4,0.1-0.8,0.1-1.2c0.2-1.2,0.5-2.2,0.8-3.3
			c0.2-0.7,0.3-1.6,0.6-2.4c0.1-0.3,0.2-0.7,0.3-1c0-0.1,0.2-0.2,0.2-0.3c0.1-0.3,0.2-0.8,0.3-1.2c0.2-0.6,0.5-1.1,0.5-1.4
			c0-0.4-0.3-1.3-0.6-1.4c-0.3-0.1-0.9,0.1-1.1,0.4c-0.3,0.3-0.3,0.9-0.5,1.1c-0.3,1.6-0.7,3.2-1,4.6c-0.2,0.9-0.5,1.8-0.7,2.8
			c-0.1,0.3-0.1,0.6-0.1,0.8c-0.2,0.9-0.5,1.7-0.6,2.4c0,0.5-0.2,0.9-0.3,1.4c-0.1,0.6-0.2,1.3-0.3,2c-0.1,0.2-0.2,0.4-0.3,0.7
			l0,0.2l0,0c0,0,0,0,0,0c0,0,0,0.2,0,0.2c0,0-0.1-0.1-0.1-0.1c0,0,0,0-0.1,0c0,0-0.1-0.2-0.2-0.3l-0.2-0.4l-0.4-0.8
			c-0.3-0.5-0.5-1.1-0.8-1.7c-0.4-0.5-0.6-1.2-0.9-1.7c-0.1-0.3-0.4-0.5-0.5-0.8c-0.5-0.8-0.8-1.7-1.2-2.4c-0.1-0.2-0.3-0.3-0.4-0.5
			c-0.1-0.2-0.1-0.4-0.2-0.5c-0.1-0.3-0.4-0.6-0.5-0.9c-0.6-1-1-1.7-1.3-2.6c-0.3-0.3-0.6-0.9-0.8-1.4c-0.2-0.5-0.5-1.1-0.8-1.6
			c-0.1-0.1-0.1-0.3-0.2-0.4l-0.2-0.2c-0.1-0.1-0.3-0.2-0.4-0.3c-0.1-0.1-0.3-0.1-0.4-0.2c-1,0.1-1.4,0.8-1.7,1.5
			c-0.1,0.3-0.1,0.7-0.2,1c0,0.2-0.1,0.3-0.1,0.5c0,0.1,0,0.3-0.1,0.4c0,0.2-0.2,0.3-0.2,0.5c-0.1,0.4-0.1,1-0.2,1.4
			c-0.2,0.8-0.4,1.6-0.5,2.5c-0.1,0.2,0.2,0.1,0.1,0.3c-0.2,0.4-0.4,0.9-0.6,1.5c-0.3,0.8-0.3,1.8-0.5,2.7c-0.1,0.4-0.4,0.8-0.3,1.2
			c-0.5,1.1-0.8,2.9-1,4.2c0.1,0.4-0.1,1.1,0.1,1.4c-0.3,1,0.2,1.8,1,1.3c0.2-0.4,0.5-0.6,0.6-1c0.1-0.5,0-1,0.2-1.5
			c0.1-0.2,0.2-0.4,0.3-0.7c0.1-0.4,0.1-0.8,0.2-1.2c0-0.2,0.2-0.4,0.2-0.5c0-0.2,0-0.4,0-0.5c0-0.2,0.2-0.4,0.2-0.6
			c0-0.1,0-0.3,0-0.5c0.3-1.1,0.8-2.4,0.8-3.4c0.3-0.2,0.2-0.7,0.3-1c0.1-0.5,0.4-0.9,0.5-1.4c0-0.2,0-0.3,0-0.4
			c0-0.2,0.2-0.4,0.2-0.5c0-0.2,0-0.4,0-0.6c0-0.4,0.2-0.8,0.3-1.3c0-0.3,0.1-0.6,0.1-0.9l0.1-0.5c0-0.1,0-0.1,0-0.1
			c0-0.2,0-0.4,0.1-0.6c0-0.1,0.1,0,0.1,0.1c0,0,0.1,0.1,0.1,0.1c0,0.1,0.1,0,0.3,0.2c0,0,0.1,0.1,0.1,0.1l0,0.1l0.1,0.2
			c0.1,0.3,0.2,0.5,0.4,0.8c0.1,0.1,0.2,0.2,0.3,0.4c0.2,0.3,0.2,0.6,0.4,0.9c0.3,0.6,0.8,1.1,0.9,1.7c0.3,0.1,0.3,0.5,0.6,0.7
			c0.2,0.8,0.8,1.8,1.3,2.4c0.2,0.4,0.5,1.1,0.8,1.5C103.6,80.9,104.2,81.7,104.6,82.5z"/>
		<g>
			<path class="st0" d="M127.2,70.2c0.5,0,1,0.1,1.3,0.1c0.1,0,0.2,0,0.3,0c0.2,0.1,0.5,0.2,0.8,0.1c0,0,0.1-0.1,0.1-0.1
				c0.2-0.1,0.4,0.1,0.6,0.1c0.2,0,0.3,0.1,0.4,0.1c0.1,0,0.2-0.1,0.3-0.1c0.3-0.1,0.6,0,0.9,0.1c0.2,0,0.4,0,0.6,0
				c0.1,0,0.2,0,0.3,0.1c0,0,0.1,0.1,0.1,0.2c0.1,0.1,0.2,0,0.3,0.1c0.2,0.1,0.3,0.3,0.4,0.2c0.1-0.1,0.3-0.6,0.4-0.9
				c0-0.3,0-0.8-0.1-1c-0.1-0.2-0.2-0.1-0.3-0.3c-0.4,0.1-0.8,0-1.2,0c-0.2,0-0.5-0.1-0.7-0.1c-0.1,0-0.2,0.1-0.2,0.1
				c-0.2,0-0.4-0.2-0.6,0c-0.1,0.1-0.2,0-0.4,0c-0.2,0-0.3,0.1-0.5,0.1c-0.2-0.3-0.6-0.1-0.8-0.2c-0.6-0.2-1.2,0.2-1.8-0.1
				c-0.2,0.1-0.3,0-0.5,0c-0.1,0-0.2,0.1-0.2,0.1c-0.2,0.1-0.5-0.1-0.7-0.1c-0.1,0-0.1,0.1-0.2,0.1c0,0-0.1-0.1-0.1-0.1
				c-0.1,0-0.2,0-0.3,0.1c-0.3,0.1-0.5,0.1-0.7,0c-0.1,0.1-0.3,0.1-0.4,0.1c-0.2,0-0.3-0.1-0.5-0.1c0,0-0.1,0.1-0.1,0.1
				c-0.2,0-0.4,0-0.5-0.1c-0.1,0-0.2,0.1-0.3,0.1c0,0-0.1-0.1-0.1-0.1c-0.1,0-0.3,0.1-0.4,0.1c-0.2-0.1-0.4,0-0.6,0
				c0,0,0,0.2-0.1,0.1c-0.1-0.1-0.2-0.2-0.4-0.3c-0.2-0.1-0.5,0.1-0.7,0.1c-0.1,0-0.2-0.2-0.3,0c-0.3-0.3-0.8-0.2-1.1-0.1
				c-0.1,0.2-0.3,0.1-0.4,0.4c-0.3-0.1-0.5,0.6-0.3,1.2c0.1,0.2,0.1,0.3,0.3,0.4c0.1,0,0.3-0.2,0.4-0.2c0.1,0,0.1,0.1,0.2,0.1
				c0.1,0,0.2-0.1,0.3-0.1c0.1,0,0.1,0.1,0.1,0.1c0,0,0.1-0.1,0.1-0.1c0.1,0,0.1,0.1,0.2,0.1c0,0,0.1-0.1,0.1-0.1
				c0.3,0,0.6,0.3,0.9,0.1c0.1,0.3,0.2,0.1,0.3,0.1c0.1,0,0.2,0.2,0.4,0.2c0,0,0.1-0.1,0.1-0.1c0,0,0.1,0.1,0.1,0.1
				c0,0,0.1-0.1,0.2-0.1c0.1,0,0.2,0,0.3,0c0.3,0,0.6-0.2,1-0.1c0.1,0,0.2,0.1,0.3,0.1c0.2,0,0.3-0.1,0.5-0.1c0.1,0,0.3,0.1,0.4,0.1
				c0,0,0.1-0.1,0.1-0.1c0.1,0,0.2,0.1,0.2,0.1c0.2,0,0.3-0.2,0.5,0c0.1-0.2,0.1,0,0.2-0.2c0.2,0.2,0.5,0.2,0.7,0
				c0.1,0.1,0.3,0.1,0.4,0C126.7,70.4,126.9,70.2,127.2,70.2z"/>
			<path class="st0" d="M122.3,79.9c-0.1,0.6-0.3,1.2-0.4,1.6c0,0.1,0,0.3-0.1,0.4c-0.1,0.3-0.3,0.6-0.3,0.9c0,0,0.1,0.1,0.1,0.1
				c0,0.3-0.2,0.5-0.2,0.8c0,0.2-0.1,0.3-0.2,0.5c0,0.1,0.1,0.3,0.1,0.4c0,0.4-0.2,0.7-0.2,1c-0.1,0.2-0.1,0.5-0.2,0.7
				c0,0.1-0.1,0.2-0.1,0.3c0,0-0.1,0-0.2,0.1c-0.1,0.1-0.1,0.3-0.1,0.4c-0.1,0.2-0.3,0.3-0.3,0.4c0,0.1,0.5,0.5,0.8,0.6
				c0.3,0.1,0.8,0.1,1,0c0.2-0.1,0.2-0.3,0.4-0.3c0-0.5,0.2-1,0.3-1.5c0.1-0.3,0.2-0.6,0.3-0.9c0-0.1,0-0.2,0-0.3
				c0.1-0.3,0.3-0.5,0.2-0.7c-0.1-0.2,0.1-0.3,0.1-0.5c0-0.2,0-0.4,0-0.7c0.3-0.2,0.2-0.7,0.3-1c0.4-0.7,0.1-1.6,0.5-2.2
				c-0.1-0.2,0.1-0.4,0.1-0.6c0-0.1,0-0.2,0-0.3c0-0.3,0.2-0.6,0.2-0.8c0-0.1-0.1-0.2-0.1-0.2c0-0.1,0.1-0.1,0.1-0.2
				c0-0.1,0-0.2,0-0.3c0-0.4,0-0.6,0.2-0.9c-0.1-0.2,0-0.3,0-0.5c0.1-0.2,0.2-0.4,0.2-0.6c0,0-0.1-0.1-0.1-0.2
				c0-0.2,0.1-0.5,0.2-0.7c0-0.1,0-0.3,0-0.4c0-0.1,0.1-0.1,0.1-0.1c0-0.1-0.1-0.3,0-0.5c0.1-0.2,0.1-0.5,0.1-0.8
				c0,0-0.2-0.1-0.1-0.1c0.1-0.1,0.3-0.3,0.4-0.4c0.1-0.3,0-0.6,0.1-0.9c0-0.1,0.2-0.2,0.1-0.4c0.4-0.3,0.3-0.9,0.3-1.3
				c-0.2-0.2-0.1-0.4-0.3-0.5c0.1-0.3-0.5-0.7-1.1-0.6c-0.2,0.1-0.4,0.1-0.4,0.3c0,0.1,0.1,0.4,0.1,0.5c0,0.1-0.1,0.1-0.2,0.2
				c0,0.1,0,0.3,0,0.4c0,0.1-0.1,0.1-0.1,0.2c0,0.1,0.1,0.1,0.1,0.2c0,0.1-0.1,0.1-0.1,0.2c0,0,0.1,0.1,0,0.2
				c-0.1,0.4-0.4,0.7-0.3,1.1c-0.3,0-0.1,0.2-0.2,0.3c0,0.2-0.2,0.3-0.3,0.4c0,0,0.1,0.1,0.1,0.2c0,0.1-0.1,0.1-0.1,0.2
				c0,0.1,0.1,0.1,0.1,0.2c0,0.1,0,0.3-0.1,0.4c0,0.4,0,0.8-0.1,1.2c0,0.1-0.2,0.2-0.2,0.3c-0.1,0.2,0,0.4,0,0.6
				c0,0.2-0.2,0.3-0.2,0.5c0,0.1,0.1,0.1,0,0.2c0,0.1-0.1,0.2-0.1,0.3c0,0.2,0.1,0.4-0.1,0.6c0.2,0.1,0,0.2,0.1,0.3
				c-0.3,0.2-0.3,0.6-0.1,0.9c-0.1,0.1-0.1,0.4-0.1,0.5C122.3,79.3,122.4,79.6,122.3,79.9z"/>
		</g>
	</g>
	<path class="st2" d="M13.7,40.7c0,0.5,0,0.9,0,1.3c0,0.1,0,0.2,0,0.3c0,0.2-0.1,0.5-0.1,0.8c0,0,0.1,0.1,0.1,0.1
		c0.1,0.2-0.1,0.4,0,0.6c0,0.2,0,0.3,0,0.4c0,0.1,0.1,0.2,0.1,0.3c0.1,0.3,0,0.6,0,0.8c0,0.2,0,0.4,0,0.6c0,0.1,0,0.2,0,0.3
		c0,0-0.1,0.1-0.1,0.1c0,0.1,0,0.2,0,0.3c0,0.2-0.2,0.3-0.1,0.4c0,0.1,0.4,0.3,0.7,0.3c0.2,0,0.6-0.1,0.7-0.2
		c0.1-0.1,0.1-0.2,0.2-0.3c-0.1-0.4-0.1-0.8-0.1-1.2c0-0.2,0-0.5,0.1-0.7c0-0.1-0.1-0.1-0.1-0.2c0-0.2,0.1-0.4,0-0.6
		c-0.1-0.1,0-0.2,0-0.4c0-0.2-0.1-0.3-0.1-0.5c0.2-0.2,0-0.6,0.1-0.8c0.2-0.6-0.2-1.2,0-1.8c-0.1-0.2,0-0.3,0-0.5
		c0-0.1-0.1-0.2-0.1-0.2c-0.1-0.2,0.1-0.5,0-0.7c0-0.1-0.1-0.1-0.1-0.2c0,0,0.1,0,0.1,0c0,0,0,0-0.1-0.1c0-0.1-0.1-0.2,0-0.2
		c0,0,0,0,0.1,0c-0.1-0.1,0-0.1,0.1-0.1c0.1,0,0.1,0.1,0.2,0c0,0,0.1-0.1,0.1-0.1c0.2,0,0.4,0,0.5,0c0.1,0,0.2-0.1,0.3-0.1
		c0,0,0.1,0.1,0.1,0.1c0.1,0,0.2-0.1,0.4-0.1c0.2,0,0.4,0,0.6,0c0,0,0-0.1,0.1-0.1c0.1,0.1,0.3,0.2,0.4,0.2c0.2,0.1,0.5-0.1,0.7-0.1
		c0.1,0,0.2,0.1,0.3,0c0.3,0.2,0.8,0.1,1.1,0c0.1-0.2,0.3-0.1,0.3-0.3c0.3,0,0.4-0.5,0.3-0.9c-0.1-0.1-0.2-0.3-0.3-0.3
		c-0.1,0-0.2,0.1-0.4,0.1c-0.1,0-0.1-0.1-0.2-0.1c-0.1,0-0.2,0.1-0.3,0.1c0,0-0.1-0.1-0.1-0.1c0,0-0.1,0.1-0.1,0.1
		c-0.1,0-0.1-0.1-0.2-0.1c0,0-0.1,0.1-0.1,0.1c-0.3,0-0.6-0.2-0.9,0c-0.1-0.2-0.2-0.1-0.3-0.1c-0.1,0-0.3-0.1-0.4-0.1
		c0,0-0.1,0.1-0.1,0.1c0,0-0.1-0.1-0.1-0.1c0,0-0.1,0.1-0.1,0.1c-0.1,0-0.2,0-0.3,0c-0.3,0-0.6,0.2-0.9,0.1c-0.1,0-0.2-0.1-0.3-0.1
		c-0.1,0-0.4,0.1-0.6,0.1c-0.2,0-0.5-0.1-0.8,0c-0.1,0-0.1,0.1-0.2,0.1c-0.1,0-0.1,0-0.2,0c0,0.1,0,0.1,0,0.2c0,0.3,0.1,0.6,0.1,0.9
		c0.2,0.2,0,0.2,0.1,0.4c0,0.1-0.1,0.2-0.1,0.2c0,0.1,0,0.1,0,0.2c0,0.1,0.1,0.2,0.1,0.3c0,0.1,0,0.3,0,0.4
		C13.5,40.3,13.7,40.5,13.7,40.7z"/>
</g>
</svg>
