<?xml version="1.0" encoding="utf-8"?>
<!-- Generator: Adobe Illustrator 22.0.1, SVG Export Plug-In . SVG Version: 6.00 Build 0)  -->
<svg version="1.1" id="Layer_1" xmlns="http://www.w3.org/2000/svg" xmlns:xlink="http://www.w3.org/1999/xlink" x="0px" y="0px"
	 viewBox="0 0 165.7 156.7" style="enable-background:new 0 0 165.7 156.7;" xml:space="preserve">
<style type="text/css">
	.st0{fill:#1E2537;}
	.st1{fill:#FFFFFF;}
	.st2{fill:#979ED3;}
	.st3{fill:#86CEC8;}
</style>
<g>
	<path class="st0" d="M64.5,6.2c-0.1-0.1-0.1-0.3-0.2-0.5c0,0-0.1-0.1-0.1-0.1c0-0.1,0.1-0.2,0-0.3c0,0-0.1,0-0.1,0
		c-0.1,0,0.1-0.2,0-0.2c-0.1,0,0-0.1,0-0.2c0,0-0.1,0-0.2-0.1c-0.1-0.1-0.1-0.2-0.1-0.3c0-0.1-0.1-0.1-0.1-0.2c0,0,0-0.1,0-0.1
		c0,0,0.1-0.1,0.1-0.1c0,0,0-0.1,0-0.1C63.9,4,64,3.9,64,3.9c-0.1,0-0.6,0.1-0.9,0.2c-0.3,0.1-0.8,0.3-0.9,0.4
		C62,4.5,62.1,4.5,62,4.6c0.1,0.1,0.2,0.3,0.2,0.4c0,0.1,0,0.2,0,0.3c0,0,0.1,0,0.1,0.1c0,0.1-0.1,0.2,0.1,0.2c0.1,0,0,0.1,0,0.1
		c0,0.1,0.2,0.1,0.2,0.1c-0.2,0.2,0,0.2,0,0.3c-0.1,0.3,0.4,0.4,0.2,0.6c0.2,0,0.1,0.1,0.1,0.2c0,0,0.1,0,0.1,0c0.1,0.1,0,0.2,0,0.3
		c0,0,0.1,0,0.1,0c0,0-0.1,0.1-0.1,0.1c0,0,0.1,0,0.1,0.1c0.1,0.1,0.2,0.1,0.1,0.3c0.1,0,0.1,0.1,0.1,0.1c0,0.1-0.1,0.2,0,0.2
		c0,0,0.1,0,0.1,0c0.1,0,0,0.1,0,0.2c0,0,0.1,0,0.1,0.1c0,0-0.1,0.1-0.1,0.1c0,0,0.2,0,0.2,0.1c0,0.1,0.1,0.1,0.1,0.2
		c0,0,0.2-0.1,0.2,0c-0.1,0.1-0.2,0.2-0.2,0.2c-0.1,0.1,0.2,0.1,0.2,0.2c0,0-0.1,0.1,0,0.1c-0.2,0.2,0,0.3,0.1,0.4
		c0.2,0,0.2,0,0.4,0c0,0.1,0.6,0,1.2-0.3C66,9.1,66.2,9,66.2,9c0,0-0.2,0-0.2-0.1c0,0,0.1-0.1,0.1-0.1c0,0-0.1,0-0.1-0.1
		c0,0,0.1-0.1,0.1-0.1c0,0-0.1,0-0.1,0c0,0,0.1-0.1,0.1-0.1c0,0-0.1,0-0.1,0c0-0.1,0.2-0.3-0.1-0.3c0.2-0.1,0.1-0.1,0-0.1
		c0,0,0.1-0.1,0.1-0.2c0,0-0.1,0-0.1,0c0,0,0.1-0.1,0.1-0.1c0,0-0.1,0-0.1,0c-0.1,0,0-0.1-0.1-0.1c-0.1-0.1-0.3-0.1-0.3-0.3
		c0,0,0.1-0.1,0.1-0.1c0-0.1-0.1-0.1-0.2-0.1c-0.1,0,0-0.1,0-0.2c0,0-0.1,0-0.1,0c0,0,0.1-0.1,0-0.1c-0.1,0-0.2-0.1-0.1-0.1
		c-0.2,0.1,0-0.1-0.2,0c0.2-0.1,0.1-0.2-0.2-0.2c0-0.1,0-0.1-0.1-0.1C64.7,6.3,64.5,6.3,64.5,6.2z"/>
	<path class="st0" d="M85.3,5.5c0-0.2,0.1-0.3,0.2-0.4c0,0,0-0.1,0-0.1c0.1-0.1,0.2-0.1,0.2-0.2c0,0-0.1-0.1-0.1-0.1
		c-0.1-0.1,0.2-0.1,0.1-0.2c0-0.1,0.1-0.1,0.1-0.1c0,0-0.1-0.1-0.1-0.2c-0.1-0.1,0.1-0.2,0.1-0.3c0-0.1,0-0.2,0.1-0.2
		c0,0,0-0.1,0.1-0.1c0,0,0.1,0,0.2,0c0.1,0,0-0.1,0.1-0.1c0.1,0,0.3,0,0.2-0.1c0-0.1-0.5-0.3-0.8-0.4c-0.2-0.1-0.8-0.3-0.9-0.3
		c-0.2,0-0.1,0-0.3,0c0,0.2,0,0.3-0.1,0.4c0,0.1-0.1,0.1-0.2,0.2c0,0,0.1,0.1,0,0.1c0,0.1-0.2,0.1-0.1,0.2c0.1,0.1,0,0.1-0.1,0.1
		c0,0.1,0.1,0.2,0.1,0.2c-0.3,0-0.1,0.2-0.2,0.2c-0.3,0.1,0.1,0.5-0.3,0.6c0.1,0.1,0,0.1-0.1,0.2c0,0,0.1,0.1,0.1,0.1
		c0,0.1-0.1,0.1-0.1,0.2c0,0,0.1,0.1,0.1,0.1c0,0-0.1,0-0.1,0c0,0,0,0.1,0,0.1c0,0.1,0,0.2-0.1,0.2c0.1,0.1,0.1,0.1,0,0.2
		c0,0-0.2,0.1-0.1,0.2c0,0,0.1,0.1,0.1,0.1c0,0.1-0.1,0.1-0.1,0.2c0,0,0.1,0.1,0.1,0.1c0,0-0.1,0-0.1,0c0,0,0.1,0.1,0.1,0.2
		c-0.1,0.1,0,0.1-0.1,0.2c0,0,0.2,0.1,0.1,0.1c-0.1,0-0.2,0-0.3,0c-0.1,0,0.1,0.2,0,0.3c0,0-0.2,0,0,0.1c-0.3,0-0.2,0.2-0.2,0.4
		c0.2,0.1,0.1,0.2,0.3,0.3c-0.1,0.1,0.5,0.4,1.1,0.6c0.1,0,0.3,0.1,0.4,0c0,0-0.1-0.2-0.1-0.2c0,0,0.1,0,0.1,0c0,0-0.1-0.1-0.1-0.1
		c0,0,0.1,0,0.1,0c0,0-0.1-0.1-0.1-0.1c0,0,0.1,0,0.1,0c0,0-0.1-0.1-0.1-0.1c0-0.1,0.3-0.1,0.1-0.3c0.3,0.1,0.1,0,0.1-0.1
		c0,0,0.2,0,0.2-0.1c0,0-0.1-0.1-0.1-0.1c0,0,0.1,0,0.1,0c0,0-0.1-0.1-0.1-0.1c0-0.1,0-0.1,0-0.1c0-0.1-0.1-0.3,0-0.4
		c0,0,0.1,0,0.1,0c0,0-0.1-0.1-0.1-0.2c0-0.1,0.1-0.1,0.1-0.1c0,0-0.1-0.1-0.1-0.1c0,0,0.1,0,0.1-0.1c0-0.1-0.1-0.2,0-0.2
		c-0.2-0.1,0,0-0.1-0.1c0.2,0,0.2-0.1,0-0.3c0.1,0,0.1-0.1,0-0.2C85.4,5.7,85.3,5.6,85.3,5.5z"/>
	<path class="st0" d="M74.9,4c0-0.3,0-0.6,0-0.8c0-0.1-0.1-0.1,0-0.2C75,2.9,75.1,2.7,75,2.6c0,0-0.1,0-0.1-0.1
		c-0.1-0.1,0.1-0.3,0-0.4c0-0.1,0.1-0.2,0-0.3c0-0.1-0.1-0.1-0.1-0.2c-0.1-0.2,0-0.3,0-0.5c0-0.1,0-0.3,0-0.4c0-0.1,0-0.1,0-0.2
		c0,0,0.1,0,0.2-0.1c0.1,0,0-0.1,0-0.2c0.1-0.1,0.2-0.2,0.2-0.2C75.3,0.1,74.7,0,74.4,0c-0.3,0-0.8,0-1,0.1c-0.2,0-0.1,0.1-0.3,0.2
		c0.1,0.2,0.1,0.5,0.1,0.7c0,0.1-0.1,0.3-0.1,0.4c0,0,0.1,0.1,0.1,0.1c0,0.1-0.1,0.3,0,0.4c0.1,0.1,0,0.1,0,0.2
		c0,0.1,0.1,0.2,0.1,0.3c-0.3,0.1,0,0.3-0.1,0.5c-0.2,0.3,0.2,0.7,0,1.1c0.1,0.1,0,0.2,0,0.3c0,0,0.1,0.1,0.1,0.1
		c0.1,0.1-0.1,0.3,0,0.4c0,0,0.1,0.1,0.1,0.1c0,0-0.1,0.1-0.1,0.1c0,0,0.1,0.1,0.1,0.2c0.1,0.2,0.1,0.3,0,0.4
		c0.1,0.1,0.1,0.2,0.1,0.2c0,0.1-0.1,0.2,0,0.3c0,0,0.1,0.1,0.1,0.1c0.1,0.1,0,0.2,0,0.3c0,0.1,0.1,0.1,0.1,0.2c0,0-0.1,0.1-0.1,0.1
		c0,0.1,0.1,0.1,0.1,0.2c0,0.1,0,0.3,0,0.4c0,0,0.2,0,0.2,0c-0.1,0.1-0.2,0.1-0.3,0.2c-0.1,0.1,0.1,0.3,0.1,0.4c0,0.1-0.2,0.1,0,0.2
		c-0.3,0.2-0.1,0.5,0,0.7C73.8,9,73.7,9.2,74,9.2c-0.1,0.2,0.6,0.3,1.2,0.2c0.1-0.1,0.3-0.1,0.3-0.2c0-0.1-0.2-0.2-0.2-0.2
		c0,0,0.1-0.1,0.1-0.1c0-0.1-0.1-0.1-0.1-0.2c0,0,0.1-0.1,0.1-0.1c0,0-0.1-0.1-0.1-0.1c0,0,0.1-0.1,0.1-0.1c0,0-0.1,0-0.1-0.1
		c0-0.2,0.3-0.4,0-0.5c0.3,0,0.1-0.1,0.1-0.2c0-0.1,0.2-0.1,0.2-0.2c0,0-0.1,0-0.1-0.1c0,0,0.1-0.1,0.1-0.1c0,0-0.1-0.1-0.1-0.1
		c-0.1-0.1,0-0.1,0-0.2c-0.1-0.2-0.2-0.4-0.2-0.6c0-0.1,0.1-0.1,0.1-0.2c0-0.1-0.1-0.2-0.1-0.3c0-0.1,0.1-0.2,0-0.3
		c0,0-0.1,0-0.1-0.1c0-0.1,0.1-0.1,0.1-0.1c0-0.1-0.2-0.2-0.1-0.3c-0.2,0,0-0.1-0.2-0.1c0.2-0.1,0.1-0.3-0.1-0.4
		c0.1-0.1,0.1-0.2,0-0.3C75.1,4.3,75,4.2,74.9,4z"/>
	<path class="st0" d="M147.4,44.4c0-2.1-0.1-4.4-0.1-6.5c0-3.5,0-6.9,0.1-10c0-1.6,0-3.1,0-4.5c0-0.3,0-0.8-0.1-1.2
		c-0.1-0.4-0.2-0.9-0.3-1.2c-0.3-0.8-0.7-1.5-1.3-2.1c-0.8-0.8-1.7-1.4-2.8-1.7c-0.5-0.2-1.1-0.2-1.7-0.3c-0.5,0-0.9,0-1.4,0
		c-1.9,0-3.8,0-5.8,0c-5,0.1-10.2,0.1-15.2,0.2c-6.5-0.3-16.8,0-24.7-0.1c-17.8-0.2-37.1,0.2-55.5,0c-4.7,0.1-10.2,0-14.5,0
		c-2.3,0-4.7,0.1-7.3,0.1c-3.4,0-7,0-10.5,0c-0.2,0-0.5,0-0.7,0c-0.3,0-0.5,0.1-0.8,0.1c-0.5,0.1-1,0.3-1.5,0.5
		c-0.9,0.5-1.8,1.2-2.3,2.1c-0.6,0.9-0.9,1.9-1,2.9c0,0.3,0,0.5,0,0.7L0,24c0,0.4,0,0.8,0,1.2c0,1.6,0.1,3.1,0.1,4.7
		c0,1.5-0.1,2.9-0.1,4.4c0,2.4,0.1,5.1,0.1,7.6c0.1,8.5,0.1,15.3,0,22.1c0.1,3.2,0.1,8.1,0.1,12c0,5.1-0.1,10.3,0,15.6
		c0,1.1,0.1,2.5,0.1,3.6c0,2.6,0,5.6,0,8.6c0,1.5,0,2.9,0,4.2c0,0.7,0,1.2,0,2c0.1,0.7,0.3,1.3,0.6,1.9c0.8,1.7,2.5,2.9,4.3,3.1
		c1,0.1,1.7,0,2.5,0l2.4,0c1.3,0,2.7,0.1,4,0.1c3.5,0,7.3-0.1,10.9-0.1c6,0,12.8,0,19.2,0c1.4,0,0.4-0.2,1.8-0.2
		c3.6,0.1,7.7,0.2,12,0.3c6.6,0.1,13.8-0.1,20.7-0.1c3.1,0,6.4,0.2,9.1,0c9.3,0.3,23,0.1,33,0c2.8-0.2,8.2-0.2,10.5-0.4
		c3.3,0,6.2-0.1,8-0.3h1.9c0,0,0.1,0,0.1,0c0,0-0.1,0-0.1,0c-0.1,0.1,0.5,0.4,1.5,0.3c1-0.1,2.5-0.7,3.3-1.9
		c0.5-0.6,0.9-1.5,1.1-2.5c0.2-1.1,0.1-1.8,0.1-2.7c0-1.7,0-3.4,0.1-4.7c-0.1-12-0.1-24.8-0.1-36.3C147.4,59.5,147.4,52,147.4,44.4z
		"/>
	<g>
		<rect x="8.4" y="25.2" class="st1" width="130.5" height="71.5"/>
		<path class="st0" d="M37.7,25.8c11.8,0,24.6,0,34,0c2.7,0,5.4-0.1,8,0c6.3,0.1,13.4,0.2,19.8,0.1c0.8,0,1.7-0.1,2.5-0.1
			c5.1-0.1,11.3,0.1,16.7,0c3.9-0.1,7.3,0.1,11.1,0c2.9,0,5.3-0.1,7.7-0.2c0.3,0,0.6,0,0.8,0c0,1.6,0,3.3,0,4.9c0,1.8,0,3.5,0,5.2
			c0,3.5,0,6.9,0,10.2c0,5,0,10.7,0,15.8c0,2.2,0,4.6,0,6.5c0,0.7-0.1,1.7-0.2,2.5c-0.1,2.1,0,5.3,0,8.4c-0.1,4.1-0.2,7.6-0.2,9.9
			c0.1,2.6,0.6,7.5,0.9,7.7c0.3,0.2,0.8-2.1,1-4c0.2-2.2,0.1-6,0.3-8c-0.1-10.3-0.1-21.1-0.1-30.9c0-6,0.1-12.5,0.1-18.9
			c0-1.8-0.1-3.8-0.1-5.6c0-1.8,0-3.6,0-5.3c-2.6,0-5.2,0-7.5,0c-2,0-3.8,0-5.5,0.1c-3.1,0.1-6.1,0-9.6,0c-4.2,0.1-8.7,0.1-13,0.2
			c-5.5-0.3-14.3,0-21-0.1c-15.1-0.2-31.6,0.2-47.3,0c-4,0.1-8.7,0-12.4,0c-2,0-4,0.1-6.2,0.1c-1.5,0-3,0-4.5,0c-1.9,0-3.8,0-5.7,0
			c0,1.8,0,3.7,0,5.4c0,1.4,0,2.8,0,4.1c0,1.4,0.1,2.7,0.1,4c0,1.3-0.1,2.5-0.1,3.7c0,2.1,0.1,4.3,0.1,6.5c0.1,7.3,0.1,13.1,0,18.9
			c0.1,2.7,0.1,6.9,0.1,10.2c0,4.4-0.1,8.8,0,13.3c0,1,0.1,2.1,0.1,3.1c0,1.3,0,2.7,0,4.1c4.1,0,8.5,0,11.4,0.1c2.7,0,5.3-0.1,8-0.1
			c1.1,0,2.3,0.1,3.4,0.1c3,0,6.3-0.1,9.3-0.1c5.1,0,10.9,0,16.4,0c1.2,0,0.4-0.2,1.5-0.2c3.1,0.1,6.6,0.2,10.2,0.3
			c5.7,0.1,11.8-0.1,17.6-0.1c2.7,0,5.4,0.2,7.7,0c7.9,0.3,19.6,0.1,28.2,0c2.4-0.2,7-0.2,9-0.4c6.6,0.1,11.1-0.6,6.8-1.2
			c-2.8-0.1-4.4-0.3-7.4-0.3c-3.2,0-6.5,0.2-9.6,0.2c-1.6,0-3.1-0.1-4.6-0.1c-2.5,0-5.3,0.1-8,0.1c-1.3,0-2.6-0.1-3.7-0.1
			c-1.2,0-2.2,0.1-3.4,0.1c-1.4,0-2.8-0.1-4.3-0.1c-1,0-2,0.1-3.1,0.1c-7.6,0-16.2-0.3-22.6,0c-2.1-0.3-4.8-0.1-7.1-0.1
			c-3.2,0-6.6-0.2-9.6-0.2c-1,0-1.8,0.1-2.8,0.1c-1.3,0-2.5-0.1-3.7-0.1c-1.2,0-2.5,0.1-3.7,0.1c-2.6,0.1-5.5,0-8.4,0
			c-7.8,0.1-15.7,0.2-24.1,0.2c-0.4,0-0.8,0-1.3,0l-0.3,0l0-0.3l0-0.1l0-0.3l0-0.5c0-0.7,0-1.4,0-2.1c0-4-0.1-7.6-0.2-11.4
			c0-3.7,0.1-7.7,0-11.5c0-1-0.1-2.1-0.1-3.1c0-2.2,0.1-4.1,0.1-6.2c0-4.3-0.2-8.5-0.1-12.7c-0.2-1.7,0-3.7-0.2-5.9
			c0.1-2.5,0.1-5.4,0.1-8.3c0-1.5,0-2.9,0-4.3c0-0.7,0-1.4,0-2l0-0.5l0-0.3c0-0.2,0-0.3,0-0.5c0.2,0,0.4,0,0.6,0c0.7,0,1.6,0,2.4,0
			c0.9,0,1.9,0,2.9,0c2,0,4,0,5.8-0.1C26,26,31.8,25.8,37.7,25.8z"/>
	</g>
	<path class="st0" d="M66.9,137.7c-2.7,0.1-5.7,0-7.8,0c-0.6,0-1.2,0.1-1.9,0c-0.8,0-1.7-0.1-2.6-0.1c0-0.2,0-0.4,0-0.7
		c0-0.2-0.1-0.4-0.1-0.6c0-0.3,0-0.6,0-0.9c0-0.2,0-0.3,0-0.5l0-0.4c0-0.1,0-0.2,0.1-0.3c0.1-0.1,0.1-0.1,0.3-0.2
		c0.2-0.2,0.5-0.5,0.7-0.7c0.7-0.7,1.2-1.2,1.8-2c0.4-0.5,0.6-1.1,0.9-1.6c0.9-1.5,1.6-3.2,2-4.8c0.3-1.2,0.4-2.5,0.4-3.7
		c0-0.5,0-1.1,0-1.5c0-0.2,0.1-0.4,0.1-0.6c0-0.5-0.2-1.2-0.3-2c-0.2-1-0.3-1.8-0.5-2.3c-0.3-0.6-1.3-1.4-1.5-1.3
		c-0.2,0.1-0.5,0.8-0.5,1.2c0,0.5,0.4,1.2,0.3,1.7c0.8,2.1,1,4.4,0.7,6.5c-0.1,0.6-0.2,1.3-0.4,1.9c-0.2,0.6-0.4,1.3-0.7,1.9
		c-0.2,0.3-0.3,0.8-0.4,1.1c-0.6,1.1-1.4,2-1.9,2.8c-0.2,0.3-0.4,0.5-0.6,0.8c-0.3,0.2-0.5,0.5-0.8,0.7c-0.2,0.2-0.3,0.3-0.5,0.5
		l-0.5,0.5c-0.1,0.2-0.4,0.3-0.3,0.6c0,0.4,0,0.8,0,1.1c0,0.3,0,0.5,0,0.7c-0.1,0.3-0.1,0.7-0.1,1.1c0,0.8,0,1.7,0,2.5
		c0.8,0,1.6,0,2.3,0c0.2,0,0.4,0,0.7,0c0.2,0,0.4,0,0.6,0c3.5,0.2,7.3-0.2,10.9,0c0.9-0.1,2,0,2.8,0c0.5,0,0.9-0.1,1.4-0.1
		c1.3-0.1,2.8,0.1,4.1,0c0.3,0,0.6-0.1,0.9-0.1c0.3,0,0.6,0.1,0.9,0.1c0.5,0,1-0.1,1.5-0.1c1.7-0.1,3-0.1,4.3,0
		c0.6-0.1,1.6-0.1,2.3-0.1c1,0,2,0.1,3.1,0c0.2,0,0.5-0.1,0.7-0.1c0.5,0,1.1,0,1.7,0c0.7,0,1.4,0,1.9,0c0.4,0,0.9,0,1.3,0
		c0-0.6-0.1-1.2-0.1-1.8c0-0.5,0.1-0.6,0.1-0.9c0-0.3,0-0.7-0.1-1.1c0-0.2,0-0.4,0-0.5c0-0.2,0-0.5,0-0.8c0-0.1-0.1-0.2-0.2-0.3
		l-0.3-0.3l-0.4-0.4c-0.2-0.2-0.4-0.4-0.7-0.6c-0.5-0.4-0.9-0.9-1.3-1.4c-0.1-0.2-0.2,0.1-0.3-0.2c-0.4-0.6-0.7-1.3-1-2
		c-0.6-1.1-1.3-2.3-1.6-3.5c-0.2-0.6-0.1-1.2-0.4-1.7c0-1.7-0.1-4.3,0.3-6.2c-0.1-0.6,0.3-1.5,0.2-2c0.3-0.7,0.4-1.3,0.3-1.7
		c-0.1-0.4-0.3-0.6-0.9-0.2c-0.4,0.6-0.7,0.9-1,1.6c-0.3,0.7-0.3,1.6-0.5,2.3c-0.1,0.4-0.2,0.7-0.3,1.1c-0.1,0.6-0.1,1.3-0.1,2
		c0,0.3-0.1,0.6-0.1,0.9c0,0.3,0.1,0.5,0.1,0.8c0,0.3,0,0.7,0,1.1c0,0.2,0.1,0.5,0.2,0.7c0.2,1.9,0.8,3.9,1.7,5.2
		c0,0.6,0.6,1.1,0.8,1.5c0.4,0.7,0.8,1.4,1.3,2c0.2,0.2,0.4,0.3,0.5,0.5c0.2,0.2,0.4,0.5,0.6,0.7c0.2,0.2,0.5,0.4,0.7,0.6l0.2,0.2
		l0,0c0,0,0,0,0,0.1c0,0.2,0,0.4,0,0.7c0,0.5,0,1,0.1,1.5l0,0.2l0,0l0,0.1l0,0.2c-0.1,0-0.2,0-0.3,0c-0.4,0-0.9,0-1.3,0
		c-0.5,0-1-0.1-1.6-0.1c-0.9,0-1.8,0.1-2.6,0.2c-0.9,0-1.8-0.1-2.6,0c-0.2,0-0.5,0.1-0.7,0.1c-0.5,0-0.9-0.1-1.4-0.1
		c-1,0-1.9,0.2-2.9,0.1c-0.4,0.2-0.9,0-1.4,0.2c-1.2-0.2-3-0.1-4.1,0.1c-0.7-0.1-1.8,0-2.6,0C69.6,137.5,68.2,137.6,66.9,137.7z"/>
	<path class="st0" d="M73.1,135.2c1,0,2,0.1,2.8,0.1c0.2,0,0.4,0,0.7,0c0.5,0.1,1.1,0.2,1.6,0.1c0.1,0,0.1-0.1,0.2-0.1
		c0.4-0.1,0.9,0.1,1.4,0.1c0.3,0,0.6,0.1,0.9,0.1c0.2,0,0.4-0.1,0.6-0.1c0.6-0.1,1.2,0,1.8,0.1c0.4,0,0.9,0,1.3,0c0.2,0,0.4,0,0.5,0
		c0.1,0,0.1,0.1,0.2,0.1c0.2,0,0.4,0,0.7,0c0.3,0.1,0.6,0.2,0.8,0.2c0.2,0,0.6-0.4,0.7-0.6c0-0.2-0.2-0.6-0.3-0.8
		c-0.2-0.1-0.5-0.1-0.7-0.2c-0.9,0-1.7,0-2.6,0c-0.5,0-1-0.1-1.6-0.1c-0.2,0-0.3,0-0.5,0c-0.5,0-0.9-0.1-1.3,0c-0.3,0.1-0.5,0-0.8,0
		c-0.4,0-0.7,0.1-1.1,0.1c-0.5-0.2-1.2-0.1-1.7-0.1c-1.2-0.2-2.6,0.1-3.9-0.1c-0.3,0.1-0.7,0-1,0c-0.2,0-0.3,0.1-0.5,0.1
		c-0.5,0-1-0.1-1.5-0.1c-0.1,0-0.2,0.1-0.3,0.1c-0.1,0-0.2-0.1-0.3-0.1c-0.2,0-0.4,0-0.5,0c-0.6,0-1.1,0.1-1.6,0
		c-0.2,0.1-0.6,0.1-0.8,0c-0.4,0-0.7-0.1-1.1-0.1c-0.1,0-0.2,0.1-0.3,0.1c-0.4,0-0.9,0-1.1-0.1c-0.2,0-0.4,0.1-0.7,0.1
		c-0.1,0-0.2-0.1-0.3-0.1c-0.2,0-0.5,0.1-0.8,0.1c-0.4,0-0.9,0-1.4,0c-0.1,0,0,0.1-0.1,0.1c-0.3-0.1-0.5-0.2-0.8-0.2
		c-0.5-0.1-1,0.1-1.5,0c-0.2,0-0.4-0.1-0.6,0c-0.6-0.2-1.6-0.1-2.3-0.1c-0.2,0.2-0.6,0.1-0.8,0.3c-0.5-0.1-0.9,0.4-0.6,0.9
		c0.2,0.1,0.4,0.3,0.6,0.3c0.3,0,0.5-0.1,0.8-0.1c0.1,0,0.3,0.1,0.4,0.1c0.2,0,0.4-0.1,0.7-0.1c0.1,0,0.2,0.1,0.3,0.1
		c0.1,0,0.2-0.1,0.3-0.1c0.1,0,0.2,0.1,0.4,0.1c0.1,0,0.2-0.1,0.3,0c0.6,0,1.3,0.2,1.9,0.1c0.2,0.2,0.4,0.1,0.6,0.1
		c0.3,0,0.5,0.1,0.8,0.1c0.1,0,0.2-0.1,0.2-0.1c0.1,0,0.2,0.1,0.3,0.1c0.1,0,0.2-0.1,0.3-0.1c0.2,0,0.5,0,0.7,0c0.6,0,1.3-0.1,2-0.1
		c0.2,0,0.4,0.1,0.6,0.1c0.3,0,0.6-0.1,0.9-0.1c0.3,0,0.6,0.1,0.9,0.1c0.1,0,0.2-0.1,0.3,0c0.2,0,0.3,0.1,0.5,0.1c0.4,0,0.7-0.1,1,0
		c0.1-0.2,0.3,0,0.5-0.1c0.4,0.2,1.1,0.1,1.5,0c0.2,0.1,0.6,0.1,0.9,0C72.1,135.3,72.6,135.2,73.1,135.2z"/>
	<path class="st0" d="M78.7,143.3c2.5,0,5.2,0,7.2,0.1c0.6,0,1.1,0,1.7,0c1.3,0,2.8,0.1,4.2,0.1c0.2,0,0.4-0.1,0.5-0.1
		c1.1-0.1,2.4,0.1,3.5,0.1c0.8,0,1.5,0.1,2.3,0c0.6,0,1.1-0.1,1.6-0.1c1.6-0.1,3.2,0,4.6,0c1,0,2.2,0,3.3,0c0.5,0,1,0,1.4,0
		c0.1,0,0.4,0.1,0.5,0.1c0.4,0,1.1,0,1.8,0c0.9,0,1.6,0.2,2.1,0.2c0.5,0,1.6-0.4,1.6-0.6c0-0.2-0.4-0.6-0.8-0.8
		c-0.5-0.1-1.3-0.1-1.7-0.2c-2.2,0.1-4.4,0-6.5,0c-1.3,0-2.6-0.1-4-0.1c-0.4,0-0.8,0.1-1.2,0c-1.3,0-2.4-0.1-3.3,0
		c-0.6,0.1-1.3,0-2,0c-0.9,0-1.8,0.1-2.7,0.1c-1.2-0.2-3,0-4.4-0.1c-3.2-0.2-6.6,0.1-10-0.1c-0.8,0.1-1.8,0-2.6,0
		c-0.4,0-0.8,0.1-1.3,0.1c-1.2,0-2.6-0.1-3.7-0.1c-0.3,0-0.6,0.1-0.8,0.1c-0.3,0-0.5-0.1-0.8-0.1c-0.4,0-0.9,0-1.4,0
		c-1.5,0-2.7,0.1-4,0c-0.6,0.1-1.4,0.1-2.1,0c-0.9,0-1.9-0.1-2.8-0.1c-0.2,0-0.4,0.1-0.7,0.1c-0.9,0-2.2,0-2.9-0.1
		c-0.6,0-1.1,0.1-1.7,0.1c-0.2,0-0.5-0.1-0.7-0.1c-0.6,0-1.3,0.1-2,0.1c-1.1,0-2.3,0-3.5,0c-0.2,0-0.1,0.1-0.3,0.1
		c-0.6-0.1-1.4-0.2-2.1-0.2c-1.2-0.1-2.5,0.1-3.7,0.1c-0.6,0-1.1-0.1-1.6,0c-1.7-0.2-4.1-0.1-5.9,0c-0.5,0.2-1.5,0.1-1.9,0.3
		c-1.4-0.1-2.3,0.4-1.4,0.9c0.6,0.1,0.9,0.3,1.6,0.3c0.7,0,1.4-0.1,2-0.1c0.3,0,0.7,0.1,1,0.1c0.5,0,1.1-0.1,1.7-0.1
		c0.3,0,0.5,0.1,0.8,0.1c0.3,0,0.5-0.1,0.7-0.1c0.3,0,0.6,0.1,0.9,0.1c0.2,0,0.4-0.1,0.7-0.1c1.6,0,3.4,0.2,4.8,0
		c0.4,0.2,1,0.1,1.5,0.1c0.7,0,1.4,0.1,2,0.1c0.2,0,0.4-0.1,0.6-0.1c0.3,0,0.5,0.1,0.8,0.1c0.3,0,0.5-0.1,0.8-0.1c0.5,0,1.1,0,1.8,0
		c1.6,0,3.3-0.1,5.1-0.1c0.5,0,0.9,0.1,1.4,0.1c0.8,0,1.6-0.1,2.4-0.1c0.8,0,1.6,0.1,2.4,0c0.2,0,0.4-0.1,0.7-0.1
		c0.5,0,0.9,0.1,1.3,0.1c0.9,0,1.8-0.1,2.7,0c0.4-0.2,0.8,0,1.2-0.1c1.1,0.2,2.7,0.1,3.7,0c0.6,0.1,1.6,0,2.3,0
		C76.2,143.4,77.4,143.3,78.7,143.3z"/>
	<path class="st0" d="M76.9,147.7c2.5,0,5.1,0,7.1,0.1c0.6,0,1.1,0,1.7,0c1.3,0,2.8,0.1,4.1,0.1c0.2,0,0.3-0.1,0.5-0.1
		c1.1-0.1,2.3,0.1,3.5,0.1c0.8,0,1.5,0.1,2.3,0c0.6,0,1.1-0.1,1.6-0.1c1.6-0.1,3.1,0,4.6,0c1,0,2.2,0,3.3,0c0.5,0,1,0,1.4,0
		c0.1,0,0.3,0.1,0.5,0.1c0.4,0,1.1,0,1.7,0c0.9,0,1.6,0.2,2.1,0.2c0.5,0,1.6-0.4,1.6-0.6c0-0.2-0.4-0.6-0.8-0.8
		c-0.5-0.1-1.2-0.1-1.7-0.2c-2.1,0.1-4.4,0-6.4,0c-1.3,0-2.6-0.1-3.9-0.1c-0.4,0-0.8,0.1-1.2,0c-1.2,0-2.4-0.1-3.3,0
		c-0.6,0.1-1.3,0-2,0c-0.9,0-1.8,0.1-2.7,0.1c-1.2-0.2-3,0-4.4-0.1c-3.1-0.2-6.6,0.1-9.8-0.1c-0.8,0.1-1.8,0-2.6,0
		c-0.4,0-0.8,0.1-1.3,0.1c-1.2,0-2.5-0.1-3.7-0.1c-0.3,0-0.6,0.1-0.8,0.1c-0.3,0-0.5-0.1-0.8-0.1c-0.4,0-0.9,0-1.4,0
		c-1.5,0-2.7,0.1-3.9,0c-0.6,0.1-1.4,0.1-2.1,0c-0.9,0-1.8-0.1-2.8-0.1c-0.2,0-0.4,0.1-0.6,0.1c-0.9,0-2.2,0-2.9-0.1
		c-0.6,0-1.1,0.1-1.7,0.1c-0.2,0-0.5-0.1-0.7-0.1c-0.6,0-1.3,0.1-1.9,0.1c-1.1,0-2.3,0-3.4,0c-0.2,0-0.1,0.1-0.3,0.1
		c-0.6-0.1-1.4-0.2-2.1-0.2c-1.2-0.1-2.5,0.1-3.7,0.1c-0.6,0-1.1-0.1-1.6,0c-1.6-0.2-4.1-0.1-5.9,0c-0.5,0.2-1.4,0.1-1.9,0.3
		c-1.4-0.1-2.3,0.4-1.4,0.9c0.6,0.1,0.9,0.3,1.5,0.3c0.7,0,1.3-0.1,2-0.1c0.3,0,0.7,0.1,1,0.1c0.5,0,1.1-0.1,1.7-0.1
		c0.3,0,0.5,0.1,0.8,0.1c0.3,0,0.5-0.1,0.7-0.1c0.3,0,0.6,0.1,0.9,0.1c0.2,0,0.4-0.1,0.6-0.1c1.6,0,3.4,0.2,4.7,0
		c0.4,0.2,1,0.1,1.5,0.1c0.7,0,1.4,0.1,2,0.1c0.2,0,0.4-0.1,0.6-0.1c0.3,0,0.5,0.1,0.8,0.1c0.3,0,0.5-0.1,0.8-0.1c0.5,0,1.1,0,1.7,0
		c1.6,0,3.3-0.1,5-0.1c0.5,0,0.9,0.1,1.4,0.1c0.8,0,1.6-0.1,2.4-0.1c0.8,0,1.6,0.1,2.4,0c0.2,0,0.4-0.1,0.6-0.1
		c0.5,0,0.9,0.1,1.3,0.1c0.9,0,1.8-0.1,2.6,0c0.4-0.2,0.8,0,1.2-0.1c1.1,0.2,2.7,0.1,3.7,0c0.6,0.1,1.6,0,2.3,0
		C74.4,147.8,75.6,147.7,76.9,147.7z"/>
	<path class="st0" d="M78,152.1c2.5,0,5.1,0,7.1,0.1c0.6,0,1.1,0,1.7,0c1.3,0,2.8,0.1,4.1,0.1c0.2,0,0.3-0.1,0.5-0.1
		c1.1-0.1,2.3,0.1,3.5,0.1c0.8,0,1.5,0.1,2.3,0c0.6,0,1.1-0.1,1.6-0.1c1.6-0.1,3.1,0,4.6,0c1,0,2.2,0,3.3,0c0.5,0,1,0,1.4,0
		c0.1,0,0.3,0.1,0.5,0.1c0.4,0,1.1,0,1.7,0c0.9,0,1.6,0.2,2.1,0.2c0.5,0,1.6-0.4,1.6-0.6c0-0.2-0.4-0.6-0.8-0.8
		c-0.5-0.1-1.2-0.1-1.7-0.2c-2.1,0.1-4.4,0-6.4,0c-1.3,0-2.6-0.1-3.9-0.1c-0.4,0-0.8,0.1-1.2,0c-1.2,0-2.4-0.1-3.3,0
		c-0.6,0.1-1.3,0-2,0c-0.9,0-1.8,0.1-2.7,0.1c-1.2-0.2-3,0-4.4-0.1c-3.1-0.2-6.6,0.1-9.8-0.1c-0.8,0.1-1.8,0-2.6,0
		c-0.4,0-0.8,0.1-1.3,0.1c-1.2,0-2.5-0.1-3.7-0.1c-0.3,0-0.6,0.1-0.8,0.1c-0.3,0-0.5-0.1-0.8-0.1c-0.4,0-0.9,0-1.4,0
		c-1.5,0-2.7,0.1-3.9,0c-0.6,0.1-1.4,0.1-2.1,0c-0.9,0-1.8-0.1-2.8-0.1c-0.2,0-0.4,0.1-0.6,0.1c-0.9,0-2.2,0-2.9-0.1
		c-0.6,0-1.1,0.1-1.7,0.1c-0.2,0-0.5-0.1-0.7-0.1c-0.6,0-1.3,0.1-1.9,0.1c-1.1,0-2.3,0-3.4,0c-0.2,0-0.1,0.1-0.3,0.1
		c-0.6-0.1-1.4-0.2-2.1-0.2c-1.2-0.1-2.5,0.1-3.7,0.1c-0.6,0-1.1-0.1-1.6,0c-1.6-0.2-4.1-0.1-5.9,0c-0.5,0.2-1.4,0.1-1.9,0.3
		c-1.4-0.1-2.3,0.4-1.4,0.9c0.6,0.1,0.9,0.3,1.5,0.3c0.7,0,1.3-0.1,2-0.1c0.3,0,0.7,0.1,1,0.1c0.5,0,1.1-0.1,1.7-0.1
		c0.3,0,0.5,0.1,0.8,0.1c0.3,0,0.5-0.1,0.7-0.1c0.3,0,0.6,0.1,0.9,0.1c0.2,0,0.4-0.1,0.6-0.1c1.6,0,3.4,0.2,4.7,0
		c0.4,0.2,1,0.1,1.5,0.1c0.7,0,1.4,0.1,2,0.1c0.2,0,0.4-0.1,0.6-0.1c0.3,0,0.5,0.1,0.8,0.1c0.3,0,0.5-0.1,0.8-0.1c0.5,0,1.1,0,1.7,0
		c1.6,0,3.3-0.1,5-0.1c0.5,0,0.9,0.1,1.4,0.1c0.8,0,1.6-0.1,2.4-0.1c0.8,0,1.6,0.1,2.4,0c0.2,0,0.4-0.1,0.6-0.1
		c0.5,0,0.9,0.1,1.3,0.1c0.9,0,1.8-0.1,2.6,0c0.4-0.2,0.8,0,1.2-0.1c1.1,0.2,2.7,0.1,3.7,0c0.6,0.1,1.6,0,2.3,0
		C75.5,152.3,76.7,152.1,78,152.1z"/>
	<path class="st0" d="M37.8,139.8c5.5-0.1,11.5,0,15.9,0c1.3,0,2.5-0.1,3.8,0c2.9,0.1,6.3,0.2,9.3,0.1c0.4,0,0.8-0.1,1.2-0.1
		c2.4-0.1,5.3,0.1,7.8,0c1.8-0.1,3.4,0.1,5.2,0c1.4,0,2.5-0.1,3.6-0.2c3.5-0.1,7,0,10.3,0c2.3,0,5,0,7.4,0c1,0,2.2,0,3,0
		c0.3,0,0.8,0.1,1.2,0.2c1,0.1,2.5,0,3.9,0c1.9,0.1,3.5,0.2,4.6,0.2c1.2-0.1,3.5-0.6,3.6-0.9c0.1-0.3-1-0.8-1.9-1
		c-1-0.2-2.8-0.1-3.8-0.3c-4.8,0.1-9.9,0.1-14.5,0.1c-2.8,0-5.8-0.1-8.8-0.1c-0.9,0-1.8,0.1-2.6,0.1c-2.8,0-5.4-0.1-7.4,0
		c-1.4,0.1-2.9,0-4.5,0c-2,0-4.1,0.1-6.1,0.2c-2.6-0.3-6.7,0-9.9-0.1c-7.1-0.2-14.8,0.2-22.2,0c-0.2,0-0.5,0-0.7,0
		c-0.3,0-0.6,0-0.8,0.1c-0.6,0.1-1.1,0.2-1.7,0.4c-1.1,0.3-2.1,0.9-2.9,1.6c-0.8,0.7-1.5,1.6-2,2.7c-0.4,0.7-0.6,1.5-0.7,2.2
		c-0.2,0.8-0.2,1.6-0.2,2.3c0,0.4,0,0.7,0,1.1c0,0.4,0,0.8,0.1,1.2c0.1,0.8,0.3,1.5,0.6,2.2c0.3,0.7,0.8,1.2,1.2,1.8
		c0.4,0.5,0.8,1,1.4,1.4c0.9,0.7,2,1.2,3.1,1.4c0.9,0.2,1.9,0.2,2.6,0.2c0.8,0,1.5,0,2.2,0c1.4,0,2.8,0,4.2,0.1
		c1.3-0.1,3.2-0.1,4.8-0.1c2,0,4.1,0.1,6.2,0c0.5,0,1-0.1,1.4-0.1c2.1-0.1,4.9,0,6.5,0c1.2,0,2.5-0.1,3.8-0.1c0.5,0,1.1,0.1,1.6,0.1
		c1.4,0,2.9-0.1,4.3-0.1c2.4,0,5.1,0,7.7,0c0.6,0,0.2-0.2,0.7-0.2c1.4,0.1,3.1,0.2,4.8,0.3c2.7,0.1,5.5-0.1,8.3-0.1
		c1.2,0,2.5,0.2,3.6,0c3.7,0.3,9.2,0.1,13.2,0c1.1-0.2,3.3-0.2,4.2-0.4c3.1,0.1,5.2-0.6,3.2-1.2c-1.3-0.1-2-0.3-3.5-0.3
		c-1.5,0-3,0.2-4.5,0.2c-0.7,0-1.5-0.1-2.2-0.1c-1.2,0-2.5,0.1-3.8,0.1c-0.6,0-1.2-0.1-1.7-0.1c-0.6,0-1,0.1-1.6,0.1
		c-0.7,0-1.3-0.1-2-0.1c-0.5,0-1,0.1-1.5,0.1c-3.6,0-7.6-0.3-10.6,0c-1-0.3-2.3-0.1-3.3-0.1c-1.5,0-3.1-0.2-4.5-0.2
		c-0.5,0-0.8,0.1-1.3,0.1c-0.6,0-1.2-0.1-1.7-0.1c-0.6,0-1.2,0.1-1.7,0.1c-1.2,0.1-2.6,0-3.9,0c-3.7,0.1-7.3,0.2-11.3,0.2
		c-1.1,0-2.1-0.1-3.2-0.1c-1.9,0-3.6,0.1-5.4,0.2c-1.7,0-3.6-0.1-5.4,0c-0.5,0-1,0.1-1.4,0.1c-1,0-1.9-0.1-2.9-0.1c-1,0-2,0.1-3,0.1
		c-1,0-1.9,0-2.7-0.2c-0.8,0-1.5-0.5-2.3-0.9c-0.9-0.7-1.7-1.8-2.2-3.1c-0.5-1.2-0.5-2.5-0.6-3.7c0-0.7,0.1-1.5,0.3-2.3
		c0.2-0.8,0.6-1.6,1.1-2.2c0.8-0.8,1.8-1.5,2.9-2c0.6-0.2,1.2-0.4,1.8-0.5C36.4,139.8,37.1,139.8,37.8,139.8z"/>
	<g>
		<polygon class="st2" points="52.2,151.8 47.2,147.8 42.2,151.8 42.2,139.7 52.2,139.7 		"/>
		<path class="st0" d="M44.3,140.3c1.4-0.1,2.9,0,4,0c0.3,0,0.6-0.1,0.9,0c0.4,0,0.8,0.1,1.1,0.1c0.2,0,0.4,0,0.6,0
			c0.2,0,0.2,0,0.3,0c0.1,0,0.2-0.1,0.2-0.1c0.1,0,0.2,0,0.3,0c0,0.2,0,0.3-0.1,0.5c0,0.2,0,0.2,0,0.5c0.1,0.5-0.1,0.8,0,1.3
			c0,0.3,0.1,0.6,0.2,0.9c0.1,0.9,0,1.7,0,2.6c0,0.6,0,1.2,0,1.8c0,0.3,0,0.5,0,0.8c0,0.1-0.1,0.2-0.2,0.3c-0.1,0.2,0,0.6,0,1
			c-0.1,0.5-0.2,0.9-0.2,1.2c0.1,0.3,0.6,0.9,0.9,0.9c0.3,0,0.8-0.2,1-0.5c0.2-0.3,0.1-0.7,0.3-0.9c-0.1-1.2-0.1-2.5-0.1-3.6
			c0-0.7,0-1.4,0.1-2.2c0-0.2-0.1-0.4-0.1-0.6c0-0.7,0.1-1.3,0-1.8c-0.1-0.4,0-0.7,0-1.1c0-0.8-0.1-1.6-0.1-2.4c-0.1,0-0.3,0-0.4,0
			c-0.2-0.1-0.6-0.1-0.9-0.1c-0.2,0-0.4,0-0.6,0c-0.2,0-0.4,0-0.5,0c-0.4,0-0.9,0.1-1.3,0c-1.8-0.2-3.7,0.2-5.5,0
			c-0.1,0-0.2,0.1-0.4,0.1l-0.2,0l-0.3,0c-0.5,0-1,0-1.4-0.1c-0.2,0-0.5,0-0.7,0.1c0,0.2,0.1,0.5,0.1,0.7c0,0.3,0,0.6,0,0.9
			c0,0.3,0,0.6,0,0.9c0,0.4-0.1,0.7,0,1c0,0.2,0.1,0.3,0.1,0.5c0,0.1-0.1,0.3-0.1,0.4c0,0.2,0.1,0.5,0.1,0.8c0.1,0.8,0.1,1.5,0,2.2
			c0.1,0.3,0.1,0.8,0.1,1.2c0,0.5-0.1,1,0,1.5c0,0.1,0.1,0.2,0.1,0.4c0.1,0.8,0,2,0,2.7c0,0.6,0.1,0.9,0.1,1.3c0,0.1,0,0.2,0,0.4
			c0.1,0,0.1-0.1,0.2-0.1c0.5-0.4,1-1,1.4-1.3c0.4-0.3,0.8-0.6,1.1-0.9c0.3-0.3,0.6-0.5,0.9-0.8c0.1-0.1-0.1-0.2,0-0.2
			c0.4-0.1,0.7-0.3,1.1-0.5c0.1-0.1,0.2-0.2,0.4-0.3l0.2-0.2c0.1-0.1,0.1-0.1,0.1-0.1c0.1-0.1,0.2-0.2,0.3-0.4l0.1,0.1
			c0.1,0.1,0.1,0.3,0.4,0.3c0.5,0.8,1.7,1.5,2.6,2c0.4,0,0.7,0.4,1.1,0.3c0.6,0.5,1.4,0.3,1.4-0.5c-0.2-0.3-0.2-0.6-0.5-0.8
			c-0.3-0.2-0.7-0.3-1-0.5c-0.1-0.1-0.2-0.3-0.3-0.4c-0.2-0.2-0.6-0.3-0.8-0.5c-0.1-0.1-0.2-0.3-0.3-0.3c-0.1-0.1-0.3-0.1-0.4-0.2
			c-0.1-0.1-0.2-0.3-0.3-0.4c-0.1-0.1-0.2-0.1-0.3-0.2c-0.5-0.4-1-0.8-1.5-1.3c-0.4,0.3-0.8,0.6-1.2,0.9l-0.3,0.2
			c-0.1,0.1-0.1,0.1-0.2,0.2c-0.1,0.1-0.2,0.2-0.2,0.3c-0.4-0.1-0.5,0.3-0.7,0.5c-0.3,0.2-0.7,0.3-1,0.6c0,0-0.1,0.1-0.1,0.1
			c0,0,0,0.1,0,0.1c0,0-0.1-0.1-0.1-0.1c0,0,0,0.1,0,0.2c0,0.1-0.1,0.1-0.1,0.1l-0.2,0.2c-0.1,0-0.1-0.1-0.1-0.3c0,0,0-0.1,0.1-0.1
			c0,0,0.1,0,0.1-0.2c0-0.5-0.1-0.9-0.2-1.3c0-0.4,0.1-0.9,0-1.3c0-0.1-0.1-0.2-0.1-0.4c0-0.3,0.1-0.5,0.1-0.7c0-0.5-0.2-1-0.1-1.5
			c-0.2-0.2,0-0.4-0.2-0.7c0.2-0.6,0.1-1.5-0.1-2c0.1-0.2,0-0.4,0-0.7l0,0c0.3,0.1,0.4,0.1,0.6,0.1
			C43.5,140.4,43.9,140.3,44.3,140.3z"/>
	</g>
	<g>
		<path class="st0" d="M51.4,73.9c-1.2,0.1-2.6,0-3.6,0c-0.3,0-0.6,0.1-0.8,0c-0.7-0.1-1.4-0.2-2.1-0.1c-0.1,0-0.2,0.1-0.3,0.1
			c-0.5,0.1-1.2-0.1-1.8,0c-0.4,0.1-0.8-0.1-1.2,0c-0.3,0-0.6,0.1-0.8,0.2c-0.8,0.1-1.6,0-2.3,0c-0.5,0-1.1,0-1.7,0
			c-0.2,0-0.5,0-0.7,0c-0.1,0-0.2-0.1-0.3-0.2c-0.2-0.1-0.6,0-0.9,0c-0.4-0.1-0.8-0.2-1-0.2c-0.3,0.1-0.8,0.6-0.8,0.9
			c0,0.3,0.2,0.8,0.4,1c0.2,0.2,0.6,0.1,0.8,0.3c1.1-0.1,2.2-0.1,3.3-0.1c0.6,0,1.3,0,2,0.1c0.2,0,0.4-0.1,0.6-0.1
			c0.6,0,1.2,0.1,1.7,0c0.3-0.1,0.6,0,1,0c0.4,0,0.9-0.1,1.4-0.2c0.6,0.3,1.5,0,2.2,0.1c1.6,0.2,3.3-0.2,5,0c0.4-0.1,0.9,0,1.3,0
			c0.2,0,0.4-0.1,0.7-0.1c0.6-0.1,1.3,0.1,1.9,0c0.1,0,0.3-0.1,0.4-0.1c0.1,0,0.3,0.1,0.4,0.1c0.2,0,0.5-0.1,0.7-0.1
			c0.2,0,0.4,0,0.5,0c0.1,0,0.2,0,0.3,0c0.1,0,0.3,0,0.4,0c0.6,0,1.1,0,1.7,0.1c0,0,0.1,0,0.2,0c-0.1-0.6-0.1-1.1,0-1.7
			c0-0.2,0-0.4,0-0.6l0-0.4c0-0.2,0-0.5,0-0.7c0-0.1-0.1-0.2-0.1-0.3c-0.1-0.5,0-1.1,0-1.5c0-0.3-0.1-0.6-0.1-0.8
			c0-0.1,0.1-0.2,0.1-0.4c0-0.3-0.1-0.7-0.1-1c0-0.5,0-1.2,0-1.7c0-0.1-0.2,0-0.2-0.2c0.1-0.3,0.2-0.7,0.3-1.1
			c0.1-0.6-0.1-1.2-0.1-1.9c0-0.3,0.2-0.6,0-0.8c0.3-0.8,0.1-2.1,0-3c-0.2-0.3-0.2-0.7-0.4-0.9c0.1-0.7-0.6-1.2-1.2-0.7
			c-0.1,0.3-0.3,0.5-0.3,0.8c0,0.3,0.2,0.7,0.2,1c0,0.2-0.1,0.3-0.1,0.5c0,0.3,0.1,0.6,0.1,0.8c0,0.1-0.1,0.3-0.1,0.4
			c0,0.1,0.1,0.2,0.1,0.4c0,0.2-0.1,0.3-0.1,0.5c0,0.1,0.1,0.2,0.1,0.3c0,0.8-0.3,1.7,0,2.4c-0.3,0.2-0.1,0.5-0.1,0.8
			c0,0.3-0.2,0.7-0.2,1c0,0.1,0.1,0.2,0.1,0.3c0,0.1-0.1,0.3-0.1,0.4c0,0.1,0.1,0.3,0.1,0.4c0.1,0.3,0,0.6,0,0.9
			c0.1,0.8,0.2,1.7,0.2,2.5c0,0.2-0.1,0.5-0.1,0.7c0,0.4,0.1,0.8,0.2,1.2c0,0.2-0.1,0.3,0,0.4c0,0,0,0.1,0,0.1c0,0,0,0,0,0
			c-0.1,0-0.2-0.1-0.3-0.1l-0.1,0c0,0,0,0-0.1,0l-0.2,0c-0.2,0-0.4,0-0.7,0c-0.2,0.2-0.4,0-0.6,0.2c-0.6-0.2-1.4-0.1-1.9,0.1
			c-0.3-0.1-0.8,0-1.2,0C52.6,73.7,52,73.9,51.4,73.9z"/>
		<path class="st0" d="M24.1,70.3l0-0.5l0-0.6c0-0.4,0-0.8,0-1.2c0-0.8,0-1.5,0-2.1c0-0.4-0.1-0.7,0-1.1c0.1-0.8,0.2-1.8,0.1-2.6
			c0-0.1-0.1-0.2-0.1-0.3c-0.1-0.7,0.1-1.5,0-2.2c-0.1-0.5,0.1-1,0-1.5c0-0.2,0-0.3-0.1-0.5c0-0.2-0.1-0.2-0.1-0.3l0-0.1
			c0-0.1,0.2-0.4,0.3-0.6c0.1-0.2,0.2-0.4,0.4-0.6c0.3-0.4,0.5-0.8,0.7-1.2c0.3-0.6,0.7-1.3,1-1.8c0.2-0.2,0.3-0.5,0.5-0.7
			c0.1-0.1,0.2-0.1,0.3-0.2c0.2-0.2,0.3-0.6,0.6-0.9c0.3-0.5,0.7-0.8,0.8-1.1c0.1-0.3,0-1.2-0.3-1.3c-0.2-0.2-0.9-0.2-1.1,0
			c-0.3,0.2-0.5,0.6-0.8,0.8c-0.6,1.2-1.3,2.5-1.9,3.6c-0.4,0.7-0.9,1.4-1.3,2.1C23,55.5,23,55.8,22.8,56c-0.2,0.3-0.4,0.7-0.6,1
			c0,0.4,0,0.7,0,1c0,0.2,0,0.4,0.1,0.6c0.1,0.4,0,0.8,0,1.3c0,0.6,0.1,1.2,0.2,1.7c-0.3,0.7,0,1.9-0.1,2.8c-0.1,1,0,2.1,0,3.1
			c0,0.5,0.1,1.1,0.1,1.6c0,0.3,0,0.5,0,0.8c0,0.4,0,0.8-0.1,1.2c0,0.3,0.1,0.7,0.1,1c0.3,0.1,0.7,0.2,1,0.3
			c0.3,0.1,0.6,0.2,0.8,0.3c0.3,0.1,0.5,0.1,0.8,0.1c0.8,0.2,1.5,0.5,2.2,0.7c0.2,0,0.4,0,0.5,0c0.2,0,0.3,0.2,0.4,0.2
			c0.3,0.1,0.6,0.1,0.8,0.2c0.9,0.2,1.7,0.4,2.4,0.7c0.2,0,0.4,0,0.6,0.1l0.3,0.1c0.2,0.1,0.4,0.1,0.6,0.2c0.8,0.2,1.6,0.6,2.4,0.8
			c0-0.2,0-0.4,0-0.6c0-0.2-0.1-0.6-0.1-0.8c0-0.5,0-1.1,0-1.6c0-0.3,0-0.7,0-0.9c0-0.4-0.1-0.7-0.1-1.1c0-0.1,0.1-0.3,0.1-0.5
			c0-0.4-0.1-0.8-0.1-1.2c0-0.7,0-1.4,0-2.2c0-0.2-0.2,0-0.2-0.2c0.1-0.4,0.2-0.9,0.3-1.4c0.1-0.8-0.1-1.6-0.1-2.3
			c0-0.4,0.2-0.7,0-1c0.3-1,0.1-2.6,0-3.7c-0.2-0.3-0.2-0.9-0.4-1.2c0.1-0.9-0.6-1.5-1.2-0.9c-0.1,0.4-0.3,0.6-0.3,1
			c0,0.4,0.2,0.9,0.2,1.3c0,0.2-0.1,0.4-0.1,0.6c0,0.3,0.1,0.7,0.1,1.1c0,0.2-0.1,0.3-0.1,0.5c0,0.2,0.1,0.3,0.1,0.5
			c0,0.2-0.1,0.4-0.1,0.6c0,0.1,0.1,0.3,0.1,0.4c0,1-0.3,2.1,0,3c-0.3,0.3-0.1,0.6-0.1,0.9c0,0.4-0.2,0.9-0.1,1.3
			c0,0.1,0.1,0.2,0.1,0.4c0,0.2-0.1,0.3-0.1,0.5c0,0.2,0.1,0.3,0.1,0.5c0.1,0.3,0,0.7,0,1.1c0,0.5,0.1,1,0.1,1.6l0.1,0.8l0,0.4
			l0,0.2l0,0.1c0,0.1-0.1,0.1-0.1,0.2c0,0,0,0.1,0,0.2c0,0-0.1,0.1-0.2,0.1c-0.1,0-0.2,0-0.2-0.1c0,0-0.2-0.1-0.3-0.1
			c-0.1,0-0.2-0.1-0.4-0.1c-0.1,0-0.3,0-0.4,0c-0.3-0.1-0.5-0.3-0.8-0.3c-0.6-0.1-1.1-0.1-1.6-0.4c-0.3,0.2-0.5-0.1-0.8,0
			c-0.6-0.4-1.6-0.6-2.3-0.6c-0.4-0.2-1-0.3-1.4-0.4c-0.5-0.3-0.6-0.3-0.9-0.4C24.1,70.6,24.1,70.5,24.1,70.3z"/>
		<g>
			<polygon class="st0" points="27.6,47.9 48.9,47.9 57.5,57.7 34.7,57.7 			"/>
			<path class="st0" d="M52.2,57.1c-2,0.1-4.2,0-5.8,0c-0.5,0-0.9,0.1-1.4,0c-1.1-0.1-2.3-0.2-3.4-0.1c-0.1,0-0.3,0.1-0.4,0.1
				c-0.9,0.1-1.9-0.1-2.9,0c-0.7,0.1-1.2-0.1-1.9,0c-0.3,0-0.5,0-0.7,0.1c-0.2,0-0.4,0.1-0.5,0.1l-0.3,0c-0.1-0.2-0.2-0.3-0.4-0.5
				L34,56c-0.3-0.5-0.6-0.9-1-1.4c-0.5-0.7-1.1-1.4-1.6-2.2c-0.2-0.3-0.5-0.6-0.6-0.9c-0.1-0.1-0.1-0.3-0.1-0.4
				c-0.2-0.3-0.5-0.7-0.8-1.2c-0.4-0.6-0.6-1.2-0.8-1.5c-0.3-0.3-1.2-0.7-1.5-0.5c-0.2,0.1-0.5,0.8-0.4,1.1c0.1,0.4,0.5,0.9,0.6,1.3
				c1.1,1.4,2.2,2.9,3.2,4.2c0.6,0.8,1.2,1.7,1.9,2.7c0.1,0.1,0.2,0.2,0.3,0.4l0.2,0.2l0.1,0.1l0.1,0.2c0.2,0.3,0.4,0.6,0.6,0.8
				c0.6,0,1.2,0,1.8,0c0.4,0,0.7,0,1-0.1c0.5-0.1,1,0,1.6,0c0.7,0,1.5-0.1,2.2-0.2c0.9,0.3,2.5,0,3.6,0.1c2.6,0.2,5.4-0.2,8.1,0
				c0.7-0.1,1.5,0,2.1,0c0.7,0,1.3-0.1,1.9-0.1c1,0,2.2,0,3.4,0c-0.5-0.5-0.9-1.1-1.4-1.6c-0.3-0.3-0.7-0.6-1-0.9
				c-0.3-0.3-0.4-0.6-0.7-0.9c-0.1-0.1-0.2-0.2-0.3-0.4l-0.2-0.2l-0.1-0.1c-0.1-0.1-0.3-0.3-0.4-0.4c-0.9-0.9-1.6-1.6-2.1-2.4
				c-0.4-0.3-0.9-0.8-1.2-1.3C52,50,51.6,49.4,51,48.9c-0.1-0.1-0.3-0.2-0.4-0.3c-0.2-0.2-0.4-0.4-0.5-0.6c-0.3-0.3-0.5-0.6-0.8-0.9
				c-0.4,0-0.8,0-1.2,0c-0.5,0-0.9,0.1-1.4,0.1c-0.2,0-0.4-0.1-0.6-0.1c-0.5,0-1.1,0.1-1.6,0.1c-0.9,0-1.9,0-2.8,0
				c-0.2,0-0.1,0.2-0.3,0.2c-0.5-0.1-1.1-0.2-1.7-0.3c-1-0.1-2,0.1-3,0.1c-0.5,0-0.9-0.2-1.3,0c-1.4-0.3-3.4-0.1-4.8,0
				c-0.4,0.2-1.2,0.2-1.5,0.4c-1.1-0.1-1.9,0.6-1.2,1.2c0.5,0.1,0.7,0.3,1.3,0.3c0.5,0,1.1-0.2,1.6-0.2c0.3,0,0.5,0.1,0.8,0.1
				c0.4,0,0.9-0.1,1.4-0.1c0.2,0,0.4,0.1,0.6,0.1c0.2,0,0.4-0.1,0.6-0.1c0.2,0,0.5,0.1,0.7,0.1c0.2,0,0.3-0.1,0.5-0.1
				c1.3,0,2.8,0.3,3.9,0c0.4,0.3,0.8,0.1,1.2,0.1c0.6,0,1.1,0.2,1.6,0.2c0.2,0,0.3-0.1,0.5-0.1c0.2,0,0.4,0.1,0.6,0.1
				c0.2,0,0.4-0.1,0.6-0.1c0.4-0.1,0.9,0,1.4,0c1-0.1,2-0.1,3.1-0.2c0,0,0.1,0.1,0.1,0.1c0.3,0.3,0.4,0.6,0.7,0.9
				c0.4,0.5,0.9,0.9,1.4,1.4c0.5,0.4,0.8,1,1.3,1.5c0.1,0.1,0.3,0.2,0.4,0.3c0.2,0.3,0.4,0.6,0.6,0.8c0.5,0.5,1.1,1,1.5,1.6
				c0.3,0,0.5,0.5,0.7,0.5c0.1,0.4,0.2,0.5,0.8,0.9c0,0,0,0.1,0,0.1c-0.4-0.1-0.7,0-1.1,0c-0.1,0-0.1-0.1-0.2-0.1l-0.1,0l-0.2,0
				c-0.2,0-0.5,0-0.7,0C53.2,57,52.7,57.1,52.2,57.1z"/>
		</g>
		<g>
			<rect x="44.6" y="61.9" class="st2" width="4.8" height="12.5"/>
			<path class="st0" d="M47.1,62.4c0.4,0,0.8,0,1.2,0c0.2,0,0.5,0,0.7,0c0,0.1,0,0.3,0,0.4c0,0.1,0,0.1,0,0.2c0,0.1,0,0.2,0,0.3
				c0,0.5-0.1,1.2-0.1,1.7c0,0.1,0.1,0.1,0.1,0.2c0.1,0.4-0.1,1,0,1.4c0,0.3,0,0.6,0,1c0,0.3,0.1,0.5,0.1,0.7c0.1,0.6,0,1.3,0,1.9
				c0,0.4,0,0.9,0,1.4c0,0.2,0,0.4,0,0.6c0,0.1-0.1,0.1-0.1,0.2c0,0.2,0,0.5,0,0.7c0,0.4-0.2,0.7-0.1,0.9c0,0.2,0.4,0.6,0.7,0.7
				c0.2,0,0.6-0.2,0.7-0.3c0.1-0.2,0.1-0.5,0.2-0.7c-0.1-0.9-0.1-1.8-0.1-2.7c0-0.5,0-1.1,0.1-1.6c0-0.2-0.1-0.3-0.1-0.5
				c0-0.5,0.1-1,0-1.4c-0.1-0.3,0-0.5,0-0.8c0-0.4-0.1-0.7-0.1-1.1c0.2-0.5,0-1.2,0.1-1.8c0-0.1,0-0.3,0-0.4c0-0.1,0-0.2,0-0.6
				c0-0.5,0-1.1,0-1.6c-0.7,0-1.4,0-2.1,0.1c-0.4,0-0.8,0-1.2-0.1c-0.3,0.1-0.7,0-1.1,0c-0.2,0-0.3,0.1-0.7,0.1c-0.5,0-0.9,0-1.4,0
				c0,0.4,0,0.9,0,1.3c0,0.2,0.1,0.5,0.1,0.6c0,0.1-0.1,0.2-0.1,0.3c0,0.2,0,0.4,0.1,0.6c0.1,0.6,0.1,1.1,0,1.6
				c0.1,0.2,0.1,0.6,0.1,0.9c0,0.4-0.1,0.8,0,1.1c0,0.1,0.1,0.2,0.1,0.3c0,0.4,0,0.9,0,1.2c0,0.2,0.1,0.5,0.1,0.7
				c0,0.1-0.1,0.2-0.1,0.3c0,0.3,0.1,0.5,0.1,0.8c0,0.4,0,0.9,0,1.4c0,0.1,0.1,0,0.1,0.1c-0.1,0.3-0.2,0.6-0.2,0.9
				c0,0.1,0,0.2,0,0.3c0,0.2,0,0.3,0,0.5c0,0.3,0,0.7,0.1,1c0.1,0,0.2,0,0.3,0c0.3,0,0.7,0.1,1,0c0.8,0.2,1.7,0.1,2.5,0
				c0.2-0.2,0.6-0.1,0.8-0.3c0.6,0,1-0.5,0.6-0.9c-0.2-0.1-0.4-0.3-0.6-0.3c-0.3,0-0.6,0.1-0.8,0.1c-0.1,0-0.3-0.1-0.4-0.1
				c-0.2,0-0.5,0.1-0.7,0.1c-0.1,0-0.2-0.1-0.3-0.1c-0.1,0-0.2,0.1-0.3,0.1c-0.1,0-0.2-0.1-0.4-0.1c0,0-0.1,0-0.1,0c0,0,0,0,0,0
				c-0.1,0-0.1,0-0.1-0.1c0,0,0-0.1,0-0.1c0,0,0,0,0,0c0,0,0,0-0.1-0.1c0.2-0.2,0.1-0.4,0.1-0.6c0-0.3,0.1-0.6,0.1-0.8
				c0-0.1-0.1-0.2-0.1-0.2c0-0.1,0.1-0.2,0.1-0.3c0-0.1-0.1-0.2-0.1-0.3c0-0.2,0-0.5,0-0.7c0-0.7-0.2-1.3-0.1-2.1
				c0-0.2,0.1-0.4,0.1-0.6c0-0.3-0.1-0.7-0.1-1c0-0.3,0.1-0.7,0-1c0-0.1-0.1-0.2-0.1-0.3c0-0.2,0.1-0.4,0.1-0.5
				c0-0.4-0.1-0.7-0.1-1.1c-0.2-0.1,0-0.3-0.1-0.5c0.1-0.6,0.1-0.6,0-1l0,0c0.2,0,0.3,0,0.6,0C46.1,62.5,46.6,62.4,47.1,62.4z"/>
		</g>
		<g>
			<rect x="52.7" y="61.9" class="st2" width="3" height="7.4"/>
			<path class="st0" d="M54.2,62.4c0.6,0,0.8,0,1,0c0,0.1,0,0.1,0,0.2c0,0.1,0,0.1,0,0.2c0,0,0,0.1,0,0.1c0,0.1,0,0.2,0,0.2
				c0,0.2,0,0.3,0,0.5c0,0,0.1,0.1,0.1,0.1c0.1,0.3-0.1,0.6,0,0.9c0,0.2,0,0.4,0,0.6c0,0.2,0.1,0.3,0.1,0.4c0.1,0.4,0,0.8,0,1.1
				c0,0.3,0,0.5,0,0.8c0,0.1,0,0.2,0,0.3c0,0-0.1,0.1-0.1,0.1c0,0.1,0,0.3,0,0.4c0,0.2-0.2,0.4-0.1,0.5c0,0.1,0.4,0.4,0.7,0.4
				c0.2,0,0.6-0.1,0.7-0.2c0.1-0.1,0.1-0.3,0.2-0.4c-0.1-0.5-0.1-1.1-0.1-1.6c0-0.3,0-0.6,0.1-1c0-0.1-0.1-0.2-0.1-0.3
				c0-0.3,0.1-0.6,0-0.8c-0.1-0.2,0-0.3,0-0.5c0-0.2-0.1-0.4-0.1-0.7c0.1-0.1,0.1-0.3,0.1-0.5c0-0.1,0-0.2,0-0.3c0-0.1,0-0.1,0-0.4
				c0.1-0.6,0-1.2,0-1.7c-0.5,0-1,0-1.5,0.1c-0.1,0-0.2,0-0.4,0l-0.2,0c-0.1,0-0.3,0-0.4-0.1c-0.2,0.1-0.4,0-0.8,0
				c-0.2,0-0.4,0.1-0.6,0.1c-0.3,0-0.6,0-0.9,0c0,0.3,0,0.5,0,0.8c0,0.1,0.1,0.3,0.1,0.4c0,0.1-0.1,0.2-0.1,0.3c0,0.1,0,0.2,0,0.3
				c0,0.1,0,0.1,0,0.2c0.1,0.4,0.1,0.7,0,1c0.1,0.1,0.1,0.4,0.1,0.5c0,0.2-0.1,0.5,0,0.7c0,0,0.1,0.1,0.1,0.2c0,0.2,0,0.5,0,0.7
				c0,0.1,0.1,0.3,0.1,0.4c0,0.1-0.1,0.1-0.1,0.2c0,0.2,0.1,0.3,0.1,0.5c0,0.3,0,0.6,0,0.8c0,0.1,0.1,0,0.1,0.1
				c0,0.1-0.1,0.2-0.1,0.3c0,0.1-0.1,0.3-0.1,0.4c0,0.4,0,0.7,0.1,1c0.1,0,0.2,0,0.4,0c0.2,0,0.4,0.1,0.6,0c0.1,0.1,0.3,0.1,0.5,0.1
				c0.2,0,0.3,0,0.4,0c0.3,0,0.5-0.1,0.7-0.1c0.1-0.2,0.4-0.1,0.5-0.3c0.3,0,0.6-0.5,0.3-0.9c-0.1-0.1-0.2-0.3-0.4-0.3
				c-0.2,0-0.3,0.1-0.5,0.1c-0.1,0-0.2-0.1-0.2-0.1c-0.1,0-0.3,0.1-0.4,0.1c-0.1,0-0.1-0.1-0.2-0.1c-0.1,0-0.1,0.1-0.2,0.1
				c0,0,0-0.1,0-0.1c0,0,0,0.1,0,0.1c0,0,0,0,0-0.1c0,0,0,0-0.1,0c0.2-0.1,0.1,0,0.1-0.1c0-0.1,0.1-0.3,0.1-0.4
				c0-0.1-0.1-0.1-0.1-0.1c0-0.1,0.1-0.1,0.1-0.2c0-0.1-0.1-0.1-0.1-0.2c0-0.1,0-0.3,0-0.4c0-0.4-0.2-0.8-0.1-1.2
				c0-0.1,0.1-0.2,0.1-0.3c0-0.2-0.1-0.4-0.1-0.6c0-0.2,0.1-0.4,0-0.6c0-0.1-0.1-0.1-0.1-0.2c0-0.1,0.1-0.2,0.1-0.3
				c0-0.2-0.1-0.4-0.1-0.7c-0.2-0.1,0-0.2-0.1-0.2c0.1-0.1,0.1-0.2,0-0.4l0,0c0.1,0,0.2,0,0.3,0c0.1,0.1,0.1,0.1,0.3,0.1
				C53.9,62.4,54,62.4,54.2,62.4z"/>
		</g>
		<g>
			<rect x="38.3" y="61.9" class="st2" width="3" height="7.4"/>
			<path class="st0" d="M39.8,62.4c0.6,0,0.8,0,1,0c0,0.1,0,0.1,0,0.2c0,0.1,0,0.1,0,0.2c0,0,0,0.1,0,0.1c0,0.1,0,0.2,0,0.2
				c0,0.2,0,0.3,0,0.5c0,0,0.1,0.1,0.1,0.1c0.1,0.3-0.1,0.6,0,0.9c0,0.2,0,0.4,0,0.6c0,0.2,0.1,0.3,0.1,0.4c0.1,0.4,0,0.8,0,1.1
				c0,0.3,0,0.5,0,0.8c0,0.1,0,0.2,0,0.3c0,0-0.1,0.1-0.1,0.1c0,0.1,0,0.3,0,0.4c0,0.2-0.2,0.4-0.1,0.5c0,0.1,0.4,0.4,0.7,0.4
				c0.2,0,0.6-0.1,0.7-0.2c0.1-0.1,0.1-0.3,0.2-0.4c-0.1-0.5-0.1-1.1-0.1-1.6c0-0.3,0-0.6,0.1-1c0-0.1-0.1-0.2-0.1-0.3
				c0-0.3,0.1-0.6,0-0.8c-0.1-0.2,0-0.3,0-0.5c0-0.2-0.1-0.4-0.1-0.7c0.1-0.1,0.1-0.3,0.1-0.5c0-0.1,0-0.2,0-0.3c0-0.1,0-0.1,0-0.4
				c0.1-0.6,0-1.2,0-1.7c-0.5,0-1,0-1.5,0.1c-0.1,0-0.2,0-0.4,0l-0.2,0c-0.1,0-0.3,0-0.4-0.1c-0.2,0.1-0.4,0-0.8,0
				c-0.2,0-0.4,0.1-0.6,0.1c-0.3,0-0.6,0-0.9,0c0,0.3,0,0.5,0,0.8c0,0.1,0.1,0.3,0.1,0.4c0,0.1-0.1,0.2-0.1,0.3c0,0.1,0,0.2,0,0.3
				c0,0.1,0,0.1,0,0.2c0.1,0.4,0.1,0.7,0,1c0.1,0.1,0.1,0.4,0.1,0.5c0,0.2-0.1,0.5,0,0.7c0,0,0.1,0.1,0.1,0.2c0,0.2,0,0.5,0,0.7
				c0,0.1,0.1,0.3,0.1,0.4c0,0.1-0.1,0.1-0.1,0.2c0,0.2,0.1,0.3,0.1,0.5c0,0.3,0,0.6,0,0.8c0,0.1,0.1,0,0.1,0.1
				c0,0.1-0.1,0.2-0.1,0.3c0,0.1-0.1,0.3-0.1,0.4c0,0.4,0,0.7,0.1,1c0.1,0,0.2,0,0.4,0c0.2,0,0.4,0.1,0.6,0c0.1,0.1,0.3,0.1,0.5,0.1
				c0.2,0,0.3,0,0.4,0c0.3,0,0.5-0.1,0.7-0.1c0.1-0.2,0.4-0.1,0.5-0.3c0.3,0,0.6-0.5,0.3-0.9c-0.1-0.1-0.2-0.3-0.4-0.3
				c-0.2,0-0.3,0.1-0.5,0.1c-0.1,0-0.2-0.1-0.2-0.1c-0.1,0-0.3,0.1-0.4,0.1c-0.1,0-0.1-0.1-0.2-0.1c-0.1,0-0.1,0.1-0.2,0.1
				c0,0,0-0.1,0-0.1c0,0,0,0.1,0,0.1c0,0,0,0,0-0.1c0,0,0,0-0.1,0c0.2-0.1,0.1,0,0.1-0.1c0-0.1,0.1-0.3,0.1-0.4
				c0-0.1-0.1-0.1-0.1-0.1c0-0.1,0.1-0.1,0.1-0.2c0-0.1-0.1-0.1-0.1-0.2c0-0.1,0-0.3,0-0.4c0-0.4-0.2-0.8-0.1-1.2
				c0-0.1,0.1-0.2,0.1-0.3c0-0.2-0.1-0.4-0.1-0.6c0-0.2,0.1-0.4,0-0.6c0-0.1-0.1-0.1-0.1-0.2c0-0.1,0.1-0.2,0.1-0.3
				c0-0.2-0.1-0.4-0.1-0.7c-0.2-0.1,0-0.2-0.1-0.2c0.1-0.1,0.1-0.2,0-0.4l0,0c0.1,0,0.2,0,0.3,0c0.1,0.1,0.1,0.1,0.3,0.1
				C39.5,62.4,39.7,62.4,39.8,62.4z"/>
		</g>
		<g>
			<polygon class="st2" points="29.3,68.2 26.9,67.5 26.9,60.2 29.3,60.9 			"/>
			<path class="st0" d="M28.1,61c0.4,0.1,0.5,0.1,0.7,0.2c0,0.1,0,0.2,0,0.3c0,0,0,0.2,0,0.3c0,0.3-0.1,0.7-0.1,1
				c0,0,0.1,0.1,0.1,0.1c0.1,0.2-0.1,0.5,0,0.8c0,0.2,0,0.4,0,0.5c0,0.1,0.1,0.3,0.1,0.4c0.1,0.4,0,0.7,0,1.1c0,0.2,0,0.5,0,0.8
				c0,0.1,0,0.2,0,0.3c0,0-0.1,0.1-0.1,0.1c0,0.1,0,0.3,0,0.4c0,0.2-0.2,0.4-0.1,0.5c0,0.1,0.4,0.4,0.7,0.4c0.2,0,0.6-0.1,0.7-0.2
				c0.1-0.1,0.1-0.3,0.2-0.4c-0.1-0.5-0.1-1-0.1-1.5c0-0.3,0-0.6,0.1-0.9c0-0.1-0.1-0.2-0.1-0.3c0-0.3,0.1-0.6,0-0.8
				c-0.1-0.1,0-0.3,0-0.5c0-0.2-0.1-0.4-0.1-0.6c0.2-0.3,0-0.7,0.1-1c0-0.1,0-0.2,0-0.3l0-0.1l0-0.3c0-0.4,0-0.8-0.1-1.1
				c-0.7-0.2-1.5-0.4-1.7-0.5c-0.3,0-0.7-0.2-1.1-0.3c-0.2-0.1-0.3,0-0.5-0.1c-0.2,0-0.5-0.1-0.8-0.2c0,0.2,0,0.5,0,0.7
				c0,0.1,0.1,0.3,0.1,0.4c0,0.1-0.1,0.2-0.1,0.3c0,0.2,0,0.4,0.1,0.6c0,0.2,0,0.5,0.1,0.6c0,0.2,0,0.3-0.1,0.4
				c0.1,0.1,0.1,0.3,0.1,0.5c0,0.2-0.1,0.4,0,0.6c0,0,0.1,0.1,0.1,0.2c0,0.2,0,0.5,0,0.7c0,0.1,0.1,0.3,0.1,0.4
				c0,0.1-0.1,0.1-0.1,0.2c0,0.1,0.1,0.3,0.1,0.5c0,0.2,0,0.5,0,0.8c0,0.1,0.1,0,0.1,0.1c-0.1,0.1-0.2,0.3-0.2,0.5
				c0,0.1,0,0.1,0,0.2c0,0.1,0,0.2,0,0.3c0,0.2,0.1,0.4,0.1,0.6c0,0.1,0,0.1,0,0.2c0.1,0.1,0.2,0.1,0.4,0.1c0.1,0.1,0.3,0.2,0.4,0.2
				c0.1,0,0.2,0.1,0.3,0.1c0.1,0,0.1,0,0.2,0c0.2,0.1,0.5,0.1,0.7,0.1c0.2-0.1,0.4,0,0.5-0.2c0.3,0.1,0.6-0.3,0.6-0.8
				c-0.1-0.1-0.1-0.3-0.3-0.3c-0.1-0.1-0.3,0.1-0.5,0c-0.1,0-0.1-0.1-0.2-0.1c-0.1,0-0.3,0-0.4,0c-0.1,0-0.1-0.1-0.2-0.1
				c-0.1,0-0.1,0.1-0.1,0.1c0,0,0-0.1,0-0.1c0,0,0,0-0.1,0c0,0,0,0,0,0c0,0,0.1-0.1,0.1-0.1c0,0,0,0-0.1-0.1
				c0.2-0.1,0.1-0.2,0.1-0.3c0-0.2,0.1-0.3,0.1-0.5c0,0-0.1-0.1-0.1-0.1c0-0.1,0.1-0.1,0.1-0.2c0-0.1-0.1-0.1-0.1-0.2
				c0-0.1,0-0.3,0-0.4c0-0.4-0.2-0.8-0.1-1.2c0-0.1,0.1-0.2,0.1-0.3c0-0.2-0.1-0.4-0.1-0.6c0-0.2,0.1-0.4,0-0.6c0,0-0.1-0.1-0.1-0.2
				c0-0.1,0.1-0.2,0.1-0.3c0-0.2-0.1-0.5-0.1-0.5c-0.2-0.1,0-0.1-0.1-0.2c0.1,0,0.1-0.1,0-0.4l0,0c0.1,0.1,0.2,0.1,0.3,0.1
				C27.8,61.1,27.8,60.9,28.1,61z"/>
		</g>
		<g>
			<rect x="44.2" y="43.3" class="st2" width="2.8" height="8.4"/>
			<path class="st0" d="M45.8,43.7c0.1,0,0.3,0,0.4,0c0.1,0,0.2,0,0.3,0c0,0.2,0,0.3,0,0.4c0,0.1,0,0.2,0,0.3c0,0.3-0.1,0.7-0.1,1.1
				c0,0,0.1,0.1,0.1,0.1c0.1,0.3-0.1,0.6,0,0.9c0,0.2,0,0.4,0,0.6c0,0.2,0.1,0.3,0.1,0.4c0.1,0.4,0,0.8,0,1.2c0,0.3,0,0.6,0,0.9
				c0,0.1,0,0.3,0,0.4c0,0-0.1,0.1-0.1,0.1c0,0.1,0,0.3,0,0.5c0,0.2-0.2,0.4-0.1,0.5c0,0.1,0.4,0.4,0.7,0.4c0.2,0,0.6-0.1,0.7-0.2
				c0.1-0.1,0.1-0.3,0.2-0.4c-0.1-0.6-0.1-1.2-0.1-1.7c0-0.3,0-0.7,0.1-1c0-0.1-0.1-0.2-0.1-0.3c0-0.3,0.1-0.6,0-0.9
				c-0.1-0.2,0-0.3,0-0.5c0-0.2-0.1-0.5-0.1-0.7c0.2-0.3,0-0.8,0.1-1.2c0-0.1,0-0.2,0-0.3c0-0.1,0-0.4,0-0.6c0-0.4,0-0.9-0.1-1.3
				c-0.4,0-0.8,0-1.2,0c-0.2,0-0.4,0-0.6,0c-0.2,0-0.2,0-0.3,0c-0.1,0.1-0.2,0.1-0.3,0c-0.1,0-0.1,0-0.2,0c-0.1,0-0.2,0-0.3,0
				c-0.2,0-0.4,0.1-0.6,0.1c-0.3,0-0.6,0-0.9,0c0,0.3,0,0.6,0,0.8c0,0.1,0.1,0.3,0.1,0.4c0,0.1-0.1,0.2-0.1,0.4c0,0.1,0,0.1,0,0.2
				c0,0,0,0.1,0,0.1c0,0.1,0,0.1,0,0.2c0.1,0.4,0.1,0.7,0,1c0.1,0.2,0.1,0.4,0.1,0.6c0,0.2-0.1,0.5,0,0.7c0,0.1,0.1,0.1,0.1,0.2
				c0,0.2,0,0.6,0,0.8c0,0.1,0.1,0.3,0.1,0.4c0,0.1-0.1,0.1-0.1,0.2c0,0.2,0.1,0.3,0.1,0.5c0,0.3,0,0.6,0,0.9c0,0.1,0.1,0,0.1,0.1
				c-0.1,0.2-0.2,0.4-0.2,0.6c0,0.1,0,0.4,0,0.7c0,0.3,0.1,0.5,0.1,0.7c0,0.1,0,0.2,0,0.3c0.1,0,0.2,0,0.4,0
				c0.2,0.1,0.7,0.1,1.1,0.1c0.3,0,0.6-0.1,0.8-0.1c0.1-0.2,0.4-0.1,0.5-0.3c0.4,0,0.6-0.5,0.4-0.9c-0.2-0.1-0.2-0.3-0.4-0.3
				c-0.2,0-0.4,0.1-0.5,0.1c-0.1,0-0.2-0.1-0.3-0.1c-0.1,0-0.3,0.1-0.4,0.1c-0.1,0-0.1-0.1-0.1-0.1c0,0,0,0.1,0,0.1c0,0,0-0.1,0-0.1
				c0,0-0.1,0.1-0.1,0.1c0,0,0,0,0,0c0-0.1,0.1-0.1,0-0.2c0.2-0.1,0.1-0.3,0.1-0.4c0-0.2,0.1-0.4,0.1-0.5c0-0.1-0.1-0.1-0.1-0.2
				c0-0.1,0.1-0.1,0.1-0.2c0-0.1-0.1-0.1-0.1-0.2c0-0.1,0-0.3,0-0.5c0-0.4-0.2-0.9-0.1-1.3c0-0.1,0.1-0.2,0.1-0.4
				c0-0.2-0.1-0.4-0.1-0.6c0-0.2,0.1-0.4,0-0.6c0-0.1-0.1-0.1-0.1-0.2c0-0.1,0.1-0.2,0.1-0.3c0-0.2-0.1-0.5-0.1-0.7
				c-0.2-0.1,0-0.2-0.1-0.3c0.1-0.1,0.1-0.2,0-0.5l0,0c0.1,0,0.2,0,0.3,0C45.1,43.9,45.5,43.8,45.8,43.7z"/>
		</g>
		<g>
			<polygon class="st2" points="44.2,51.7 42.2,48.5 42.2,43.3 44.2,43.3 			"/>
			<path class="st0" d="M43.8,43.8c0,0.1,0,0.3,0,0.5c0,0.3,0,0.5,0,0.8c0,0.1,0,0.3,0,0.4c0,0.3-0.1,0.6-0.1,0.9
				c0,0,0.1,0.1,0.1,0.1c0.1,0.2-0.1,0.5,0,0.8c0,0.2,0,0.3,0,0.5c0,0.1,0.1,0.3,0.1,0.4c0.1,0.4,0,0.7,0,1c0,0.2,0,0.5,0,0.8
				c0,0.1,0,0.2,0,0.3c0,0-0.1,0.1-0.1,0.1c0,0.1,0,0.3,0,0.4c0,0.2-0.2,0.4-0.1,0.5c0,0.1,0.4,0.4,0.7,0.4c0.2,0,0.6-0.1,0.7-0.2
				c0.1-0.1,0.1-0.3,0.2-0.4c-0.1-0.5-0.1-1-0.1-1.5c0-0.3,0-0.6,0.1-0.9c0-0.1-0.1-0.2-0.1-0.3c0-0.3,0.1-0.5,0-0.8
				c-0.1-0.1,0-0.3,0-0.5c0-0.2-0.1-0.4-0.1-0.6c0.2-0.3,0-0.7,0.1-1c0.1-0.4,0-0.7,0-1.1c0-0.1,0-0.6,0-0.9c0-0.4,0-0.7,0.1-1.1
				l0-0.1c-0.4,0.1-0.7,0-1,0c-0.2,0-0.4,0.1-0.6,0.1c-0.4,0.1-1.1-0.1-1.5,0c-0.1,0-0.2,0.1-0.3,0.1c-0.1,0-0.2,0-0.2,0
				c0,0,0,0.1,0,0.1c0,0.2,0,0.4,0.1,0.6c0.1,0.6,0.1,1.2,0,1.4c0.1,0.1,0.1,0.3,0.1,0.5c0,0.2-0.1,0.4,0,0.6c0,0,0.1,0.1,0.1,0.1
				c0,0.2,0,0.5,0,0.7c0,0.1,0.1,0.3,0.1,0.4c0,0.1-0.1,0.1-0.1,0.2c0,0.1,0.1,0.3,0.1,0.4c0,0.3,0,0.5,0,0.8c0,0.1,0.1,0,0.1,0.1
				c0,0.1-0.1,0.1-0.1,0.2c0,0.1,0.1,0.4,0.2,0.5c0.1,0.3,0.4,0.4,0.5,0.7c0.1,0.1,0,0.3,0.2,0.3c0,0.4,0.4,0.8,0.7,1.1
				c0.2,0,0.3,0.2,0.5,0.2c0.1,0.3,0.7,0.2,1-0.2c0-0.2,0.1-0.3,0-0.4c-0.1-0.1-0.3-0.2-0.4-0.3c0-0.1,0-0.2,0-0.2
				c-0.1-0.1-0.2-0.2-0.3-0.3c0-0.1,0-0.1,0-0.2c0,0-0.1,0-0.2-0.1c0-0.1,0-0.1-0.1-0.2c0,0-0.1-0.1-0.1-0.1
				c-0.2-0.3-0.2-0.8-0.6-0.9c0.1-0.1,0-0.2,0-0.2c0,0-0.1,0-0.1,0c0,0,0,0,0,0c0,0,0.1,0,0.1-0.1c0,0-0.1-0.1-0.1-0.1
				c0-0.1,0.1-0.1,0.1-0.2c0-0.1-0.1-0.1-0.1-0.2c0-0.1,0-0.3,0-0.4c0-0.4-0.2-0.7-0.1-1.2c0-0.1,0.1-0.2,0.1-0.3
				c0-0.2-0.1-0.4-0.1-0.5c0-0.2,0.1-0.4,0-0.5c0,0-0.1-0.1-0.1-0.1c0-0.1,0.1-0.2,0.1-0.3c0,0-0.1-0.2-0.1-0.2
				c-0.2-0.2,0-0.1-0.1-0.2c0,0,0,0,0,0c0.2,0.1,0.2,0,0.3-0.1c0.1,0,0.2,0,0.3,0C43.4,43.9,43.6,43.8,43.8,43.8
				C43.8,43.8,43.8,43.8,43.8,43.8z"/>
		</g>
	</g>
	<g>
		<path class="st0" d="M91.6,54.3c0.8,0.5,1.4,1.3,1.5,1.9c0,0.2,0.1,0.3,0.1,0.5c0,0.4-0.3,0.8-0.5,1.1c0,0,0,0.1,0,0.2
			c-0.1,0.4-0.6,0.5-0.9,0.7c-0.2,0.2-0.5,0.2-0.7,0.3c-0.2,0.1-0.3,0.2-0.5,0.3c-0.5,0.2-1.1,0.1-1.6,0c-0.3-0.1-0.7-0.2-1-0.4
			c-0.1-0.1-0.3-0.2-0.3-0.3c0,0,0-0.2,0-0.2c0-0.1-0.3-0.2-0.3-0.5c-0.1-0.3-0.1-0.5-0.2-0.7c-0.1-0.1-0.8-0.3-1-0.2
			c-0.3,0.1-0.7,0.4-0.8,0.7c-0.1,0.3,0.1,0.6,0.1,0.8c0.5,0.9,1.5,1.8,2.5,2.2c0.3,0.1,0.6,0.2,1,0.3c0.3,0,0.7,0.1,1,0.1
			c0.2,0,0.4-0.1,0.6-0.1c0.6-0.1,1.2-0.1,1.6-0.4c0.2-0.2,0.6-0.2,0.9-0.5c0.4-0.3,0.6-0.7,0.9-1c0.6-0.3,0.9-1.3,1.1-2.1
			c0.1-0.5,0.1-1-0.1-1.5c-0.2-0.5-0.4-0.9-0.7-1.2c-0.5-0.6-1.1-1.1-1.6-1.6c-0.4-0.1-0.6-0.4-0.8-0.6c-0.1-0.1-0.3-0.1-0.5-0.2
			c-0.4-0.2-0.7-0.6-1.1-0.9c-0.1-0.1-0.2,0-0.3-0.1c-0.1-0.1-0.1-0.2-0.2-0.2c-0.1-0.1-0.3-0.2-0.4-0.3c-0.4-0.3-0.7-0.6-0.9-1
			c-0.2-0.1-0.4-0.4-0.5-0.6c-0.1-0.3-0.2-0.6-0.4-0.8c0-0.1-0.1-0.1-0.2-0.2c-0.2-0.3-0.1-0.7-0.1-0.9c0-0.2-0.1-0.3-0.1-0.5
			c0-0.1,0.1-0.1,0.1-0.2c0-0.1,0-0.4,0.1-0.5c0.1-0.1,0.2-0.2,0.3-0.3c0.1-0.1,0.3-0.2,0.4-0.3c0.1,0-0.1-0.2,0-0.2
			c0.2,0,0.5,0,0.8,0c0.4-0.1,0.7-0.3,1.1-0.3c0.2,0,0.3,0.2,0.5,0.1c0.4,0.4,1,0.6,1.5,1c0.3,0,0.4,0.3,0.7,0.3
			c0.1,0.2,0.3,0.3,0.6,0.4c0.3,0,0.6-0.1,0.8-0.4c0-0.3,0.1-0.5,0-0.8c-0.2-0.3-0.5-0.4-0.7-0.7c-0.1-0.1-0.1-0.3-0.2-0.4
			c-0.2-0.2-0.5-0.3-0.7-0.5c-0.1-0.1-0.2-0.2-0.3-0.3c-0.1-0.1-0.3,0-0.4-0.1c-0.1-0.1-0.2-0.2-0.4-0.2c-0.1,0-0.2,0-0.3,0
			c-0.8-0.2-1.8-0.4-2.3,0c-0.3-0.2-0.5,0.1-0.7,0.1c-0.3,0.1-0.7,0.1-1,0.3c-0.1,0.1-0.1,0.2-0.2,0.3c-0.1,0.1-0.3,0.1-0.4,0.2
			c-0.1,0.1-0.2,0.3-0.2,0.4c-0.2,0.2-0.4,0.5-0.5,0.8c-0.4,0.9-0.3,1.8-0.1,2.6c0,0.2,0,0.5,0.1,0.7c0.1,0.4,0.4,0.6,0.6,0.9
			c0.2,0.3,0.3,0.6,0.5,0.9c0.1,0.1,0.2,0.1,0.2,0.2c0.1,0.2,0.1,0.4,0.3,0.5c0.3,0.3,0.6,0.4,0.8,0.8c0.3-0.1,0.2,0.2,0.5,0.2
			c0.2,0.5,0.8,0.8,1.2,0.9c0.2,0.2,0.5,0.4,0.7,0.5C90.7,53.9,91.2,54,91.6,54.3z"/>
		<path class="st0" d="M89.3,53.7c0.1,0.7,0,1.4,0,1.9c0,0.2,0.1,0.3,0,0.5c0,0.4-0.2,0.8-0.1,1.1c0,0,0.1,0.1,0.1,0.1
			c0.1,0.3-0.1,0.6,0,1c0.1,0.2-0.1,0.4,0,0.6c0,0.2,0.1,0.3,0.2,0.4c0.1,0.4,0,0.9,0,1.3c0,0.3,0.1,0.6,0,0.9c0,0.1,0,0.3,0,0.4
			c0,0-0.1,0.1-0.2,0.1c0,0.1,0,0.3,0,0.5c-0.1,0.2-0.2,0.4-0.2,0.6c0.1,0.1,0.6,0.4,0.9,0.4c0.3,0,0.8-0.1,1-0.2
			c0.2-0.1,0.1-0.3,0.3-0.5c-0.1-0.6-0.1-1.2-0.1-1.8c0-0.3,0-0.7,0.1-1.1c0-0.1-0.1-0.2-0.1-0.3c0-0.3,0.1-0.7,0-0.9
			c-0.1-0.2,0-0.3,0-0.5c0-0.2-0.2-0.5-0.2-0.7c0.3-0.3,0-0.8,0.1-1.2c0.2-0.9-0.3-1.8,0-2.7c-0.1-0.2,0-0.5,0-0.7
			c0-0.1-0.1-0.2-0.1-0.4c-0.1-0.3,0.1-0.7,0-1c0-0.1-0.1-0.2-0.1-0.2c0-0.1,0.1-0.1,0.1-0.2c0-0.1-0.1-0.2-0.1-0.4
			c-0.1-0.4-0.1-0.7,0-1.1c-0.1-0.2-0.1-0.4-0.1-0.6c0-0.2,0.1-0.5,0-0.8c0-0.1-0.1-0.1-0.1-0.2c-0.1-0.3,0-0.6,0-0.8
			c0-0.2-0.1-0.3-0.1-0.5c0-0.1,0.1-0.1,0.1-0.2c0-0.2-0.1-0.4-0.1-0.5c0-0.3,0-0.6-0.1-0.9c0-0.1-0.2,0-0.2-0.1
			c0.1-0.2,0.2-0.4,0.3-0.6c0.1-0.3-0.1-0.7-0.1-1c0-0.2,0.2-0.3,0-0.4c0.3-0.5,0.1-1.1,0-1.6c-0.2-0.1-0.2-0.4-0.4-0.5
			c0.1-0.4-0.6-0.6-1.2-0.4c-0.1,0.2-0.3,0.3-0.3,0.4c0,0.2,0.2,0.4,0.2,0.5c0,0.1-0.1,0.2-0.1,0.3c0,0.1,0.1,0.3,0.1,0.5
			c0,0.1-0.1,0.1-0.1,0.2c0,0.1,0.1,0.1,0.1,0.2c0,0.1-0.1,0.2-0.1,0.2c0,0.1,0.1,0.1,0.1,0.2c0,0.4-0.3,0.9,0,1.3
			c-0.3,0.1-0.1,0.3-0.1,0.4c0,0.2-0.2,0.4-0.1,0.6c0,0.1,0.1,0.1,0.1,0.2c0,0.1-0.1,0.1-0.1,0.2c0,0.1,0.1,0.1,0.1,0.2
			c0.1,0.1,0,0.3,0,0.5c0.1,0.4,0.2,0.9,0.2,1.4c0,0.1-0.1,0.3-0.1,0.4c0,0.2,0.1,0.4,0.2,0.7c0,0.2-0.1,0.4,0,0.7
			c0,0.1,0.1,0.1,0.1,0.2c0,0.1-0.1,0.2-0.1,0.4c0.1,0.2,0.2,0.5,0.1,0.7c0.2,0.1,0,0.2,0.2,0.3c-0.2,0.3-0.1,0.7,0.1,1
			c-0.1,0.2,0,0.4,0,0.6C89.1,53.1,89.3,53.4,89.3,53.7z"/>
	</g>
	<g>
		<path class="st2" d="M97,73.8c0,0.9-0.3,1.8-0.8,2.6c-0.1,0.1,0.7,2.6,0.4,2.8c-0.3,0.2-2.8-0.7-3-0.6c-0.9,0.4-1.9,0.6-3,0.6
			c-3.5,0-6.4-2.4-6.4-5.4s2.9-5.4,6.4-5.4C94.1,68.4,97,70.8,97,73.8z"/>
		<path class="st0" d="M85.1,72.4c0.3-1,1.1-1.8,1.8-2.3c0.2-0.1,0.4-0.3,0.6-0.4c0.5-0.2,1.2-0.3,1.7-0.5c0.1,0,0.1-0.1,0.2-0.2
			c0.5-0.2,1,0,1.5-0.1c0.4,0,0.7,0.1,1,0.1c0.3,0,0.5,0,0.7,0c0.7,0.1,1.3,0.5,1.8,0.9c0.4,0.3,0.8,0.6,1.1,1
			c0.1,0.2,0.2,0.3,0.3,0.5c0,0.1,0,0.2,0,0.3c0.1,0.2,0.2,0.4,0.3,0.7c0.1,0.4,0,0.7,0,0.8c0.1,0.2,0.6,0.6,0.9,0.6
			c0.3,0,0.8-0.2,1-0.5c0.2-0.3,0-0.7,0.1-1c-0.4-1.2-1.2-2.4-2-3.1c-0.5-0.5-1.1-0.9-1.8-1.3c-0.2-0.1-0.4-0.1-0.6-0.2
			c-0.6-0.2-1.2-0.5-1.8-0.4c-0.4,0-0.7-0.1-1.1-0.1c-0.5,0-1,0.2-1.5,0.2c-0.7-0.2-1.6,0.3-2.3,0.6c-0.8,0.3-1.6,0.9-2.2,1.6
			c-0.6,0.7-1.1,1.6-1.5,2.4c0,0.5-0.2,1-0.3,1.5c0,0.2,0.1,0.5,0.1,0.8c0.1,0.7,0.2,1.5,0.5,2.1c0.1,0.1,0.2,0.2,0.3,0.4
			c0.1,0.1,0.1,0.3,0.2,0.4c0.1,0.2,0.3,0.4,0.5,0.6c0.6,0.6,1.2,0.9,1.6,1.4c0.3,0,0.7,0.3,1.1,0.4c0.4,0.2,0.9,0.5,1.4,0.5
			c0.1,0,0.2,0,0.4,0c0.5,0,1.1,0.1,1.5,0.2c0.3,0,0.6-0.1,0.9-0.2c0.1,0,0.3,0,0.4,0c0.3,0,0.6-0.3,1-0.3c0.1,0,0.3-0.1,0.4-0.1
			c0.1-0.1,0.3-0.1,0.3-0.1c0.1-0.1,0.2,0,0.4,0c0.1,0.1,0.1-0.2,0.2-0.1c0.1,0.1,0.2,0.2,0.5,0.3c0.2,0.1,0.5,0.2,0.8,0.3
			c0.4,0.2,0.9,0.2,1.2,0.1c0.1-0.1,0.3-0.1,0.4-0.2c0.1-0.1,0.2-0.3,0.2-0.5c0.1-0.2,0.3-0.6,0-1c0-0.2,0-0.4,0-0.7
			c0-0.1,0-0.3-0.1-0.4l-0.1-0.3l-0.1-0.2l0-0.1c0-0.1,0-0.1,0-0.2c0,0,0.1-0.2,0.1-0.3c0-0.1,0.1-0.3,0.1-0.4
			c-0.1-0.3,0.1-0.8-0.1-1c0.1-0.3,0-0.6-0.3-0.8c-0.2-0.1-0.6-0.1-0.9,0c-0.2,0.2-0.4,0.3-0.4,0.5c-0.1,0.2,0.1,0.5,0,0.7
			c0,0.1-0.2,0.2-0.3,0.3c0,0.1-0.1,0.2-0.1,0.3c0,0.1-0.1,0.2-0.1,0.3l0,0.1l0,0l0,0c0,0,0,0,0,0l0,0l0,0l0,0.1c0,0.2,0,0.4,0,0.6
			c0,0.1,0,0.2,0,0.3c0,0.1,0,0.1,0,0.2c0,0.1,0.1,0.1,0.1,0.2c0,0,0.1,0,0.1,0c0,0-0.1,0-0.1,0.1c0,0,0.1,0,0.1,0.1
			c0,0.1,0,0.1-0.1,0.1c-0.1,0-0.1,0-0.1,0.1c-0.1-0.3-0.1-0.1-0.1-0.1c0,0-0.2-0.1-0.3-0.2c-0.2-0.1-0.3-0.2-0.6-0.2
			c-0.2,0-0.4,0-0.5,0.1c0,0-0.1,0-0.1,0c-0.1-0.1-0.1,0-0.1,0c-0.1,0-0.2,0-0.3,0c0,0-0.1,0-0.1,0c-0.2,0.1-0.2,0.2-0.3,0.3
			c-0.2,0.1-0.4,0.2-0.7,0.2c-0.6,0.2-1.3,0.4-2,0.3c-0.2,0-0.4-0.1-0.6-0.2c-0.3-0.1-0.6,0-1-0.1c-0.3-0.1-0.6-0.3-0.9-0.4
			c-0.1,0-0.2,0-0.3-0.1c-0.2-0.1-0.2-0.3-0.4-0.4c-0.3-0.2-0.7-0.3-0.8-0.7c-0.3,0-0.2-0.2-0.5-0.3c-0.1-0.5-0.4-1-0.7-1.3
			c0-0.3-0.1-0.6-0.2-0.9C85,73.4,84.9,72.9,85.1,72.4z"/>
	</g>
	<path class="st0" d="M115.2,46.5c0.6,0,1.3,0,1.8,0c0.1,0,0.3,0,0.4,0c0.3,0,0.7,0.1,1.1,0.1c0,0,0.1-0.1,0.1-0.1
		c0.3-0.1,0.6,0.1,0.9,0c0.2,0,0.4,0,0.6,0c0.2,0,0.3-0.1,0.4-0.1c0.4-0.1,0.8,0,1.2,0c0.3,0,0.6,0,0.9,0c0.1,0,0.3,0,0.4,0
		c0,0,0.1,0.1,0.1,0.1c0.1,0,0.3,0,0.5,0c0.2,0,0.4,0.2,0.5,0.1c0.1,0,0.4-0.4,0.4-0.7c0-0.2-0.1-0.6-0.2-0.7
		c-0.1-0.1-0.3-0.1-0.4-0.2c-0.6,0.1-1.1,0.1-1.7,0.1c-0.3,0-0.7,0-1-0.1c-0.1,0-0.2,0.1-0.3,0.1c-0.3,0-0.6-0.1-0.9,0
		c-0.2,0.1-0.3,0-0.5,0c-0.2,0-0.5,0.1-0.7,0.1c-0.3-0.2-0.8,0-1.1-0.1c-0.8-0.2-1.7,0.2-2.6,0c-0.2,0.1-0.5,0-0.7,0
		c-0.1,0-0.2,0.1-0.3,0.1c-0.3,0.1-0.7-0.1-1,0c-0.1,0-0.1,0.1-0.2,0.1c-0.1,0-0.1-0.1-0.2-0.1c-0.1,0-0.2,0-0.4,0.1
		c-0.4,0.1-0.7,0.1-1,0c-0.1,0.1-0.4,0.1-0.6,0.1c-0.2,0-0.5-0.1-0.7,0c-0.1,0-0.1,0.1-0.2,0.1c-0.2,0-0.6,0-0.8,0
		c-0.1,0-0.3,0.1-0.4,0.1c-0.1,0-0.1-0.1-0.2-0.1c-0.2,0-0.3,0.1-0.5,0.1c-0.3,0-0.6,0-0.9,0c-0.1,0,0,0.1-0.1,0.1
		c-0.2-0.1-0.4-0.2-0.6-0.2c-0.3-0.1-0.6,0.1-1,0.1c-0.1,0-0.3-0.1-0.4,0c-0.4-0.2-1.1-0.1-1.5,0c-0.1,0.2-0.4,0.1-0.5,0.3
		c-0.4,0-0.6,0.5-0.4,0.9c0.2,0.1,0.2,0.3,0.4,0.3c0.2,0,0.4-0.1,0.5-0.1c0.1,0,0.2,0.1,0.3,0.1c0.1,0,0.3-0.1,0.4-0.1
		c0.1,0,0.1,0.1,0.2,0.1c0.1,0,0.1-0.1,0.2-0.1c0.1,0,0.2,0.1,0.2,0.1c0.1,0,0.1-0.1,0.2-0.1c0.4,0,0.9,0.2,1.2,0
		c0.1,0.2,0.3,0.1,0.4,0.1c0.2,0,0.4,0.1,0.5,0.1c0.1,0,0.1-0.1,0.2-0.1c0.1,0,0.1,0.1,0.2,0.1c0.1,0,0.1-0.1,0.2-0.1
		c0.1,0,0.3,0,0.5,0c0.4,0,0.8-0.2,1.3-0.1c0.1,0,0.2,0.1,0.4,0.1c0.2,0,0.4-0.1,0.6-0.1c0.2,0,0.4,0.1,0.6,0c0.1,0,0.1-0.1,0.2-0.1
		c0.1,0,0.2,0.1,0.3,0.1c0.2,0,0.5-0.1,0.7-0.1c0.1-0.2,0.2,0,0.3-0.1c0.3,0.2,0.7,0.1,1-0.1c0.2,0,0.4,0,0.6,0
		C114.5,46.6,114.8,46.5,115.2,46.5z"/>
	<path class="st0" d="M115.2,52c0.6,0,1.3,0,1.8,0c0.1,0,0.3,0,0.4,0c0.3,0,0.7,0.1,1.1,0.1c0,0,0.1-0.1,0.1-0.1
		c0.3-0.1,0.6,0.1,0.9,0c0.2,0,0.4,0,0.6,0c0.2,0,0.3-0.1,0.4-0.1c0.4-0.1,0.8,0,1.2,0c0.3,0,0.6,0,0.9,0c0.1,0,0.3,0,0.4,0
		c0,0,0.1,0.1,0.1,0.1c0.1,0,0.3,0,0.5,0c0.2,0,0.4,0.2,0.5,0.1c0.1,0,0.4-0.4,0.4-0.7c0-0.2-0.1-0.6-0.2-0.7
		c-0.1-0.1-0.3-0.1-0.4-0.2c-0.6,0.1-1.1,0.1-1.7,0.1c-0.3,0-0.7,0-1-0.1c-0.1,0-0.2,0.1-0.3,0.1c-0.3,0-0.6-0.1-0.9,0
		c-0.2,0.1-0.3,0-0.5,0c-0.2,0-0.5,0.1-0.7,0.1c-0.3-0.2-0.8,0-1.1-0.1c-0.8-0.2-1.7,0.2-2.6,0c-0.2,0.1-0.5,0-0.7,0
		c-0.1,0-0.2,0.1-0.3,0.1c-0.3,0.1-0.7-0.1-1,0c-0.1,0-0.1,0.1-0.2,0.1c-0.1,0-0.1-0.1-0.2-0.1c-0.1,0-0.2,0-0.4,0.1
		c-0.4,0.1-0.7,0.1-1,0c-0.1,0.1-0.4,0.1-0.6,0.1c-0.2,0-0.5-0.1-0.7,0c-0.1,0-0.1,0.1-0.2,0.1c-0.2,0-0.6,0-0.8,0
		c-0.1,0-0.3,0.1-0.4,0.1c-0.1,0-0.1-0.1-0.2-0.1c-0.2,0-0.3,0.1-0.5,0.1c-0.3,0-0.6,0-0.9,0c-0.1,0,0,0.1-0.1,0.1
		c-0.2-0.1-0.4-0.2-0.6-0.2c-0.3-0.1-0.6,0.1-1,0.1c-0.1,0-0.3-0.1-0.4,0c-0.4-0.2-1.1-0.1-1.5,0c-0.1,0.2-0.4,0.1-0.5,0.3
		c-0.4,0-0.6,0.5-0.4,0.9c0.2,0.1,0.2,0.3,0.4,0.3c0.2,0,0.4-0.1,0.5-0.1c0.1,0,0.2,0.1,0.3,0.1c0.1,0,0.3-0.1,0.4-0.1
		c0.1,0,0.1,0.1,0.2,0.1c0.1,0,0.1-0.1,0.2-0.1c0.1,0,0.2,0.1,0.2,0.1c0.1,0,0.1-0.1,0.2-0.1c0.4,0,0.9,0.2,1.2,0
		c0.1,0.2,0.3,0.1,0.4,0.1c0.2,0,0.4,0.1,0.5,0.1c0.1,0,0.1-0.1,0.2-0.1c0.1,0,0.1,0.1,0.2,0.1c0.1,0,0.1-0.1,0.2-0.1
		c0.1,0,0.3,0,0.5,0c0.4,0,0.8-0.2,1.3-0.1c0.1,0,0.2,0.1,0.4,0.1c0.2,0,0.4-0.1,0.6-0.1c0.2,0,0.4,0.1,0.6,0c0.1,0,0.1-0.1,0.2-0.1
		c0.1,0,0.2,0.1,0.3,0.1c0.2,0,0.5-0.1,0.7-0.1c0.1-0.2,0.2,0,0.3-0.1c0.3,0.2,0.7,0.1,1-0.1c0.2,0,0.4,0,0.6,0
		C114.5,52.1,114.8,52,115.2,52z"/>
	<path class="st0" d="M113,57.5c0.5,0,1.1,0,1.5,0c0.1,0,0.2,0,0.4,0c0.3,0,0.6,0.1,0.9,0.1c0,0,0.1-0.1,0.1-0.1
		c0.2-0.1,0.5,0.1,0.7,0c0.2,0,0.3,0,0.5,0c0.1,0,0.2-0.1,0.3-0.1c0.3-0.1,0.7,0,1,0c0.2,0,0.5,0,0.7,0c0.1,0,0.2,0,0.3,0
		c0,0,0.1,0.1,0.1,0.1c0.1,0,0.2,0,0.4,0c0.2,0,0.3,0.2,0.4,0.1c0.1,0,0.3-0.4,0.3-0.7c0-0.2-0.1-0.6-0.2-0.7
		c-0.1-0.1-0.3-0.1-0.4-0.2c-0.5,0.1-0.9,0.1-1.4,0.1c-0.3,0-0.6,0-0.8-0.1c-0.1,0-0.2,0.1-0.2,0.1c-0.3,0-0.5-0.1-0.7,0
		c-0.1,0.1-0.3,0-0.4,0c-0.2,0-0.4,0.1-0.6,0.1c-0.2-0.2-0.6,0-0.9-0.1c-0.7-0.2-1.4,0.2-2.1,0c-0.2,0.1-0.4,0-0.6,0
		c-0.1,0-0.2,0.1-0.3,0.1c-0.3,0.1-0.5-0.1-0.8,0c-0.1,0-0.1,0.1-0.2,0.1c-0.1,0-0.1-0.1-0.2-0.1c-0.1,0-0.2,0-0.3,0.1
		c-0.3,0.1-0.6,0.1-0.8,0c-0.1,0.1-0.3,0.1-0.5,0.1c-0.2,0-0.4-0.1-0.6,0c0,0-0.1,0.1-0.1,0.1c-0.2,0-0.5,0-0.6,0
		c-0.1,0-0.2,0.1-0.4,0.1c0,0-0.1-0.1-0.2-0.1c-0.1,0-0.3,0.1-0.4,0.1c-0.2,0-0.5,0-0.7,0c-0.1,0,0,0.1-0.1,0.1
		c-0.1-0.1-0.3-0.2-0.5-0.2c-0.3-0.1-0.5,0.1-0.8,0.1c-0.1,0-0.2-0.1-0.3,0c-0.4-0.2-0.9-0.1-1.3,0c-0.1,0.2-0.3,0.1-0.4,0.3
		c-0.3,0-0.5,0.5-0.3,0.9c0.1,0.1,0.2,0.3,0.3,0.3c0.1,0,0.3-0.1,0.4-0.1c0.1,0,0.1,0.1,0.2,0.1c0.1,0,0.2-0.1,0.4-0.1
		c0.1,0,0.1,0.1,0.2,0.1c0.1,0,0.1-0.1,0.2-0.1c0.1,0,0.1,0.1,0.2,0.1c0,0,0.1-0.1,0.1-0.1c0.3,0,0.7,0.2,1,0
		c0.1,0.2,0.2,0.1,0.3,0.1c0.1,0,0.3,0.1,0.4,0.1c0,0,0.1-0.1,0.1-0.1c0.1,0,0.1,0.1,0.2,0.1c0.1,0,0.1-0.1,0.2-0.1
		c0.1,0,0.2,0,0.4,0c0.3,0,0.7-0.2,1.1-0.1c0.1,0,0.2,0.1,0.3,0.1c0.2,0,0.3-0.1,0.5-0.1c0.2,0,0.3,0.1,0.5,0c0,0,0.1-0.1,0.1-0.1
		c0.1,0,0.2,0.1,0.3,0.1c0.2,0,0.4-0.1,0.6-0.1c0.1-0.2,0.2,0,0.3-0.1c0.2,0.2,0.6,0.1,0.8-0.1c0.1,0,0.3,0,0.5,0
		C112.4,57.6,112.7,57.5,113,57.5z"/>
	<path class="st0" d="M115.2,68.6c0.6,0,1.3,0,1.8,0c0.1,0,0.3,0,0.4,0c0.3,0,0.7,0.1,1.1,0.1c0,0,0.1-0.1,0.1-0.1
		c0.3-0.1,0.6,0.1,0.9,0c0.2,0,0.4,0,0.6,0c0.2,0,0.3-0.1,0.4-0.1c0.4-0.1,0.8,0,1.2,0c0.3,0,0.6,0,0.9,0c0.1,0,0.3,0,0.4,0
		c0,0,0.1,0.1,0.1,0.1c0.1,0,0.3,0,0.5,0c0.2,0,0.4,0.2,0.5,0.1c0.1,0,0.4-0.4,0.4-0.7c0-0.2-0.1-0.6-0.2-0.7
		c-0.1-0.1-0.3-0.1-0.4-0.2c-0.6,0.1-1.1,0.1-1.7,0.1c-0.3,0-0.7,0-1-0.1c-0.1,0-0.2,0.1-0.3,0.1c-0.3,0-0.6-0.1-0.9,0
		c-0.2,0.1-0.3,0-0.5,0c-0.2,0-0.5,0.1-0.7,0.1c-0.3-0.2-0.8,0-1.1-0.1c-0.8-0.2-1.7,0.2-2.6,0c-0.2,0.1-0.5,0-0.7,0
		c-0.1,0-0.2,0.1-0.3,0.1c-0.3,0.1-0.7-0.1-1,0c-0.1,0-0.1,0.1-0.2,0.1c-0.1,0-0.1-0.1-0.2-0.1c-0.1,0-0.2,0-0.4,0.1
		c-0.4,0.1-0.7,0.1-1,0c-0.1,0.1-0.4,0.1-0.6,0.1c-0.2,0-0.5-0.1-0.7,0c-0.1,0-0.1,0.1-0.2,0.1c-0.2,0-0.6,0-0.8,0
		c-0.1,0-0.3,0.1-0.4,0.1c-0.1,0-0.1-0.1-0.2-0.1c-0.2,0-0.3,0.1-0.5,0.1c-0.3,0-0.6,0-0.9,0c-0.1,0,0,0.1-0.1,0.1
		c-0.2-0.1-0.4-0.2-0.6-0.2c-0.3-0.1-0.6,0.1-1,0.1c-0.1,0-0.3-0.1-0.4,0c-0.4-0.2-1.1-0.1-1.5,0c-0.1,0.2-0.4,0.1-0.5,0.3
		c-0.4,0-0.6,0.5-0.4,0.9c0.2,0.1,0.2,0.3,0.4,0.3c0.2,0,0.4-0.1,0.5-0.1c0.1,0,0.2,0.1,0.3,0.1c0.1,0,0.3-0.1,0.4-0.1
		c0.1,0,0.1,0.1,0.2,0.1c0.1,0,0.1-0.1,0.2-0.1c0.1,0,0.2,0.1,0.2,0.1c0.1,0,0.1-0.1,0.2-0.1c0.4,0,0.9,0.2,1.2,0
		c0.1,0.2,0.3,0.1,0.4,0.1c0.2,0,0.4,0.1,0.5,0.1c0.1,0,0.1-0.1,0.2-0.1c0.1,0,0.1,0.1,0.2,0.1c0.1,0,0.1-0.1,0.2-0.1
		c0.1,0,0.3,0,0.5,0c0.4,0,0.8-0.2,1.3-0.1c0.1,0,0.2,0.1,0.4,0.1c0.2,0,0.4-0.1,0.6-0.1c0.2,0,0.4,0.1,0.6,0c0.1,0,0.1-0.1,0.2-0.1
		c0.1,0,0.2,0.1,0.3,0.1c0.2,0,0.5-0.1,0.7-0.1c0.1-0.2,0.2,0,0.3-0.1c0.3,0.2,0.7,0.1,1-0.1c0.2,0,0.4,0,0.6,0
		C114.5,68.8,114.8,68.6,115.2,68.6z"/>
	<path class="st0" d="M115.2,74.1c0.6,0,1.3,0,1.8,0c0.1,0,0.3,0,0.4,0c0.3,0,0.7,0.1,1.1,0.1c0,0,0.1-0.1,0.1-0.1
		c0.3-0.1,0.6,0.1,0.9,0c0.2,0,0.4,0,0.6,0c0.2,0,0.3-0.1,0.4-0.1c0.4-0.1,0.8,0,1.2,0c0.3,0,0.6,0,0.9,0c0.1,0,0.3,0,0.4,0
		c0,0,0.1,0.1,0.1,0.1c0.1,0,0.3,0,0.5,0c0.2,0,0.4,0.2,0.5,0.1c0.1,0,0.4-0.4,0.4-0.7c0-0.2-0.1-0.6-0.2-0.7
		c-0.1-0.1-0.3-0.1-0.4-0.2c-0.6,0.1-1.1,0.1-1.7,0.1c-0.3,0-0.7,0-1-0.1c-0.1,0-0.2,0.1-0.3,0.1c-0.3,0-0.6-0.1-0.9,0
		c-0.2,0.1-0.3,0-0.5,0c-0.2,0-0.5,0.1-0.7,0.1c-0.3-0.2-0.8,0-1.1-0.1c-0.8-0.2-1.7,0.2-2.6,0c-0.2,0.1-0.5,0-0.7,0
		c-0.1,0-0.2,0.1-0.3,0.1c-0.3,0.1-0.7-0.1-1,0c-0.1,0-0.1,0.1-0.2,0.1c-0.1,0-0.1-0.1-0.2-0.1c-0.1,0-0.2,0-0.4,0.1
		c-0.4,0.1-0.7,0.1-1,0c-0.1,0.1-0.4,0.1-0.6,0.1c-0.2,0-0.5-0.1-0.7,0c-0.1,0-0.1,0.1-0.2,0.1c-0.2,0-0.6,0-0.8,0
		c-0.1,0-0.3,0.1-0.4,0.1c-0.1,0-0.1-0.1-0.2-0.1c-0.2,0-0.3,0.1-0.5,0.1c-0.3,0-0.6,0-0.9,0c-0.1,0,0,0.1-0.1,0.1
		c-0.2-0.1-0.4-0.2-0.6-0.2c-0.3-0.1-0.6,0.1-1,0.1c-0.1,0-0.3-0.1-0.4,0c-0.4-0.2-1.1-0.1-1.5,0c-0.1,0.2-0.4,0.1-0.5,0.3
		c-0.4,0-0.6,0.5-0.4,0.9c0.2,0.1,0.2,0.3,0.4,0.3c0.2,0,0.4-0.1,0.5-0.1c0.1,0,0.2,0.1,0.3,0.1c0.1,0,0.3-0.1,0.4-0.1
		c0.1,0,0.1,0.1,0.2,0.1c0.1,0,0.1-0.1,0.2-0.1c0.1,0,0.2,0.1,0.2,0.1c0.1,0,0.1-0.1,0.2-0.1c0.4,0,0.9,0.2,1.2,0
		c0.1,0.2,0.3,0.1,0.4,0.1c0.2,0,0.4,0.1,0.5,0.1c0.1,0,0.1-0.1,0.2-0.1c0.1,0,0.1,0.1,0.2,0.1c0.1,0,0.1-0.1,0.2-0.1
		c0.1,0,0.3,0,0.5,0c0.4,0,0.8-0.2,1.3-0.1c0.1,0,0.2,0.1,0.4,0.1c0.2,0,0.4-0.1,0.6-0.1c0.2,0,0.4,0.1,0.6,0c0.1,0,0.1-0.1,0.2-0.1
		c0.1,0,0.2,0.1,0.3,0.1c0.2,0,0.5-0.1,0.7-0.1c0.1-0.2,0.2,0,0.3-0.1c0.3,0.2,0.7,0.1,1-0.1c0.2,0,0.4,0,0.6,0
		C114.5,74.3,114.8,74.1,115.2,74.1z"/>
	<path class="st0" d="M113,79.6c0.5,0,1.1,0,1.5,0c0.1,0,0.2,0,0.4,0c0.3,0,0.6,0.1,0.9,0.1c0,0,0.1-0.1,0.1-0.1
		c0.2-0.1,0.5,0.1,0.7,0c0.2,0,0.3,0,0.5,0c0.1,0,0.2-0.1,0.3-0.1c0.3-0.1,0.7,0,1,0c0.2,0,0.5,0,0.7,0c0.1,0,0.2,0,0.3,0
		c0,0,0.1,0.1,0.1,0.1c0.1,0,0.2,0,0.4,0c0.2,0,0.3,0.2,0.4,0.1c0.1,0,0.3-0.4,0.3-0.7c0-0.2-0.1-0.6-0.2-0.7
		c-0.1-0.1-0.3-0.1-0.4-0.2c-0.5,0.1-0.9,0.1-1.4,0.1c-0.3,0-0.6,0-0.8-0.1c-0.1,0-0.2,0.1-0.2,0.1c-0.3,0-0.5-0.1-0.7,0
		c-0.1,0.1-0.3,0-0.4,0c-0.2,0-0.4,0.1-0.6,0.1c-0.2-0.2-0.6,0-0.9-0.1c-0.7-0.2-1.4,0.2-2.1,0c-0.2,0.1-0.4,0-0.6,0
		c-0.1,0-0.2,0.1-0.3,0.1c-0.3,0.1-0.5-0.1-0.8,0c-0.1,0-0.1,0.1-0.2,0.1c-0.1,0-0.1-0.1-0.2-0.1c-0.1,0-0.2,0-0.3,0.1
		c-0.3,0.1-0.6,0.1-0.8,0c-0.1,0.1-0.3,0.1-0.5,0.1c-0.2,0-0.4-0.1-0.6,0c0,0-0.1,0.1-0.1,0.1c-0.2,0-0.5,0-0.6,0
		c-0.1,0-0.2,0.1-0.4,0.1c0,0-0.1-0.1-0.2-0.1c-0.1,0-0.3,0.1-0.4,0.1c-0.2,0-0.5,0-0.7,0c-0.1,0,0,0.1-0.1,0.1
		c-0.1-0.1-0.3-0.2-0.5-0.2c-0.3-0.1-0.5,0.1-0.8,0.1c-0.1,0-0.2-0.1-0.3,0c-0.4-0.2-0.9-0.1-1.3,0c-0.1,0.2-0.3,0.1-0.4,0.3
		c-0.3,0-0.5,0.5-0.3,0.9c0.1,0.1,0.2,0.3,0.3,0.3c0.1,0,0.3-0.1,0.4-0.1c0.1,0,0.1,0.1,0.2,0.1c0.1,0,0.2-0.1,0.4-0.1
		c0.1,0,0.1,0.1,0.2,0.1c0.1,0,0.1-0.1,0.2-0.1c0.1,0,0.1,0.1,0.2,0.1c0,0,0.1-0.1,0.1-0.1c0.3,0,0.7,0.2,1,0
		c0.1,0.2,0.2,0.1,0.3,0.1c0.1,0,0.3,0.1,0.4,0.1c0,0,0.1-0.1,0.1-0.1c0.1,0,0.1,0.1,0.2,0.1c0.1,0,0.1-0.1,0.2-0.1
		c0.1,0,0.2,0,0.4,0c0.3,0,0.7-0.2,1.1-0.1c0.1,0,0.2,0.1,0.3,0.1c0.2,0,0.3-0.1,0.5-0.1c0.2,0,0.3,0.1,0.5,0c0,0,0.1-0.1,0.1-0.1
		c0.1,0,0.2,0.1,0.3,0.1c0.2,0,0.4-0.1,0.6-0.1c0.1-0.2,0.2,0,0.3-0.1c0.2,0.2,0.6,0.1,0.8-0.1c0.1,0,0.3,0,0.5,0
		C112.4,79.8,112.7,79.6,113,79.6z"/>
	<path class="st0" d="M132.6,51.8c0-3.3,0.1-6.3,0-8.6c-0.1-1.7,0-3.3,0-5.2c0-1.1,0-2.3-0.1-3.4c0-0.5,0-1,0.1-1.4
		c0-0.7,0-1.4,0-2.1c-3,0-6,0-8.8,0c-1.7,0-3.6,0-5.5-0.1c-0.5,0-1.1,0.1-1.6,0.1c-1.6,0-3.1-0.1-4.3,0c-0.9,0-1.7,0-2.6,0
		c-0.1,0-0.3,0-0.4,0c-0.1,0-0.2,0-0.3,0c-1.4,0-2.9,0-4.3,0c-1.6-0.1-3.6,0-5.2,0c-2.1-0.1-4.2,0-6.4,0c-0.1,0-0.1,0-0.2,0
		c-0.1,0-0.2,0-0.3,0c-0.9,0-1.9,0-2.8,0c-1.3,0-2.5,0-3.6,0c-0.1,0-0.1,0-0.2,0c-0.1,0-0.1,0-0.2,0c-0.1,0-0.2,0-0.2,0
		c-0.5,0-1,0-1.5,0c-0.7,0-1.3,0-1.9,0c-0.6,0-1.1,0.1-1.8,0.1c-0.3,0-0.6,0-0.8,0c-0.9,0-1.7,0-2.6,0c0,0.7,0,1.4,0,2.1
		c0,0.3,0,0.6,0,0.9c0,0.1,0,0.1,0,0.2c0,0.8,0,1.5,0,2.2c0,0.3,0,0.5,0,0.8c0,0,0,0,0,0h0c0,0.5,0,0.9,0.1,1.4c0,0.7-0.1,1.3-0.1,2
		c0,1.1,0,2.4,0.1,3.6c0.1,4,0.1,7.1,0,10.3c0.1,1.5,0.1,3.8,0.1,5.6c0,2.4-0.1,4.8,0,7.3c0,0.5,0.1,1.2,0.1,1.7c0,2.4,0,5.7,0,7.6
		c0,1.5,0.1,2.9,0.1,4.4c0,0.6-0.1,1.3-0.1,1.9c0,0.8,0,1.7,0,2.5c0,0.4,0,0.9,0,1.3c0,0.5,0,1.1,0,1.6c0,0.2,0,0.4,0,0.6
		c1.5,0,3.1,0,4.8,0c1.4,0,2.9,0,4.3,0c0.6,0,0.2-0.1,0.8-0.1c1.7,0.1,3.6,0.2,5.6,0.2c3.1,0.1,6.4-0.1,9.6-0.1c1.5,0,3,0.1,4.2,0
		c4.3,0.2,10.7,0.1,15.4,0c1.3-0.2,3.8-0.1,4.9-0.3c2.3,0,4.2-0.2,4.6-0.4c0,0.1,0.1,0.2,0.1,0.2c0.2,0.1,0.6-1.1,0.7-2.2
		c0.1-1.2,0.1-3.3,0.2-4.4c-0.1-5.6-0.1-11.6-0.1-16.9c0-3.3,0-6.8,0.1-10.3C132.6,53.9,132.6,52.8,132.6,51.8z M130.7,88
		c-1.5-0.1-2.4-0.3-4.1-0.3c-1.7,0-3.5,0.1-5.2,0.1c-0.9,0-1.7-0.1-2.5-0.1c-1.4,0-2.9,0.1-4.4,0.1c-0.7,0-1.4-0.1-2-0.1
		c-0.7,0-1.2,0.1-1.9,0.1c-0.8,0-1.5-0.1-2.4-0.1c-0.5,0-1.1,0.1-1.7,0.1c-4.2,0-8.8-0.2-12.3,0c-1.1-0.2-2.6-0.1-3.9-0.1
		c-1.8,0-3.6-0.1-5.2-0.1c-0.5,0-1,0.1-1.5,0.1c-0.7,0-1.4-0.1-2-0.1c-0.7,0-1.4,0.1-2,0.1c-0.2,0-0.5,0-0.8,0c0-0.7,0-1.4,0-2.1
		c0-4.3-0.2-8.6-0.1-13.2c0-1.3,0.1-2.5,0.1-3.7c0-2.2-0.1-4.2-0.1-6.3c0-2,0.1-4.2,0-6.3c0-0.6-0.1-1.1-0.1-1.7
		c0-1.2,0.1-2.2,0.1-3.4c0-2.4-0.1-4.6-0.1-6.9c-0.2-0.9,0-2-0.1-3.2c0.1-1.1,0.1-2.3,0.1-3.6c0.1,0,0.3,0,0.4,0c0.3,0,0.6,0,0.9,0
		c2.1-0.1,3.8-0.1,5.5,0c0.8-0.1,2-0.1,3-0.1c1.3,0,2.5,0.1,3.8,0c0.3,0,0.6-0.1,0.9-0.1c1.3,0,3,0,4,0c0.8,0,1.5-0.1,2.3-0.1
		c0.3,0,0.7,0.1,1,0.1c0.9,0,1.8-0.1,2.7-0.1c1.5,0,3.2,0,4.7,0c0.3,0,0.1-0.1,0.4-0.1c0.9,0.1,1.9,0.2,3,0.2
		c1.6,0.1,3.4-0.1,5.1-0.1c0.8,0,1.6,0.1,2.2,0c2.3,0.2,5.7,0.1,8.1,0c0.7-0.2,2-0.1,2.6-0.3c0.8,0,1.5-0.1,2-0.2h0.1
		c0,0.7,0,1.3,0,1.9c0,2.1,0,4,0,6.1c0,1.6,0.1,2.9,0.1,4.2c0.1,4.1,0,8.2,0,12c0,2.7,0,5.8,0,8.6c0,1.2,0,2.5,0,3.6
		c0,0.4-0.1,0.9-0.1,1.4c0,1.1,0,2.9,0,4.6c0,2.3-0.2,4.1-0.1,5.4c0,1.1,0.3,2.9,0.5,3.7C131.4,88.1,131.1,88.1,130.7,88z"/>
	<path class="st0" d="M70.3,51.8c0-3.3,0.1-6.3,0-8.6c-0.1-1.7,0-3.3,0-5.2c0-1.1,0-2.3-0.1-3.4c0-0.5,0-1,0.1-1.4
		c0-0.7,0-1.4,0-2.1c-3,0-6,0-8.8,0c-1.7,0-3.6,0-5.5-0.1c-0.5,0-1.1,0.1-1.6,0.1c-1.6,0-3.1-0.1-4.3,0c-0.9,0-1.7,0-2.6,0
		c-0.1,0-0.3,0-0.4,0c-0.1,0-0.2,0-0.3,0c-1.4,0-2.9,0-4.3,0c-1.6-0.1-3.6,0-5.2,0c-2.1-0.1-4.2,0-6.4,0c-0.1,0-0.1,0-0.2,0
		c-0.1,0-0.2,0-0.3,0c-0.9,0-1.9,0-2.8,0c-1.3,0-2.5,0-3.6,0c-0.1,0-0.1,0-0.2,0c-0.1,0-0.1,0-0.2,0c-0.1,0-0.2,0-0.2,0
		c-0.5,0-1,0-1.5,0c-0.7,0-1.3,0-1.9,0c-0.6,0-1.1,0.1-1.8,0.1c-0.3,0-0.6,0-0.8,0c-0.9,0-1.7,0-2.6,0c0,0.7,0,1.4,0,2.1
		c0,0.3,0,0.6,0,0.9c0,0.1,0,0.1,0,0.2c0,0.8,0,1.5,0,2.2c0,0.3,0,0.5,0,0.8c0,0,0,0,0,0h0c0,0.5,0,0.9,0.1,1.4c0,0.7-0.1,1.3-0.1,2
		c0,1.1,0,2.4,0.1,3.6c0.1,4,0.1,7.1,0,10.3c0.1,1.5,0.1,3.8,0.1,5.6c0,2.4-0.1,4.8,0,7.3c0,0.5,0.1,1.2,0.1,1.7c0,2.4,0,5.7,0,7.6
		c0,1.5,0.1,2.9,0.1,4.4c0,0.6-0.1,1.3-0.1,1.9c0,0.8,0,1.7,0,2.5c0,0.4,0,0.9,0,1.3c0,0.5,0,1.1,0,1.6c0,0.2,0,0.4,0,0.6
		c1.5,0,3.1,0,4.8,0c1.4,0,2.9,0,4.3,0c0.6,0,0.2-0.1,0.8-0.1c1.7,0.1,3.6,0.2,5.6,0.2c3.1,0.1,6.4-0.1,9.6-0.1c1.5,0,3,0.1,4.2,0
		c4.3,0.2,10.7,0.1,15.4,0c1.3-0.2,3.8-0.1,4.9-0.3c2.3,0,4.2-0.2,4.6-0.4c0,0.1,0.1,0.2,0.1,0.2c0.2,0.1,0.6-1.1,0.7-2.2
		c0.1-1.2,0.1-3.3,0.2-4.4c-0.1-5.6-0.1-11.6-0.1-16.9c0-3.3,0-6.8,0.1-10.3C70.3,53.9,70.3,52.8,70.3,51.8z M68.4,88
		c-1.5-0.1-2.4-0.3-4.1-0.3c-1.7,0-3.5,0.1-5.2,0.1c-0.9,0-1.7-0.1-2.5-0.1c-1.4,0-2.9,0.1-4.4,0.1c-0.7,0-1.4-0.1-2-0.1
		c-0.7,0-1.2,0.1-1.9,0.1c-0.8,0-1.5-0.1-2.4-0.1c-0.5,0-1.1,0.1-1.7,0.1c-4.2,0-8.8-0.2-12.3,0c-1.1-0.2-2.6-0.1-3.9-0.1
		c-1.8,0-3.6-0.1-5.2-0.1c-0.5,0-1,0.1-1.5,0.1c-0.7,0-1.4-0.1-2-0.1c-0.7,0-1.4,0.1-2,0.1c-0.2,0-0.5,0-0.8,0c0-0.7,0-1.4,0-2.1
		c0-4.3-0.2-8.6-0.1-13.2c0-1.3,0.1-2.5,0.1-3.7c0-2.2-0.1-4.2-0.1-6.3c0-2,0.1-4.2,0-6.3c0-0.6-0.1-1.1-0.1-1.7
		c0-1.2,0.1-2.2,0.1-3.4c0-2.4-0.1-4.6-0.1-6.9c-0.2-0.9,0-2-0.1-3.2c0.1-1.1,0.1-2.3,0.1-3.6c0.1,0,0.3,0,0.4,0c0.3,0,0.6,0,0.9,0
		c2.1-0.1,3.8-0.1,5.5,0c0.8-0.1,2-0.1,3-0.1c1.3,0,2.5,0.1,3.8,0c0.3,0,0.6-0.1,0.9-0.1c1.3,0,3,0,4,0c0.8,0,1.5-0.1,2.3-0.1
		c0.3,0,0.7,0.1,1,0.1c0.9,0,1.8-0.1,2.7-0.1c1.5,0,3.2,0,4.7,0c0.3,0,0.1-0.1,0.4-0.1c0.9,0.1,1.9,0.2,3,0.2
		c1.6,0.1,3.4-0.1,5.1-0.1c0.8,0,1.6,0.1,2.2,0c2.3,0.2,5.7,0.1,8.1,0c0.7-0.2,2-0.1,2.6-0.3c0.8,0,1.5-0.1,2-0.2h0.1
		c0,0.7,0,1.3,0,1.9c0,2.1,0,4,0,6.1c0,1.6,0.1,2.9,0.1,4.2c0.1,4.1,0,8.2,0,12c0,2.7,0,5.8,0,8.6c0,1.2,0,2.5,0,3.6
		c0,0.4-0.1,0.9-0.1,1.4c0,1.1,0,2.9,0,4.6c0,2.3-0.2,4.1-0.1,5.4c0,1.1,0.3,2.9,0.5,3.7C69,88.1,68.8,88.1,68.4,88z"/>
	<g>
		<g>
			<path class="st3" d="M144.2,95.9c0,0,5.8,14.2,7.1,19l4.8-16.1c0-13.5-5.2-17.1-5.2-17.1c-7.2,9.2-5.9,15.5-5.9,15.5"/>
			<path class="st0" d="M156.4,94.4c-0.2-2.1-0.6-4.4-1.1-6.1c-0.2-0.5-0.3-0.9-0.5-1.4c-0.3-1.1-0.8-2.3-1.5-3.3
				c-0.1-0.1-0.2-0.2-0.3-0.3c-0.2-0.2-0.3-0.4-0.4-0.6c-0.2-0.2-0.3-0.4-0.5-0.7c-0.2-0.3-0.5-0.5-0.8-0.7l-0.2-0.2
				c-0.1,0-0.1,0.1-0.2,0.1l-0.3,0.4c-0.1,0.2-0.3,0.4-0.4,0.6l-0.3,0.4c-0.2,0.3-0.4,0.5-0.6,0.8c-0.3,0.5-0.4,0.8-0.7,1.2
				c-0.3,0.6-0.7,1.2-1,1.8c-0.3,0.6-0.6,1.2-0.9,1.7c-0.4,0.8-0.7,1.8-1,2.7c-0.1,0.4-0.3,0.8-0.4,1.1c0,0.1-0.2,0.3-0.2,0.4
				c-0.1,0.4-0.2,0.9-0.3,1.5c-0.1,0.7-0.3,1.4-0.3,1.8c0,0.5,0.5,1.4,0.8,1.4c0.2,0,0.6-0.4,0.7-0.8c0.1-0.4,0.1-1,0.2-1.3
				c0.1-1.7,0.6-3.5,1.2-5.1c0.2-0.5,0.4-1,0.6-1.5c0.3-0.5,0.5-1,0.8-1.5c0.2-0.3,0.3-0.6,0.4-0.9c0.5-0.9,1.2-1.6,1.5-2.3
				c0.1-0.2,0.3-0.5,0.5-0.7c0.1-0.1,0.1-0.1,0.1-0.1s0,0,0,0c0,0,0,0,0,0c0,0,0,0,0.1,0l0,0c0,0,0.1,0.1,0.2,0.2
				c0.1,0.1,0.2,0.3,0.3,0.4c0.4,0.8,1.3,2.1,1.6,3.2c0.8,2.4,1.7,5.2,1.8,8c0.1,0.7,0.2,1.5,0.1,2.2c0,0.4,0.1,0.7,0.1,1.1l0,0.4
				l0,0.3c-0.1,0.2-0.1,0.4-0.2,0.7c-0.2,0.5-0.3,1-0.5,1.5c-0.1,0.2-0.1,0.5-0.1,0.7c-0.1,0.2-0.2,0.4-0.2,0.6
				c-0.1,0.4-0.2,0.8-0.3,1.1c-0.3,1.3-0.6,2.3-1,3.2c0,0.5-0.3,1.2-0.5,1.8c-0.2,0.7-0.5,1.5-0.7,2.3c0,0.2,0,0.4-0.1,0.6
				c0,0.2-0.1,0.4-0.1,0.5l-0.1,0.2c-0.1,0.1-0.1,0.2-0.1,0.3c0,0.1,0,0.2-0.1,0.3c0,0.1,0,0.3-0.1,0.3l0-0.1c0-0.1,0-0.3-0.1-0.4
				c0-0.2-0.2-0.2-0.2-0.5c0-0.1,0-0.2-0.1-0.3c-0.1-0.2-0.2-0.5-0.2-0.7c-0.2-0.5-0.4-0.9-0.5-1.4c-0.1-0.2-0.2,0-0.2-0.2
				c-0.1-0.5-0.3-1.2-0.4-1.8c-0.3-1-0.8-1.9-1.2-2.9c-0.2-0.4-0.2-1-0.5-1.3c-0.3-1.4-1.2-3.3-1.9-4.7c-0.3-0.3-0.6-1.1-0.9-1.4
				c-0.4-1.1-1.2-1.7-1.3-0.8c0.1,0.5,0.1,0.8,0.3,1.3c0.2,0.5,0.6,1,0.8,1.5c0.1,0.3,0.1,0.6,0.2,0.8c0.2,0.4,0.4,0.9,0.6,1.3
				c0.1,0.2,0.1,0.5,0.2,0.6c0.1,0.2,0.2,0.3,0.3,0.5c0.1,0.2,0.1,0.5,0.2,0.7c0.1,0.2,0.2,0.3,0.3,0.5c0.5,1.3,0.9,2.8,1.4,3.8
				c-0.1,0.4,0.2,0.8,0.4,1.2c0.2,0.5,0.3,1.1,0.5,1.6c0.1,0.2,0.2,0.3,0.2,0.4c0.1,0.2,0.1,0.4,0.2,0.6c0.1,0.2,0.2,0.4,0.3,0.6
				c0.3,0.7,0.6,1.7,0.9,2.7c0.3,0.9,0.6,1.8,0.9,2.7c0.4-1.6,0.9-3.1,1.3-4.6c0.1-0.3,0.2-0.7,0.3-0.9c0.1-0.2,0.2-0.4,0.2-0.6
				c0.2-0.7,0.3-1.3,0.5-2c0.2-0.6,0.4-1.3,0.6-2c0-0.2,0.1-0.4,0.1-0.5c0.1-0.4,0.3-0.7,0.4-1c0.2-0.8,0.3-1.5,0.6-2.2
				c-0.1-0.3,0.2-0.6,0.2-1.1c0.4-0.9,0.8-2.2,0.9-3c0-0.1,0.1-0.3,0.2-0.4c0-0.1,0.1-0.2,0.1-0.3l0-0.3c0-0.4,0-0.7-0.1-1
				C156.7,96.5,156.5,95.5,156.4,94.4z"/>
		</g>
		<g>
			<g>
				<path class="st3" d="M138.2,105.3c0,0-4.8-5.9-3.4-19c0,0,11.4,7.6,16.1,23.2l0.7,8h-11L138.2,105.3"/>
				<path class="st0" d="M149.7,107.2c0.2,0.5,0.4,1.1,0.6,1.7l0.3,0.8c0,0.3,0,0.6,0.1,0.8c0.1,1.2,0.2,2.3,0.3,3.2
					c0,0.5,0.1,1.1,0.2,1.6c0,0.4,0,0.8,0.1,1.2l0,0.7c-0.3,0-0.4,0-1,0c-0.2,0-0.3,0.1-0.5,0.1c-1,0.1-2.2-0.1-3.3,0
					c-0.8,0-1.4,0-2.2,0c-0.6,0-1,0.1-1.5,0.1c-0.3,0-0.6,0-1,0c-0.2,0-0.5,0-0.7,0c-0.1-0.7-0.3-1.5-0.4-2.2
					c-0.2-1-0.4-2.1-0.6-3.1c-0.1-0.4-0.2-0.9-0.2-1.3c0-0.1,0-0.3,0-0.5c0-0.4-0.2-1-0.3-1.6c-0.1-0.8-0.1-1.5-0.2-2
					c-0.1-0.5-0.7-1.4-0.9-1.4c-0.2,0-0.5,0.5-0.6,0.9c0,0.5,0.2,1.2,0.1,1.6c0.5,2,0.9,4.1,1.3,6c0.3,1.4,0.5,2.8,0.8,4.2
					c0,0.1,0.1,0.3,0.1,0.5c0.5,0,1.1,0,1.7-0.1c1.2,0,2.3,0.1,3.1,0c0.6-0.1,1.2,0,1.9,0c0.8,0,1.7-0.1,2.6-0.1
					c0.3,0.1,0.7,0.1,1.2,0.1c0.7,0,1.5,0,2.3,0c-0.1-0.5-0.1-1.1-0.1-1.6c0-0.2,0-0.4,0-0.6c0-0.1,0-0.3,0-0.4
					c0-1.5-0.2-3.1-0.4-4.6l-0.1-1.2l-0.1-0.7l-0.2-0.6c-0.3-0.8-0.5-1.5-0.7-2.3c-0.4-0.7-0.7-1.6-0.9-2.3
					c-0.1-0.4-0.4-0.7-0.6-1.1c-0.3-0.5-0.5-1.1-0.8-1.6c-0.3-0.5-0.5-1.1-0.8-1.5c-0.1-0.2-0.3-0.4-0.5-0.7
					c-0.1-0.2-0.2-0.5-0.3-0.7c-0.2-0.4-0.5-0.7-0.7-1.1c-0.4-0.6-0.8-1.1-1.2-1.6c-0.4-0.5-0.7-1-1-1.5c-0.4-0.4-0.9-1.1-1.3-1.6
					c-0.6-0.7-1.1-1.4-1.8-2c-0.1-0.1-0.3-0.3-0.5-0.4c-0.7-0.6-1.5-1.5-2-2c-0.4-0.4-0.9-0.7-1.3-1c-0.2-0.2-0.3-0.3-0.5-0.5
					c-0.4-0.3-0.8-0.6-1.2-0.8c-0.2-0.1-0.4-0.2-0.6-0.4l-0.3-0.2l-0.1-0.1l-0.1,0l0,0.1c0,0.4-0.1,0.7-0.1,1.1
					c0,0.4-0.1,0.8-0.1,1.3l0,0.5c0,0.1,0,0.3,0,0.4c0,0.3,0,0.6,0,0.8c0,0.2,0.1,0.1,0.1,0.3c-0.1,0.6-0.2,1.3-0.2,2
					c-0.1,1.1,0.2,2.4,0.3,3.5c0.1,0.5,0,1.1,0.2,1.5c0,1.6,0.8,3.9,1.5,5.5c0.3,0.4,0.7,1.2,1.1,1.5c0.3,0.6,0.7,1,1,1.1
					c0.3,0.1,0.5,0,0.5-0.5c-0.2-0.5-0.2-0.8-0.5-1.3c-0.3-0.5-0.7-1-0.9-1.6c-0.1-0.3-0.1-0.6-0.2-0.9c-0.2-0.4-0.4-0.9-0.5-1.4
					c-0.1-0.2-0.1-0.5-0.1-0.7c-0.1-0.2-0.2-0.4-0.2-0.6c-0.1-0.3-0.1-0.5-0.1-0.8c0-0.2-0.1-0.4-0.2-0.6c-0.3-1.5-0.2-3.1-0.4-4.3
					c0.2-0.4,0-0.9,0-1.4c0-0.6,0.2-1.3,0.2-1.9c0-0.2-0.1-0.4-0.1-0.5c0-0.2,0.1-0.6,0.1-0.5c0,0-0.1-0.1-0.1-0.1
					c0-0.1,0-0.1,0-0.1c0,0,0.1,0,0.1,0.1l0.1,0c0,0,0,0,0.2,0.1c0.3,0.2,0.6,0.5,0.9,0.7c0.6,0.5,1.2,1,1.8,1.6
					c0.3,0.3,0.6,0.7,0.9,1c0.5,0.6,1.1,1,1.6,1.6c0.5,0.5,0.9,1.2,1.4,1.7c0.1,0.2,0.3,0.3,0.4,0.4c0.3,0.3,0.4,0.7,0.7,1
					c0.5,0.7,1.1,1.3,1.4,2c0.3,0.2,0.4,0.6,0.7,0.9c0.4,1,1.2,2.2,1.7,3c0.2,0.6,0.6,1.4,1,2C148.7,105.1,149.3,106.1,149.7,107.2z
					"/>
			</g>
			<g>
				<path class="st3" d="M137.5,118.3c0,0-6.9-3.8-8.4-18.9c0,0,9.9,0.5,15.6,18.9"/>
				<path class="st0" d="M134,102c0.6,0.3,1.1,0.8,1.6,1.2c0.5,0.5,0.9,0.9,1.3,1.3c0.2,0.2,0.4,0.4,0.6,0.7
					c0.2,0.3,0.4,0.6,0.7,0.9c0.2,0.3,0.4,0.6,0.7,0.9c0.1,0.1,0.2,0.1,0.2,0.2c0.4,0.4,0.7,1.1,1,1.6c0.3,0.4,0.4,0.7,0.6,1.1
					c0.2,0.3,0.4,0.5,0.5,0.7c0.4,0.7,0.8,1.5,1.1,2.3c0.2,0.5,0.5,1.1,0.7,1.7c0.1,0.2,0.2,0.5,0.3,0.7c0,0.1,0,0.2,0,0.3
					c0,0.2,0.2,0.6,0.3,0.9c0.1,0.5,0.1,0.9,0.2,1.1c0.1,0.3,0.7,0.7,0.9,0.6c0.2,0,0.5-0.4,0.6-0.7c0-0.3-0.2-0.7-0.1-1
					c-0.2-0.6-0.4-1.1-0.7-1.7c-0.2-0.6-0.5-1.1-0.7-1.7c-0.3-0.7-0.5-1.4-0.9-2.1c-0.1-0.2-0.3-0.4-0.4-0.6
					c-0.3-0.6-0.5-1.3-0.9-1.7c-0.3-0.3-0.4-0.6-0.6-1c-0.3-0.4-0.6-0.8-0.9-1.2c-0.2-0.6-1-1.4-1.5-2.1c-1-1.5-2.7-2.7-4.2-3.9
					c-0.4-0.2-0.9-0.6-1.3-0.8c-0.2-0.1-0.5-0.2-0.7-0.3c-0.3-0.1-0.7-0.3-1-0.5c-0.2-0.1-0.3-0.1-0.5-0.2c-0.1,0-0.2-0.1-0.3-0.1
					c-0.1,0-0.3-0.1-0.4-0.1c-0.3-0.1-0.5,0-0.8-0.1c-0.2,0-0.5-0.1-0.7-0.2c-0.1,0-0.2,0-0.3,0l-0.1,0c0,0-0.1,0-0.1,0.1
					c0,0.2,0,0.4,0.1,0.6c0,0.3,0.1,0.7,0.1,1c0,0.3,0.1,0.6,0.1,0.8c0.1,0.4,0.1,0.7,0.1,1c0.1,0.3,0.2,0.8,0.3,1.2
					c0.1,0.5,0.1,1,0.3,1.5c0,0.1,0.1,0.2,0.2,0.3c0.2,0.5,0.3,1.2,0.4,1.6c0.1,0.3,0.3,0.6,0.4,0.9c0,0.1,0,0.3,0.1,0.4
					c0.1,0.3,0.3,0.7,0.4,1c0.2,0.6,0.5,1.2,0.7,1.8c0,0.1,0.1,0,0.2,0.1c0.1,0.4,0.2,0.8,0.3,1.2c0.3,0.6,0.7,1.2,1.1,1.8
					c0.2,0.3,0.2,0.6,0.5,0.8c0.4,0.9,1.3,2,2.1,2.6c0.3,0.1,0.7,0.5,1,0.5c0.3,0.3,0.6,0.4,0.9,0.3c0.2-0.1,0.3-0.3,0.3-0.6
					c-0.2-0.2-0.2-0.5-0.5-0.7c-0.3-0.2-0.6-0.4-0.9-0.6c-0.1-0.1-0.2-0.3-0.3-0.4c-0.2-0.2-0.4-0.4-0.6-0.6
					c-0.1-0.1-0.1-0.3-0.2-0.4c-0.1-0.1-0.2-0.2-0.3-0.3c-0.1-0.1-0.1-0.3-0.2-0.4c-0.1-0.1-0.2-0.1-0.2-0.2
					c-0.2-0.4-0.4-0.8-0.6-1.2c-0.2-0.4-0.4-0.8-0.6-1c0.1-0.3-0.2-0.5-0.3-0.7c-0.2-0.3-0.2-0.7-0.3-1c0-0.1-0.1-0.2-0.2-0.3
					c-0.1-0.1,0-0.3-0.1-0.4c-0.1-0.1-0.2-0.2-0.2-0.4c-0.1-0.3-0.2-0.6-0.3-0.9c-0.3-0.8-0.7-1.6-0.9-2.6c-0.1-0.3,0-0.5-0.1-0.8
					c-0.1-0.4-0.3-0.8-0.4-1.3c-0.1-0.4-0.1-0.9-0.2-1.3c0-0.1-0.1-0.2-0.1-0.3c0-0.2,0-0.5,0-0.7c0-0.2-0.1-0.5-0.1-0.6
					c0-0.1-0.1-0.2,0-0.3c-0.1-0.1-0.1-0.2-0.1-0.2c0,0,0.1,0,0.1-0.1c0.2,0.1,0.4,0.2,0.5,0.2c0.2,0,0.6,0.2,0.9,0.2
					c0.3,0.2,0.8,0.4,1.2,0.5C132.9,101.4,133.5,101.6,134,102z"/>
			</g>
			<g>
				<path class="st3" d="M150.2,118.4c0.5-18.6,13.4-26.1,13.4-26.1c2.4,18.1-5.2,26-5.2,26"/>
				<path class="st0" d="M163.4,94.9c0.1,0.8,0.1,1.7,0.2,2.5c0,0.4,0,0.8,0,1.2c0,0.4,0,0.7,0,1.1c0,0.4,0,0.8,0,1.1
					c0,0.9-0.3,1.9-0.3,2.8c0,0.1,0.1,0.2,0.1,0.4c0,0.7-0.3,1.6-0.4,2.3c-0.1,0.6-0.3,1-0.4,1.5c-0.1,0.4-0.1,0.7-0.1,1.1
					c-0.1,0.5-0.2,1-0.4,1.5c-0.2,0.5-0.4,1-0.5,1.4c-0.3,0.6-0.5,1.4-0.9,2c-0.1,0.3-0.3,0.6-0.4,0.8c-0.1,0.1-0.2,0.2-0.3,0.2
					c-0.2,0.2-0.3,0.7-0.6,1c-0.3,0.5-0.7,0.8-0.9,1.1c-0.2,0.3-0.3,1.1-0.2,1.3c0.1,0.2,0.7,0.2,1,0c0.3-0.2,0.6-0.7,0.9-0.9
					c0.8-1.3,1.6-2.7,2.1-4.1c0.4-0.8,0.7-1.7,1-2.6c0.1-0.3,0.1-0.5,0.2-0.8c0.2-0.8,0.5-1.6,0.6-2.2c0-0.5,0.2-0.9,0.3-1.4
					c0.1-0.6,0.1-1.3,0.2-1.9c0.3-0.8,0.2-2.1,0.4-3c0.2-2.2-0.1-4.6-0.2-6.9c0-0.1-0.1-0.3-0.1-0.4l0-0.2l0-0.4
					c-0.1-0.6-0.1-1.2-0.1-1.6c0-0.3-0.1-0.5-0.1-0.7l0-0.2c0,0,0,0-0.1,0L164,91c-0.1,0.1-0.2,0.2-0.4,0.2
					c-0.6,0.4-1.2,0.8-1.9,1.2c-0.2,0.2-0.4,0.3-0.6,0.4c-0.2,0.1-0.3,0.3-0.5,0.4c-0.1,0.1-0.2,0.3-0.4,0.5
					c-0.1,0.1-0.3,0.2-0.4,0.3c-0.2,0.2-0.4,0.5-0.7,0.7c-0.7,0.8-1.3,1.4-1.9,2c-0.2,0.4-0.6,0.8-0.9,1.2c-0.4,0.5-0.8,1-1.2,1.6
					c-0.1,0.1-0.1,0.3-0.2,0.4c-0.3,0.6-0.8,1.3-1.1,1.7c-0.2,0.3-0.3,0.7-0.5,1.1c-0.1,0.1-0.2,0.3-0.3,0.4
					c-0.2,0.4-0.3,0.9-0.5,1.3c-0.3,0.7-0.7,1.5-0.9,2.2c-0.1,0.2,0.1,0.1,0,0.3c-0.2,0.4-0.5,0.9-0.7,1.3c-0.4,0.8-0.4,1.7-0.6,2.5
					c-0.1,0.4-0.3,0.7-0.3,1.1c-0.2,0.5-0.3,1.2-0.4,2c0,0.4-0.1,0.7-0.1,1.1c0,0.4,0,0.7,0,1c0.1,0.4,0.1,1,0.2,1.3
					c-0.1,0.9,0.3,1.6,0.9,1c0.1-0.4,0.3-0.6,0.3-1c0-0.4-0.1-0.9-0.1-1.3c0-0.2,0.1-0.4,0.1-0.6c0.1-0.3,0-0.7,0.1-1.1
					c0-0.2,0.1-0.3,0.1-0.5c0-0.2,0-0.3,0-0.5c0-0.2,0.1-0.4,0.1-0.6c0-0.1,0-0.3,0-0.4c0.3-1,0.7-2.1,0.8-3.1
					c0.3-0.2,0.3-0.6,0.4-0.9c0.1-0.4,0.4-0.8,0.5-1.2c0-0.1,0-0.3,0.1-0.4c0.1-0.2,0.2-0.3,0.3-0.5c0.1-0.2,0.1-0.3,0.1-0.5
					c0.1-0.3,0.3-0.7,0.4-1.1c0.5-1,0.8-2,1.5-3c0.2-0.3,0.4-0.5,0.6-0.8c0.3-0.5,0.6-0.9,0.8-1.4c0.3-0.5,0.7-0.8,1-1.2
					c0.1-0.1,0.1-0.3,0.2-0.4c0.2-0.2,0.4-0.4,0.6-0.6c0.4-0.5,0.7-1,1.2-1.3c0.1-0.3,0.4-0.4,0.5-0.7c0.3-0.2,0.7-0.5,1-0.8
					c0.2-0.1,0.3-0.3,0.5-0.4l0.2-0.2c0-0.1,0.1-0.1,0.1-0.1c0.1,0,0.2-0.1,0.3-0.2l0.2-0.2c0.1,0,0.2-0.2,0.2-0.1
					c-0.1,0.4,0,0.5,0,0.7c0,0.1,0,0.3,0.1,0.4L163.4,94.9z"/>
			</g>
			<path class="st0" d="M165.7,121.1c0-1.4,0-2.7,0-4c-0.4,0-0.8,0-1.1,0c-0.5,0-1.1,0-1.6,0c-0.3,0-0.6,0-0.9,0
				c-0.6,0-1.3,0-1.9-0.1c-0.4,0-0.7,0.1-1.1,0.1c-1.2,0-2.3-0.1-3.1,0c-0.6,0.1-1.2,0-1.9,0c-0.8,0-1.7,0.1-2.6,0.2
				c-1.1-0.3-2.9,0-4.2-0.1c-3-0.2-6.3,0.2-9.4,0c-0.8,0.1-1.7,0-2.5,0c-0.4,0-0.8,0.1-1.2,0.1l-0.4,0c-0.3,0-0.5,0-0.8,0
				c-0.6,0-1.1,0-1.7,0c0,0.5,0,1.1,0,1.6c0,0.3,0,0.5,0,0.8c0,0.1,0,0.3,0,0.4c0,0.3,0.1,0.5,0.1,0.8c0,0.3-0.1,0.5-0.1,0.7
				c0,0.4,0.1,0.9,0.1,1.3c0,0.7,0,1.3,0.1,1.8c0,0.4,0,0.8,0,1.2c0,0.5,0,0.9,0,1.4l0.5,0c0.4-0.1,0.9-0.1,1.4-0.1
				c0,0.3,0.1,0.7,0,1c0.4,2,0.6,4.1,0.9,6c0.2,1.2,0.3,2.4,0.4,3.7c0,0.4,0.2,0.7,0.2,1.1c0.2,1.2,0.2,2.3,0.4,3.1
				c0.2,0.6,0.1,1.2,0.3,1.9c0.1,0.8,0.4,1.7,0.5,2.5c-0.1,1.1,0.4,2.8,0.4,4.1c0,0.7,0.1,1.5,0.3,2.3c0.1,0.4,0.1,0.8,0.2,1.1
				c0,0.3,0.1,0.7,0.2,1.1l0.1,0.5c0,0,0,0.1,0,0.1l0.1,0l0.3,0.1c0.7,0.2,1.5,0.3,1.8,0.4l1.2,0.2c0.8,0.1,1.6,0.2,2.4,0.3
				c0.8-0.1,1.7,0.1,2.5,0.2c0.4,0,0.8-0.1,1.2-0.1c1.1,0,2.4,0.1,3.5,0.1c0.3,0,0.5-0.1,0.8-0.1c0.3,0,0.5,0.1,0.7,0.1
				c0.4,0,0.9-0.1,1.3-0.1c1.4-0.2,2.6-0.3,3.8-0.4c0.3-0.1,0.6-0.2,1-0.3c0.3-0.1,1-0.2,1.5-0.4c0.4-0.1,0.4-0.5,0.5-0.8l0.2-0.9
				c0.1-0.4,0.1-0.9,0.2-1.3c0-0.2,0-0.4,0-0.6c0.1-0.9,0.3-2,0.4-2.7c0.1-0.5,0-1.1,0.1-1.6c0-0.2,0.1-0.4,0.2-0.7
				c0.1-0.6,0-1.2,0.1-1.8c0.2-1,0.3-2.1,0.4-3.2c0.1-0.2-0.2-0.1-0.1-0.3c0.2-0.6,0.4-1.2,0.5-1.9c0.2-1.1,0.2-2.3,0.4-3.4
				c0.1-0.5,0.3-1,0.2-1.5c0.5-1.5,0.7-3.8,0.8-5.5c-0.1-0.5,0-1.4-0.2-1.8c0-0.3,0.1-0.5,0-0.7c0,0,0.1,0,0.1,0
				c0.6,0,1-0.1,1.3-0.3h0.3v0c0,0,0,0,0,0c0.3,0,0.8-0.4,1-0.8c0.2-0.4,0.1-1.2,0.3-1.6C165.7,123,165.7,122,165.7,121.1z"/>
			<path class="st0" d="M157.6,106.8c-0.2,0.8-0.6,1.6-0.8,2.2c-0.1,0.2-0.1,0.4-0.2,0.5c-0.2,0.4-0.4,0.8-0.5,1.2
				c0,0.1,0,0.1,0,0.2c-0.1,0.3-0.3,0.7-0.4,1c-0.1,0.3-0.2,0.4-0.3,0.7c-0.1,0.2,0,0.4-0.1,0.5c-0.1,0.5-0.4,1-0.5,1.4
				c-0.1,0.3-0.2,0.7-0.4,1c-0.1,0.1-0.1,0.3-0.2,0.4c0,0-0.1,0.1-0.2,0.1c-0.1,0.1-0.1,0.3-0.2,0.5c-0.1,0.2-0.4,0.4-0.4,0.6
				c0,0.2,0.2,0.6,0.4,0.7c0.2,0.1,0.6,0.1,0.8,0c0.2-0.1,0.2-0.4,0.4-0.4c0.2-0.7,0.5-1.4,0.7-2c0.1-0.4,0.3-0.8,0.5-1.2
				c0-0.1,0-0.3,0.1-0.4c0.1-0.4,0.4-0.7,0.4-1c0-0.2,0.2-0.4,0.2-0.6c0.1-0.3,0.1-0.6,0.2-0.9c0.3-0.3,0.4-0.9,0.6-1.3
				c0.5-0.9,0.6-2.1,1.1-3c0-0.3,0.2-0.6,0.3-0.8c0.1-0.1,0-0.3,0.1-0.4c0.1-0.4,0.4-0.8,0.5-1.1c0-0.1,0-0.2,0-0.3
				c0-0.1,0.1-0.1,0.1-0.2c0.1-0.1,0.1-0.3,0.1-0.4c0.1-0.5,0.2-0.9,0.5-1.2c0-0.2,0.1-0.5,0.2-0.7c0.1-0.3,0.3-0.5,0.3-0.8
				c0-0.1,0-0.2,0-0.2c0.1-0.3,0.3-0.7,0.4-0.9c0.1-0.2,0.1-0.4,0.1-0.5c0-0.1,0.1-0.1,0.1-0.2c0.1-0.2,0.1-0.4,0.1-0.6
				c0.2-0.3,0.3-0.7,0.4-1.1c0.1-0.1-0.1-0.1-0.1-0.1c0.2-0.2,0.3-0.4,0.4-0.6c0.2-0.3,0.2-0.8,0.3-1.1c0.1-0.2,0.2-0.3,0.2-0.5
				c0.4-0.4,0.6-1.2,0.7-1.8c-0.1-0.2,0.1-0.5-0.1-0.7c0.2-0.4-0.2-0.9-0.7-0.8c-0.2,0.1-0.3,0.2-0.4,0.4c-0.1,0.2,0,0.5-0.1,0.7
				c0,0.1-0.1,0.2-0.2,0.3c-0.1,0.2-0.1,0.4-0.1,0.5c0,0.1-0.1,0.1-0.1,0.2c0,0.1,0,0.2,0,0.2c0,0.1-0.1,0.2-0.2,0.3
				c0,0.1,0,0.1,0,0.2c-0.2,0.5-0.6,1-0.5,1.4c-0.2,0.1-0.2,0.3-0.2,0.4c-0.1,0.2-0.3,0.4-0.3,0.6c0,0.1,0,0.1,0,0.2
				c0,0.1-0.1,0.1-0.1,0.2c0,0.1,0,0.2,0,0.3c0,0.2-0.1,0.4-0.2,0.5c-0.1,0.5-0.2,1.1-0.4,1.6c-0.1,0.1-0.2,0.3-0.2,0.4
				c-0.1,0.3-0.1,0.5-0.2,0.8c-0.1,0.2-0.2,0.5-0.3,0.7c0,0.1,0,0.2,0,0.2c-0.1,0.1-0.2,0.2-0.2,0.4c-0.1,0.3-0.1,0.6-0.3,0.8
				c0.1,0.2-0.1,0.2,0,0.4c-0.3,0.3-0.4,0.8-0.4,1.1c-0.1,0.2-0.2,0.5-0.2,0.7C157.7,106,157.7,106.4,157.6,106.8z"/>
			<g>
				<line class="st3" x1="140.7" y1="117.6" x2="130.2" y2="99.4"/>
				<path class="st0" d="M135,107c-0.3-0.5-0.6-1.1-0.9-1.5c-0.1-0.1-0.2-0.2-0.2-0.3c-0.1-0.3-0.2-0.7-0.5-0.9c0,0-0.1,0-0.1-0.1
					c-0.2-0.2-0.2-0.5-0.4-0.8c-0.1-0.2-0.1-0.4-0.3-0.5c-0.1-0.1-0.2-0.2-0.3-0.3c-0.3-0.3-0.4-0.7-0.6-1c-0.1-0.2-0.3-0.5-0.4-0.7
					c0-0.1-0.1-0.2-0.1-0.3c0,0,0-0.1,0-0.2c0-0.1-0.1-0.2-0.2-0.4c-0.1-0.2,0-0.4-0.1-0.5c-0.1-0.1-0.6-0.1-0.8,0
					c-0.2,0.1-0.5,0.4-0.5,0.6c-0.1,0.2,0.1,0.3,0,0.5c0.3,0.4,0.6,0.9,0.9,1.4c0.2,0.3,0.3,0.6,0.4,0.9c0,0.1,0.1,0.1,0.2,0.2
					c0.2,0.3,0.2,0.6,0.4,0.7c0.1,0.1,0.1,0.3,0.2,0.4c0.1,0.2,0.3,0.3,0.4,0.5c0,0.4,0.4,0.7,0.5,1c0.3,0.8,1,1.3,1.2,2.1
					c0.2,0.1,0.2,0.4,0.3,0.6c0,0.1,0.2,0.1,0.2,0.2c0.2,0.2,0.3,0.6,0.4,0.8c0,0.1,0.1,0.1,0.2,0.1c0,0.1,0,0.1,0,0.2
					c0.1,0.1,0.1,0.2,0.2,0.3c0.2,0.3,0.4,0.5,0.5,0.8c0.2,0.1,0.2,0.3,0.3,0.4c0.1,0.2,0.2,0.4,0.3,0.6c0,0,0.1,0.1,0.2,0.1
					c0.2,0.2,0.3,0.5,0.3,0.6c0.1,0.1,0.2,0.2,0.3,0.3c0,0,0,0.1,0,0.2c0.1,0.1,0.3,0.2,0.3,0.4c0.1,0.2,0.3,0.5,0.5,0.7
					c0,0.1,0.1-0.1,0.1,0c0,0.2,0,0.4,0.1,0.6c0.1,0.3,0.4,0.5,0.5,0.7c0.1,0.1,0,0.3,0.2,0.3c0,0.5,0.4,0.9,0.7,1.3
					c0.2,0,0.3,0.3,0.5,0.2c0.1,0.3,0.7,0.3,1-0.2c0-0.2,0.1-0.3,0-0.5c-0.1-0.1-0.3-0.2-0.4-0.4c0-0.1,0-0.2,0-0.3
					c-0.1-0.1-0.2-0.2-0.3-0.3c0-0.1,0-0.1,0-0.2c0,0-0.1-0.1-0.2-0.1c0-0.1,0-0.2-0.1-0.2c0,0-0.1-0.1-0.1-0.1
					c-0.2-0.3-0.2-0.8-0.6-1c0.1-0.2-0.1-0.2-0.1-0.3c-0.1-0.1-0.1-0.4-0.1-0.5c0,0-0.1,0-0.1-0.1c0-0.1,0-0.1,0-0.2
					c0-0.1-0.1-0.1-0.2-0.1c-0.1-0.1-0.2-0.2-0.2-0.4c-0.2-0.3-0.6-0.6-0.8-1c-0.1-0.1,0-0.2-0.1-0.3c-0.1-0.2-0.3-0.3-0.4-0.5
					c-0.1-0.2-0.2-0.4-0.3-0.5c0,0-0.1-0.1-0.1-0.1c-0.1-0.1,0-0.2-0.1-0.3c-0.1-0.2-0.3-0.3-0.4-0.5c-0.2,0-0.1-0.2-0.3-0.2
					c0-0.3-0.2-0.6-0.5-0.8c0-0.2-0.2-0.4-0.3-0.5C135.5,107.4,135.2,107.2,135,107z"/>
			</g>
			<path class="st0" d="M142,100c-0.4-0.9-0.9-1.8-1.2-2.5c-0.1-0.2-0.2-0.4-0.3-0.6c-0.2-0.5-0.4-1-0.7-1.5c0-0.1-0.1-0.1-0.2-0.1
				c-0.2-0.3-0.3-0.9-0.6-1.2c-0.2-0.3-0.2-0.5-0.4-0.8c-0.1-0.2-0.3-0.3-0.4-0.5c-0.3-0.5-0.6-1.1-0.8-1.6
				c-0.2-0.4-0.4-0.7-0.6-1.1c-0.1-0.2-0.2-0.3-0.2-0.5c0-0.1,0-0.2,0-0.2c0-0.2-0.2-0.4-0.3-0.6c-0.1-0.3-0.1-0.6-0.2-0.8
				c-0.1-0.2-0.7-0.3-0.9-0.2c-0.2,0.1-0.5,0.4-0.5,0.6c0,0.2,0.2,0.5,0.1,0.7c0.4,0.7,0.8,1.5,1.2,2.2c0.2,0.4,0.4,0.9,0.6,1.4
				c0.1,0.1,0.2,0.2,0.3,0.4c0.2,0.4,0.3,0.9,0.6,1.1c0.2,0.2,0.2,0.4,0.3,0.7c0.2,0.3,0.4,0.6,0.6,0.9c0,0.5,0.5,1,0.7,1.6
				c0.4,1.2,1.3,2.2,1.6,3.4c0.2,0.2,0.3,0.6,0.4,0.9c0.1,0.1,0.2,0.3,0.3,0.4c0.2,0.4,0.3,0.9,0.6,1.3c0.1,0.1,0.2,0.2,0.2,0.3
				c0,0.1,0,0.2,0.1,0.3c0.1,0.2,0.2,0.3,0.3,0.5c0.3,0.5,0.5,0.9,0.6,1.4c0.2,0.2,0.3,0.5,0.4,0.7c0.1,0.3,0.2,0.7,0.4,1
				c0,0.1,0.1,0.1,0.2,0.2c0.2,0.3,0.3,0.8,0.4,1c0.1,0.2,0.2,0.4,0.3,0.6c0,0.1,0,0.2,0,0.3c0.1,0.2,0.3,0.4,0.3,0.7
				c0.1,0.4,0.3,0.8,0.5,1.2c0,0.1,0.1,0,0.2,0.1c0,0.3,0,0.6,0.1,0.8c0.1,0.4,0.4,0.9,0.5,1.3c0.1,0.2,0,0.5,0.2,0.6
				c0,0.7,0.4,1.5,0.6,2.2c0.2,0.1,0.2,0.5,0.5,0.6c0.1,0.5,0.6,0.8,1,0.4c0.1-0.2,0.2-0.4,0.1-0.7c0-0.3-0.3-0.5-0.3-0.8
				c0-0.1,0-0.3,0-0.4c0-0.2-0.2-0.4-0.3-0.6c0-0.1,0-0.2,0-0.3c0-0.1-0.1-0.2-0.2-0.2c0-0.1,0-0.2,0-0.4c0-0.1-0.1-0.1-0.1-0.2
				c-0.2-0.6-0.2-1.3-0.6-1.8c0.1-0.2-0.1-0.4-0.1-0.6c-0.1-0.3-0.1-0.5-0.2-0.8c0-0.1-0.1-0.1-0.2-0.2c0-0.1,0-0.2-0.1-0.3
				c0-0.1-0.1-0.2-0.2-0.3c-0.1-0.2-0.2-0.4-0.3-0.6c-0.3-0.6-0.6-1.1-0.9-1.8c-0.1-0.2-0.1-0.4-0.1-0.5c-0.1-0.3-0.3-0.5-0.5-0.8
				c-0.2-0.3-0.2-0.6-0.3-0.9c0-0.1-0.1-0.1-0.2-0.2c-0.1-0.2-0.1-0.3-0.1-0.5c-0.2-0.3-0.4-0.6-0.5-0.9c-0.2-0.1-0.1-0.3-0.3-0.4
				c0-0.5-0.3-1-0.6-1.3c-0.1-0.2-0.2-0.6-0.4-0.8C142.6,100.8,142.3,100.4,142,100z"/>
			<path class="st0" d="M150.2,96.8c0,0.8,0,1.6,0,2.2c0,0.2,0.1,0.4,0,0.5c0,0.4-0.1,0.9,0,1.3c0,0.1,0.1,0.1,0.1,0.2
				c0.1,0.3-0.1,0.7,0,1.1c0.1,0.3,0,0.5,0,0.7c0,0.2,0.1,0.3,0.2,0.5c0.1,0.5,0.1,1,0.1,1.4c0,0.3,0.1,0.7,0.1,1c0,0.1,0,0.3,0,0.4
				c0,0-0.1,0.1-0.1,0.2c0,0.1,0.1,0.3,0.1,0.6c0,0.3,0,0.6,0,0.7c0.1,0.2,0.6,0.4,0.8,0.3c0.2-0.1,0.6-0.3,0.6-0.5
				c0.1-0.2,0-0.4,0.1-0.5c-0.2-0.5-0.3-1.3-0.4-1.9c0-0.4-0.1-0.8-0.1-1.2c0-0.1-0.1-0.2-0.1-0.3c0-0.4,0-0.7-0.1-1
				c-0.1-0.2,0-0.4,0-0.6c0-0.3-0.1-0.6-0.2-0.8c0.2-0.4,0-0.9,0-1.4c0.1-1-0.2-2-0.1-3.1c-0.1-0.3,0-0.6,0-0.8
				c0-0.1-0.1-0.3-0.1-0.4c-0.1-0.4,0.1-0.8,0-1.1c0-0.1-0.1-0.2-0.1-0.3c0-0.1,0.1-0.2,0.1-0.2c0-0.1,0-0.3-0.1-0.4
				c-0.1-0.5-0.1-0.8,0-1.2c-0.1-0.2-0.1-0.4,0-0.7c0-0.3,0.1-0.6,0-0.9c0-0.1-0.1-0.1-0.1-0.2c0-0.3,0-0.7,0.1-0.9
				c0-0.2-0.1-0.3-0.1-0.5c0-0.1,0.1-0.2,0.1-0.2c0-0.2-0.1-0.4-0.1-0.6c0-0.3,0-0.7,0-1.1c0-0.1-0.1,0-0.1-0.1
				c0.1-0.2,0.2-0.4,0.2-0.7c0.1-0.4-0.1-0.8,0-1.2c0-0.2,0.1-0.3,0-0.5c0.2-0.5,0.2-1.3,0.1-1.8c-0.2-0.2-0.1-0.5-0.3-0.6
				c0.1-0.4-0.4-0.7-0.9-0.5c-0.1,0.2-0.3,0.3-0.3,0.5c0,0.2,0.1,0.4,0.1,0.6c0,0.1-0.1,0.2-0.1,0.3c0,0.2,0.1,0.4,0.1,0.5
				c0,0.1-0.1,0.2-0.1,0.2c0,0.1,0.1,0.1,0.1,0.2c0,0.1-0.1,0.2-0.1,0.3c0,0.1,0.1,0.1,0,0.2c0,0.5-0.2,1-0.1,1.5
				c-0.2,0.1-0.1,0.3-0.1,0.5c0,0.2-0.1,0.4-0.1,0.6c0,0.1,0.1,0.1,0.1,0.2c0,0.1-0.1,0.2-0.1,0.2c0,0.1,0.1,0.2,0.1,0.2
				c0,0.2,0,0.4,0,0.5c0,0.5,0.1,1,0.1,1.6c0,0.2-0.1,0.3-0.1,0.4c0,0.3,0.1,0.5,0.1,0.8c0,0.2-0.1,0.5,0,0.7c0,0.1,0.1,0.1,0.1,0.2
				c0,0.1-0.1,0.3-0.1,0.4c0,0.3,0.1,0.6,0.1,0.8c0.2,0.1,0,0.2,0.1,0.4c-0.2,0.3-0.1,0.8,0.1,1.2c0,0.2,0,0.5,0,0.7
				C150,96,150.2,96.4,150.2,96.8z"/>
		</g>
	</g>
	<path class="st1" d="M149.7,127.7c0.9,0,1.8,0,2.5,0c0.2,0,0.4,0,0.6,0c0.5,0,1,0.1,1.5,0c0.1,0,0.1-0.1,0.2-0.1
		c0.4,0,0.8,0.1,1.2,0c0.3,0,0.5,0,0.8,0c0.2,0,0.4-0.1,0.6-0.1c0.6-0.1,1.1,0,1.6,0c0.4,0,0.8,0,1.2,0c0.2,0,0.3,0,0.5,0
		c0.1,0,0.1,0.1,0.2,0.1c0.2,0,0.4,0,0.6,0c0.3,0,0.6,0.1,0.7,0.1c0.2,0,0.6-0.3,0.6-0.4c0-0.1-0.2-0.4-0.3-0.5
		c-0.2-0.1-0.4,0-0.6-0.1c-0.8,0-1.6,0-2.3,0c-0.5,0-0.9,0-1.4,0c-0.1,0-0.3,0-0.4,0c-0.4,0-0.9-0.1-1.2,0c-0.2,0-0.5,0-0.7,0
		c-0.3,0-0.6,0.1-1,0.1c-0.4-0.1-1.1,0-1.6-0.1c-1.1-0.1-2.4,0.1-3.5,0c-0.3,0.1-0.6,0-0.9,0c-0.1,0-0.3,0-0.5,0.1
		c-0.4,0-0.9,0-1.3,0c-0.1,0-0.2,0.1-0.3,0.1c-0.1,0-0.2,0-0.3,0c-0.2,0-0.3,0-0.5,0c-0.5,0-1,0.1-1.4,0c-0.2,0.1-0.5,0-0.8,0
		c-0.3,0-0.7-0.1-1,0c-0.1,0-0.2,0.1-0.2,0.1c-0.3,0-0.8,0-1,0c-0.2,0-0.4,0.1-0.6,0.1c-0.1,0-0.2,0-0.3,0c-0.2,0-0.5,0.1-0.7,0.1
		c-0.4,0-0.8,0-1.2,0c-0.1,0,0,0.1-0.1,0.1c-0.2-0.1-0.5-0.1-0.8-0.1c-0.4,0-0.9,0.1-1.3,0.1c-0.2,0-0.4-0.1-0.6,0
		c-0.6-0.1-1.5-0.1-2.1,0c-0.2,0.1-0.5,0.1-0.7,0.2c-0.5,0-0.8,0.3-0.5,0.6c0.2,0.1,0.3,0.2,0.6,0.2c0.2,0,0.5-0.1,0.7-0.1
		c0.1,0,0.2,0.1,0.3,0.1c0.2,0,0.4-0.1,0.6-0.1c0.1,0,0.2,0,0.3,0c0.1,0,0.2-0.1,0.3-0.1c0.1,0,0.2,0,0.3,0c0.1,0,0.2,0,0.2,0
		c0.6,0,1.2,0.1,1.7,0c0.2,0.1,0.4,0,0.5,0c0.2,0,0.5,0.1,0.7,0.1c0.1,0,0.1-0.1,0.2-0.1c0.1,0,0.2,0,0.3,0c0.1,0,0.2,0,0.3-0.1
		c0.2,0,0.4,0,0.6,0c0.6,0,1.2-0.1,1.8-0.1c0.2,0,0.3,0.1,0.5,0.1c0.3,0,0.6-0.1,0.9-0.1c0.3,0,0.6,0,0.9,0c0.1,0,0.2,0,0.2,0
		c0.2,0,0.3,0,0.5,0c0.3,0,0.6-0.1,0.9,0c0.1-0.1,0.3,0,0.4-0.1c0.4,0.1,1,0.1,1.3,0c0.2,0,0.6,0,0.8,0
		C148.8,127.8,149.2,127.7,149.7,127.7z"/>
</g>
</svg>
